<svg xmlns="http://www.w3.org/2000/svg" xmlns:xlink="http://www.w3.org/1999/xlink" id="Layer_1" x="0px" y="0px" viewBox="0 0 1280.1 500" style="enable-background:new 0 0 1280.1 500;" xml:space="preserve"><style type="text/css">	.st0{fill:#EFEDED;}	.st1{fill:#DFECFF;}	.st2{opacity:0.51;}	.st3{fill:#48B2E5;}	.st4{fill:#414156;}	.st5{fill:#A3C2E3;}	.st6{fill:#FFFFFF;}	.st7{fill:#456997;}	.st8{fill:#254F79;}	.st9{fill:#FFA07F;}	.st10{fill:#CF4A57;}	.st11{fill:#FF7D6F;}	.st12{fill:#FDB91A;}	.st13{fill:#FFBF90;}	.st14{fill:#FC5B68;}	.st15{fill:#424242;}	.st16{fill:#161818;}	.st17{fill:#F2DEDA;}	.st18{fill:#55062C;}	.st19{fill:#3F0727;}	.st20{fill:#6F0A32;}	.st21{fill:#33633D;}	.st22{fill:#C4B7B7;}	.st23{fill:#DFE4D5;}	.st24{fill:#EFF3F3;}	.st25{fill:#FFBD50;}	.st26{fill:#448754;}	.st27{fill:#225EC9;}	.st28{fill:#001FAF;}	.st29{fill:#FFE8D6;}	.st30{fill:#EBD5C5;}	.st31{fill:#3D405B;}	.st32{fill:#27293B;}	.st33{fill:#FCA311;}	.st34{fill:#DB6E00;}	.st35{clip-path:url(#SVGID_2_);}	.st36{opacity:0.42;fill:#48B2E5;enable-background:new    ;}	.st37{opacity:0.42;}</style><title>Islamic studies slider desktop</title><rect x="0.1" class="st0" width="1280" height="500"></rect><rect x="0.1" class="st1" width="1280" height="500"></rect><g class="st2">	<path class="st3" d="M1053.3,359H687.1c-26.5-43.9-42.3-93.4-46.2-144.5c-0.2-2-0.3-4-0.4-6.1c-0.8-12.9-0.7-25.8,0.1-38.7  c0.1-2,0.3-4.1,0.4-6.1c0.1-0.7,0.1-1.4,0.2-2.1c2.2-24.3,7.3-48.9,20.6-69.3s35.9-36,60.3-35.5c24.1,0.4,45,15.6,67.1,25.3  c38.1,16.6,81.2,17.5,119.9,2.5c17-6.7,32.8-16.3,49.8-23.1s36.1-10.6,53.6-5.1c31.3,9.9,46.3,45.3,53.4,77.4  C1082.4,208.5,1078,286.5,1053.3,359z"></path></g><rect x="649.6" y="359" class="st4" width="416.3" height="8.3"></rect><rect x="925.7" y="157.1" class="st5" width="53.8" height="75.2"></rect><rect x="925.7" y="237.2" class="st5" width="53.8" height="52.4"></rect><rect x="925.7" y="98.2" class="st5" width="53.8" height="53.9"></rect><rect x="984.5" y="157.1" class="st5" width="53.8" height="75.2"></rect><rect x="984.5" y="237.2" class="st5" width="53.8" height="52.4"></rect><rect x="984.5" y="98.2" class="st5" width="53.8" height="53.9"></rect><path class="st6" d="M997.3,152.2h22.3c7.9-13.1,3.7-30.1-9.3-38c-6-3.6-13.1-4.9-20-3.4c-1.1,0.2-2.2,0.5-3.3,0.9 c11.7-0.8,21.9,8.2,22.6,19.9C1010.2,140.3,1005.3,148.5,997.3,152.2z"></path><path class="st6" d="M1015.8,157.1h-31.4v5.9C995.1,167.9,1007.7,165.5,1015.8,157.1z"></path><path class="st6" d="M979.5,157.1h-3.5c1.1,1.1,2.2,2.1,3.5,3L979.5,157.1z"></path><path class="st6" d="M968.3,140.1c0.3,4.3,1.7,8.4,3.9,12.1h7.2C974.3,149.8,970.3,145.4,968.3,140.1z"></path><path class="st6" d="M954.6,109.9l0.4-1.2l0.4,1.2c0.4,1.3,1.4,2.5,2.6,3.1l0,0c-1.2,0.7-2.2,1.8-2.6,3.1l-0.4,1.2l-0.4-1.2 c-0.4-1.3-1.3-2.5-2.6-3.1l0,0C953.3,112.3,954.2,111.2,954.6,109.9z"></path><path class="st6" d="M1007.2,185.9l0.4-1.2l0.4,1.2c0.4,1.3,1.4,2.5,2.6,3.1l0,0c-1.2,0.7-2.2,1.8-2.6,3.1l-0.4,1.2l-0.4-1.2 c-0.4-1.3-1.4-2.4-2.6-3.1l0,0C1005.9,188.3,1006.8,187.2,1007.2,185.9z"></path><path class="st6" d="M1021.4,209.8l0.3-0.8l0.3,0.8c0.3,0.9,0.9,1.6,1.7,2.1l0,0c-0.8,0.5-1.4,1.2-1.7,2.1l-0.3,0.8l-0.3-0.8 c-0.3-0.9-0.9-1.6-1.7-2.1l0,0C1020.5,211.4,1021.1,210.7,1021.4,209.8z"></path><path class="st6" d="M1027.4,110.9l0.3-0.8l0.3,0.8c0.3,0.9,0.9,1.7,1.7,2.1l0,0c-0.8,0.4-1.4,1.2-1.7,2.1l-0.3,0.8l-0.3-0.8 c-0.3-0.9-0.9-1.7-1.7-2.1l0,0C1026.5,112.6,1027.1,111.8,1027.4,110.9z"></path><path class="st6" d="M1023.4,263.1l0.3-0.8l0.3,0.8c0.3,0.9,0.9,1.6,1.7,2.1l0,0c-0.8,0.5-1.4,1.2-1.7,2.1l-0.3,0.8l-0.3-0.8 c-0.3-0.9-0.9-1.7-1.7-2.1l0,0C1022.5,264.7,1023.1,264,1023.4,263.1z"></path><ellipse transform="matrix(0.9076 -0.4198 0.4198 0.9076 10.3305 370.0287)" class="st5" cx="846" cy="161.5" rx="28.9" ry="28.9"></ellipse><ellipse transform="matrix(0.153 -0.9882 0.9882 0.153 556.4628 972.5706)" class="st1" cx="845.6" cy="161.7" rx="23.3" ry="23.3"></ellipse><path class="st5" d="M835.2,150.4c0.3,0,0.7,0.1,0.9,0.3l10.8,8.9c0.3,0.3,0.5,0.7,0.5,1.1v15.4c0,0.8-0.7,1.5-1.5,1.5 s-1.5-0.7-1.5-1.5l0,0v-14.7l-10.3-8.4c-0.6-0.5-0.7-1.5-0.2-2.1C834.3,150.6,834.7,150.4,835.2,150.4L835.2,150.4z"></path><rect x="672.6" y="99.1" class="st5" width="77.7" height="50.9"></rect><rect x="679.6" y="105.2" class="st1" width="63.7" height="38.7"></rect><path class="st5" d="M702.4,163.6v50.9h-61.5c-0.2-2-0.3-4-0.4-6.1c-0.8-12.9-0.7-25.8,0.1-38.7c0.1-2,0.3-4.1,0.4-6.1H702.4z"></path><path class="st1" d="M695.3,169.7v38.7h-54.9c-0.7-12.9-0.7-25.8,0.1-38.7H695.3z"></path><path class="st7" d="M850.6,270c0,0-6.6,34.5-5.5,38.2s19.2,23.4,22.3,23s32.7-19.5,32.7-19.5l1.8-97c0,0-15.1,3.7-16.7,6.2 s-12.2,49-12.2,49L850.6,270z"></path><polygon class="st7" points="993.7,358.5 887.2,358.5 897.7,337.8 900.3,269 901.8,214.8 921.7,208.2 926.6,206.3 955.9,201.9  985.9,217.1 "></polygon><path class="st8" d="M931.3,231.1c0,0-2,89.3-2.1,127.3h-5.5C923.8,332.6,924.5,240.8,931.3,231.1z"></path><path class="st7" d="M985.8,217.1c0,0,13.7,6.4,14.8,9.6s14.1,90.9,11.9,94.8s-30.5,20.7-34.1,20.7s-25.1-6.9-28.4-11.3 S939.3,276,939.3,276l24-8.7L985.8,217.1z"></path><path class="st9" d="M856.5,266.7l3.6,0.8h0.1l6.2,1.3l5.5,1.1l1.4-6.8l3.2-3c2-2.4,8.5-31.5,6.8-32.5c-0.5-0.3-1-0.5-1.5-0.7l0,0 l-0.5-0.2c-0.5-0.2-0.9-0.3-1.3-0.4l-0.4-0.1l0,0c-0.4-0.1-0.6-0.2-0.6-0.2c-0.5-0.6-1.1-1.1-1.7-1.6l-0.4-0.4 c-0.2-0.2-0.5-0.4-0.8-0.6l-0.3-0.2l-0.4-0.2c-0.5-0.4-1.2-0.5-1.8-0.4c-0.5,0.2-1.5,1.8-2.6,4c-2.9,5.4-7,14.2-7.3,13.6 c-0.5-0.9,3.3-22,3.3-22c-0.3-0.4-0.7-0.7-1.2-1c-0.5-0.3-1.1-0.5-1.8-0.6c-1.9-0.2-11.6,29.3-11.6,29.3c-1.9-4.6-5.4-8.4-9.8-10.8 l-0.1-0.1h-0.2c-0.2-0.1-0.4-0.1-0.6-0.2h-0.3l-0.2,0.1l0,0c-0.1,0.1-0.2,0.1-0.2,0.2l0,0c0,0,0,0,0,0.1c0,0-0.1,0.1-0.1,0.1 c-0.1,0.1-0.1,0.2-0.2,0.3c0,0,0,0.1,0,0.1l-0.1,0.2c0,0.2-0.1,0.3-0.1,0.5c-0.1,0.5-0.1,1-0.1,1.5c0,0.2,0,0.3,0,0.5l0,0 c0.1,0.3,0.1,0.6,0.2,1c0,0.2,0.1,0.3,0.2,0.5c0.1,0.2,0.2,0.4,0.3,0.6c0.1,0.2,0.2,0.4,0.3,0.6l0,0c0.2,0.4,0.4,0.8,0.7,1.1 s0.5,0.7,0.7,1.1s0.5,0.7,0.7,1.1c0.1,0.2,0.2,0.4,0.3,0.6c0.9,1.7,1.6,3.5,2,5.4c0.2,0.7,0.3,1.4,0.4,2.1c0.1,0.4,0.1,0.7,0.2,1.1 s0.1,0.7,0.2,1.1c0.5,2.1,1.7,4,3.3,5.3l0,0l0.8,0.7l0.4,0.3c0.1,0.1,0.3,0.2,0.4,0.3l0.8,0.6c0.4,0.3,0.8,0.5,1.2,0.8l0.6,0.4 c1.5,0.9,2.7,1.4,2.7,1.4l0,0C856.6,265.3,856.5,266,856.5,266.7z"></path><path class="st10" d="M877.1,224.4c-0.2,0.5-0.3,1.1-0.5,1.6c-1,2.7-2.2,5.3-3.7,7.8c-1.1,1.8-1.8,2.9-2,3c0-0.2,0.3-1.5,0.9-3.4 s1.5-5,2.6-8.1c0.3-0.8,0.5-1.5,0.8-2.2C875.9,223.5,876.5,223.9,877.1,224.4z"></path><path class="st10" d="M881.6,227c-1.1,3.1-2.5,6.2-4.2,9.1c0.3-3.3,1-6.6,2-9.8C880.2,226.5,880.9,226.7,881.6,227z"></path><path class="st11" d="M856.5,266.7l3.6,0.8l0.2-0.3c0.1-0.5,0.1-1,0.1-1.5v-0.2c0-0.3-0.1-0.6-0.2-0.9c-0.5-1-1.2-1.8-2.2-2.3 c-2.8-1.9-6-3.7-7.9-6.5c-2.3-3.3-2.6-7.7-4.3-11.4c-1.2-2.7-3.1-5.2-3.4-8.1c0-0.4,0-0.7-0.1-1.1h-0.1c-0.2-0.1-0.4-0.1-0.6-0.2 c-0.1,0-0.1,0-0.2,0c-0.1,0-0.1,0-0.2,0c-0.1,0-0.1,0.1-0.2,0.1l0,0c-0.1,0.1-0.2,0.1-0.2,0.2v0.1c0,0,0,0.1-0.1,0.1 c0,0.1-0.1,0.2-0.1,0.3v0.1c0,0.1-0.1,0.1-0.1,0.2c-0.1,0.2-0.1,0.3-0.1,0.5c-0.1,0.5-0.1,1-0.1,1.5l0,0c0,0.2,0,0.3,0.1,0.5l0,0 c0,0.3,0.1,0.7,0.2,1c0,0.2,0.1,0.3,0.2,0.5c0.1,0.2,0.2,0.4,0.3,0.6s0.2,0.4,0.3,0.6l0,0c0.2,0.4,0.4,0.8,0.6,1.1s0.5,0.7,0.7,1.1 s0.5,0.7,0.7,1.1c0.1,0.2,0.2,0.4,0.3,0.6c0.9,1.7,1.6,3.5,2,5.4c0.2,0.7,0.3,1.4,0.4,2.1c0.1,0.4,0.1,0.7,0.2,1.1l0.2,1 c0.5,2.1,1.7,4,3.3,5.3l0,0c0.3,0.2,0.5,0.5,0.8,0.7c0.1,0.1,0.3,0.2,0.4,0.3l0.4,0.3c0.1,0.1,0.5,0.4,0.8,0.6 c0.4,0.3,0.8,0.5,1.2,0.8l0.6,0.4c1.5,0.9,2.7,1.4,2.7,1.4l0,0C856.8,264.7,856.6,265.7,856.5,266.7z"></path><polygon class="st8" points="878,269.7 877.8,275.9 850.6,270 851.6,265 "></polygon><polygon class="st8" points="875.9,273 875.9,302.3 877.8,275.9 "></polygon><path class="st12" d="M930.3,113.5c0,0-17.3,7.1-21.6,12.1c-4.3,5-7.5,36-6.9,46.8c0,0-8.7,37.1-8.2,44.7c0,0,26,21.2,45.1,21.5 s52.6-18.8,52.6-18.8l-16.6-28.9c-1-1.7-4.3-16.9-4.3-18.6s6.8-30.6,5.7-34.7s-20.5-24.5-28.5-26.1S930.3,113.5,930.3,113.5z"></path><path class="st13" d="M955.4,133.1c-9.5-10.8-25.3-14.1-37.8-6.9c-2.9,1.7-5.2,3.5-6.2,5.6c-4.1,8.3-10,38.7-3.7,53.4 s16.3,12.6,19.8,11.6s20.2-8,24-13.4s12.1-33.4,10.3-40.7C961.2,140.2,958.6,136.7,955.4,133.1z"></path><path class="st9" d="M956.5,130.9c-9.5-10.9-25.4-14.1-37.8-6.9c-2.9,1.7-5.2,3.5-6.2,5.6c-4.1,8.3-10,38.7-3.7,53.4 s16.3,12.6,19.8,11.6s20.2-8,24-13.4s12.1-33.4,10.3-40.7C962.3,138,959.7,134.5,956.5,130.9z"></path><path class="st11" d="M924.7,169.1c0.7-0.2,1.5-0.3,2.3-0.1c-1.1,1.6-2.8,2.6-4.7,3c-0.3,0.1-0.7,0-0.9-0.3c-0.8-0.8-1.5-1.7-2-2.7 c-0.1-0.2-0.2-0.4-0.2-0.7c0-0.8,0.4-0.5,0.8-0.3C921.4,168.9,923.1,169.3,924.7,169.1L924.7,169.1z"></path><path class="st14" d="M922.2,171.5c-0.4-0.5-0.8-0.9-1.2-1.4c-0.5-0.6-0.9-1.2-1.2-1.9c2.7-1.2,3.2-3.7,3.6-6.5 c0.4-2.3-0.3-4.7-1.8-6.5c-0.2-0.2-0.5-0.5-0.7-0.6c0.1,0.2,0.2,0.4,0.3,0.6c0.3,0.5,0.5,1,0.7,1.5c0.6,1.6,0.8,3.4,0.5,5.1 c-0.2,1.1-0.6,2.2-1.2,3.2c-0.7,1.2-1.8,2.1-3,2.6c0,0,1.3,2.2,1.4,2.4c0.3,0.5,0.7,0.9,1.1,1.3c0.4,0.5,0.9,0.8,1.5,0.9 c0.2,0,0.4,0,0.5,0c-0.1-0.1-0.2-0.2-0.2-0.3l-0.1-0.1C922.4,171.8,922.3,171.6,922.2,171.5z"></path><path class="st14" d="M937.1,176c-6,3.2-13.1,3.8-19.5,1.4c2.9,2.2,6.5,3.4,10.2,3.3C931.6,180.5,934.3,178.5,937.1,176z"></path><path class="st11" d="M931.3,182.5c-2.5,1.5-5.6,1.7-8.3,0.5c0.9,1.3,2.4,2,4,2.1C928.7,185.1,930.3,183.8,931.3,182.5z"></path><path class="st15" d="M908.7,146.9c0,0,4.4-3.4,7.1-3.1s3.5,2.8,2.5,3.3S908.7,146.9,908.7,146.9z"></path><path class="st15" d="M947.4,151.3c0,0-6.3-5.6-10.5-6.4s-5.8,1.7-4.3,2.7S947.4,151.3,947.4,151.3z"></path><path class="st11" d="M936.2,170.7c0.2,1.3,3.1,2,6.5,1.6s6.1-1.9,5.9-3.2s-3.1-2-6.5-1.6S936.1,169.4,936.2,170.7z"></path><path class="st11" d="M902.7,163.9c-0.4,0.9,1.4,2.7,4.1,4s5.3,1.6,5.7,0.7s-1.4-2.7-4.1-4S903.1,163,902.7,163.9z"></path><path class="st16" d="M944.7,155.1c-0.6,1-2.2,1.6-3.3,1.9c-0.3-0.6-0.9-1.1-1.6-1.3c-1.7-0.3-3.5,1.7-4,4.4s0.5,5.3,2.2,5.6 s3.5-1.6,4-4.4c0.2-0.8,0.2-1.6,0.1-2.4C943.6,157.9,944.7,155.1,944.7,155.1z"></path><path class="st6" d="M938.9,161c2.1,1.2,4.8,0.7,6.3-1.2C943.1,158.6,940.4,159.1,938.9,161z"></path><path class="st16" d="M912.3,154.6c0.5,0.8,1.3,1.5,2.2,1.8c0.3-0.4,0.8-0.7,1.4-0.7c1.3,0,2.4,1.7,2.4,3.8s-1,3.8-2.3,3.8 s-2.4-1.7-2.4-3.8c0-0.6,0.1-1.2,0.3-1.8C913,156.8,912.5,155.8,912.3,154.6z"></path><path class="st6" d="M915.8,159.8c-1.7,0.6-3.6-0.1-4.5-1.7C913.1,157.5,915,158.2,915.8,159.8z"></path><path class="st6" d="M908.7,138.5c0,0,30.9-1.5,53.7,11.6l-0.4-11.8c0,0-14.4-16.6-23.1-17.1s-20.4,2.8-22,4.1s-6.6,7-6.6,7 L908.7,138.5z"></path><path class="st12" d="M906.1,139.5c0,0,11.1-16.2,26.1-13.3c15,3,34.3,28.8,34.3,28.8l2.1-14.6c0,0-16.2-22.9-21.1-22.9h-16.1 c0,0-22.6,8.3-22.6,11.3C908.7,131.8,906.1,139.5,906.1,139.5z"></path><path class="st9" d="M933.3,266.4l3.8,2.7l2.3,7l5.6-1.9l6.4-2.1h0.1l3.7-1.2c-0.3-1-0.4-1.8-0.5-2v0c0.9-0.6,1.8-1.2,2.6-1.8 l0.6-0.5l1.2-1l0.8-0.7l0.4-0.4l0.4-0.4c0.1-0.1,0.2-0.3,0.4-0.4s0.2-0.3,0.4-0.4l0,0c0.5-0.5,0.9-1.1,1.3-1.7 c0.3-0.4,0.5-0.8,0.7-1.2c0.5-1,0.8-2,0.9-3.1v-2.3c0-0.8,0.1-1.5,0.2-2.3c0.2-1.8,0.5-3.6,1.2-5.2l0,0c0.1-0.2,0.2-0.5,0.3-0.7 c0.1-0.2,0.2-0.4,0.3-0.6c0,0,0,0,0-0.1c0.4-0.8,0.8-1.6,1.2-2.5c0.2-0.4,0.4-0.8,0.5-1.3c0.1-0.1,0.1-0.2,0.1-0.4l0.1-0.4 c0.1-0.2,0.1-0.4,0.2-0.7c0.1-0.5,0.2-1,0.2-1.5v-0.6c0-0.7-0.2-1.4-0.5-2c-0.1-0.1-0.1-0.3-0.2-0.4l-0.2-0.2v-0.1l0-0.1l0,0 c0,0,0,0,0-0.1l0,0c-0.1-0.1-0.2-0.1-0.3-0.2c-0.1-0.1-0.3-0.1-0.4-0.1h-0.2c-0.1,0-0.2,0.1-0.3,0.1l-0.3,0.1c0,0-0.1,0-0.1,0H966 l-0.1,0.1c-4.3,3-7.4,7.4-8.9,12.5c0,0-13.9-29.9-15.9-29.4c-0.6,0.1-1.2,0.4-1.8,0.8c-0.4,0.3-0.8,0.7-1.1,1.2 c0,0,6.7,21.7,6.2,22.7c-0.3,0.7-5.7-8.1-9.4-13.4c-1.5-2.1-2.8-3.7-3.3-3.9c-0.7-0.1-1.4,0.1-1.8,0.6l-0.3,0.3 c-0.1,0.1-0.2,0.2-0.3,0.3c-0.3,0.3-0.6,0.6-0.9,0.9c-0.1,0.1-0.1,0.1-0.2,0.2l0,0c-0.6,0.6-1.1,1.2-1.6,1.9l-0.7,0.3 c-0.5,0.2-1.3,0.6-2.2,1l0,0c-0.5,0.3-1,0.6-1.5,0.9C920.5,234.3,930.9,264,933.3,266.4z"></path><path class="st10" d="M928.2,228.9c0.3,0.5,0.5,1.1,0.8,1.6c1.4,2.7,3,5.3,4.9,7.7c1.3,1.7,2.3,2.8,2.4,2.9 c-0.1-0.2-0.5-1.5-1.4-3.5c-0.9-2.2-2.2-5.1-3.8-8.2c-0.4-0.8-0.8-1.5-1.1-2.2C929.3,227.7,928.7,228.2,928.2,228.9z"></path><path class="st10" d="M923.7,232.1c1.5,3.2,3.4,6.2,5.5,9c-0.8-3.4-1.9-6.8-3.3-10C925.1,231.4,924.4,231.7,923.7,232.1z"></path><path class="st11" d="M951,269c-0.1,0.3-0.1,0.7-0.1,1v0.2c0.1,0.5,0.2,1,0.3,1.5c0.1,0.1,0.1,0.2,0.2,0.3l3.7-1.2 c-0.3-1-0.4-1.8-0.5-2v0c0.9-0.6,1.8-1.2,2.6-1.8l0.6-0.5c0.4-0.3,0.8-0.6,1.2-1l0.8-0.7l0.4-0.4c0.1-0.1,0.3-0.3,0.4-0.4 c0.1-0.1,0.3-0.3,0.4-0.4s0.3-0.3,0.4-0.4l0,0c0.5-0.5,0.9-1.1,1.3-1.7c0.3-0.4,0.5-0.8,0.7-1.2c0.5-1,0.8-2.1,0.9-3.2v-2.2 c0-0.8,0.1-1.5,0.2-2.3c0.1-0.9,0.2-1.8,0.4-2.7c0.2-0.9,0.4-1.7,0.8-2.6l0,0l0.3-0.7c0.1-0.2,0.2-0.4,0.3-0.6l0,0 c0.4-0.8,0.8-1.6,1.2-2.5c0.2-0.4,0.4-0.8,0.5-1.3c0.1-0.1,0.1-0.2,0.1-0.4l0.1-0.4c0.1-0.2,0.1-0.5,0.2-0.7c0.1-0.5,0.2-1,0.2-1.5 v-0.6c0-0.7-0.2-1.4-0.5-2c-0.1-0.1-0.1-0.2-0.2-0.4c0-0.1-0.1-0.2-0.1-0.3c0,0,0-0.1-0.1-0.1v-0.2l0,0c-0.1-0.1-0.2-0.1-0.3-0.2 c-0.1-0.1-0.3-0.1-0.4-0.1h-0.2c-0.1,0-0.2,0.1-0.3,0.1l-0.3,0.2H966c0,0.4,0.1,0.8,0.1,1.1c0.1,3.1-1.7,6-2.6,9 c-1.3,4.1-1,8.7-3,12.5c-1.7,3.2-4.8,5.5-7.5,7.8C952.1,267,951.4,267.9,951,269z"></path><path class="st8" d="M961.2,267.4l-26.6,10l14.3,54.7c0,0,9,7,11.3,7.9s14.5,1.5,14.5,1.5s-12.7-2.7-13.3-3.2l-10.3-8l-12.4-51.2 l19.9-5.5l12.7,28.9l10.8,4.4l-8.2-6.2l10.9-2.1l-10-2.5c0,0,5.3-50.6,5.5-53.3s11.2-16.2,11.2-16.2s-15.8,14.1-16.2,15 s-4.5,50.9-4.5,50.9L961.2,267.4z"></path><path class="st8" d="M896.8,232.9l1.1,16.6c0,0-7.3,17.2-8.4,25.2s10.1,21.5,10.1,21.5l-1.9,41.6l-10.5,20.8l15.5-19.5l2.3-44.2 c0,0-10.1-16.1-10.3-18.9s6.6-26.2,6.6-26.2L896.8,232.9z"></path><path class="st6" d="M793.8,208.6c0,0,11,3.4,12.8,4.6s30.3,90.5,29.4,94.9s-8.9,15.9-10.7,17.5s-12.1,3.4-13.9,3 s-15.2-12.1-15.2-12.1l-6.6-76.6L793.8,208.6z"></path><polygon class="st6" points="808.9,356.7 798.1,335.3 797.8,318.8 796.8,315.3 795.4,264.5 793.8,208.6 773.4,201.9 768.3,199.9  738.1,195.3 707.3,211 699.2,356.7 "></polygon><polygon class="st17" points="808.9,356.7 798.1,335.3 797.8,318.8 796.4,239 795.4,264.5 792.3,338.9 808.2,356.7 "></polygon><path class="st9" d="M745.8,199.7c0.3,0.2,6.8,3.9,13.3,7.6h12.4c-0.6-3.1-1.2-6.5-1.6-9c-0.3-1.8-0.5-3-0.6-3.3 c-0.3-2.3,0.4-12.5,0.4-12.5l-25.9-8c0,0,0.3,5.1,0.6,10.7C744.9,191.9,745.5,199.4,745.8,199.7z"></path><path class="st11" d="M744.5,185.1c7.4,4,23.8,12.9,25.3,13.1h0.2c-0.3-1.8-0.5-3-0.6-3.3c-0.3-2.3,0.4-12.5,0.4-12.5l-25.9-8 C744,174.4,744.2,179.5,744.5,185.1z"></path><path class="st9" d="M740.7,175.7c1,1.5,2.3,2.8,3.9,3.7l0,0c0.7,0.5,1.4,0.9,2.2,1.3c3.1,1.7,31.4,9.7,35.5,8.6s6.1-15.8,6.1-17.3 c0.1-9.3,0.1-38.1,0.1-38.1c-14.2-29.5-48.5-8.8-52.2-5.3S740.7,175.7,740.7,175.7z"></path><path class="st6" d="M758.4,169.7l18.6,2.1c0,0-1.3,8.9-9.8,8.4S758.4,169.7,758.4,169.7z"></path><path class="st13" d="M744.6,179.4c0.7,0.5,1.4,0.9,2.2,1.3c3.1,1.7,31.4,9.7,35.5,8.6s6.1-15.8,6.1-17.3 c-1.8,6.6-3.6,15.6-6.5,15.7C777.4,187.9,748.1,180.7,744.6,179.4z"></path><path class="st18" d="M787.2,146.1c0,0-5.8-6-8.2-3s-1.1,3.1-1.1,3.1L787.2,146.1z"></path><path class="st18" d="M748.1,145.5c0,0,8.3-11.3,12.3-7.9c2.4,2,1,3.6,1,3.6L748.1,145.5z"></path><path class="st16" d="M765.1,150.9c-1.6,1.5-3.6,2.4-5.8,2.7c-2.2,0.3-4.5-0.2-6.4-1.2c1.3,1.2,2.4,2.4,4.2,3 c1.8,0.5,3.7,0.5,5.4-0.1C764.2,154.5,764.9,152.5,765.1,150.9z"></path><path class="st16" d="M778.5,151.8c1.2,1.1,2.8,1.8,4.4,2c1.7,0.2,3.4-0.1,4.9-0.9c-0.9,1-1.9,1.7-3.2,2.2c-1.3,0.4-2.8,0.4-4.1-0.1 C779.4,154.3,778.6,153.1,778.5,151.8z"></path><path class="st11" d="M783.3,164.1c0.6,1.1,3,0.9,5.5-0.4s4-3.2,3.4-4.3s-3-0.9-5.5,0.4S782.7,163,783.3,164.1z"></path><path class="st11" d="M750.1,163c-0.2,1.8,2.9,3.6,6.9,4.1s7.5-0.5,7.7-2.3s-2.9-3.6-6.9-4.1S750.3,161.3,750.1,163z"></path><path class="st11" d="M776.1,162.6c-2.3,0.9-4.8,1.5-7.2,1.8c0.8,1.4,2.3,2.2,3.9,2.3c1.8,0,3.5-0.3,5.2-0.7 C777.2,164.9,776.5,163.8,776.1,162.6z"></path><path class="st14" d="M778.7,165.6c-3.1-4.2-4.6-9.1-5.5-14.2c0,0-0.1-0.1-0.1-0.1c0,0-0.1,0-0.1,0.1c-0.5,5.1,1.3,9.9,4.1,14.1 c-1.8,0.3-3.5,0.3-5.4,0.6c-0.3,0-0.4,0.3-0.4,0.5c0,0.2,0.2,0.4,0.4,0.4c2.2,0.4,4.4,0.3,6.5-0.4c0.4-0.1,0.6-0.4,0.6-0.8 C778.8,165.8,778.8,165.7,778.7,165.6z"></path><path class="st13" d="M744.8,176.3c-4.7,0.1-9.2-1.6-12.5-4.9c-0.5-0.5-1-1-1.4-1.6c-2-2.6-3.7-12.5,0.1-15.4c2.6-2,5,0.1,6.2,1.5 l0,0c0.3,0.3,0.6,0.7,0.8,1.1L744.8,176.3z"></path><path class="st9" d="M744.8,176.3c-4.7,0.1-9.2-1.6-12.5-4.9c-0.2-0.3-0.4-0.5-0.6-0.7c-2-2.6-3.7-12.5,0.1-15.4 c2.1-1.6,4.1-0.6,5.4,0.7l0,0c0.3,0.3,0.6,0.7,0.8,1.1L744.8,176.3z"></path><path class="st11" d="M730.7,162.5c-0.1,0.8,0.1,1.7,0.5,2.4c1.5,3.2,5.2,5.3,8.7,7.2c-1.1-1.5-1.8-3.2-1.8-5.1v-1.9 C737.7,162.6,731.3,157.6,730.7,162.5z"></path><path class="st10" d="M741.6,172.8l-0.2-0.1c-0.2-0.1-0.4-0.1-0.6-0.2c-0.6-0.3-1.2-0.7-1.8-1.2c-0.7-0.7-1.3-1.5-1.6-2.5 c-0.4-1.1-0.4-2.4-0.1-3.6c0-0.2,0.1-0.3,0.2-0.5v-0.1l0,0l-0.1-0.1l-0.1-0.2l-0.3-0.4c-0.4-0.4-0.7-0.8-1.1-1.2 c-0.4-0.4-0.8-0.7-1.2-1.1c-0.4-0.3-0.7-0.6-1.1-0.8c-0.3-0.2-0.7-0.3-1.1-0.3c-0.3,0-0.6,0.1-0.9,0.3c-0.1,0.1-0.3,0.2-0.3,0.4v0.2 c0-0.1,0-0.1,0-0.2c0-0.2,0.1-0.4,0.3-0.5c0.3-0.3,0.6-0.4,1-0.4c0.5,0,1,0,1.4,0.2c0.5,0.2,0.9,0.4,1.3,0.7c0.5,0.3,0.9,0.6,1.4,1 c0.5,0.4,0.9,0.8,1.3,1.3l0.3,0.4l0.2,0.2l0.2,0.3l0.1,0.2c0,0.1-0.1,0.1-0.1,0.2l-0.1,0.3c-0.1,0.1-0.1,0.3-0.2,0.4 c-0.3,1-0.4,2.1-0.1,3.2c0.2,0.9,0.6,1.7,1.2,2.4c0.4,0.5,0.9,1,1.4,1.4c0.2,0.1,0.4,0.3,0.5,0.3L741.6,172.8z"></path><path class="st19" d="M788.5,127.4v10.5L779,131l-8.1-5.9c0,0-21.3,10.2-28.1,11.2v0.1l-0.7,25.1c0,0-5.8-8.7-11.2-7l-5.8-4.8 l-1-0.8c0,0,0.1-4.9,0.6-10.8c0.5-5.7,1.4-12.5,3-16.8H788C788.3,123.3,788.4,125.3,788.5,127.4z"></path><path class="st19" d="M739.8,156.4c0,0,2.5,22.5,3.5,24.4s33.8,10.8,36.7,11.1s7.5-5.5,7.3-5.6s1.1-14.3,1.1-14.3s-2.7,10.5-3.7,11 s-16.5,1.1-16.5,1.1l-22.5-5.7l-3.3-22.8L739.8,156.4z"></path><path class="st18" d="M765.6,121.3h-37.9c-1.5,4.2-2.4,10.6-2.9,16.2c-0.6,6.2-0.7,11.4-0.7,11.4l1,0.8c3.5-1.2,6.6-3.1,9.2-5.7 l3.7,7.4c1.9-6.6,2.3-13.5,1.2-20.3C749,131.6,758.5,128,765.6,121.3z"></path><path class="st18" d="M788.5,127.4v2.2c-2.2-3.1-4.8-5.9-7.6-8.3h7.2C788.3,123.3,788.4,125.3,788.5,127.4z"></path><path class="st20" d="M755.4,121.3h-27.8c-1.5,4.2-2.4,10.6-2.9,16.2l0,0c3.5-0.5,5.8-3.8,7.5-6.7c0.7,2,1.4,4.1,2,6.1 c2.6-4.5,3.8-9.6,3.5-14.8C743.7,123.4,749.7,123.1,755.4,121.3z"></path><path class="st6" d="M788.5,129.6L779,131l-36.1,5.4l-18.1,2.7c0,0,0-0.4-0.1-1s-0.1-1.8-0.1-3.2v-2.6c0-0.9,0-1.9,0.1-2.9 c0-0.9,0.1-1.7,0.2-2.6c0.5-6.5,2-13.9,5.7-17.3c5.4-4.9,34-11.4,46.4-7.1c5.6,1.9,8.5,7.7,9.9,13.4c0.2,0.8,0.4,1.7,0.6,2.5 c0.2,1,0.3,2,0.5,3v0.3c0.1,0.9,0.2,1.7,0.3,2.5c0.1,1.2,0.1,2.3,0.2,3.2C788.5,128.8,788.5,129.6,788.5,129.6z"></path><path class="st17" d="M788.3,124.2c-21.3,3-42.5,6.6-63.7,10.8v-2.6c21-4.2,42.1-7.8,63.4-10.8C788.2,122.5,788.2,123.4,788.3,124.2 z"></path><path class="st17" d="M787.5,118.3c-20.9,3.7-41.9,7.4-62.8,11.2c0-0.9,0.1-1.7,0.2-2.6l62.1-11 C787.2,116.7,787.4,117.5,787.5,118.3z"></path><path class="st9" d="M818,280.8l-3.4,1.7l-0.1,0l-5.8,3l-5.1,2.6l-3.2-6.4l-4-2.1c-2.7-1.9-16.9-29.1-15.4-30.5 c0.4-0.4,0.9-0.8,1.3-1.1l0,0l0.4-0.3c0.4-0.3,0.8-0.6,1.1-0.8l0.4-0.3l0,0c0.3-0.2,0.6-0.4,0.6-0.4c0.4-0.7,0.8-1.4,1.3-2.1 l0.3-0.5c0.2-0.3,0.4-0.5,0.6-0.8l0.2-0.3l0.3-0.3c0.4-0.5,1-0.8,1.7-0.8c0.5,0.1,1.9,1.4,3.7,3.3c4.3,4.6,10.7,12.3,10.9,11.6 c0.3-1-9.2-21-9.2-21c0.2-0.5,0.5-0.9,0.9-1.3c0.5-0.4,1-0.8,1.6-1c1.9-0.7,19.4,26,19.4,26c0.7-5.1,3.1-9.8,6.8-13.3l0.1-0.1h0.1 l0.1-0.1c0.2-0.1,0.3-0.2,0.5-0.3h0.2c0.1,0,0.1,0,0.2,0h0.2c0.1,0,0.2,0.1,0.3,0.2l0,0c0,0,0,0,0,0.1c0,0,0.1,0.1,0.1,0.1 c0.1,0.1,0.2,0.2,0.2,0.3c0,0,0.1,0.1,0.1,0.1c0.1,0.1,0.1,0.1,0.1,0.2c0.1,0.1,0.2,0.3,0.3,0.4c0.2,0.5,0.4,0.9,0.5,1.4 c0,0.2,0,0.3,0.1,0.5l0,0v1c0,0.2,0,0.3,0,0.5c0,0.2,0,0.5-0.1,0.7c-0.1,0.2-0.1,0.5-0.1,0.7l0,0c-0.1,0.4-0.2,0.9-0.3,1.3 s-0.3,0.9-0.4,1.3l-0.4,1.3c-0.1,0.2-0.1,0.4-0.2,0.6c-0.5,1.9-0.7,3.9-0.5,5.9c0,0.7,0.1,1.5,0.1,2.2l0.1,1.1 c0,0.4,0.1,0.7,0.1,1.1c0.1,2.2-0.6,4.4-1.9,6.2l0,0l-0.6,0.9c-0.1,0.1-0.2,0.3-0.3,0.5c-0.1,0.1-0.2,0.3-0.3,0.4 c-0.2,0.3-0.4,0.6-0.6,0.8s-0.7,0.8-1,1.1c-0.2,0.2-0.3,0.4-0.5,0.5c-1.3,1.3-2.3,2.1-2.3,2.1l0,0 C817.4,279.5,817.7,280.2,818,280.8z"></path><path class="st10" d="M786.1,244.3c0.3,0.5,0.6,1,1,1.5c1.7,2.4,3.6,4.7,5.8,6.8c1.5,1.5,2.6,2.4,2.8,2.5c-0.1-0.1-0.7-1.4-1.8-3.2 s-2.8-4.6-4.8-7.4c-0.5-0.7-0.9-1.3-1.4-1.9C787,243.1,786.5,243.7,786.1,244.3z"></path><path class="st10" d="M782.3,248.1c1.9,2.8,4.1,5.5,6.6,7.9c-1.2-3.2-2.8-6.3-4.6-9.2C783.7,247.1,783,247.6,782.3,248.1z"></path><path class="st11" d="M818,280.8l-3.4,1.7l-0.2-0.2c-0.2-0.5-0.4-0.9-0.5-1.4v-0.2c-0.1-0.3-0.1-0.7,0-1c0.2-1.1,0.7-2.1,1.5-2.8 c2.3-2.7,4.9-5.3,6.1-8.6c1.4-4,0.5-8.3,1.2-12.5c0.5-3,1.7-6,1.2-9c-0.1-0.4-0.2-0.7-0.2-1.1h0.1c0.2-0.1,0.3-0.2,0.5-0.3h0.5 c0.1,0,0.2,0.1,0.3,0.1v0.1h0.1l0.1,0.1c0.1,0.1,0.2,0.2,0.2,0.3v0.1c0,0.1,0.1,0.1,0.1,0.2c0.1,0.1,0.2,0.3,0.3,0.4 c0.2,0.5,0.4,0.9,0.5,1.4l0,0c0,0.2,0.1,0.3,0.1,0.5l0,0c0,0.3,0,0.7,0,1c0,0.2,0,0.3,0,0.5c0,0.2,0,0.5-0.1,0.7l-0.1,0.7l0,0 l-0.3,1.3c-0.1,0.4-0.3,0.9-0.4,1.3s-0.3,0.9-0.4,1.3c-0.1,0.2-0.1,0.4-0.2,0.6c-0.5,1.9-0.7,3.9-0.5,5.9c0,0.7,0.1,1.5,0.1,2.2 l0.1,1.1l0.1,1.1c0.1,2.2-0.6,4.4-1.9,6.2l0,0c-0.2,0.3-0.4,0.6-0.6,0.9s-0.2,0.3-0.3,0.5l-0.3,0.4c-0.1,0.1-0.4,0.5-0.7,0.8 s-0.7,0.8-1,1.1l-0.5,0.5c-1.3,1.3-2.3,2.1-2.3,2.1l0,0C817.5,279.5,817.8,280.2,818,280.8z"></path><path class="st17" d="M728.7,200.1c0,0,6.3-9.3,8-10.6s21.7,5.3,21.7,5.3l5.3,9l4-7.3c1.9,0.4,3.8,1,5.7,1.7 c0.9,0.6,3.6,6.4,3.6,6.4s-7.1,9.8-12.4,10.3S728.7,200.1,728.7,200.1z"></path><polygon class="st17" points="761.7,212.9 765.1,241.7 768.9,241.7 767.7,211 "></polygon><path class="st9" d="M761.7,279.1l-4.4,1.9l-4,6.4l-5.2-3.2l-5.9-3.7l-0.1-0.1l-3.4-2.1c0.3-0.6,0.6-1.3,1-1.9v0 c-0.8-0.8-1.5-1.6-2.2-2.5l-0.5-0.6l-0.9-1.3l-0.6-0.9l-0.3-0.5l-0.3-0.5c-0.1-0.2-0.2-0.3-0.3-0.5l-0.3-0.5l0,0 c-0.3-0.6-0.6-1.3-0.9-2c-0.2-0.5-0.3-0.9-0.4-1.4c-0.3-1.1-0.3-2.2-0.1-3.4c0.1-0.4,0.2-0.8,0.2-1.1s0.2-0.8,0.2-1.1 c0.1-0.8,0.3-1.5,0.4-2.3c0.3-1.8,0.3-3.7,0.1-5.5l0,0c0-0.3-0.1-0.5-0.1-0.8c0-0.2-0.1-0.4-0.1-0.6v-0.1c-0.2-0.9-0.4-1.8-0.6-2.8 c-0.1-0.5-0.2-0.9-0.2-1.4c0-0.1,0-0.3,0-0.4V246c0-0.2,0-0.5,0-0.7c0-0.5,0.1-1,0.1-1.5c0-0.2,0.1-0.4,0.1-0.6 c0.2-0.7,0.5-1.4,0.9-1.9c0.1-0.1,0.2-0.2,0.3-0.3c0.1-0.1,0.1-0.1,0.2-0.2l0.1-0.1h0.1l0.1-0.1h0.1l0.3-0.1c0.1,0,0.3,0,0.4,0h0.2 l0.3,0.2l0.2,0.2c0,0,0.1,0,0.1,0.1l0,0l0.1,0.1c3.6,4.1,5.7,9.3,6,14.7c0,0,21-26.7,22.8-25.8c1.1,0.6,2,1.5,2.4,2.7 c0,0-11.8,20.2-11.7,21.3c0.2,0.8,7.6-6.8,12.6-11.2c2-1.8,3.6-3.1,4.2-3.1c0.7,0.1,1.3,0.4,1.7,1c0.1,0.1,0.2,0.2,0.3,0.4 c0.1,0.1,0.2,0.2,0.3,0.4c0.2,0.4,0.5,0.7,0.7,1.1c0.1,0.1,0.1,0.2,0.2,0.3l0,0c0.4,0.7,0.8,1.5,1.2,2.3l0.6,0.4 c0.5,0.4,1.2,0.9,1.9,1.6l0,0c0.5,0.4,0.9,0.8,1.3,1.3C782.2,250,764.7,277.4,761.7,279.1z"></path><path class="st10" d="M775.7,242.8c-0.4,0.5-0.8,1-1.2,1.4c-2,2.4-4.3,4.6-6.7,6.6c-1.8,1.4-3,2.2-3.1,2.3c0.1-0.1,0.9-1.4,2.2-3.2 s3.4-4.6,5.7-7.3c0.6-0.7,1.1-1.3,1.7-1.9C774.9,241.3,775.3,242,775.7,242.8z"></path><path class="st10" d="M779.4,247.1c-2.3,2.8-4.9,5.4-7.7,7.7c1.6-3.3,3.5-6.4,5.7-9.3C778,245.9,778.7,246.4,779.4,247.1z"></path><path class="st11" d="M743.3,277.5c0,0.3,0,0.7-0.1,1l-0.1,0.2c-0.2,0.5-0.4,1-0.7,1.5c-0.1,0.1-0.2,0.1-0.3,0.2l-3.4-2.1 c0.3-0.6,0.6-1.3,1-1.9v0c-0.8-0.8-1.5-1.6-2.2-2.5l-0.5-0.6l-0.9-1.3l-0.6-0.9l-0.3-0.5c-0.1-0.1-0.2-0.3-0.3-0.5s-0.2-0.3-0.3-0.5 s-0.2-0.3-0.3-0.5l0,0c-0.3-0.6-0.6-1.3-0.9-2c-0.2-0.5-0.3-0.9-0.4-1.4c-0.3-1.1-0.3-2.3-0.1-3.4c0.1-0.4,0.2-0.8,0.2-1.1 s0.2-0.8,0.2-1.1c0.1-0.8,0.3-1.5,0.4-2.3c0.1-0.9,0.2-1.9,0.2-2.8c0-0.9,0-1.8-0.1-2.8l0,0c0-0.3-0.1-0.5-0.1-0.8 c0-0.2,0-0.4-0.1-0.6v-0.1c-0.2-0.9-0.4-1.8-0.6-2.8c-0.1-0.5-0.2-0.9-0.2-1.4c0-0.1,0-0.3,0-0.4v-1.1c0-0.5,0.1-1,0.2-1.6 c0-0.2,0.1-0.4,0.1-0.6c0.2-0.7,0.5-1.4,0.9-1.9c0.1-0.1,0.2-0.2,0.3-0.3c0.1-0.1,0.1-0.2,0.2-0.2h0.1l0.1-0.1c0,0,0,0,0.1-0.1l0,0 c0.1-0.1,0.2-0.1,0.3-0.1c0.1-0.1,0.3-0.1,0.4,0h0.2c0.1,0,0.2,0.1,0.3,0.2c0.1,0.1,0.2,0.1,0.2,0.2l0.1,0.1l0,0 c-0.1,0.4-0.3,0.8-0.3,1.1c-0.8,3.1,0.2,6.4,0.4,9.6c0.3,4.4-1,9,0.1,13.3c1,3.6,3.5,6.6,5.7,9.6 C742.7,275.2,743.2,276.3,743.3,277.5z"></path><path class="st6" d="M707.3,211c0,0-14.1,6.6-15.3,9.9s-14.6,93.6-12.3,97.6s14.9,24.9,18.6,25.8s26.7-0.9,31.1-4.5 s23.8-52.4,23.8-52.4l-22-14.4L707.3,211z"></path><path class="st17" d="M733.4,273.5l24.3,16.4l-27.4,51.4c0,0-10.7,4.9-13.2,5.2s-14.9-1.9-14.9-1.9s13.3,0.4,14.1,0l12.3-5.6 l24.6-48.3l-18.6-10.3l-19.6,25.9l-11.8,1.8l9.7-4.3l-10.5-4.7l10.6-0.1c0,0,6.7-52,7.2-54.7s-7.3-18.9-7.3-18.9 s12.5,17.9,12.6,18.9s-7.6,52.1-7.6,52.1L733.4,273.5z"></path><polygon class="st17" points="797.3,289.5 799.2,295.7 824.6,282.6 822.4,277.8 "></polygon><path class="st21" d="M752.2,384.9l14.6-29.5h117l24.7,29.5l-73.2-7.5c0,0,0.1,5.2-4.9,4.6s-4.9-4.6-4.9-4.6L752.2,384.9z"></path><path class="st22" d="M904.4,370.1l-5.1-6.1c0,0-47.2-14.9-69,7.6C830.3,371.6,859.2,358.4,904.4,370.1z"></path><path class="st22" d="M908.1,378.3l-3.7-4.9c0,0-37.1-8.6-59.8-2.5s58.7,8,58.7,8L908.1,378.3z"></path><path class="st22" d="M756.1,370.1l5.1-6.1c0,0,47.2-14.9,69,7.6C830.3,371.6,801.4,358.4,756.1,370.1z"></path><path class="st22" d="M752.4,378.3l3.7-4.9c0,0,37.1-8.6,59.8-2.5s-58.7,8-58.7,8L752.4,378.3z"></path><path class="st23" d="M803.1,370.1c-20.3-0.7-41.5,4-50,6.2c0.8-2.2,1.9-4.2,3.1-6.2c0,0,49.5-14.8,74.1,1.5l-4.7,4.4l-74,6.7 c0.1-1.5,0.3-3,0.8-4.5C769.5,373.4,803.1,370.1,803.1,370.1z"></path><path class="st23" d="M758.2,366.7c0,0,48.1-17,72,4.9c0,0-14.2-23.5-72-8V366.7z"></path><path class="st23" d="M857.5,370.1c20.3-0.7,41.5,4,50,6.2c-0.8-2.2-1.8-4.2-3.1-6.2c0,0-49.5-14.8-74.2,1.5l4.6,4.4l74,6.7 c-0.1-1.5-0.3-3-0.8-4.5C891.1,373.4,857.5,370.1,857.5,370.1z"></path><path class="st23" d="M902.3,366.7c0,0-48.1-17-72,4.9c0,0,14.2-23.5,72-8V366.7z"></path><path class="st24" d="M777.5,338.6c0,0,29.9-15.2,52.8-0.1c22.9-15.1,52.8,0.1,52.8,0.1l19.3,25.1c-57.8-15.5-72,8-72,8 s-14.2-23.5-72-8L777.5,338.6z"></path><polygon class="st25" points="830.3,371.6 837.3,378.4 835.3,380.8 830.3,375.5 825.6,380 823.5,378 "></polygon><path class="st22" d="M834.9,371.6l0.7-0.3c0.2-0.1,0.5-0.3,0.8-0.4l1.2-0.5c0.9-0.4,1.9-0.8,3.2-1.1c0.6-0.2,1.3-0.4,2-0.6 s1.5-0.4,2.2-0.5c1.6-0.4,3.3-0.6,5.1-0.9s3.8-0.4,5.8-0.5c4.2-0.2,8.4-0.2,12.6,0c4.3,0.2,8.5,0.6,12.5,1.1c2,0.3,3.9,0.5,5.7,0.8 s3.5,0.6,5.1,0.8s3,0.5,4.3,0.8l3.3,0.6l2.9,0.6c0,0-1-0.3-2.9-0.7s-4.4-1-7.6-1.6s-6.9-1.3-10.9-1.8s-8.3-1-12.6-1.2 c-4.2-0.2-8.4-0.2-12.6,0c-2,0.1-4,0.3-5.8,0.6c-1.7,0.2-3.4,0.6-5.1,1c-0.8,0.2-1.5,0.4-2.2,0.6s-1.4,0.4-2,0.6 c-1.2,0.4-2.3,0.9-3.2,1.2l-1.1,0.5l-0.8,0.4L834.9,371.6z"></path><path class="st22" d="M849.6,369l1.8-0.2l1-0.1h1.1l2.7-0.1h3.2c1.1,0,2.3,0,3.6,0.1s2.5,0.1,3.8,0.1l3.9,0.3 c1.3,0.1,2.6,0.2,3.9,0.3l3.8,0.4l6.7,0.9l4.7,0.8l1.8,0.3l-1.8-0.4c-1.1-0.2-2.7-0.6-4.7-1l-3.2-0.5l-3.5-0.5l-3.8-0.4 c-1.3-0.1-2.6-0.3-3.9-0.4l-3.9-0.2c-1.3-0.1-2.6-0.1-3.8-0.1s-2.4,0-3.6,0l-3.2,0.1c-1,0.1-1.9,0.1-2.7,0.2l-1.1,0.1l-0.9,0.1 L849.6,369z"></path><path class="st22" d="M836.5,374.4l0.7-0.1c0.5-0.1,1.2-0.2,2.1-0.3s2-0.3,3.2-0.4c0.6-0.1,1.3-0.1,2-0.2s1.4-0.1,2.2-0.1 s1.6-0.1,2.4-0.1l2.6,0h5.5l2.9,0.1l1.5,0l1.5,0.1c2,0.1,4.1,0.3,6.1,0.5l3.1,0.3c1,0.1,2,0.2,3,0.4c2,0.2,4,0.5,5.9,0.8 s3.8,0.5,5.5,0.8l4.9,0.8l2.2,0.4l2,0.4l3.2,0.6l2.8,0.5l-2.8-0.6l-3.2-0.7l-2-0.4c-0.7-0.1-1.4-0.3-2.2-0.4l-4.9-0.9 c-1.7-0.3-3.6-0.6-5.5-0.9s-3.9-0.5-5.9-0.8c-1-0.1-2-0.3-3-0.4l-3.1-0.3c-2-0.2-4.1-0.3-6.1-0.4l-1.5-0.1l-1.5,0l-2.9-0.1h-2.8 c-0.9,0-1.8,0-2.7,0l-2.6,0.1c-0.8,0-1.6,0.1-2.4,0.1c-1.5,0.1-3,0.3-4.2,0.4s-2.3,0.3-3.2,0.5l-2,0.4L836.5,374.4z"></path><path class="st22" d="M847.1,375.2h2c0.7,0,1.4,0,2.3,0.1s1.9,0,3,0.1l3.6,0.2c1.3,0.1,2.6,0.2,4,0.3s2.8,0.2,4.3,0.4l4.4,0.5 c1.5,0.1,3,0.3,4.4,0.5l4.3,0.5l4,0.5l3.6,0.5l5.4,0.7l2,0.3l-2-0.4l-5.3-0.9l-3.6-0.6c-1.3-0.2-2.6-0.4-4-0.6l-4.3-0.6 c-1.5-0.2-2.9-0.4-4.4-0.5l-4.4-0.4c-1.5-0.1-2.9-0.2-4.3-0.3s-2.8-0.2-4-0.2l-3.6-0.1h-3.1c-0.9,0-1.7,0-2.3,0 C847.8,375.1,847.1,375.2,847.1,375.2z"></path><path class="st22" d="M845.1,362.4l2.3-0.5c0.7-0.2,1.6-0.4,2.6-0.6l3.5-0.6c1.3-0.3,2.7-0.3,4.1-0.5l2.3-0.2c0.8-0.1,1.6,0,2.4-0.1 l2.4-0.1c0.8,0,1.7-0.1,2.5,0l5.1,0.2c0.9,0,1.7,0.1,2.6,0.2l2.5,0.3l2.5,0.3c0.4,0,0.8,0.1,1.2,0.1l1.2,0.2l4.6,0.7 c1.5,0.2,2.8,0.4,4.1,0.7l6.1,1.2l2.3,0.4l-2.3-0.5l-6.1-1.5c-1.3-0.3-2.6-0.5-4.1-0.8l-4.6-0.8l-1.2-0.2l-1.2-0.1l-2.5-0.3 l-2.5-0.3c-0.8-0.1-1.7-0.2-2.6-0.2l-5.2-0.1c-0.8-0.1-1.7,0-2.5,0l-2.5,0.1c-0.8,0-1.6,0-2.4,0.1l-2.3,0.3 c-1.5,0.2-2.9,0.3-4.1,0.6l-3.5,0.7c-1,0.2-1.9,0.5-2.6,0.7L845.1,362.4z"></path><path class="st22" d="M825.6,371.6l-0.7-0.4l-0.8-0.4l-1.1-0.5c-0.9-0.4-1.9-0.8-3.2-1.2c-0.6-0.2-1.3-0.4-2-0.6s-1.5-0.4-2.2-0.6 c-1.6-0.4-3.3-0.7-5.1-1c-1.9-0.3-3.8-0.5-5.8-0.6c-4.2-0.2-8.4-0.2-12.6,0c-4.3,0.2-8.6,0.7-12.6,1.2s-7.7,1.2-10.8,1.8 s-5.8,1.2-7.6,1.6s-2.9,0.7-2.9,0.7l2.9-0.6l3.3-0.6l4.3-0.8c1.6-0.3,3.3-0.6,5.1-0.8c1.8-0.3,3.7-0.5,5.7-0.8 c4-0.5,8.3-0.9,12.5-1.1c4.2-0.3,8.4-0.3,12.6,0c2,0.1,3.9,0.3,5.8,0.5c1.7,0.2,3.4,0.5,5.1,0.9c0.8,0.1,1.5,0.4,2.2,0.5 s1.4,0.4,2,0.6c1.2,0.4,2.3,0.8,3.2,1.1l1.2,0.5c0.3,0.1,0.6,0.3,0.8,0.4L825.6,371.6z"></path><path class="st22" d="M810.9,369l-1.8-0.3l-1-0.2l-1.1-0.1c-0.8-0.1-1.7-0.1-2.7-0.2l-3.2-0.1h-3.6c-1.2,0-2.5,0-3.8,0.1l-3.9,0.2 c-1.3,0.1-2.6,0.2-3.9,0.4l-3.8,0.4l-3.5,0.5c-1.1,0.2-2.2,0.3-3.2,0.5c-1.9,0.4-3.6,0.7-4.7,1l-1.8,0.4l1.8-0.3 c1.1-0.2,2.8-0.4,4.7-0.8l6.7-0.9l3.8-0.4c1.3-0.1,2.6-0.3,3.9-0.3l3.9-0.3c1.3-0.1,2.6-0.1,3.8-0.1s2.4-0.1,3.6-0.1h3.2l2.7,0.1 h1.1l1,0.1L810.9,369z"></path><path class="st22" d="M824.1,374.4l-0.7-0.2c-0.5-0.1-1.2-0.3-2-0.4s-2-0.3-3.2-0.5s-2.7-0.3-4.2-0.4c-0.8,0-1.6-0.1-2.4-0.1 l-2.6-0.1c-0.9,0-1.8,0-2.7,0s-1.9,0-2.8,0l-2.9,0.1l-1.5,0l-1.5,0.1c-2,0.1-4.1,0.2-6.1,0.4l-3.1,0.3c-1,0.1-2,0.3-3,0.4 c-2,0.3-4,0.5-5.9,0.8s-3.8,0.6-5.5,0.9l-4.9,0.9c-0.8,0.1-1.5,0.3-2.2,0.4l-2,0.4l-3.2,0.7l-2.8,0.6l2.8-0.5l3.2-0.6l2-0.4l2.2-0.4 l4.9-0.8c1.7-0.3,3.6-0.5,5.5-0.8s3.9-0.5,5.9-0.8c1-0.1,2-0.3,3-0.3l3.1-0.3c2-0.2,4.1-0.3,6.1-0.5l1.5-0.1l1.5,0l2.9-0.1h5.5 l2.6,0c0.8,0,1.6,0.1,2.4,0.1s1.5,0.1,2.2,0.1l2,0.2c1.3,0.1,2.3,0.3,3.2,0.4s1.6,0.3,2.1,0.3L824.1,374.4z"></path><path class="st22" d="M813.5,375.2c0,0-0.7-0.1-2-0.1H806l-3.6,0.1c-1.3,0-2.6,0.1-4,0.2s-2.8,0.2-4.3,0.3l-4.4,0.4 c-1.5,0.1-3,0.3-4.4,0.5l-4.3,0.6c-1.4,0.2-2.7,0.4-4,0.5l-3.6,0.6l-5.3,0.9l-2,0.4l2-0.3l5.4-0.7l3.6-0.5l4-0.5l4.3-0.5 c1.5-0.2,2.9-0.3,4.4-0.5l4.4-0.5c1.5-0.2,2.9-0.2,4.3-0.4s2.7-0.2,4-0.3l3.6-0.2c1.1-0.1,2.1-0.1,3-0.1s1.7-0.1,2.3-0.1h1.5 L813.5,375.2z"></path><path class="st22" d="M815.5,362.4l-2.3-0.6c-0.7-0.2-1.6-0.5-2.6-0.7l-3.4-0.7c-1.3-0.3-2.7-0.4-4.1-0.6l-2.3-0.3 c-0.8-0.1-1.6-0.1-2.4-0.1l-2.5-0.1c-0.8,0-1.7,0-2.5,0l-5.1,0.2c-0.9,0-1.7,0.1-2.6,0.2l-2.5,0.3l-2.5,0.3l-1.2,0.1l-1.2,0.2 l-4.6,0.8c-1.5,0.3-2.8,0.5-4.1,0.8l-6.1,1.4l-2.3,0.5l2.3-0.5l6.1-1.2c1.3-0.3,2.6-0.5,4.1-0.7l4.6-0.7l1.2-0.2 c0.4,0,0.8-0.1,1.2-0.1l2.5-0.3l2.5-0.3c0.8-0.1,1.7-0.2,2.5-0.2l5.1-0.2c0.8-0.1,1.7,0,2.5,0l2.4,0.1c0.8,0,1.6,0,2.4,0.1l2.3,0.2 c1.4,0.1,2.8,0.3,4.1,0.5l3.5,0.6c1,0.2,1.9,0.5,2.6,0.6L815.5,362.4z"></path><path class="st26" d="M824,377.5l1.4-0.1l0.4,1.3c0.1,0.3,1,1.7,4.5,1.7s4.4-1.4,4.5-1.7l0.4-1.3l1.4,0.1l71.8,7.4l-1.9,3.2l-69-7.1 c-1,1.8-3.3,2.8-7.2,2.8s-6.1-1-7.2-2.8l-69,7.1l-1.9-3.2L824,377.5z"></path><path class="st23" d="M806.1,331.8c1.7,0,3.4,0,5.1,0.2c1.1,9.3,0.2,18.8-2.9,27.7c-2.3-0.5-4.7-0.8-7-1 C803.8,350,806.1,340.1,806.1,331.8z"></path><path class="st23" d="M813.1,360.9c2.2-9.3,2.5-19.1,0.9-28.5c5.8,0.8,11.4,2.9,16.3,6.2v33.1C830.3,371.6,826.1,364.7,813.1,360.9z "></path><path class="st23" d="M877.8,336.3c4.8,7.4,8.4,15.6,10.6,24.1c-4.4-0.8-8.8-1.4-13.3-1.8c-0.2-8.4-3.3-17.5-8.4-25.5 C870.4,333.9,874.1,335,877.8,336.3z"></path><polygon class="st27" points="986.8,363.5 986.8,360.6 938.9,360.6 938.9,363.5 941.5,363.5 "></polygon><polygon class="st27" points="941.5,379.5 938.9,379.5 938.9,382.4 986.8,382.4 986.8,379.5 "></polygon><rect x="986.8" y="379.5" class="st28" width="53.4" height="2.9"></rect><rect x="986.8" y="360.6" class="st28" width="53.4" height="2.9"></rect><rect x="938.9" y="363.5" class="st27" width="2.6" height="16"></rect><rect x="941.5" y="363.5" class="st29" width="43.5" height="16"></rect><rect x="985" y="363.5" class="st30" width="51.9" height="16"></rect><polygon class="st31" points="998.8,341.7 998.8,338.8 950.9,338.8 950.9,341.7 953.5,341.7 "></polygon><polygon class="st31" points="953.5,357.7 950.9,357.7 950.9,360.6 998.8,360.6 998.8,357.7 "></polygon><rect x="998.8" y="357.7" class="st32" width="53.4" height="2.9"></rect><rect x="998.8" y="338.8" class="st32" width="53.4" height="2.9"></rect><rect x="950.9" y="341.7" class="st31" width="2.6" height="16"></rect><rect x="953.5" y="341.7" class="st29" width="43.5" height="16"></rect><rect x="997" y="341.7" class="st30" width="51.9" height="16"></rect><polygon class="st33" points="992,320.1 992,317.2 944.1,317.2 944.1,320.1 946.7,320.1 "></polygon><polygon class="st33" points="946.7,336.1 944.1,336.1 944.1,339 992,339 992,336.1 "></polygon><rect x="992" y="336" class="st34" width="53.4" height="2.9"></rect><rect x="992" y="317.1" class="st34" width="53.4" height="2.9"></rect><rect x="944.1" y="320.1" class="st33" width="2.6" height="16"></rect><rect x="946.7" y="320.1" class="st29" width="43.5" height="16"></rect><rect x="990.2" y="320.1" class="st30" width="51.9" height="16"></rect><polygon class="st27" points="947,368.3 947,374.5 949.3,372.9 951.6,374.5 951.6,368.3 "></polygon><polygon class="st33" points="949.9,329 949.9,335.2 952.2,333.5 954.5,335.2 954.5,329 "></polygon><path class="st30" d="M976.8,367.9h-32.1c-0.1,0-0.2,0.2-0.2,0.3c0,0.1,0.1,0.2,0.2,0.2h32.1c0.1,0,0.2-0.2,0.2-0.3 C977,368,976.9,367.9,976.8,367.9z"></path><path class="st30" d="M981.2,328.4h-32.8c-0.1,0-0.2,0.2-0.2,0.3c0,0.1,0.1,0.2,0.2,0.2h32.8C981.5,328.9,981.6,328.4,981.2,328.4z"></path><path class="st7" d="M706.4,428.9v-30.6h8.2v30.6H706.4z"></path><path class="st7" d="M719.1,422.3c1.8,1,3.9,1.6,6,1.6c2.1,0,3.3-0.6,3.3-1.6c0-0.8-0.6-1.2-2.6-1.9l-2.4-0.9 c-3.6-1.3-4.7-3.5-4.7-6.4c0-4,2.6-7.5,9.5-7.5c2.2,0,4.3,0.4,6.4,1.1l-0.3,5.7c-1.8-0.8-3.7-1.3-5.6-1.4c-1.5,0-2.8,0.4-2.8,1.7 c0,0.8,0.7,1.3,2.6,2l2.6,1c2.9,1,4.6,2.4,4.6,6.4c0,4.7-3,7.5-9.8,7.5c-2.4,0-4.7-0.4-7-1L719.1,422.3z"></path><path class="st7" d="M739.4,428.9v-32.9h7.9v32.9L739.4,428.9z"></path><path class="st7" d="M765.2,428.9c-0.1-1-0.3-2.1-0.3-3.1c-2.3,2.5-4.1,3.7-6.9,3.7c-4,0-6.9-2.9-6.9-7.3c0-5.1,3.8-7.8,11.7-7.8h2 v-0.7c0-1.4-1.2-3.1-4.3-3.1c-2.3,0.1-4.6,0.8-6.6,2.1l-0.3-5.6c2.7-1,5.6-1.5,8.6-1.5c8,0,9.6,3.8,9.6,8.5v9.9c0,1.7,0.1,3.3,0.3,5 L765.2,428.9z M765,417.9h-0.9c-3.5,0-5.8,1.1-5.8,3.8c-0.2,1.3,0.7,2.6,2.1,2.8c0.2,0,0.4,0,0.6,0c3.6,0,4-3.7,4-5.8L765,417.9z"></path><path class="st7" d="M802.1,428.9v-13.7c0-2.2-0.7-3.3-2.2-3.3c-2.3,0-2.8,2.1-2.8,3.8v13.2h-7.8v-13.7c0-2.2-0.7-3.3-2.2-3.3 c-2,0-2.8,2.1-2.8,4.4v12.5h-7.9V411c0-1.6-0.1-3.3-0.3-4.9h7.4c0.1,0.9,0.2,2.6,0.2,3.8h0.1c0.9-2.7,3.6-4.5,6.5-4.3 c2.7-0.2,5.2,1.3,6.2,3.8c1.4-2.5,4-3.9,6.9-3.8c3.7,0,6.7,2.1,6.7,7V429L802.1,428.9z"></path><path class="st7" d="M814.8,402.6v-6.6h7.9v6.6H814.8z M814.8,428.9v-22.8h7.9v22.8H814.8z"></path><path class="st7" d="M844.5,428.3c-2,0.7-4.2,1.1-6.3,1.2c-8.3,0-11.3-5.7-11.3-11.9s3-12,11.3-12c2.1,0,4.2,0.3,6.1,1.1l-0.4,5.7 c-1.2-0.6-2.5-0.9-3.9-1c-2.9,0-5.2,1.8-5.2,6.1c0,3.4,1.2,6,5,6c1.5,0,3-0.4,4.4-1L844.5,428.3z"></path><path class="st7" d="M857.7,421.6c2.1,1.1,4.5,1.8,6.9,1.8c3.1,0,4.2-1.4,4.2-3.3s-1.3-2.6-3.7-3.5l-1.8-0.7c-5-2-6.6-4.7-6.6-9 c0-5.8,4.7-9.1,11.1-9.1c2.6-0.1,5.3,0.3,7.7,1.2l-0.4,6c-2-1-4.1-1.5-6.3-1.5c-2.4,0-3.9,1-3.9,2.9c0,1.6,0.8,2.3,3.5,3.5l3.7,1.7 c2.8,1.3,5.2,3.2,5.2,7.7c0,6.7-4.8,10.1-12,10.1c-2.8,0-5.5-0.4-8.2-1.2L857.7,421.6z"></path><path class="st7" d="M896.3,428.9c-1.7,0.4-3.5,0.5-5.2,0.5c-4.3,0-7.3-2.5-7.3-6.7v-11.3h-3.9v-5.3h3.9v-4.8l7.9-2.5v7.3h4.5v5.3 h-4.4v9.8c-0.2,1.3,0.8,2.6,2.1,2.7h0.4c0.6,0,1.3-0.1,1.8-0.4L896.3,428.9z"></path><path class="st7" d="M912.9,428.9c-0.1-1.3-0.2-2.5-0.2-3.8h-0.1c-0.9,2.7-3.6,4.5-6.5,4.3c-3.9,0-6.9-2.3-6.9-7.4v-16h7.9v13.7 c0,2.2,0.7,3.3,2.2,3.3c2.3,0,2.8-2.1,2.8-3.8v-13.2h7.9v19.1c0,1.3,0.1,2.5,0.3,3.8L912.9,428.9z"></path><path class="st7" d="M938.6,428.9c-0.1-1.2-0.2-2.5-0.2-3.7h-0.1c-1.7,3.1-3.7,4-6.1,4c-6,0-8.5-5.4-8.5-12.3 c0-5.4,2.5-11.4,8.2-11.4c3,0,4.7,1.2,6.3,3.9h0.1c-0.1-1.4-0.2-2.7-0.2-4.1V396h7.9v28.9c0,1.4,0.1,2.7,0.2,4L938.6,428.9z  M938.1,417.3c0-3.8-1.1-6.4-3.1-6.4c-2.3,0-3.1,2.6-3.1,6.4s0.8,6.4,3.1,6.4C937,423.7,938.1,421.1,938.1,417.3z"></path><path class="st7" d="M950.7,402.6v-6.6h7.9v6.6H950.7z M950.7,428.9v-22.8h7.9v22.8H950.7z"></path><path class="st7" d="M982.6,428.1c-2.6,0.8-5.3,1.3-8,1.3c-9.3,0.1-11.9-6.2-11.9-12.1c0-6.2,3.7-11.8,10.6-11.8 c7.1,0,10.5,5.7,10.5,11.9v2.2h-13.7c0.2,3.7,2.8,4.8,5.7,4.8c2.3-0.2,4.6-0.8,6.6-1.8L982.6,428.1z M976.6,414.9 c0-3.1-0.8-4.5-3.2-4.5s-3.5,2-3.5,5.2h6.8V414.9z"></path><path class="st7" d="M987.2,422.3c1.8,1,3.9,1.6,6,1.6c2.1,0,3.3-0.6,3.3-1.6c0-0.8-0.6-1.2-2.6-1.9l-2.4-0.9 c-3.6-1.3-4.7-3.5-4.7-6.4c0-4,2.6-7.5,9.5-7.5c2.2,0,4.3,0.4,6.4,1.1l-0.3,5.7c-1.8-0.8-3.7-1.3-5.6-1.4c-1.5,0-2.8,0.4-2.8,1.7 c0,0.8,0.7,1.3,2.6,2l2.6,1c2.9,1,4.6,2.4,4.6,6.4c0,4.7-3,7.5-9.8,7.5c-2.4,0-4.7-0.4-7-1L987.2,422.3z"></path><g>	<defs>		<rect id="SVGID_1_" y="0.2" width="1280.1" height="499.7"></rect>	</defs>	<clipPath id="SVGID_2_">		<use xlink:href="#SVGID_1_" style="overflow:visible;"></use>	</clipPath>	<g class="st35">					<ellipse transform="matrix(0.1222 -0.9925 0.9925 0.1222 851.2166 1458.8103)" class="st36" cx="1250.3" cy="248.2" rx="36.2" ry="36.2"></ellipse>		<circle class="st36" cx="546.8" cy="-0.1" r="63.3"></circle>					<ellipse transform="matrix(0.1277 -0.9918 0.9918 0.1277 -481.1985 408.4824)" class="st36" cx="-8.4" cy="477.8" rx="45.3" ry="45.3"></ellipse>		<circle class="st36" cx="518.2" cy="511.6" r="45.2"></circle>		<g class="st37">			<path class="st3" d="M292.1,88.9H157.6c-8.1,0-14.7-6.6-14.7-14.7l0,0c0-8.1,6.6-14.7,14.7-14.7h134.5c8.1,0,14.7,6.6,14.7,14.7    l0,0C306.8,82.3,300.2,88.9,292.1,88.9z"></path>		</g>		<g class="st37">			<path class="st3" d="M1312.9,430.7h-134.5c-8.1,0-14.7-6.6-14.7-14.7l0,0c0-8.1,6.6-14.7,14.7-14.7h134.5    c8.1,0,14.7,6.6,14.7,14.7l0,0C1327.6,424.1,1321,430.7,1312.9,430.7z"></path>		</g>		<path class="st36" d="M162.3,412.3h138.5c10.7,0,19.5,8.7,19.5,19.5v3.8c0,10.7-8.7,19.5-19.5,19.5H162.3   c-10.7,0-19.5-8.7-19.5-19.5v-3.8C142.8,421,151.5,412.3,162.3,412.3z"></path>	</g></g></svg>