<svg xmlns="http://www.w3.org/2000/svg" xmlns:xlink="http://www.w3.org/1999/xlink" id="Layer_1" x="0px" y="0px" viewBox="0 0 1280.1 500" style="enable-background:new 0 0 1280.1 500;" xml:space="preserve"><style type="text/css">	.st0{fill:#EFEDED;}	.st1{fill:#DFECFF;}	.st2{clip-path:url(#SVGID_2_);}	.st3{opacity:0.42;fill:#48B2E5;enable-background:new    ;}	.st4{opacity:0.42;}	.st5{fill:#48B2E5;}	.st6{opacity:0.51;}	.st7{fill:#414156;}	.st8{fill:#A3C2E3;}	.st9{fill:#456997;}	.st10{fill:#C5C8D8;}	.st11{fill:#FFFFFF;}	.st12{fill:#E5E5E5;}	.st13{fill:#D5D7E3;}	.st14{opacity:0.47;fill:#021F60;enable-background:new    ;}	.st15{fill:#FFFFFD;}	.st16{fill:none;stroke:#FFFFFD;stroke-width:2;stroke-linecap:round;stroke-linejoin:round;}	.st17{fill:none;stroke:#D84F4C;stroke-width:2;stroke-linecap:round;stroke-linejoin:round;}	.st18{fill:#D84F4C;}	.st19{fill:#FFB98D;}	.st20{fill:#FF8840;}	.st21{fill:#10104A;}	.st22{fill:#FDB91A;}	.st23{fill:#EA9F07;}	.st24{fill:#4791CE;}	.st25{fill:#307EBA;}	.st26{fill:#CCDDF0;}	.st27{fill:none;stroke:#0968A5;stroke-linecap:round;stroke-linejoin:round;}	.st28{fill:none;stroke:#FF8840;stroke-linecap:round;stroke-linejoin:round;}	.st29{opacity:0.59;}	.st30{fill:#EAEAEF;}	.st31{fill:#CAD4F3;}	.st32{fill:#E8DCD0;}	.st33{fill:#D5BEA7;}	.st34{fill:#90806B;}	.st35{fill:#00627A;}	.st36{fill:#EC3F2F;}	.st37{fill:#C8C6B2;}	.st38{fill:#004C5B;}	.st39{fill:#CC3929;}	.st40{fill:#CDB296;}	.st41{fill:#94806B;}	.st42{fill:#F6F2ED;}	.st43{fill:#FFFBFA;}	.st44{fill:#F7F3EF;}	.st45{fill:#CCAF94;}	.st46{fill:#D2B9A1;}	.st47{fill:#FF8202;}	.st48{fill:#FFB44F;}	.st49{clip-path:url(#SVGID_4_);}	.st50{fill:#50EDA8;}	.st51{fill:#54E4AC;}	.st52{clip-path:url(#SVGID_6_);}	.st53{fill:#FFCC90;}	.st54{opacity:0.76;}	.st55{fill:#FFFFF9;}	.st56{fill:#2F3E41;}	.st57{fill:#17616A;}</style><title>Quran slider desktop</title><g id="Layer_1-2">	<rect x="0.1" class="st0" width="1280" height="500"></rect>	<rect x="0.1" class="st1" width="1280" height="500"></rect>	<g>		<defs>			<rect id="SVGID_1_" y="0.2" width="1280.1" height="499.7"></rect>		</defs>		<clipPath id="SVGID_2_">			<use xlink:href="#SVGID_1_" style="overflow:visible;"></use>		</clipPath>		<g class="st2">							<ellipse transform="matrix(0.1222 -0.9925 0.9925 0.1222 851.2166 1458.8103)" class="st3" cx="1250.3" cy="248.2" rx="36.2" ry="36.2"></ellipse>			<circle class="st3" cx="546.8" cy="-0.1" r="63.3"></circle>							<ellipse transform="matrix(0.1277 -0.9918 0.9918 0.1277 -481.1985 408.4824)" class="st3" cx="-8.4" cy="477.8" rx="45.3" ry="45.3"></ellipse>			<circle class="st3" cx="518.2" cy="511.6" r="45.2"></circle>			<g class="st4">				<path class="st5" d="M292.1,88.9H157.6c-8.1,0-14.7-6.6-14.7-14.7l0,0c0-8.1,6.6-14.7,14.7-14.7h134.5c8.1,0,14.7,6.6,14.7,14.7     l0,0C306.8,82.3,300.2,88.9,292.1,88.9z"></path>			</g>			<g class="st4">				<path class="st5" d="M1312.9,430.7h-134.5c-8.1,0-14.7-6.6-14.7-14.7l0,0c0-8.1,6.6-14.7,14.7-14.7h134.5     c8.1,0,14.7,6.6,14.7,14.7l0,0C1327.6,424.1,1321,430.7,1312.9,430.7z"></path>			</g>			<path class="st3" d="M162.3,412.3h138.5c10.7,0,19.5,8.7,19.5,19.5v3.8c0,10.7-8.7,19.5-19.5,19.5H162.3    c-10.7,0-19.5-8.7-19.5-19.5v-3.8C142.8,421,151.5,412.3,162.3,412.3z"></path>		</g>	</g>	<g class="st6">		<path class="st5" d="M1087.4,367.2H721.2c-26.5-43.9-42.3-93.4-46.2-144.5c-0.2-2-0.3-4-0.4-6.1c-0.8-12.9-0.7-25.8,0.1-38.7   c0.1-2,0.3-4.1,0.4-6.1l0.2-2.1c2.2-24.3,7.3-48.9,20.6-69.3s35.9-36,60.3-35.5c24.1,0.4,45,15.6,67.1,25.3   c38.1,16.6,81.2,17.5,119.9,2.5c17-6.7,32.7-16.3,49.7-23.1s36-10.6,53.5-5.1c31.3,9.9,46.3,45.3,53.4,77.4   C1116.5,216.7,1112.1,294.7,1087.4,367.2z"></path>	</g>	<rect x="683.8" y="367.2" class="st7" width="416.3" height="8.3"></rect>			<ellipse transform="matrix(0.9076 -0.4198 0.4198 0.9076 22.0945 380.848)" class="st8" cx="876.4" cy="140.2" rx="28.9" ry="28.9"></ellipse>			<ellipse transform="matrix(0.1499 -0.9887 0.9887 0.1499 606.1629 981.4318)" class="st1" cx="873.8" cy="138.2" rx="23.3" ry="23.3"></ellipse>	<path class="st8" d="M865.6,129.1c0.3,0,0.7,0.1,0.9,0.3l10.8,8.9c0.3,0.3,0.5,0.7,0.5,1.1v15.4c0,0.8-0.7,1.5-1.5,1.5  s-1.5-0.7-1.5-1.5v-14.7l-10.3-8.4c-0.6-0.5-0.7-1.5-0.2-2.1C864.7,129.3,865.1,129.1,865.6,129.1L865.6,129.1z"></path>	<rect x="706.7" y="107.4" class="st8" width="77.7" height="50.9"></rect>	<rect x="713.8" y="113.4" class="st1" width="63.7" height="38.7"></rect>	<path class="st8" d="M736.5,171.8v50.9h-61.5c-0.2-2-0.3-4-0.4-6.1c-0.8-12.9-0.7-25.8,0.1-38.7c0.1-2,0.3-4.1,0.4-6.1H736.5z"></path>	<path class="st1" d="M729.5,177.9v38.7h-54.9c-0.7-12.9-0.7-25.8,0.1-38.7H729.5z"></path>	<path class="st9" d="M734.9,426.8l-3.9-5.6h-0.3c-6.7,0-13.6-4.5-13.6-15.8s6.9-15.8,13.6-15.8s13.6,4.5,13.6,15.8  c0,7.3-2.9,11.8-6.7,14l6.4,7.4L734.9,426.8z M730.7,415.3c3.5,0,5.1-3.9,5.1-9.9s-1.7-10-5.1-10s-5.2,4-5.2,10  S727.2,415.3,730.7,415.3L730.7,415.3z"></path>	<path class="st9" d="M761.9,420.7c-0.1-1.3-0.2-2.5-0.2-3.8h-0.1c-0.9,2.7-3.6,4.5-6.4,4.3c-3.9,0-6.9-2.3-6.9-7.4v-16h7.9v13.7  c0,2.2,0.7,3.3,2.2,3.3c2.3,0,2.8-2.1,2.8-3.8v-13.2h7.8v19.1c0,1.3,0.1,2.5,0.3,3.8H761.9z"></path>	<path class="st9" d="M773.5,420.7v-16.2c0-2.2,0-4.4-0.3-6.6h7.4c0.1,0.9,0.2,2.6,0.2,3.8h0.1c0.7-2.6,3.1-4.4,5.8-4.3  c0.4,0,0.9,0,1.3,0.1v6.9c-0.8-0.2-1.6-0.3-2.3-0.3c-2.5,0-4.3,2.2-4.3,5.3v11.4L773.5,420.7z"></path>	<path class="st9" d="M804.5,420.7c-0.1-1-0.3-2.1-0.3-3.1c-2.3,2.5-4.1,3.7-6.9,3.7c-4,0-6.9-2.9-6.9-7.3c0-5.1,3.8-7.8,11.7-7.8h2  v-0.7c0-1.4-1.2-3.1-4.3-3.1c-2.3,0.1-4.6,0.8-6.6,2.1l-0.3-5.6c2.7-1,5.6-1.5,8.6-1.5c8,0,9.6,3.8,9.6,8.5v9.9  c0,1.7,0.1,3.3,0.3,5L804.5,420.7z M804.3,409.7h-0.9c-3.5,0-5.8,1.1-5.8,3.8c-0.2,1.3,0.7,2.6,2.1,2.8c0,0,0,0,0,0l0,0  c0.2,0,0.4,0,0.6,0c3.6,0,4-3.7,4-5.8L804.3,409.7z"></path>	<path class="st9" d="M828.9,420.7c-0.1-1-0.3-2.1-0.3-3.1c-2.3,2.5-4.1,3.7-6.8,3.7c-4,0-6.9-2.9-6.9-7.3c0-5.1,3.8-7.8,11.7-7.8h2  v-0.7c0-1.4-1.2-3.1-4.3-3.1c-2.3,0.1-4.6,0.8-6.6,2.1l-0.3-5.6c2.7-1,5.6-1.5,8.6-1.5c8,0,9.6,3.8,9.6,8.5v9.9  c0,1.7,0.1,3.3,0.3,5L828.9,420.7z M828.7,409.7h-0.9c-3.5,0-5.8,1.1-5.8,3.8c-0.2,1.3,0.7,2.6,2.1,2.8c0,0,0,0,0,0l0,0  c0.2,0,0.4,0,0.6,0c3.6,0,4-3.7,4-5.8L828.7,409.7z"></path>	<path class="st9" d="M853,420.7V407c0-2.2-0.7-3.3-2.2-3.3c-2,0-2.8,2.1-2.8,4.4v12.5h-7.9v-18.2c0-1.6-0.1-3.1-0.2-4.6h7.4  c0.1,0.9,0.2,2.6,0.2,3.8h0.1c0.9-2.7,3.6-4.5,6.4-4.3c3.9,0,6.9,2.3,6.9,7.4v16L853,420.7z"></path>	<path class="st9" d="M885.1,420.7l-1.7-2c-1.3,1.3-4,2.5-7.6,2.5c-6.3,0-10.8-3.5-10.8-9.5c-0.1-2.9,1.3-5.7,3.8-7.2l1.5-1  l-0.5-0.5c-1.1-1.4-2.8-3.6-2.8-6.1c0-3.4,2.3-7.3,9.9-7.3c6.4,0,9.2,2.9,9.2,7.2c0,2.7-1.5,4.7-4.5,7.2l-0.8,0.7l3.6,4.3  c0.7-1.2,1.2-2.6,1.2-4.1v-1h7v0.7c-0.1,3.6-1.6,7.1-4.1,9.8l5,6.4L885.1,420.7z M874.5,408l-0.4,0.3c-0.9,0.8-1.4,2-1.5,3.2  c0,2.8,1.3,4.4,3.8,4.4c1.1,0,2.2-0.3,3-1l0.4-0.4L874.5,408z M876.8,400.5c1.2-1,2.6-2.4,2.6-4.1c0.1-1.3-1-2.5-2.3-2.5  c-1.5,0-2.9,0.9-3.4,2.3c0,0.2,0,0.4,0,0.5c0.1,1.2,0.6,2.2,1.5,3l1.2,1.2L876.8,400.5z"></path>	<path class="st9" d="M901.9,420.7v-24.4h-6.6v-6.2h21.4v6.2h-6.6v24.4H901.9z"></path>	<path class="st9" d="M932.8,420.7c-0.1-1-0.3-2.1-0.3-3.1c-2.3,2.5-4.1,3.7-6.8,3.7c-4,0-6.9-2.9-6.9-7.3c0-5.1,3.8-7.8,11.7-7.8h2  v-0.7c0-1.4-1.2-3.1-4.3-3.1c-2.3,0.1-4.6,0.8-6.6,2.1l-0.3-5.6c2.7-1,5.6-1.5,8.6-1.5c8,0,9.6,3.8,9.6,8.5v9.9  c0,1.7,0.1,3.3,0.3,5L932.8,420.7z M932.5,409.7h-0.9c-3.5,0-5.8,1.1-5.8,3.8c-0.2,1.3,0.7,2.6,2.1,2.8c0,0,0,0,0,0l0,0  c0.2,0,0.4,0,0.6,0c3.6,0,4-3.7,4-5.8L932.5,409.7z"></path>	<path class="st9" d="M940.7,424.6c0.3,0.2,0.7,0.3,1.1,0.3c1.4,0,2.5-0.8,2.5-3.6v-23.5h7.9v23.4c0,5.6-1.5,9.2-7.8,9.2  c-1.3,0-2.7-0.2-3.9-0.6L940.7,424.6z M944.3,394.4v-6.6h7.9v6.6H944.3z"></path>	<path class="st9" d="M976.3,420.7l-3.2-16.3h-0.1l-3.3,16.3h-8.8l-6.1-22.8h8.1l2.8,15.8h0.1l2.9-15.8h9l2.7,15.8h0.1l2.8-15.8h7.5  l-6.1,22.8H976.3z"></path>	<path class="st9" d="M1012.7,419.9c-2.6,0.9-5.3,1.3-8,1.3c-9.3,0.1-11.9-6.2-11.9-12.1c0-6.2,3.7-11.8,10.6-11.8  c7.1,0,10.5,5.7,10.5,11.9v2.2h-13.8c0.2,3.7,2.8,4.8,5.7,4.8c2.3-0.2,4.6-0.8,6.6-1.8L1012.7,419.9z M1006.7,406.7  c0-3.1-0.9-4.5-3.2-4.5s-3.5,2-3.5,5.2h6.7L1006.7,406.7z"></path>	<path class="st9" d="M1037.1,419.9c-2.6,0.9-5.3,1.3-8,1.3c-9.3,0.1-11.9-6.2-11.9-12.1c0-6.2,3.7-11.8,10.6-11.8  c7.1,0,10.5,5.7,10.5,11.9v2.2h-13.8c0.2,3.7,2.8,4.8,5.7,4.8c2.3-0.2,4.6-0.8,6.6-1.8L1037.1,419.9z M1031.1,406.7  c0-3.1-0.8-4.5-3.2-4.5s-3.6,2-3.6,5.2h6.8V406.7z"></path>	<path class="st9" d="M1056.3,420.7c-0.1-1.2-0.2-2.5-0.2-3.7l0,0c-1.7,3.1-3.7,4-6.1,4c-6,0-8.5-5.4-8.5-12.3  c0-5.3,2.5-11.4,8.2-11.4c3,0,4.7,1.2,6.3,3.9h0.1c-0.1-1.4-0.2-2.7-0.2-4.1v-9.3h7.9v28.8c0,1.4,0.1,2.7,0.2,4L1056.3,420.7z   M1055.8,409.1c0-3.8-1.1-6.4-3.1-6.4c-2.3,0-3.1,2.6-3.1,6.4s0.7,6.4,3.1,6.4C1054.7,415.5,1055.8,412.9,1055.8,409.1z"></path>	<path class="st10" d="M928.9,82h163.9c5.1,0,9.2,4.1,9.2,9.1v105.1c0,5.1-4.1,9.1-9.2,9.1H928.9c-5.1,0-9.2-4.1-9.2-9.1V91.1  C919.7,86.1,923.8,82,928.9,82z"></path>	<path class="st11" d="M915.2,90.6v106.2c0,4.7,3.8,8.6,8.6,8.6c0,0,0,0,0,0h165c4.7,0,8.6-3.8,8.6-8.6c0,0,0,0,0,0l0,0l0,0V90.6  c0-4.8-3.9-8.6-8.6-8.6h-165c-4.1,0-7.7,2.9-8.5,7C915.2,89.5,915.2,90.1,915.2,90.6z"></path>	<path class="st10" d="M928.2,87.9h156.1c3.8,0,6.9,3.1,6.9,6.9v97.8c0,3.8-3.1,6.9-6.9,6.9H928.2c-3.8,0-6.9-3.1-6.9-6.9V94.8  C921.3,91,924.4,87.9,928.2,87.9z"></path>	<path class="st12" d="M931.7,90.7h152.6c3.8,0,6.9,3.1,6.9,6.9v95c0,3.8-3.1,6.9-6.9,6.9H931.7c-3.8,0-6.9-3.1-6.9-6.9v-95  C924.8,93.8,927.9,90.7,931.7,90.7z"></path>	<path class="st13" d="M924.8,97.2v1.1h166.4v-1.1c0-3.6-2.9-6.5-6.5-6.5l0,0H931.3C927.8,90.7,924.8,93.6,924.8,97.2L924.8,97.2z"></path>	<path class="st11" d="M1082.2,94.5c0,1,0.8,1.8,1.8,1.8c1,0,1.8-0.8,1.8-1.8c0-1-0.8-1.8-1.8-1.8l0,0  C1083,92.7,1082.2,93.5,1082.2,94.5C1082.2,94.5,1082.2,94.5,1082.2,94.5L1082.2,94.5L1082.2,94.5z"></path>	<path class="st11" d="M1075.8,94.5c0,1,0.8,1.8,1.8,1.8c1,0,1.8-0.8,1.8-1.8c0-1-0.8-1.8-1.8-1.8l0,0  C1076.7,92.7,1075.9,93.5,1075.8,94.5C1075.9,94.5,1075.9,94.5,1075.8,94.5L1075.8,94.5L1075.8,94.5z"></path>	<path class="st11" d="M1069.6,94.5c0,1,0.8,1.8,1.8,1.8c1,0,1.8-0.8,1.8-1.8c0-1-0.8-1.8-1.8-1.8l0,0  C1070.4,92.7,1069.6,93.5,1069.6,94.5C1069.6,94.5,1069.6,94.5,1069.6,94.5z"></path>	<path class="st14" d="M924.6,188.5h166.6v4.3c0,3.8-3.1,6.9-6.9,6.9l0,0H931.5c-3.8,0-6.9-3.1-6.9-6.9l0,0L924.6,188.5L924.6,188.5  z"></path>	<path class="st15" d="M933.5,194.5l-3.3,2.4c-0.2,0.2-0.6,0-0.6-0.4v-4.9c0-0.3,0.3-0.5,0.6-0.4l3.3,2.4  C933.7,193.9,933.7,194.2,933.5,194.5L933.5,194.5z"></path>	<line class="st16" x1="937.7" y1="194.1" x2="1086.1" y2="194.1"></line>	<line class="st17" x1="936.4" y1="194.1" x2="945.1" y2="194.1"></line>	<path class="st18" d="M948.3,194.1c-0.3,1.7-1.9,2.9-3.6,2.7c-1.7-0.3-2.9-1.9-2.7-3.6c0.2-1.6,1.6-2.7,3.2-2.7  C947,190.6,948.4,192.2,948.3,194.1z"></path>	<path class="st15" d="M946.7,194.1c-0.1,0.9-0.9,1.4-1.8,1.3c-0.9-0.1-1.4-0.9-1.3-1.8c0.1-0.8,0.8-1.3,1.6-1.3  C946,192.4,946.7,193.2,946.7,194.1z"></path>	<path class="st19" d="M898.1,262.1c0.1-3.3,0.2-6.5,0.3-9.8c0.1-2.4,0.3-4.6,0.2-7c-0.1-2.9-0.1-5.9,0.1-8.8c0-0.7,0.1-1.4,0.3-2  c0.6-1.8,2.4-2.7,3.4-4.2c1-1.5,2.3-2.7,3.8-3.7c1.8-1.4,3.5-2.9,5.1-4.5c0.4-0.4,1-0.9,1.5-0.5c0.1,0.1,0.2,0.2,0.3,0.4  c0.5,1.1-0.2,2.4-0.9,3.4c-1.6,2.3-3,4.7-4.4,7.2c-0.3,0.8,3.7-3.3,4.3-4.2s2.9-1.6,3.6-3.8s0.2-8.4,3.6-9.6c0.5-1.3,1.9-2.2,3.3-2  v1.4c0,0,1.7,0.5,1.6,1.1s-0.9,12-1.3,13.3s-2.8,8.4-4.2,10.4s-7.5,6.7-7.8,8.8s0,17.8,0,17.8S899.9,268.9,898.1,262.1z"></path>	<path class="st20" d="M915.7,231.9c-0.1,0-0.2-0.1-0.2-0.2c0,0,0-0.1,0-0.1c1-1.2,1.9-2.5,2.8-3.9c0.1-0.4,0.5-3,0.8-4.6  c0.2-1.3,0-7.9,0-7.9c0-0.1,0.1-0.2,0.2-0.3l0,0c0.1,0,0.2,0.1,0.3,0.2l0,0c0,0.3,0.2,6.7,0,8c0,0-0.6,4.1-0.8,4.7  c-0.9,1.4-1.9,2.7-2.9,4C915.8,231.8,915.7,231.8,915.7,231.9z"></path>	<path class="st20" d="M921.2,229.7L921.2,229.7c-0.2,0-0.3-0.2-0.3-0.3c0.1-0.2,0.8-5.2,0.9-6.1s0.6-8.8,0.6-8.9  c0-0.1,0.1-0.2,0.3-0.2l0,0c0.1,0,0.2,0.1,0.2,0.3l0,0c0,0.1-0.5,8-0.6,8.9s-0.8,6-0.9,6.2C921.3,229.7,921.2,229.7,921.2,229.7z"></path>	<path class="st19" d="M894.3,162.6c1.3,0.7,2.3,1.7,3.2,2.8c1.8,2.2,3,4.8,3.7,7.6c0.5,2,0.8,4,0.9,6.1c0,2.4-0.4,4.8-1.2,7.1  c-1.1,3.5,0.3,7.1,1.5,10.3c0.5,1.2,1.9,3.7,1.6,5c-0.3,1.5-2.1,0.9-3.2,1.1c-1.1,0.1-2.1,0.6-2.9,1.3c-1.3,1.2-1.9,3.1-2.5,4.7  c-1,2.8-1.6,5.8-2.9,8.5c-0.3,0.8-0.8,1.5-1.4,2.1c-2.5,2.2-7.6,0.5-10.2-0.7c-7.5-3.6-20.6-12.5-19.4-28.1  C863.3,167.4,874.9,153.4,894.3,162.6z"></path>	<path class="st21" d="M894.2,180.7c1.8,0.3,3.6,0.8,5.2,1.5c0.5,0.2,0.9,0.6,0.3,1c-0.3,0.2-0.6,0.3-0.9,0.2  c-2.4,0-4.3-1.3-6.5-1.7c-1.3-0.2-2.6-0.4-3.9-0.5c0.5-0.2,1-0.3,1.5-0.4C891.4,180.5,892.8,180.5,894.2,180.7z"></path>	<path class="st21" d="M897.9,188l-0.3-0.1c-0.5,0-0.9,0-1.4,0c-2.1-0.1-3.5-1.1-5.3-2.1c-0.1-0.1-0.3-0.1-0.4,0l-0.7,0.3  c0.3,0.5,0.7,0.8,1.3,1l-1.1,0.1c1.2,0.9,2.6,1.5,4,1.9c1.5,0.3,3,0.1,4.3-0.8C898.4,188.2,898.1,188.1,897.9,188z"></path>	<path class="st22" d="M875.8,147.6c3.1,0.8,6.1,2,8.9,3.5c3.5,1.9,6.9,3.9,10.6,5.5c0.8,0.4,10.8,3.6,10.9,2.6  c-0.8,5.9-4,11.3-7.8,15.8s-8.3,8.6-12.1,13.2c-6.9,8.4-11.6,18.4-13.6,29.1l-16.4-4.3c-3.4-0.8-6.7-1.8-10-3  c-11.4-4.3-18.6-12.4-21.4-24.3c-1.2-4.7-1.5-9.6-0.9-14.4c1.5-8.8,6.9-16.4,14.7-20.6c6.6-3.4,14-5.1,21.4-5  C865.4,145.6,870.7,146.3,875.8,147.6z"></path>	<path class="st23" d="M835.2,177c-0.1,2,0.3,4,1.1,5.8c0.8,1.8,1.8,3.5,3,5.1c2.4,3.2,5.2,6,8.3,8.5c3,2.6,6.3,4.9,9.5,7.2  c1.6,1.2,3.2,2.3,4.8,3.6c1.6,1.3,3,2.7,4.3,4.2c-1.4-1.4-2.9-2.7-4.5-3.9c-1.6-1.2-3.2-2.3-4.9-3.4c-3.3-2.3-6.6-4.6-9.7-7.1  c-3.1-2.6-5.9-5.5-8.2-8.7c-1.2-1.6-2.1-3.3-2.9-5.2C835.3,181.1,835,179,835.2,177z"></path>	<path class="st23" d="M843.4,158.6c-1.2,2-1.8,4.3-1.8,6.6c0,2.3,0.4,4.6,1.3,6.7c1.6,4.3,4.4,8,7,11.8l7.8,11.4l3.9,5.7l3.8,5.8  l-4-5.6l-4-5.6l-8-11.3c-1.3-1.9-2.6-3.8-3.9-5.8c-1.3-2-2.3-4-3.1-6.2c-0.8-2.2-1.2-4.5-1.1-6.9  C841.5,162.9,842.2,160.6,843.4,158.6z"></path>	<path class="st23" d="M874.9,156.6c-1,0.5-1.9,1.2-2.6,2c-0.7,0.9-1.2,1.8-1.7,2.8c-0.8,2-1.4,4.2-1.7,6.4c-0.7,4.4-1,8.8-1,13.2  c0,4.4,0.2,8.8,0.5,13.2l0.4,6.6c0.1,2.2,0.2,4.4,0.3,6.6c-0.5-4.4-0.8-8.8-1.2-13.2s-0.6-8.8-0.6-13.3c0-4.4,0.4-8.9,1.1-13.3  c0.4-2.2,1-4.3,1.8-6.4c0.5-1,1.1-2,1.8-2.8C872.9,157.7,873.8,157,874.9,156.6z"></path>	<path class="st24" d="M888.4,367.7c-0.7-0.5-1.5-0.9-2.3-1.2c-2.9-1.1-6-1.6-9.2-1.5c-4.6,0.1-9.1,1-13.3,2.7L888.4,367.7z"></path>	<path class="st25" d="M895.5,367.7c-0.2-1.1-0.4-2.1-0.7-3.1c-2-7.4-3.7-14.9-5.2-22.4c-2.7-13.8-4.5-27.7-5.4-41.7  c-0.4-6,1.7-31.8-10.8-20.4c-5.7,5.2-9.7,12.1-12.9,19.2c-1.8,4-3.4,8.1-4.8,12.3c-6,18.1-7.9,37.1-10.4,56.1L895.5,367.7z"></path>	<path class="st11" d="M876.6,367.7c2.7-13.2,5-26.5,7.3-39.7c2.3-13.5,4.7-26,3.4-39.7c-1.1-13-3.8-25.9-7.9-38.3  c-3-9-7.1-17.9-14-24.4c-6.3-6-18.1-10.9-26.9-7.9c-9.1,3.1-16,14.3-19.3,22.7c-4.1,10.3-5.2,21.6-6,32.7  c-1.5,22.3-1.5,44.8-4.9,66.9c-1.4,9.4-3.6,18.7-6.5,27.8L876.6,367.7z"></path>	<path class="st22" d="M840.4,206.6c0,0,27.8,3,42.1,12.4c0,0,3.4,5.4-2,11.2c0,0,2.8,9.3-4.3,12.5c0,0-22.5-14.3-34.6-15.1  s-19-7-15.9-11.6C825.6,216,819.9,204.2,840.4,206.6z"></path>	<path class="st23" d="M873.8,214.9h-0.1c-14.4-5.9-33.1-7.9-33.3-8c-0.2,0-0.3-0.2-0.3-0.3c0,0,0,0,0,0l0,0c0-0.2,0.2-0.3,0.3-0.3  c0,0,0,0,0,0l0,0c0.2,0,19,2.1,33.5,8c0.2,0.1,0.2,0.2,0.2,0.4l0,0C874.1,214.8,873.9,214.9,873.8,214.9z"></path>	<path class="st23" d="M828.1,216.2c2.1-0.4,4.2-0.7,6.3-0.8c2.1-0.1,4.2,0,6.3,0.2c4.2,0.4,8.4,1.3,12.4,2.7c4,1.4,7.9,3,11.7,4.9  c1.9,1,3.8,2,5.6,3l2.7,1.6l1.4,0.8c0.5,0.2,0.9,0.6,1.2,1.1c-0.3-0.4-0.7-0.8-1.2-1l-1.4-0.7l-2.8-1.5c-1.9-1-3.8-1.9-5.7-2.8  c-3.8-1.8-7.7-3.4-11.7-4.8c-4-1.4-8.1-2.3-12.3-2.8C836.5,215.6,832.2,215.6,828.1,216.2z"></path>	<path class="st23" d="M850.8,213.6c-0.3,0.1-0.5,0.3-0.5,0.6c0,0.3,0.1,0.6,0.3,0.8c0.5,0.3,1.1,0.5,1.7,0.4l3.8,0.3  c2.5,0.2,5,0.5,7.5,0.9c2.5,0.4,5,1,7.4,1.9c1.2,0.4,2.4,0.9,3.5,1.5c1.1,0.6,2.2,1.3,3.2,2c-1.1-0.7-2.2-1.2-3.3-1.7  c-1.1-0.5-2.3-1-3.5-1.3c-2.4-0.8-4.8-1.3-7.3-1.7c-2.5-0.4-5-0.7-7.5-1l-3.7-0.5c-0.7,0-1.3-0.2-1.8-0.6c-0.2-0.2-0.4-0.6-0.3-0.9  C850.2,214,850.5,213.7,850.8,213.6z"></path>	<path class="st23" d="M843,220c1.4,0.2,2.7,0.5,4,0.9c1.3,0.4,2.6,0.8,3.9,1.3c2.5,1,5,2.3,7.3,3.8c2.3,1.5,4.5,3.1,6.6,4.9  c1,0.9,2.1,1.8,3.1,2.7s2,1.9,2.9,2.9c-1-0.9-2.1-1.8-3.1-2.6s-2.1-1.7-3.2-2.6c-2.1-1.7-4.3-3.3-6.6-4.7c-2.3-1.5-4.6-2.8-7.1-3.9  C848.2,221.5,845.6,220.6,843,220z"></path>	<path class="st11" d="M854.4,239.8c3.3,1.3,6,3.6,8.6,5.9c15.3,13.6,29.1,28.9,41,45.5c1.2,1.6,2.3,3.3,3.3,5  c2.6,5.1,3.9,10.8,3.7,16.5c-0.1,3.9-0.8,8-3.6,10.6c-2.5,2.1-5.7,3-8.9,2.4c-3.2-0.5-6.2-1.6-9-3.2c-18.8-9.3-34.6-23.6-46-41.2  c-5.1-8-7.1-15.6-8.8-24.8c-1.3-6.7,0.1-12,6.5-15.7C845.1,238.5,850,238.1,854.4,239.8z"></path>	<path class="st26" d="M900.1,326.1c-0.6,0-1.2,0-1.8-0.1c-3.2-0.5-6.2-1.6-9.1-3.2c-18.9-9.3-34.8-23.6-46.2-41.3  c-4.9-7.7-7-15.2-8.9-24.9c0-0.2,0.1-0.3,0.2-0.4c0.2,0,0.3,0.1,0.4,0.2l0,0c1.8,9.6,3.9,17,8.8,24.7  c11.3,17.6,27.2,31.8,45.9,41.1c2.8,1.5,5.8,2.6,8.9,3.1c3.1,0.5,6.3-0.3,8.7-2.4c2.3-2.1,3.4-5.5,3.5-10.4  c0.2-5.7-1-11.3-3.6-16.4c-1-1.7-2.1-3.4-3.2-5c-11.9-16.6-25.7-31.9-41-45.4c-2.7-2.4-5.3-4.6-8.5-5.8c-0.2-0.1-0.3-0.2-0.2-0.4  l0,0c0.1-0.2,0.2-0.3,0.4-0.2l0,0c3.2,1.3,5.9,3.5,8.7,5.9c15.4,13.6,29.2,29,41.1,45.7c1.2,1.6,2.3,3.3,3.3,5  c2.6,5.2,3.9,10.9,3.7,16.7c-0.1,5.1-1.3,8.6-3.7,10.8C905.5,325.3,902.8,326.2,900.1,326.1z"></path>	<path class="st11" d="M916.1,266.2c3.5,1.9,6.8,4.1,10,6.6c0.5,0.3,0.9,0.8,1.2,1.3c0.1,0.4,0.2,0.8,0.2,1.2c0,2.9-1.1,5.2-1.6,8  c-0.7,3.2-1.5,6.4-2.4,9.5c-1.9,6.3-4.3,12.4-7.2,18.3c-2.7,5.3-6.2,10.7-11.7,12.7c-1.2,0.5-2.6,0.6-3.9,0.4  c-1.9-0.6-3.4-1.9-4.3-3.7c-2.4-4-3-8.7-3.3-13.3c-0.3-5.5-0.4-10.9-0.4-16.4c0-4.3,0-8.5,0.3-12.8c0.5-7.6,1.1-15.1,2.9-22.6  C902.4,259.3,909.4,262.5,916.1,266.2z"></path>	<path class="st26" d="M909.8,320.8c-0.2,0-0.3-0.2-0.3-0.3c0,0,0,0,0,0c0-0.1,0-0.1,0.1-0.2l0,0c2.6-2.7,4.7-5.8,6.3-9.2  c3.4-6.7,6-13.7,8-21l0.6-2.1c0.8-2.9,1.6-6,2.3-9c0.2-1,0.3-2,0.3-3c0-0.6,0.1-1.2,0.1-1.8c0-0.1,0-0.1,0-0.2c0,0-0.1-0.1-0.1-0.1  c-4.9-3-10.1-6.3-15.5-9l-1.3-0.7c-2.3-1.2-4.7-2.4-7-3.7c-1.5-0.8-2.8-1.6-4-2.4l-0.4-0.2c-1-0.6-1.9-1.2-2.8-1.8  c-2.2,11.5-3.2,23.1-3.2,34.8c0,5.4,0,10.9,0.4,16.4c0,0.2-0.1,0.3-0.3,0.3c0,0,0,0,0,0l0,0c-0.2,0-0.3-0.1-0.3-0.3l0,0  c-0.3-5.5-0.4-11-0.4-16.4c-0.1-11.9,1-23.8,3.3-35.6l0,0c0-0.2,0.1-0.3,0.3-0.3c0.2,0,0.3,0.1,0.3,0.3c0.9,0.8,1.9,1.4,2.9,2  c0.2,0.1,0.3,0.2,0.4,0.3c1.2,0.8,2.5,1.5,4,2.4c2.3,1.3,4.7,2.5,7,3.7l1.3,0.7c5.4,2.8,10.7,6,15.6,9.1c0.3,0.1,0.5,0.5,0.4,0.9  c-0.1,0.6-0.1,1.2-0.1,1.8c0,1.1-0.1,2.1-0.3,3.1c-0.7,3-1.5,6-2.3,9l-0.6,2.1c-1.9,7.3-4.6,14.4-8,21.1c-1.6,3.5-3.8,6.6-6.5,9.4  C909.9,320.8,909.8,320.8,909.8,320.8z"></path>	<path class="st20" d="M883.3,204.6c0.6,1.8,2,3.3,3.8,3.8c2.1,0.8,4.5,0.6,6.5-0.5c0.2-0.1,0.3-0.4,0.2-0.6c0,0,0,0,0,0l0,0  c-0.1-0.2-0.4-0.3-0.6-0.2c-1.7,0.9-3.8,1.1-5.7,0.4c-1.6-0.4-2.8-1.6-3.3-3.2C884,203.8,883.1,204.1,883.3,204.6L883.3,204.6z"></path>	<path class="st19" d="M738.4,202.9c-0.2,0.5-0.2,1-0.2,1.6c0.1,0.3,0.3,0.7,0.5,0.9c2.6,3.7,6.2,6.6,10.5,8.3  c4.2,1.7,8.6,2.9,13,3.6c2.9,0.6,5.9,1.2,8.8,1.7c0.5-5.2,1-10.4,1.5-15.6c0.3-2.1,0.4-4.2,0.4-6.3c-0.1-2-0.3-4-0.6-6  c-0.4-3.4-1.1-6.9-2-10.2c-1.2-4.1-3-8.1-5.3-11.7c-1.8-2.9-4.2-5.3-7.1-7c-2.4-1.3-6.2-2.1-8.8-0.8c-2.3,1.2-2.2,4.8-2.7,7  c-1.5,7.4-3.2,14.8-4.9,22.2C740.5,194.7,739.5,198.8,738.4,202.9z"></path>	<path class="st19" d="M785.6,132.9c0,0,13.4,7.1,15.9,14.6s0.7,16.9,0.6,18.2s-2.6,4.3-2.7,4.8s3.3,11.4,4,13.3s-6.9,2.4-7.5,3.2  s-1.3,14.6-5.5,17.4s-33.4-2.8-41-28.3S746.6,119.5,785.6,132.9z"></path>	<path class="st21" d="M776.9,162.8c-1.1,2.8-1.5,5.8-1.3,8.8c0.2,3,2,5.7,4.7,7.2c2.2,1,3.3,1.2,3.4,3.7c0.1,2.4,1.4,4.6,3.4,6  c2.1,1.4,4.4,2.4,6.9,3c0.3,0.1,0.5,0.2,0.8,0.4c0.4,0.5,0.6,1.1,0.5,1.7c-0.2,4.5-0.4,9-0.7,13.6c-0.2,3.3-1.6,6.8-5.2,7.5  c-2.3,0.3-4.6-0.1-6.7-1.2c-3-1.5-5.8-3.3-8.4-5.5c-4.4-3.3-8.3-7.1-11.8-11.3c-0.9-1.2-2.2-2.9-2-4.4s2.1-3.6,2.9-5.2  c1-2.1,1.9-4.4,2.5-6.7c1.3-3.7,2.1-7.4,2.4-11.3c0.2-4.7-1.1-9.4-3.7-13.4c0,0,7.1-2.6,7.8-2.8c2-0.6,4-1.1,6-1.5  c0.8-0.1,2.2-0.6,3-0.1c1.5,1-0.6,3-1.1,4C778.9,157.6,777.8,160.2,776.9,162.8z"></path>	<path class="st21" d="M753.4,166.3c0.3,1.6,0.5,3.2,0.6,4.8c-0.1,1.1-0.3,2.1-0.6,3.1c-1.9,5.5-6.2,9.8-11.7,11.8  c1.2-6.4,2.4-12.8,3.6-19.1c0.2-1.3,0.5-2.5,1-3.7c0.7-1.4,1.7-2.5,3-3.3c1.3-0.8,3.9-1.3,4.3,0.8c0,0.7-0.1,1.5-0.3,2.2  C753.2,164,753.2,165.2,753.4,166.3z"></path>	<path class="st11" d="M802.8,155.2c0,0-18.6-7.6-58.1,14.3c0,0-14-38.1,24.9-43.6C803.8,121,802.8,155.2,802.8,155.2z"></path>	<path class="st21" d="M791.1,162.6c0.9,0.3,1.8,0.5,2.7,0.7l4,1c0.7,0.2,2.5,1.1,3.1,0.3c0.2-0.4,0.1-0.9-0.2-1.2  c-0.4-0.5-0.9-0.9-1.5-1.1c-2.6-1.1-5.5-1.7-8.3-1.7c-0.6-0.1-1.3,0-1.9,0.3c-0.1,0.1-0.2,0.1-0.2,0.3c0,0.2,0.1,0.4,0.3,0.5  C789.8,162.1,790.4,162.4,791.1,162.6z"></path>	<path class="st24" d="M804.7,367.4h-90.5c-0.8-18.8-1.4-37.6-1.5-56.4c0-14.9,0.3-29.8,1.1-44.7c0.8-13.5,0.5-28.4,5.3-41.1  c1.7-4.5,4-9.1,8.3-11.8c3.2-2.1,6-4.8,8-8.1c2-3.4,2.3-7.6,4.5-10.9l25.6,10.1c1.1,0.3,2.1,0.9,3,1.7c2.2,2.2,1.3,5.9,1.7,9  s2.4,5.7,4.4,8c2.2,2.5,4.7,4.8,7.4,6.8c6,4.6,9,14.1,11.7,21c7.7,19.5,10.1,40.2,9.8,61C803.2,330.4,803.6,348.9,804.7,367.4z"></path>	<path class="st24" d="M757,223.8c5.6,1.4,10.6,5.1,15,9.4c8.8,8.6,15.6,19.3,22.1,30.1c3.6,5.7,6.8,11.6,9.5,17.8  c3.5,8.5,5.8,17.4,7,26.5c0.4,2.3,0.5,4.6,0.2,6.9c-1.1,4.5-4.9,7.9-9.5,8.4c-4.3,0.5-8.8-1.1-12.7-3.5  c-9.8-5.7-17.5-15.2-24.9-24.5c-10.4-13-21.2-26.8-25.6-43.5c-1.8-6.9-2.2-14.9,1.5-20.8C743.3,225,750.3,222.1,757,223.8z"></path>	<path class="st27" d="M757,223.8c5.6,1.4,10.6,5.1,15,9.4c8.8,8.6,15.6,19.3,22.1,30.1c3.6,5.7,6.8,11.6,9.5,17.8  c3.5,8.5,5.8,17.4,7,26.5c0.4,2.3,0.5,4.6,0.2,6.9c-1.1,4.5-4.9,7.9-9.5,8.4c-4.3,0.5-8.8-1.1-12.7-3.5  c-9.8-5.7-17.5-15.2-24.9-24.5c-10.4-13-21.2-26.8-25.6-43.5"></path>	<path class="st19" d="M829.8,243.6c0,0,4.4-6.3,4.6-7s-1.4-7.7,0.9-11s5.6-7.4,5.9-8.2s4.2-11.8,9.3-11.6c0,0-0.7,4.7-0.9,6.5  s-2.2,8-2.2,8s3.5-4.9,4.1-6.1s4.1-11.2,4.7-12.8s1.5-4.6,4.8-4.1c0,0-0.7,4-0.5,4.5c0.5,1.3,0.9,2.7,1.2,4.1  c0,0.6-0.4,4.5-0.4,4.5c0.4,0.5,0.6,1,0.7,1.6c0.2,1.1-3.2,11.3-3.5,13s-7.5,12.6-8.7,14.1s-8.7,11.7-8.7,11.7  S830.7,249.5,829.8,243.6z"></path>	<path class="st24" d="M799.9,284.6c8.5-14.7,17.7-28.9,27.5-42.8c0.4-0.6,0.9-1.2,1.6-1.5c0.5-0.1,1.1-0.1,1.6,0  c6.6,0.9,12.3,5.1,16.5,10.4s6.8,11.4,9.2,17.6c0.6,1.1,0.4,2.4-0.4,3.3c-5.3,8.8-11.1,17.2-17.4,25.4c-7.9,10.3-17,20.4-29.3,24.6  c-2.6,1-5.4,1.3-8.1,0.8c-6.9-1.8-9.1-10.4-9.4-16.6C791.3,298.3,796.4,290.5,799.9,284.6z"></path>	<path class="st27" d="M791.6,305.5c-0.3-6.5,3.8-13.3,7.1-19c0.4-0.7,0.8-1.3,1.2-2c8.5-14.7,17.7-28.9,27.5-42.8  c0.4-0.6,0.9-1.2,1.6-1.5c0.5-0.1,1.1-0.1,1.6,0c6.6,1,12.3,5.1,16.5,10.4s6.8,11.4,9.2,17.6c0.6,1.1,0.4,2.4-0.4,3.3  c-5.3,8.8-11.1,17.2-17.4,25.4c-7.9,10.3-18,23.5-35.4,25.9"></path>	<path class="st28" d="M860.4,201.8c0,0-1.3,6.6-1.7,8.2s-3.4,8.8-3.8,9.5s-2.2,3.9-2.2,3.9"></path>	<path class="st28" d="M861.2,210.4c0,0-2,7-2.3,8.2c-0.8,2.2-1.8,4.4-2.8,6.5"></path>	<path class="st21" d="M848.4,220c-0.6,0-1-0.6-1-1.1v-0.4c0.1-0.6,0.7-1,1.3-0.9c0.5,0.1,0.9,0.6,0.9,1.1l0,0v0.3  C849.5,219.6,849,220.1,848.4,220L848.4,220L848.4,220z"></path>	<path class="st21" d="M838.2,263.4h-0.1c-0.3-0.1-0.5-0.1-0.8-0.3c-0.5-0.3-0.7-0.9-0.5-1.5c0.2-0.5,0.8-0.7,1.3-0.5l0,0  c0.1,0.1,0.3,0.1,0.4,0.1c0.6,0.2,0.9,0.8,0.8,1.3C839.2,263.2,838.7,263.5,838.2,263.4L838.2,263.4z M840.5,262.8  c-0.6,0-1-0.6-1-1.1l0,0c0-0.3,0.2-0.5,0.3-0.7c0.1-0.1,0.2-0.2,0.3-0.4c0.4-0.5,1.1-0.5,1.5-0.1c0.4,0.4,0.5,1,0.2,1.5  c-0.2,0.2-0.3,0.4-0.5,0.6C841.1,262.8,840.8,262.9,840.5,262.8z M835.7,261.6c-0.3,0-0.6-0.2-0.8-0.4c-0.1-0.2-0.3-0.4-0.4-0.6  c-0.3-0.5-0.2-1.2,0.3-1.5c0.5-0.3,1.2-0.2,1.5,0.3l0,0c0.1,0.2,0.2,0.3,0.3,0.5c0.3,0.5,0.2,1.2-0.2,1.5l0,0  C836.2,261.6,836,261.6,835.7,261.6L835.7,261.6z M842.2,260.2c-0.6,0-1-0.6-1-1.1v0c0-0.1,0-0.2,0.1-0.3l0.2-0.5  c0.2-0.6,0.9-0.8,1.4-0.6c0.5,0.2,0.8,0.7,0.6,1.3l-0.1,0.1c-0.1,0.2-0.2,0.4-0.3,0.6C843.1,260,842.6,260.2,842.2,260.2  L842.2,260.2z M834.4,258.8c-0.4,0-0.8-0.3-0.9-0.8l-0.2-0.6c-0.1-0.6,0.2-1.2,0.8-1.3l0,0c0.6-0.1,1.1,0.2,1.3,0.7  c0.1,0.2,0.1,0.4,0.2,0.6c0.2,0.6-0.1,1.2-0.7,1.4c0,0,0,0,0,0l0,0C834.7,258.8,834.5,258.8,834.4,258.8L834.4,258.8z M843.3,257.3  c-0.1,0-0.1,0-0.2,0c-0.6-0.2-0.9-0.8-0.7-1.4l0.2-0.6c0.2-0.6,0.8-0.9,1.3-0.7c0.6,0.2,0.9,0.8,0.7,1.3l0,0l0,0l-0.2,0.6  C844.3,257,843.8,257.3,843.3,257.3L843.3,257.3z M833.7,255.8c-0.5,0-0.9-0.4-1-0.9c0-0.2-0.1-0.4-0.1-0.6  c-0.1-0.6,0.3-1.1,0.9-1.2c0.6-0.1,1.1,0.3,1.2,0.9l0.1,0.6c0.1,0.6-0.3,1.1-0.9,1.2L833.7,255.8z M844.1,254.2c0,0-0.1,0-0.1,0  c-0.6-0.1-0.9-0.7-0.8-1.3l0.1-0.6c0.1-0.6,0.7-0.9,1.3-0.8c0.6,0.1,0.9,0.7,0.8,1.3l-0.2,0.6C845.1,254,844.6,254.3,844.1,254.2  L844.1,254.2z M833.4,252.6c-0.5,0-1-0.5-1-1V251c0-0.6,0.5-1.1,1.1-1c0.5,0,1,0.4,1,0.9l0,0v0.6c0,0.6-0.4,1.1-1,1.1L833.4,252.6z   M844.8,251.2L844.8,251.2c-0.7-0.1-1.1-0.7-0.9-1.3l0,0l0,0l0.1-0.6c0.1-0.6,0.7-1,1.3-0.9c0.6,0.1,1,0.6,0.9,1.2c0,0,0,0,0,0l0,0  l0,0l-0.1,0.6C845.8,250.9,845.3,251.2,844.8,251.2L844.8,251.2z M833.3,249.5c-0.6,0-1-0.5-1-1.1v-0.6c0.1-0.6,0.6-1,1.2-1  c0.5,0.1,0.9,0.5,1,1v0.6C834.5,249,834,249.5,833.3,249.5L833.3,249.5L833.3,249.5z M845.3,248.1L845.3,248.1  c-0.7-0.1-1.1-0.7-1-1.3l0.1-0.6c0.1-0.6,0.6-1,1.2-0.9l0,0c0.6,0.1,1,0.6,0.9,1.2l0,0l-0.1,0.6  C846.4,247.7,845.8,248.1,845.3,248.1L845.3,248.1z M833.4,246.4c-0.6,0-1-0.5-1-1.1c0,0,0,0,0,0l0,0l0-0.6c0.1-0.6,0.6-1,1.2-1  c0.6,0.1,1,0.6,1,1.2l0,0v0.6C834.6,246,834,246.5,833.4,246.4L833.4,246.4L833.4,246.4z M845.8,245L845.8,245  c-0.6-0.1-1-0.6-0.9-1.2l0.1-0.6c0.1-0.6,0.6-1,1.2-0.9c0.6,0.1,1,0.6,0.9,1.2c0,0,0,0,0,0l0,0l-0.1,0.6  C846.9,244.6,846.4,245,845.8,245L845.8,245z M846.2,241.9L846.2,241.9c-0.6-0.1-1-0.6-0.9-1.2l0,0l0.1-0.6c0-0.6,0.4-1,1-1h0.2  c0.6,0.1,1,0.6,0.9,1.2l0,0l-0.1,0.6C847.3,241.5,846.8,241.9,846.2,241.9L846.2,241.9z M846.6,238.7L846.6,238.7  c-0.6,0-1-0.6-1-1.2l0,0l0.1-0.6c0-0.6,0.5-1,1.1-1h0.1c0.6,0,1,0.6,1,1.1l0,0l-0.1,0.6C847.8,238.3,847.3,238.8,846.6,238.7  C846.7,238.7,846.6,238.7,846.6,238.7L846.6,238.7z M847,235.6L847,235.6c-0.6,0-1-0.5-1-1.1v-0.1l0,0l0.1-0.6  c0.1-0.6,0.7-1,1.3-0.9c0.5,0.1,0.9,0.6,0.9,1.1l-0.1,0.6C848.1,235.3,847.6,235.7,847,235.6L847,235.6L847,235.6z M847.3,232.5  c-0.6,0-1-0.6-1-1.1l0,0l0.1-0.6c0-0.6,0.6-1,1.2-1l0,0c0.6,0,1,0.6,1,1.2l0,0l-0.1,0.6C848.4,232.1,847.9,232.6,847.3,232.5  L847.3,232.5L847.3,232.5z M847.6,229.4c-0.6,0-1-0.6-1-1.2l0,0l0.1-0.6c0-0.6,0.5-1,1.1-1h0.1c0.6,0,1,0.6,1,1.1l-0.1,0.6  C848.7,229,848.2,229.4,847.6,229.4L847.6,229.4L847.6,229.4z M847.9,226.3c-0.6,0-1-0.6-1-1.1l0,0v-0.6c0.1-0.6,0.6-1,1.2-1  c0.6,0,1,0.4,1,1v0.8C849,225.9,848.5,226.4,847.9,226.3L847.9,226.3L847.9,226.3z M848.1,223.1c-0.6,0-1-0.6-1-1.2v-0.6  c0-0.6,0.6-1,1.2-1l0,0c0.6,0,1,0.6,1,1.2v0.6C849.2,222.7,848.7,223.2,848.1,223.1L848.1,223.1L848.1,223.1z"></path>	<path class="st21" d="M833.8,243.2L833.8,243.2c-0.7-0.1-1.1-0.7-1-1.3l0.1-0.3c0.1-0.6,0.7-1,1.2-0.9c0,0,0,0,0,0l0,0  c0.6,0.1,1,0.6,0.9,1.2c0,0,0,0,0,0l0,0v0.3C835,242.9,834.4,243.3,833.8,243.2C833.8,243.2,833.8,243.2,833.8,243.2L833.8,243.2z"></path>	<path class="st21" d="M834.1,240.3L834.1,240.3c-0.6-0.1-1-0.6-1-1.2l0,0l0.1-0.3c0.1-0.6,0.7-1,1.3-0.9s1,0.7,0.9,1.3l0,0l0,0v0.3  C835.2,240,834.6,240.4,834.1,240.3z"></path>	<path class="st19" d="M764.5,175.5c0.7,0.5,1.3,0.8,1.6,0c1.2-4.2,2.6-10.3,1.2-14.6c-0.4-1.5-1.4-2.7-2.7-3.5  c-1.3-0.8-2.9-0.8-4.3-0.1c-0.9,0.7-1.6,1.7-1.9,2.8c-1,3.6-0.5,7.4,1.4,10.6c0.9,1.4,2,2.7,3.3,3.7  C763.5,174.6,764,175.1,764.5,175.5z"></path>	<path class="st20" d="M760.3,162.7c2.8-1.3,5.6,1.9,5,5.2c-0.1,0.4,0.4,0.4,0.5,0.1c0.7-3.7-2.5-7.3-5.6-5.8  C759.9,162.3,760.1,162.8,760.3,162.7L760.3,162.7z"></path>	<path class="st20" d="M762.2,166.4c0.1-1.2,0.8-2.3,1.8-2.9c0.3-0.1,0.1-0.7-0.2-0.5c-1.2,0.7-2.1,2-2.2,3.4  C761.7,166.8,762.2,166.8,762.2,166.4z"></path>	<path class="st20" d="M763.9,174.5c-3.4-2.9-5.4-7-5.7-11.5c0-0.2-0.2-0.3-0.4-0.3c-0.2,0-0.3,0.2-0.3,0.3c0.3,4.6,2.4,9,5.9,12  C763.8,175.3,764.3,174.8,763.9,174.5z"></path>	<path class="st21" d="M790.8,170.8c0.5,0.4,1.1,0.7,1.8,0.9c1,0.2,2.1,0.1,3-0.3c0.6-0.2,1.1-0.5,1.4-1c0-0.1,0-0.2,0-0.3  c0-0.1-0.1-0.1-0.1-0.2c-0.4-0.3-1-0.1-1.5-0.1c-0.6,0-1.2-0.1-1.8-0.3c-1.2-0.3-2.3-0.8-3.3-1.3c-1.5-0.7-0.8,1.1-0.3,1.8  C790.2,170.4,790.5,170.6,790.8,170.8z"></path>	<g class="st29">		<path class="st5" d="M1026.8,162.8c1,0.9,1.8,2,3.2,1.8c1.6-0.2,3.1-0.9,4.2-2c0.3-0.3,0.4-0.8,0.4-1.2c-0.1-3.2-0.1-6.4-0.3-9.7   c-0.2-4.2-0.5-8.3-0.7-12.5c-0.3-4.4-0.5-8.9-0.8-13.3c-0.2-3.2-0.4-6.3-0.5-9.5c0-0.8,0.2-1.6,0.4-2.4c0-0.2,0.1-0.3,0.2-0.5   c0.9,0.5,3.3,6.4,2.9,7.5l-1.5-2l-0.3,0.2c0,0.8,0.1,1.6,0.1,2.3c0.3,4.1,0.5,8.1,0.8,12.2c0.2,3.1,0.6,6.3,0.7,9.4   c0.4,5.7,0.4,11.3,0,17c-0.1,2.6-1.4,4.9-3.5,6.4c-0.9,0.6-1.9,0.9-2.9,1c-1,0-2-0.5-2.6-1.3c-0.4-0.5-0.7-1-0.9-1.6   c-0.4-0.8-0.6-1.1-1.5-0.8c-1.8,0.7-3.7,1.4-5.5,2.2c-3.8,1.8-7,4.5-9.5,7.9c-0.8,1-1.6,1.8-2.6,2.6c-1.5,1.4-3.9,1.3-5.3-0.2   c-0.3-0.3-0.5-0.7-0.7-1c-0.8-1.6-1-3.5-0.6-5.3c0.1-0.3,0.2-0.6,0.2-0.9c0-0.3,0-0.6-0.1-0.8c-0.3,0-0.6,0.1-0.9,0.1   c-1,0.4-2,1-3,1.4c-2.9,1.2-5.9,1.9-9.1,2.1c-2.7,0.2-5.4-0.7-7.5-2.5c-1.8-1.7-2.7-4.2-2.4-6.7c0.2-1.9,0.6-3.9,1-5.8   c0-0.2,0.1-0.4,0.1-0.6c-0.5,0.3-0.8,0.6-1.2,0.8c-0.9,0.7-1.7,1.4-2.6,2c-2.5,1.5-4.9,0.6-5.7-2.3c-0.6-2.4-0.5-4.9,0.3-7.2   c0.3-1,0.7-2,1.1-3c0.3-0.5,0.2-1.1-0.2-1.5c-2.1-2.5-2.1-5.2-1.2-8.2c1-2.7,2.4-5.4,4-7.8c0-0.1,0.1-0.1,0.2-0.2   c0.1-0.1,0.3-0.1,0.4-0.2c0,0.1,0.1,0.3,0.1,0.4c-0.1,0.4-0.3,0.7-0.5,1.1c-1.3,2.1-2.4,4.4-3.2,6.7c-0.5,1.2-0.8,2.5-0.7,3.8   c0,1.2,1,2.2,2.2,2.2c0,0,0,0,0,0l0,0c0.2,0,0.4,0,0.5-0.1c1.3-0.2,2.5-0.8,3.4-1.6c3.7-3.2,7.4-6.5,11.1-9.8   c0.1-0.1,0.1-0.1,0.2-0.2c-0.8-0.7-1.7-1.4-2.5-2c-2.3-1.6-4.5-3.2-6.8-4.9c-0.7-0.5-1.4-1.2-2.1-1.8c-1.4-1.6-1.1-4.1,0.5-5.4   c0,0,0,0,0,0l0,0l0.2-0.2c1.7-1,3.5-1.9,5.3-2.8c0.7-0.4,1.4-0.7,2.2-1.1l-0.9-1c-1-1.2-0.8-3,0.4-4c0.1-0.1,0.3-0.2,0.4-0.3   c2-0.9,4-1.8,6.1-2.5c3.5-1.2,7-2.3,10.5-3.5c0.5-0.2,1.1-0.3,1.7-0.4c0.2,0,0.3,0,0.5,0.1c-0.1,0.2-0.1,0.4-0.3,0.5   c-0.3,0.2-0.6,0.4-1,0.5c-3,1.1-6,2.1-9,3.2c-2.8,1-5.5,2.1-8.2,3.2c-1,0.4-1,0.5-0.6,1.4c0.3,0.7,0.6,1.3,0.9,2   c0.2,0.4,0.4,0.3,0.7,0.2c2.4-0.8,4.8-1.5,7.2-2.3c5.1-1.7,10.4-3,15.7-4c1-0.2,2.1-0.2,3.2-0.2c1.7,0.1,3,1.6,2.9,3.3   c0,0.2,0,0.4-0.1,0.5c-0.5,1.8-1.4,3.3-2.8,4.5c-2,2-4.2,4-6.2,5.9l-2.8,2.6c0.9-2.2,2.3-4.2,4-5.9c1.6-1.5,3.3-2.8,5-4.3   c0.3-0.3,0.6-0.5,0.8-0.8c0.5-0.4,0.5-1.1,0.2-1.5l-0.1-0.1c-0.6-0.6-1.3-1-2.1-1.2c-1.5-0.2-3-0.2-4.5,0.2c-9.3,2-18.4,5-27,8.9   c-0.6,0.3-1.1,0.6-1.6,0.9c-0.7,0.4-0.7,0.8,0,1.2c1,0.6,2.1,1.2,3.2,1.8c3.5,2.2,7,4.4,10.5,6.6c0.3,0.2,0.7,0.3,1.1,0.2   c1.1-0.3,2.1-0.7,3.1-1.1c0.3-0.1,0.7-0.2,1-0.3c1.1-0.2,0.9-0.4,0.8-1.2c-0.5-3.3-1.1-6.5-1.7-9.8c-0.1-1.4,0-2.7,0.5-4   c1.2,2,2.6,3.8,3.2,5.9l-0.2,0.2c-0.2-0.1-0.5-0.3-0.7-0.4c-0.6-0.4-0.9-0.3-0.9,0.4c0,0.6,0.1,1.3,0.2,1.9c0.2,1,0.4,2.1,0.7,3.1   c0.3,1.3,1.2,2.4,2.4,3.1c0.7,0.4,1.3,0.8,2,1.2c1.2,0.9,1.1,2,0.6,3.3c-0.2,0.4-0.5,0.3-0.7,0.2c-1.8-0.8-3.9-1.1-5.9-0.9   c-0.4,0-0.8,0.1-1.2,0.3c-0.8,0.3-0.8,0.6-0.2,1c0.8,0.6,1.6,1.2,2.4,1.8l9.3,6.7c0.4,0.3,0.9,0.6,1.4,0.9   c0.6,0.3,0.8,0.1,0.8-0.5v-4.3c-0.2-4.8-0.3-9.5-0.5-14.3c-0.1-1.3,0.2-2.6,1-3.6c0.1,0.1,0.1,0.1,0.1,0.2   c0.8,2.2,1.7,4.3,2.5,6.5c0.1,0.3,0.2,0.7,0.2,1c0,0.1,0,0.3-0.1,0.4c-0.1,0-0.3-0.1-0.4-0.1c-0.5-0.4-1-0.9-1.5-1.3   c0,0.1,0,0.2,0,0.3c0.1,2.8,0.2,5.5,0.3,8.3s0.4,5.8,0.5,8.6c0.1,0.8,0.5,1.6,1.3,1.9c1.9,1.3,4.3,1.4,6.3,0.3   c0.6-0.2,1-0.8,1-1.5c-0.1-2.9-0.2-5.9-0.5-8.8c-0.3-4.9-0.8-9.9-1.2-14.8c-0.3-3.9-0.6-7.8-0.9-11.8c0-0.9,0-1.8,0.1-2.7   c0.1-0.5,0.3-0.9,0.6-1.3c1.5,2.4,2.7,4.9,3.4,7.6l-0.3,0.2l-2-2.2c0,0.7,0.1,1.4,0.1,2.1c0.3,3.5,0.6,7,0.9,10.4   c0.3,3,0.5,6,0.7,9.1s0.4,5.8,0.4,8.7c0,1.6-0.1,3.2-0.5,4.8c-0.5,2.4-2.6,4-5.1,3.8c-1.2-0.1-2.5-0.3-3.7-0.6   c-0.8-0.2-0.8-0.2-0.7,0.6c0.6,4.1,0.7,8.2,0.3,12.3c-0.2,1.7-0.5,3.4-0.8,5.1c-0.1,0.4-0.3,0.9-0.5,1.3h-0.2   c-0.1-0.2-0.1-0.4-0.1-0.7c0-3.2,0-6.4-0.1-9.6c-0.1-3.5-0.3-6.9-0.6-10.4c0-0.3-0.2-0.6-0.4-0.8c-4.4-3.4-8.7-6.8-13.1-10.1   c-0.3-0.2-0.6-0.4-1-0.6l0.2,0.4c0.6,1.1,1.2,2.2,1.7,3.3c0.9,1.9,1,4.2,0.4,6.2c-0.5,1.7-1.8,3-3.5,3.6c-1.8,0.7-3.7,1.1-5.4,1.8   c-1.8,0.8-3.6,1.6-5.4,2.6c-1.8,1-3.1,2.8-3.4,4.8c-0.4,1.6-0.4,3.3-0.2,5c0.3,2.8,2.4,5.2,5.2,5.8c2.8,0.8,5.7,0.8,8.5,0   c4-1,7.8-2.8,11.2-5.3l0.1-0.1c1.3-1,1.9-2.1,1.3-3.8c-0.9-2.4-1.7-5-2.5-7.4c-0.5-1.4-0.5-3,0.1-4.4c1.3,1.5,2.6,3,3.7,4.6   l-0.1,0.2l-0.9-0.1c-0.6-0.1-0.8,0.1-0.6,0.6c0.3,0.9,0.6,1.9,0.9,2.8c0.7,1.7,0.9,3.6,0.7,5.5c-0.3,1.6-1.2,3.1-2.4,4.2   c-0.6,0.6-1.2,1.2-1.8,1.9c-1.4,1.8-1.9,4.1-1.5,6.4c0.3,2,2,2.8,3.7,1.7c1.9-1.3,3.6-2.8,5.1-4.5c1.4-1.6,2.9-3.1,4.5-4.6   c1.4-1,2.9-1.9,4.5-2.7c1.5-0.8,3-1.4,4.6-2c0.6-0.2,1-0.7,1-1.4c0.1-1.1,0.2-2.3,0.3-3.4c0.1-1.3,0.4-2.5,1-3.6   c0.4-0.8,1.1-1.5,1.9-1.9c0.6-0.5,1.5-0.3,2,0.3c0,0,0,0,0,0l0,0c1.2,1.5,1.6,3.5,1.1,5.4c-0.5,2.2-1.7,4.1-3.4,5.5   C1027,162.6,1026.9,162.7,1026.8,162.8z M969.6,154.4c0,0.5,0.1,1,0.2,1.4c0.1,1,0.9,1.7,1.9,1.6c0,0,0,0,0,0l0,0   c0.7,0,1.4-0.2,2-0.5c1.8-0.9,3.4-2.2,4.8-3.7c3.1-3.1,6.9-5.3,11.1-6.4c1.9-0.5,3.7-1.1,5.4-1.9c1.8-0.8,2-1.6,1-3.3   c-1.6-3-3.7-5.7-6.2-8c-0.3-0.3-0.6-0.4-0.9-0.1c-1.9,1.6-3.8,3.1-5.7,4.7c-2.6,2.2-5.1,4.4-7.7,6.6c-0.8,0.6-1.7,1-2.6,1.3   c-0.7,0.2-1.3,0.6-1.7,1.3C970.2,149.5,969.6,151.9,969.6,154.4L969.6,154.4z M1025.4,156.6c0.1,0.4,0.1,1.1,0.3,1.8   c0.1,0.4,0.2,0.9,0.3,1.3c0.1,0.5,0.5,0.9,1,0.6c0.8-0.6,1.6-1.3,2.3-2c0.2-0.2,0.3-0.5,0.2-0.8c0-0.9-0.3-1.8-0.9-2.6   c-0.3-0.4-0.7-0.6-1.2-0.6C1026.3,154.3,1025.4,155.4,1025.4,156.6L1025.4,156.6z"></path>		<path class="st5" d="M1026.6,143.3c-0.1-0.9-0.2-1.7-0.2-2.5c-0.1-1.7-0.2-3.4-0.2-5.1c0-0.9-0.2-1-1-0.6c-0.5,0.2-1,0.5-1.6,0.8   c-0.3,0.2-0.7,0.3-1.1,0.5l-0.1-0.2c0.2-0.2,0.5-0.4,0.7-0.6c0.7-0.5,1.4-1,2.1-1.5c0.6-0.4,0.9-1.1,0.8-1.8   c-0.3-5-0.7-10.1-0.9-15.1c-0.1-2.7-0.2-5.5-0.2-8.2c0.1-0.5,0.2-0.9,0.4-1.3c0.3,0.3,0.5,0.6,0.7,1c0.8,1.8,1.5,3.6,2.2,5.5   c0.1,0.3,0.2,0.5,0.2,0.8l-1.8-1.3l-0.2,0.1v0.7l0.5,7.3c0.2,2.5,0.3,5.1,0.5,7.6c0.1,0.6,0.1,1.2,0.2,1.8   c0.1,0.4,0.3,0.6,0.7,0.2c0.2-0.2,0.4-0.4,0.6-0.5c0.3-0.2,0.4-0.6,0.2-0.9l0,0l-0.1-0.1c0-0.1-0.1-0.1-0.2-0.2   c-0.7-0.8-0.7-2,0.1-2.7c0.2-0.2,0.5-0.4,0.9-0.5c0.4-0.2,0.7,0,0.8,0.4v3.8c0,0.1-0.2,0.3-0.3,0.4c-1.5,0.8-2.4,2.4-2.4,4.1   c0,2.5-0.3,5-0.9,7.4c-0.1,0.3-0.2,0.6-0.3,0.9L1026.6,143.3z M1030.6,128.4l-0.9-0.9c-0.1,0.1-0.3,0.3-0.3,0.4   c0,0.4,0.3,0.8,0.8,0.9C1030.2,128.7,1030.3,128.6,1030.6,128.4z"></path>		<path class="st5" d="M1041.8,128.4l-1.5-1.8c0,1.2-0.1,2.3,0,3.5c0.3,6.1,0.7,12.2,1,18.2c0.2,2.8,0.1,5.7-0.5,8.4   c-0.2,1-0.6,1.9-0.9,2.8h-0.3c-0.1-0.3-0.1-0.6-0.1-0.9c0-2.8,0.1-5.6,0-8.4c-0.2-5.4-0.5-10.9-0.7-16.3   c-0.2-3.6-0.3-7.2-0.4-10.8c0-0.5,0-1.1,0.1-1.6c0-0.2,0.3-0.4,0.4-0.6c0.2,0.2,0.4,0.3,0.5,0.4c0.4,0.7,0.7,1.4,1,2.1   c0.5,1.3,1,2.7,1.5,4c0.1,0.2,0.1,0.5,0.1,0.7L1041.8,128.4z"></path>		<path class="st5" d="M1024,146.6l1.9-2.4l2,1.9c0.5-0.4,0.9-0.8,1.3-1.2s1-0.8,1.6-0.4c0.5,0.5,1,1,1.3,1.7   c0.1,0.1-0.2,0.6-0.3,0.8c-1,1.3-1.1,1.3-2.5,0.4s-1.3-0.9-2.3,0.2c-0.3,0.3-0.6,0.7-1,1.1L1024,146.6z"></path>		<path class="st5" d="M965.1,133.1c0.6-0.4,1.2-0.9,1.8-1.3l4.6-3.4c0.1-0.1,0.3-0.3,0.4-0.4c0.9-0.9,0.9-1,0.1-1.9   c-0.4-0.3-0.4-0.9-0.2-1.3c0.4-0.6,0.8-1.1,1.3-1.6c0.5-0.4,0.9-0.2,1,0.5v0.9c0,0.7,0.2,1.3,0.6,1.8c0.5,0.5,0.2,1-0.5,1.3   c-0.7,0.3-1.3,0.6-1.9,1.1c-1.7,1.6-3.7,3-5.7,4.1c-0.5,0.3-1,0.5-1.6,0.7L965.1,133.1z M973,125.4h0.2c0.1-0.2,0.1-0.5,0.1-0.7   c0-0.2-0.3-0.3-0.4-0.4c-0.1,0.2-0.3,0.3-0.2,0.5C972.7,124.9,972.8,125.1,973,125.4L973,125.4z"></path>		<path class="st5" d="M986.3,163.6l1-1.1l0.1,0.1c-0.1,0.8-0.4,1.5-1,2.1c-0.3,0.3-0.7,0.3-1,0c-0.1-0.1-0.1-0.1-0.2-0.2   c-0.4-0.5-0.6-1.1-0.6-1.8c0.1-1.3,0.2-2.7,0.5-4c0-0.4,0-0.8,0.1-1.2l-3.1,1.6l-0.2-0.2c0.1-0.2,0.3-0.4,0.4-0.6   c1.3-0.9,2.6-1.7,3.9-2.6c1-0.6,2.1-1.2,3.2-1.8c0.3-0.2,0.6-0.3,1-0.5l0.2,0.1c-0.1,0.3-0.3,0.6-0.5,0.9c-0.7,0.5-1.4,1-2.1,1.5   c-2.3,1.6-3.1,4.7-1.9,7.2C986.1,163.3,986.2,163.4,986.3,163.6z"></path>		<path class="st5" d="M991.8,154.1c0.4-0.3,0.8-0.6,1.1-0.9c2.2-1.9,4.4-3.7,6.6-5.6c0.4-0.4,0.8-0.8,1.1-1.2   c0.4-0.4,0.4-1,0.1-1.4c-0.2-0.5-0.4-1-0.5-1.5c-0.1-0.7,0.2-1.4,0.9-1.7c0.3-0.2,0.7-0.1,0.9,0.2c0,0,0,0,0,0l0,0   c0,0.1,0.1,0.1,0.1,0.2c0.1,0.3,0.2,0.7,0.2,1c0,0.7,0.2,1.3,0.6,1.8c0.2,0.2,0.2,0.6,0.1,0.8c0,0.1-0.5,0.3-0.7,0.3   c-0.4-0.1-0.9,0.1-1.2,0.5c-1.5,2.3-3.8,3.8-5.9,5.4c-0.8,0.7-1.7,1.2-2.6,1.9c-0.3,0.1-0.5,0.3-0.8,0.4L991.8,154.1z    M1001.9,143.5c-0.3-0.2-0.5-0.4-0.8-0.5c-0.1,0-0.3,0.2-0.5,0.3c0.2,0.2,0.4,0.4,0.6,0.5C1001.4,143.7,1001.7,143.6,1001.9,143.5   L1001.9,143.5z"></path>		<path class="st5" d="M1015.1,159.2l1.2-1.4c-0.2-0.3-0.4-0.5-0.6-0.8c-0.2-0.3-0.2-0.7-0.2-1.1c0.6-1.3,1.7-2.3,3-2.7   c0.3-0.1,0.7-0.1,1,0c0.2,0,0.4,0.3,0.4,0.5c-0.1,0.2-0.2,0.4-0.4,0.5c-0.3,0.1-0.8,0.1-1.1,0.2c-0.5,0.1-1,0.3-1.4,0.6   c-0.5,0.4-0.4,1,0.3,1.2c0.6,0.1,1.2,0.2,1.8,0.3h2.2c0.2,0.1,0.5,0.2,0.7,0.3c-0.1,0.2-0.3,0.5-0.5,0.7c-0.1,0.1-0.3,0.2-0.5,0.2   l-5,1.5c-0.3,0.1-0.5,0.2-0.8,0.2L1015.1,159.2z"></path>		<path class="st5" d="M1021.5,176.3c-0.3-0.7-0.6-1.3-0.9-1.9c-0.4-1-1.2-1.8-2.2-2.1c-0.7-0.4-1-1.1-1-1.8c0-0.6,0.4-0.8,0.9-0.5   c0.4,0.2,0.8,0.5,1.1,0.9c0.9,0.7,1.6,1.6,2,2.6c0.1,0.1,0.2,0.2,0.4,0.2c0.1,0,0.2-0.1,0.3-0.3c0.1-0.2,0.1-0.3,0.1-0.5   c0.2-1.2,0.7-2.4,1.5-3.4c0.5-0.7,1-0.7,1.5,0c0.5,0.7,0.6,1.6,0.4,2.4c-0.4-0.3-0.7-0.5-0.9-0.7c-0.7-0.6-1.2-0.5-1.5,0.3   c-0.5,1.3-0.9,2.6-1.4,3.9L1021.5,176.3z"></path>		<path class="st5" d="M989.3,122.6c0.2-1,0.4-1.8,0.6-2.6c0.2-0.7,0.4-1.4,0.7-2c0.3-0.7,0.8-0.7,1.2-0.1c0.2,0.4,0.4,0.9,0.4,1.3   c0,0.5-0.3,0.6-0.7,0.3c-0.8-0.5-0.9-0.5-1.1,0.5c-0.2,1.2-0.3,2.4-0.5,3.5c-0.1,0.4-0.2,0.8-0.3,1.2c0,0.2-0.2,0.4-0.3,0.4   c-0.2-0.1-0.4-0.2-0.5-0.3c-0.4-0.6-0.7-1.3-1.1-1.9c-0.2-0.4-0.5-0.7-0.9-1c-0.1-0.1-0.4-0.1-0.6-0.1c-0.1,0-0.2,0-0.3-0.1   c-0.5-0.3-0.9-0.9-0.9-1.5c0-0.7,0.5-1,1.1-0.6c0.7,0.5,1.3,1,1.9,1.6C988.5,121.6,988.9,122.1,989.3,122.6z"></path>		<path class="st5" d="M995.3,159.2c-0.2,0.6-0.5,1.2-0.8,1.7c-0.2,0.2-0.6,0.3-0.9,0.2c-0.7-0.4-1.4-0.9-2-1.5   c-0.4-0.4-0.2-1.3,0.4-2c0.3-0.4,0.9-0.5,1.4-0.2l0,0c0.5,0.3,0.9,0.6,1.4,1C995,158.7,995.2,158.9,995.3,159.2z"></path>		<path class="st5" d="M1009.8,104.2c0.4-0.2,0.9-0.4,1.3-0.6c0.2-0.2,0.4-0.4,0.5-0.6c-0.2-0.1-0.4-0.2-0.7-0.2   c-0.9,0-1.8,0.1-2.7,0.2c1-1.3,2.7-1.8,4.3-1.4c0.4,0.1,0.7,0.4,0.8,0.8c0.1,0.2-0.3,0.7-0.5,0.9c-0.8,0.4-1.6,0.8-2.4,1.1   c-0.2,0-0.4,0-0.6,0L1009.8,104.2z"></path>		<path class="st5" d="M1001.4,158.8c-0.2,0.6-0.4,1.2-0.7,1.7c-0.2,0.5-0.7,0.7-1.2,0.5c-0.2-0.1-0.4-0.3-0.5-0.5   c-0.3-0.5-0.5-1.1-0.5-1.6c-0.1-1.8,0.4-3.5,1.5-4.9c-0.2,0.9-0.5,1.9-0.6,2.8c-0.1,0.7-0.1,1.3,0.1,2c0.3,1,0.7,1,1.4,0.2   l0.3-0.4L1001.4,158.8z"></path>		<path class="st5" d="M1016.2,133.4c-0.2,0.6-0.4,1.2-0.5,1.8c-0.3,0.9-0.4,1.8-0.6,2.7c-0.1,0.9,0.2,1,1,1c0.4,0,0.7,0.2,0.5,0.6   c-0.3,0.5-0.6,0.9-1,1.2c-0.1,0.1-0.6-0.1-0.7-0.2c-0.7-0.9-0.9-2-0.6-3.1c0.5-1.3,1-2.7,1.6-4L1016.2,133.4z"></path>		<path class="st5" d="M978.9,129.1c-0.3,1.2-0.6,2.3-0.9,3.5c-0.1,0.5-0.1,1-0.1,1.5c0.1,0.8,0.5,1,1.2,0.5l0.5-0.4   c0,0.7-0.3,1.4-0.7,1.9c-0.2,0.3-0.6,0.3-0.9,0.1l0,0c-0.7-0.4-1.1-1.3-1-2.1c0.4-1.6,1-3.1,1.5-4.6c0.1-0.2,0.2-0.3,0.3-0.4   L978.9,129.1z"></path>		<path class="st5" d="M1044.6,135c-0.1,0.4-0.3,0.9-0.4,1.3c-0.3,0.7-0.6,1.5-0.8,2.2c-0.3,0.8-0.2,1.6,0.2,2.3   c0.3,0.6,0.5,0.6,0.9,0.1l0.3-0.3c0,0.8-0.3,1.6-0.8,2.3c-0.3,0.3-0.7,0.3-0.9-0.1c-0.2-0.5-0.4-1.1-0.4-1.6c0-1.8,0.4-3.5,1-5.1   c0.2-0.4,0.4-0.8,0.7-1.1L1044.6,135z"></path>		<path class="st5" d="M1020.5,151.4c0.3-0.2,0.7-0.4,1-0.6c0.1-0.1,0.2-0.3,0.3-0.5c-0.2-0.1-0.3-0.2-0.5-0.2h-2   c0.1-0.6,0.6-1,1.2-1c1,0,2.1,0,3.1,0.2c0.6,0.1,0.7,0.4,0.2,0.9C1022.8,150.9,1021.7,151.4,1020.5,151.4z"></path>		<path class="st5" d="M1004.2,115.9c-0.3,0.5-0.5,1-0.9,1.5c-0.2,0.3-0.5,0.4-0.8,0.2c-0.1,0-0.2-0.1-0.2-0.2   c-0.4-0.5-0.6-1.1-0.5-1.7c0.4-1.5,1-2.9,1.9-4.1c0.2-0.2,0.4-0.4,0.7-0.6l0.2,0.1c-0.2,0.4-0.3,0.7-0.5,1.1   c-0.4,0.9-0.8,1.8-1.2,2.7c-0.1,0.2-0.1,0.4-0.1,0.6c0,0.3,0.1,0.5,0.2,0.7l0.7-0.2l0.4-0.2L1004.2,115.9z"></path>		<path class="st5" d="M1006.5,135.2c0.3,0.8-0.1,1.7-0.9,2c-0.2,0-0.4,0-0.6-0.1c-0.3-0.3-0.5-0.7-0.6-1.1   c-0.1-1.9,0.5-3.8,1.8-5.2c0-0.1,0.1-0.1,0.2-0.2c0.1,0,0.1,0,0.2,0c-0.2,0.3-0.3,0.7-0.5,1c-0.3,0.8-0.6,1.6-0.8,2.4   c-0.1,0.5,0,1,0.2,1.4c0.2,0.5,0.5,0.5,0.9,0.1C1006.4,135.4,1006.4,135.3,1006.5,135.2z"></path>		<path class="st5" d="M1014.8,116.4c-0.2,1.1-0.3,2-0.4,3c0,0.6,0.1,1.2,0.9,1.3c0.1,0,0.2,0.1,0.3,0.3c-0.3,0.5-0.6,1-0.9,1.5   c0,0.1-0.5,0-0.6-0.1c-0.3-0.3-0.5-0.7-0.6-1.2C1013.4,119.5,1013.9,117.8,1014.8,116.4z"></path>		<path class="st5" d="M965.1,149.4c0.4-0.8,0.8-1.5,1.2-2.3c0.1-0.2,0.3-0.5,0.4-0.7c0.5-0.9,0.5-0.9-0.5-1.2   c-0.3-0.1-0.5-0.3-0.3-0.6c0.3-0.4,0.6-0.7,1-0.9c0.3-0.2,0.7,0,0.9,0.3c0,0.1,0.1,0.1,0.1,0.2c0.1,0.3,0.1,0.6,0,0.9   c-0.8,1.4-1.6,2.7-2.4,4.1c-0.1,0.1-0.1,0.1-0.2,0.2L965.1,149.4z"></path>		<path class="st5" d="M1022.3,116.4c-0.1,1.1-0.2,2-0.2,3c0,0.3,0,0.6,0.1,0.9c0.1,0.2,0.2,0.4,0.3,0.5l0.5-0.3   c0.1-0.1,0.1-0.2,0.2-0.3c0.3,0.6,0.1,1.4-0.5,1.7c-0.4,0.2-0.9,0.1-1.1-0.2c0,0,0,0,0,0l0,0v-0.1c-0.1-0.2-0.2-0.5-0.2-0.8   C1021.2,119.2,1021.5,117.7,1022.3,116.4z"></path>		<path class="st5" d="M973.6,162.5c0.4-0.3,0.6-0.7,0.9-0.8c0.4-0.1,0.8-0.1,1.2,0c0.2,0.1,0.3,0.7,0.2,1c-0.4,1.1-0.9,2.1-1.4,3.2   c-0.1,0.2-0.3,0.4-0.5,0.5l-0.2-0.1c0.1-0.2,0.2-0.5,0.3-0.7c0.2-0.5,0.4-0.9,0.6-1.4C975.1,163.2,974.9,162.9,973.6,162.5z"></path>		<path class="st5" d="M976.9,114.9c-0.1,0.6-0.5,1.1-1.1,1.2c-0.4,0.1-0.5-0.2-0.6-0.5c-0.2-1.4,0-2.8,0.7-4.1   c0.2-0.3,0.4-0.7,0.6-1l0.2,0.1c-0.2,0.5-0.4,1-0.5,1.6c-0.2,0.5-0.3,1-0.4,1.6C975.7,114.8,975.8,114.9,976.9,114.9z"></path>		<path class="st5" d="M1012.4,177.7c0.4-0.6,0.8-1.2,1.1-1.9c0.1-0.2,0.2-0.4,0.3-0.6c0.2-0.7,0-0.9-0.7-0.8h-0.2   c0-0.6,0.3-1.2,0.9-1.5c0.3,0,0.5,0.1,0.7,0.3c0.2,0.4,0.2,0.8,0.1,1.1C1014.3,175.7,1013.6,176.9,1012.4,177.7z"></path>		<path class="st5" d="M968.8,124.2l0.3,1.9l1.1-0.6c0,0.7-1,1.8-1.5,1.7c-0.2,0-0.3-0.1-0.3-0.3c-0.3-0.8-0.2-1.8,0.2-2.6   C968.5,124.4,968.6,124.4,968.8,124.2z"></path>		<path class="st5" d="M987.5,141.9l1.2-1.6c0.1-0.4,0.6-0.6,0.9-0.4c0,0,0,0,0.1,0l0,0l0,0c0.1,0,0.1,0.1,0.2,0.1   c0.5,0.3,1,0.7,1.4,1.1c0.5,0.4,0.6,1.2,0.2,1.8c-0.1,0.2-0.3,0.4-0.4,0.6l-0.7,0.9l-2.8-2.1l-2,2.3c-0.9-0.7-1.7-1.3-2.6-2   c-0.1-0.1-0.1-0.3,0-0.5c0.4-0.6,0.8-1.2,1.3-1.7c0.2-0.1,0.5-0.1,0.8,0C985.9,140.9,986.7,141.4,987.5,141.9z"></path>		<path class="st5" d="M977.9,144.8c-0.1,0.4-0.3,0.9-0.4,1.3c-0.1,0.4-0.2,0.7-0.4,1.1c-0.6,1-0.1,1.8,0.4,2.6   c0.2,0.3,0.4,0.3,0.6,0c0.2-0.3,0.5-0.5,0.8-0.8c-0.1,0.8-0.5,1.6-1.1,2.2c-0.6,0.4-1.3,0-1.3-0.8c-0.1-1.4,0-2.7,0.5-4   c0.2-0.5,0.4-0.9,0.6-1.3c0.1-0.2,0.2-0.3,0.3-0.5L977.9,144.8z"></path>	</g>	<path class="st30" d="M986.9,154.6c0.2,0.7,0.8,1.3,1.5,1.5c-0.9,0.3-1.6,1.1-1.8,2.1c0-0.4-0.2-0.7-0.3-1.1  c-0.2-0.4-0.6-0.6-1-0.7c-0.2-0.1-0.2-0.2-0.3-0.4c0-0.3,0.2-0.1,0.3-0.1c0.8-0.3,1-1,1.2-1.8L986.9,154.6"></path>	<path class="st30" d="M982.5,145.7c-0.1,0-0.2-0.1-0.2-0.3c1-0.1,1.3-0.9,1.5-1.8c0.2,0.9,0.9,1.7,1.8,1.9  c-0.9,0.2-1.5,0.9-1.7,1.7c-0.2,0.1-0.2,0.1-0.3-0.2C983.6,146.4,983.1,145.9,982.5,145.7"></path>	<path class="st30" d="M998.8,156.1L998.8,156.1c-0.6,0.1-0.8,0.6-1,1.4c-0.2-0.8-0.4-1.2-1.1-1.4c0.5-0.2,0.9-0.6,1.1-1.2  C998,155.4,998.3,155.8,998.8,156.1"></path>	<path class="st30" d="M1005.4,170.1c-0.1-0.5-0.8-0.5-1-1c0.7-0.1,1-0.7,1.1-1.4c0.3,0.6,0.5,1.2,1.4,1.5c-0.7,0.2-1.1,0.8-1.3,1.4  L1005.4,170.1"></path>	<path class="st30" d="M1020.7,164.3c0-0.8-0.5-1.4-1.3-1.6c0.7-0.2,1.2-0.8,1.3-1.5c0.1,0.7,0.6,1.3,1.3,1.5  C1021.3,162.9,1020.8,163.6,1020.7,164.3"></path>	<polygon class="st31" points="1000.9,150 1000.9,150 1000.9,150  "></polygon>	<path class="st31" d="M1004.4,169.1l-0.5-1.1c-0.1,1-0.7,1.8-1.7,2c1.2,0.3,1.5,1,1.7,2.1c0.1-0.9,0.6-1.7,1.4-2.1  C1005.2,169.7,1004.6,169.6,1004.4,169.1"></path>	<path class="st32" d="M1056.4,184.1l-0.2-0.8c-0.4,0.1-0.7,0.1-1.1,0h0.4c0.2,0.1,0.5,0,0.7-0.1c-0.3-0.6-0.5-1.1-0.8-1.7  c-0.3-1-1.2-1.6-1.6-2.5c-0.2-0.6-0.5-1.2-1-1.6c-0.2-0.2-0.5-0.3-0.8-0.3c-3.3-0.4-6.5-1-9.7-1.6c-1.8-0.3-3.6-0.7-5.3-1.1  c-3.6-0.7-7.2-1.1-10.8-1.2h-2.6c-0.9,0-1.9,0.1-2.8,0.3c-4.1,0.4-8,2.1-11.3,4.7c-0.9,0.6-1.6,1.4-2.2,2.4c0,0.2,0.2,0.3,0.4,0.4  c1.4,0.7,2.5,1.9,3.2,3.3c0.1,0.3,0.3,0.5,0.6,0.6c0.4,0.1,0.9,0,1.3-0.1c3.4-0.8,6.9-1.2,10.4-1.3c2.5,0,5,0.1,7.4,0.4  c3.2,0.3,6.3,0.6,9.5,0.9c0.6,0,1.1,0.1,1.6,0.1h14c0.3,0,0.6,0,0.9-0.2C1056.6,184.5,1056.5,184.3,1056.4,184.1"></path>	<path class="st32" d="M999,174c-2.7-1.1-5.6-1.8-8.6-1.8c-2.7-0.1-5.5,0-8.2,0.4c-4.8,0.6-9.5,1.8-14.3,2.8c-3,0.6-6.1,1.2-9.2,1.7  c-0.4,0-0.8,0.1-1.2,0.3c-0.3,0.3-0.5,0.7-0.7,1.1c-0.2,0.6-0.6,1.2-1,1.7c-0.5,0.4-0.8,0.9-0.9,1.4c-0.3,0.8-0.6,1.6-0.9,2.3  c0.2,0.2,0.4,0.1,0.6,0.1h-0.2c-0.2,0-0.4,0-0.6,0.1l-0.1,0.5c0.3,0.2,0.7,0.3,1,0.2c3.6,0,7.2,0.1,10.8-0.1c2-0.2,4-0.3,6-0.4  s4.2-0.3,6.3-0.4c2.9-0.2,5.8-0.4,8.7-0.5c1.8,0,3.6,0.1,5.4,0.3c2,0.1,3.9,0.4,5.8,1c0.2,0.1,0.4,0.1,0.7,0.1  c0.3-0.1,0.4-0.4,0.5-0.7c1-2,3-3.4,5.2-3.6c0.3,0,0.7,0,0.9-0.4c0-0.3-0.1-0.6-0.3-0.9C1003.6,177,1001.5,175.1,999,174"></path>	<path class="st33" d="M1028.2,157.7c1.9-1.3,3.9-2.5,6-3.5c1.8-0.9,3.6-1.8,5.4-2.6l2.1-0.8l-1.2,4.3c-0.1,0.5-0.6,0.4-0.9,0.4  c-2.1,0.4-4.1,0.8-6.2,1.3c-1.8,0.4-3.5,0.9-5.2,1.5c-0.2,0.1-0.4,0.1-0.6,0.1C1027.6,157.9,1028.1,157.9,1028.2,157.7"></path>	<path class="st34" d="M1028.2,157.7c0,0.4-0.5,0.3-0.5,0.6c-0.3,0.2-0.6,0.3-0.9,0.4C1027.2,158.3,1027.7,157.9,1028.2,157.7"></path>	<path class="st35" d="M1011.3,184.8c0.4,0,0.9,0,1.3-0.1c7.7-0.2,15.3,0,23-0.1c1.2,0,2.3,0,3.5,0.1c0.3,0.1,0.6,0.1,0.9,0  c5.1,0.3,10.3,0.1,15.4,0.1h1.1c0.7,0.1,1.1,0.4,1,0.9s-0.4,0.8-1.2,0.8h-42.8c-0.3,0-0.6-0.1-0.8,0.1c-0.5,0.1-1,0.1-1.5,0  c-0.4-0.1-0.8-0.2-0.7-0.8c0-0.1,0-0.2,0.1-0.2c0,0,0.1,0,0.1,0c0.5,0.3,0.5,0,0.5-0.4C1011.2,185.2,1011.1,185,1011.3,184.8"></path>	<path class="st35" d="M953.8,184.8c3.6,0,7.2,0.1,10.8-0.1h1.1c1,0.1,2,0.1,3.1,0h27.6c0.6,0.1,1.1,0.1,1.7,0.1l0.5,0.1  c0.1,0.1,0,0.3,0,0.4s-0.1,0.4,0.1,0.5s0.3-0.2,0.4-0.3s0.2-0.5,0.5-0.4c0.3,0.2,0.4,0.6,0.3,0.9c-0.1,0.4-0.5,0.7-0.9,0.7  c-0.6,0-1.3,0-1.9,0.1c-0.2-0.4-0.5-0.3-0.8-0.3H954c-0.4,0.1-0.7,0-1-0.3c-0.2-0.2-0.3-0.6-0.2-0.9c0.1-0.4,0.5-0.6,0.9-0.6"></path>	<path class="st36" d="M1007.1,180.7h0.3c1.7,0.8,3.1,2.3,3.9,4.1c0,0.1,0.1,0.3,0.1,0.4c0,0.1,0.2,0.6-0.1,0.7s-0.5-0.1-0.7-0.3  c-0.7-2-1.9-3.7-4-4.3c-3-0.9-6.2,0.7-7.2,3.6c-0.1,0.2-0.2,0.4-0.3,0.6s-0.2,0.4-0.5,0.3c-0.2-0.1-0.3-0.4-0.2-0.6l0,0  c0.1-0.2,0.1-0.4,0.2-0.6c0.6-1.6,1.8-3,3.4-3.8c1-0.4,2.1-0.7,3.2-0.7c0.2,0.2,0.4,0.1,0.5,0.1l0.8,0.1L1007.1,180.7"></path>	<path class="st37" d="M1023.4,173.5c0.9-0.2,1.8-0.2,2.8,0H1023.4"></path>	<path class="st36" d="M989.9,181.6v-2c-0.1-0.6,0.1-1.3-0.1-2v-0.3c-0.1-0.1-0.1-0.3,0-0.4c0,0,0,0,0,0l0,0v-2.4  c0.1-0.1,0.1-0.1,0.2-0.1c2,0,4,0.2,6,0.8c0.3,0,0.5,0.1,0.7,0.3c0,0.1,0,0.1,0,0.2c0,2.6-0.1,5.1-0.2,7.8l-1.2-0.9  c-0.3-0.1-0.5-0.2-0.8-0.4l-0.2-0.2c-1.5-1.1-0.9-1.1-2.5-0.1c-0.2,0.1-0.3,0.2-0.5,0.2c-0.5,0.2-1,0.5-1.5,0.8  c-0.2-0.3,0-0.6-0.1-0.9C989.8,181.9,989.8,181.7,989.9,181.6"></path>	<path class="st38" d="M1011.6,186.5c-0.5-0.1-1-0.1-0.9-0.8c0.1-0.2,0.1-0.4,0-0.6c-0.4-1.1-1.1-2-2-2.8c-1.1-0.9-2.6-1.4-4-1.3  c-2.2,0.1-4.1,1.3-5.1,3.2c-0.2,0.2-0.3,0.5-0.2,0.8c0.3,0.2,0.4,0.6,0.3,0.9c-0.1,0.4-0.5,0.6-0.9,0.6h-1.3c-0.2,0-0.4,0-0.5,0.3  c0.1,0.6,0.6,0.9,1.2,0.9h13.3c0.6,0.1,1.2-0.4,1.2-1l0,0C1012.4,186.4,1011.9,186.6,1011.6,186.5"></path>	<path class="st38" d="M1033.6,184.1c-4.5-0.6-9-0.8-13.5-0.6c-2.5,0.1-5,0.5-7.4,1.2c0.2,0.2,0.4,0.1,0.6,0.1h26  c0.3,0,0.5,0.1,0.8-0.1L1033.6,184.1"></path>	<path class="st38" d="M998.1,184.7c-0.5-0.1-0.9-0.3-1.4-0.4c-3.4-0.7-7-1-10.5-0.9c-6.8,0.2-13.7,0.9-20.5,1.3  c0.2,0.2,0.5,0.1,0.7,0.1h31.1C997.7,184.8,997.9,184.9,998.1,184.7"></path>	<path class="st39" d="M990,174.6c0.3-0.6,0.8-0.5,1.3-0.6c1.9,0.1,3.8,0.4,5.6,1c0.2,0.3,0.2,0.5-0.1,0.6c-1.5-0.4-3.1-0.7-4.7-0.9  c-0.6,0-1.1,0-1.7,0C990.3,174.8,990.1,174.9,990,174.6"></path>	<path class="st40" d="M1041.6,177.3c-2.3-0.5-4.7-0.9-7.1-1.4c-2.7-0.5-5.5-0.9-8.2-1c-3.8-0.2-7.7,0.5-11.3,1.8  c-1.1,0.4-2.2,0.9-3.2,1.5c1.1-0.4,2.1-0.8,3.2-1.1c2.8-1,5.8-1.6,8.7-1.7c3.1-0.1,6.3,0.2,9.4,0.8c4.2,0.7,8.3,1.5,12.5,2.2  c0.8,0.2,1.6,0.3,2.4,0.3C1045.9,178.3,1043.8,177.8,1041.6,177.3"></path>	<path class="st40" d="M1011.8,180.7c7.3-3.1,14.9-3.1,22.6-1.9C1026.7,177.2,1019.1,177,1011.8,180.7"></path>	<path class="st40" d="M1014.4,182.2c5.9-1.8,11.8-1.6,17.8-0.8C1026.2,180.2,1020.2,179.8,1014.4,182.2"></path>	<path class="st40" d="M990.6,173.9c-2.2,0-4.4,0-6.5,0.2c-2.1,0.2-4.2,0.5-6.3,0.9c-2.5,0.4-5,1.1-7.4,1.7  c-1.2,0.3-2.4,0.6-3.5,0.9c0.1,0.1,0.3,0.1,0.4,0.1c4.1-1,8.3-1.9,12.5-2.5c3.3-0.5,6.7-0.7,10-0.6h0.1c0.4-0.3,0.9-0.3,1.3-0.6  C991,173.9,990.8,173.9,990.6,173.9"></path>	<path class="st40" d="M989.4,179.2c-2.5-0.1-5-0.1-7.5,0.1c-2.1,0.1-4.2,0.4-6.3,0.7c-1.4,0.2-2.8,0.4-4.1,0.8  c6.1-0.8,12.2-1.6,18.4-1.1C989.9,179,989.7,179.3,989.4,179.2"></path>	<path class="st40" d="M974,182.7c5.3-0.6,10.6-0.8,15.9-0.6v-0.4C984.6,181.4,979.2,181.8,974,182.7"></path>	<path class="st40" d="M989.8,177.4V177c-0.2-0.1-0.5-0.1-0.8-0.1c-2.6,0-5.2,0.2-7.8,0.5c-1.5,0.2-3,0.4-4.5,0.7  C981.1,177.5,985.5,177.3,989.8,177.4"></path>	<path class="st40" d="M996.9,175c0,0.2,0,0.5-0.1,0.6v0.1c2.3,0.6,4.4,1.8,6.1,3.4C1001.4,177.2,999.3,175.7,996.9,175"></path>	<path class="st41" d="M994.5,182.1c-0.8-0.3-1.7-0.4-2.5-0.2c-0.2,0-0.3,0.1-0.4,0.3l4,0.5l-0.6-0.5  C994.7,182.2,994.6,182.1,994.5,182.1"></path>	<path class="st42" d="M1038.1,151.9c-1.3,0.4-3.4,1-5.8,1.9c-8.3,3-14.2,5.1-19.2,10.2c-1.8,1.8-3.3,3.9-4.5,6.1  c-0.1-4.3-0.7-8.5-1.5-12.7c-0.4-2.5-1.1-4.9-2-7.3c-1.4-3.7-3.3-7.1-5.6-10.3c-1.2-1.7-2.5-3.4-3.8-5c-0.3-0.4-0.6-0.6-1.1-0.2  c-2.2,1.4-4.3,2.7-6.5,4.1l-5,3.1c1.1,1,2.3,2.1,3.4,3.2c1.6,1.6,3.2,3.1,4.7,4.8c1.2,1.3,2.3,2.5,3.5,3.8c2.4,2.8,4.7,5.6,6.8,8.6  c1.6,2.1,3,4.4,4.1,6.8c0.9,1.9,1.4,3.9,1.6,5.9c0,0.2,0,0.4,0.2,0.5l0,0v4.2l3.5-4.8c0.3,0,0.4-0.3,0.5-0.5  c2.1-2.7,4.2-5.3,6.5-7.8c2.7-2.9,5.7-5.6,9-7.8l0,0c0.5-0.4,1-0.6,1.6-1c3.4-2.2,6.9-4.1,10.6-5.7l0.5-0.3c0.9-0.4,1.6-0.8,2.2-1  C1040.9,151,1039.6,151.4,1038.1,151.9"></path>	<path class="st43" d="M1004.1,173.6c-0.2-0.4-0.4-0.7-0.7-1.1l-0.3-0.3c0-0.1-0.1-0.1-0.1-0.2c-1.7-2.8-3.7-5.4-6-7.8  c-1.5-1.6-3.1-3.2-4.8-4.6c-2.4-2-5-3.9-7.6-5.7l-2.1-1.4c0,0,0,0.1,0,0.1c-0.5-0.6-1.1-1-1.8-1.1c0,0.1-0.1,0.2-0.2,0.3  c-1,0.7-2,1.4-2.9,2.1c-2.1,1.6-4.2,3.4-6.1,5.3c-2,1.8-3.8,3.8-5.7,5.8c-0.2,0.1-0.3,0.3-0.2,0.5c0,0,0,0,0,0l0,0  c0.1,0.2,0.3,0.3,0.5,0.2h0.1c0.6,0,1.3,0.1,1.9,0.2c2.5,0.2,5,0.4,7.5,0.6c2.8,0.3,5.6,0.6,8.4,0.9c3.7,0.4,7.4,1.1,11.1,2.1  c2.6,0.6,5,1.7,7.1,3.2c0.5,0.4,0.9,0.8,1.4,1.3c0.2,0.1,0.3,0.4,0.5,0.3S1004.2,173.8,1004.1,173.6"></path>	<path class="st43" d="M1005.9,179.9c0-0.5-0.1-1-0.3-1.4c-0.1-0.1-0.2-0.3-0.2-0.4c-0.5-2.1-1.7-4-3.5-5.3c-1.5-1.2-3.3-2-5.1-2.6  c-3.7-1.2-7.6-2.1-11.5-2.5c-2-0.3-4.1-0.5-6.2-0.7s-4.2-0.4-6.3-0.6c-0.8-0.1-1.7-0.1-2.5-0.1l0,0c0,0,0-0.1,0-0.1  c-0.6-0.2-1.1-0.3-1.7-0.3c-0.3,0-0.6-0.1-0.9,0.1c0,0.1-0.1,0.3-0.2,0.4c-1.8,1.9-3.5,3.8-5.3,5.8c-1.6,1.8-3.2,3.5-4.7,5.4  c2.5-0.3,4.9-0.7,7.4-1.2c4.3-0.8,8.5-1.8,12.8-2.7c2.9-0.6,5.9-1,8.8-1.2c2.5-0.1,5.1,0,7.6,0.4c2.5,0.3,4.9,1.3,7,2.7  c1.8,1.2,3.2,2.9,4,4.9c0.1,0.3,0.3,0.2,0.6,0.2c0.2-0.1,0.3-0.4,0.2-0.6"></path>	<path class="st44" d="M1007.1,177.2l-0.2-0.6c0-2.5-0.5-4.9-1.5-7.2c-1.6-3.3-3.5-6.5-5.9-9.3c-1.8-2.4-3.7-4.8-5.6-7  c-1.7-2-3.5-4-5.4-5.8c-0.7-0.7-1.3-1.4-2.1-2l0,0c-0.5-0.8-1.2-1.4-2-1.9h-0.1c-0.1,0.2-0.2,0.3-0.4,0.4c-2.6,1.5-5,3.1-7.4,4.9  c0.2,0.3,0.5,0.5,0.8,0.6c4.5,2.9,9,5.8,13.2,9c2.8,2.1,5.3,4.5,7.6,7.2c2.3,2.6,4.3,5.5,6,8.5c1.1,1.8,1.8,3.9,2,6  c0,0.2,0,0.5,0.3,0.5s0.2-0.4,0.3-0.6C1007.1,179,1007.1,178.1,1007.1,177.2"></path>	<path class="st43" d="M1052.4,176.8c-2-3-4-5.9-6-8.9c-0.5-0.8-1.4-1.4-2.3-1.6c-2.6-0.7-5.2-1.2-7.8-1.6c-1.5-0.3-3-0.5-4.6-0.6  c-2.2-0.2-4.4-0.1-6.5,0.2c-2.3,0.3-4.5,1.1-6.6,2.1c-0.2,0.1-1.1,0.8-1.2,0.8c-0.2,0.1-0.3,0.3-0.5,0.5c-1.2,1.4-2.4,2.8-3.6,4.3  c-1.4,1.8-2.8,3.6-4.1,5.5l0,0c-0.8,1-1.6,2.1-2.2,3.3c0.1,0.1,0.2,0.1,0.3,0c0.2-0.3,0.4-0.5,0.6-0.8c1.6-1.8,3.5-3.2,5.7-4.2  c3.1-1.4,6.4-2.1,9.7-2.3c0.9-0.1,1.8-0.1,2.8,0c1.4,0,2.7,0.2,4.1,0.3c2.7,0.3,5.4,0.7,8.1,1.2c1.3,0.2,2.6,0.6,3.9,0.8l0,0  c0.6,0.2,1.1,0.3,1.7,0.3c2.9,0.6,5.8,1,8.8,1.3C1052.7,177.1,1052.6,176.9,1052.4,176.8"></path>	<path class="st45" d="M994.8,182.2c-0.7,0-1.5,0-2.2-0.2c-0.2,0-0.5,0-0.7-0.1c0.4-0.3,0.8-0.6,1.2-0.8c0.2-0.2,0.4,0,0.6,0.1  L994.8,182.2"></path>	<path class="st46" d="M976.7,148.6c10.6,5.8,31,21.5,29.3,32c-0.7-0.9-0.6-3.3-1.7-4.7c-5.9-10.1-32.3-8.5-39-10.3  c13.1,0.4,33.8,2.2,38.7,8.6C997,161.1,985.6,155.7,976.7,148.6"></path>	<path class="st40" d="M1010.8,174.7c4.6-5.8,9.5-12,16-16c-12.6,8.7-21.5,27.1-20,20.8c1.3-14.5-16.3-29.5-22.7-36.5  c-0.4-0.2-1.7-1.9-0.4-0.9c11.7,11.3,24.9,25.1,23.8,36.4C1007,180.7,1009.6,175.2,1010.8,174.7"></path>	<path class="st47" d="M997.6,330.9c0,0,2.8-1.4,3.7-1.1s5.4,0.9,5.4,0.9l34.3,35.5h-8l-16-17c-1.6-1.5-3.8-2.1-5.9-1.7  c-1.9,0.5-2.4,2-1.1,3.5l14.3,15.2h-12.9l-25.2-26.8L997.6,330.9z"></path>	<polygon class="st48" points="947.5,304.4 995.3,326.7 1008.1,325 1044,299.3 1044,303.4 1008.1,332.4 959.4,329.5 914.7,301.1    "></polygon>	<polygon class="st47" points="1032.8,298.2 1044,299.3 1007.7,328.1 994.3,328.1 946,305.7 914.7,301.1 914.7,298 929.9,298.6   986.9,310.2  "></polygon>	<polygon class="st11" points="919.4,292.6 949.8,296.5 947.7,302.5 917.6,298.1  "></polygon>	<path class="st11" d="M987.5,294.1c0.3,0,44.7,2.2,44.7,2.2l-31.5,24.9l-30.8-18.4C969.8,302.8,977.1,295.5,987.5,294.1z"></path>	<g>		<defs>			<polygon id="SVGID_3_" points="919.4,292.6 949.8,296.5 947.7,302.5 917.6,298.1    "></polygon>		</defs>		<clipPath id="SVGID_4_">			<use xlink:href="#SVGID_3_" style="overflow:visible;"></use>		</clipPath>		<g class="st49">			<path class="st50" d="M959,300c-12.6-1.2-25.1-2.6-37.6-4.5c-3.5-0.5-7-1.1-10.5-1.7c-0.6-0.1-0.9,0.9-0.3,1    c12.5,2.2,25,3.8,37.6,5.2c3.6,0.4,7.2,0.8,10.8,1.1C959.7,301.1,959.6,300.1,959,300L959,300z"></path>			<path class="st50" d="M959,301.4c-12.6-1.2-25.2-2.6-37.7-4.5c-3.5-0.5-7-1.1-10.5-1.7c-0.6-0.1-0.9,0.9-0.3,1    c12.5,2.2,25,3.8,37.6,5.2c3.6,0.4,7.2,0.8,10.8,1.1C959.6,302.5,959.6,301.5,959,301.4L959,301.4z"></path>			<path class="st50" d="M911.3,293.8c12.6,1.2,25.2,2.6,37.6,4.5c3.5,0.5,7,1.1,10.5,1.7c0.6,0.1,0.9-0.9,0.3-1    c-12.5-2.2-25-3.8-37.6-5.2c-3.6-0.4-7.2-0.7-10.8-1.1C910.6,292.7,910.6,293.7,911.3,293.8L911.3,293.8z"></path>		</g>	</g>	<path class="st51" d="M949.6,296.5c24.7,2.9,50.3,20.7,50.3,20.7h0.3c3.1-6,10-10.4,15.6-13.9c4.9-3.3,10.4-5.7,16.2-7l0.1,0.1  c1.2,1.6,2.2,3.4,2.9,5.4l-32.2,22.4h-6.3l-49-21.6L949.6,296.5z"></path>	<g>		<defs>			<path id="SVGID_5_" d="M949.6,296.5c24.7,2.9,50.3,20.7,50.3,20.7h0.3c3.1-6,10-10.4,15.6-13.9c4.9-3.3,10.4-5.7,16.2-7l0.1,0.1    c1.2,1.6,2.2,3.4,2.9,5.4l-32.2,22.4h-6.3l-49-21.6L949.6,296.5z"></path>		</defs>		<clipPath id="SVGID_6_">			<use xlink:href="#SVGID_5_" style="overflow:visible;"></use>		</clipPath>		<g class="st52">			<path class="st50" d="M948.2,300.4c11.1,2.3,21.2,7,31.4,11.7c6,2.7,11.9,5.6,17.6,8.9l0.6,0.3l1.1,0.6l0.5,0.3l0.7,0.4l0.6-0.5    l0.5-0.4l0.9-0.8l0.5-0.4c4.5-3.6,9.2-6.9,13.9-10.1c9-6.1,17.9-12.3,28.3-16.2c0.4-0.1,0.6,0.4,0.2,0.6    c-10.4,3.9-19.2,10-28.2,16.1c-4.7,3.2-9.3,6.4-13.7,9.9l-0.5,0.4l-0.9,0.8l-0.5,0.4l-0.6,0.5l-0.5,0.4l-0.5-0.3l-0.7-0.4    l-0.5-0.3l-1.1-0.6l-0.5-0.3c-5.6-3.2-11.5-6-17.4-8.8c-10.2-4.7-20.2-9.4-31.2-11.7c-0.2,0-0.3-0.2-0.2-0.3c0,0,0,0,0,0    C947.9,300.5,948,300.4,948.2,300.4C948.2,300.4,948.2,300.4,948.2,300.4z"></path>			<path class="st50" d="M1044.4,293.6c-10.4,3.9-19.2,10-28.2,16.1c-4.9,3.3-9.8,6.8-14.3,10.5l-0.5,0.4l-0.9,0.8l-0.5,0.4    l-0.5-0.3c-0.4-0.2-0.7-0.4-1.1-0.6c-0.2-0.1-0.4-0.2-0.5-0.3c-5.9-3.4-12-6.4-18.2-9.2c-10.1-4.7-20.2-9.4-31.3-11.7    c-0.4-0.1-0.2-0.6,0.2-0.6c11.1,2.3,21.2,7,31.4,11.7c6.3,2.9,12.5,5.9,18.4,9.3l0.5,0.3l1.1,0.6l0.9-0.8l0.5-0.4    c4.7-3.8,9.6-7.2,14.6-10.6c9-6.1,17.9-12.3,28.3-16.2C1044.6,292.9,1044.8,293.5,1044.4,293.6z"></path>			<path class="st50" d="M1043.6,292c-10.4,3.9-19.2,10-28.2,16.1c-5.2,3.5-10.3,7.1-15.2,11.1l-0.5,0.4l-0.5-0.3    c-6.2-3.6-12.6-6.9-19.1-9.8c-10.2-4.7-20.2-9.4-31.3-11.7c-0.4-0.1-0.2-0.6,0.2-0.6c11.1,2.3,21.2,7,31.4,11.7    c6.6,2.9,13.1,6.2,19.3,9.9c4.9-4,10.1-7.7,15.4-11.3c9-6.1,17.9-12.3,28.3-16.2c0.2,0,0.3,0.1,0.3,0.3c0,0,0,0,0,0    C1043.7,291.8,1043.7,291.9,1043.6,292z"></path>		</g>	</g>			<rect x="1022.1" y="322.6" transform="matrix(0.6851 -0.7285 0.7285 0.6851 69.1688 855.3577)" class="st48" width="3.4" height="50.2"></rect>	<rect x="957.6" y="328.3" class="st48" width="50.1" height="4.3"></rect>	<path class="st48" d="M1011.1,347.6c0.4-0.1,0.9-0.2,1.4-0.1c-1.5,0.6-1.8,2-0.6,3.3l14.6,15.5h-2.1L1010,351  C1008.6,349.6,1009.1,348,1011.1,347.6z"></path>	<path class="st53" d="M967.6,348.6c1.3-1.4,0.8-3-1.1-3.4c-2.1-0.4-4.3,0.2-5.9,1.6l-16.3,17.3h-24.8l38.3-35.8l39.8,0.2  l-35.2,35.6h-9.3L967.6,348.6z"></path>	<path class="st47" d="M962.1,348.1l-15.2,16.1h-2.7l16.4-17.3c1.6-1.5,3.8-2.1,5.9-1.6c0.8,0.1,1.4,0.6,1.7,1.3l-0.2-0.1  C965.8,346,963.6,346.6,962.1,348.1z"></path>			<rect x="954.2" y="346.3" transform="matrix(0.729 -0.6845 0.6845 0.729 27.2773 764.9334)" class="st48" width="50.9" height="3.4"></rect>	<polygon class="st47" points="946.9,364.1 946.9,366.6 920.7,366.4 919.4,364.2  "></polygon>	<polygon class="st47" points="953,364.1 959.9,364.1 962.3,366.7 955.1,366.6  "></polygon>	<g class="st54">		<path class="st55" d="M760.1,71.2l1.2-3.8l1.2,3.8c1.3,4.2,4.2,7.7,8.1,9.8l0,0c-3.9,2.1-6.7,5.6-8.1,9.8l-1.2,3.8l-1.2-3.8   c-1.3-4.2-4.2-7.7-8.1-9.8l0,0C755.9,78.9,758.7,75.4,760.1,71.2z"></path>		<path class="st55" d="M701.5,202.9l1.2-3.8l1.2,3.8c1.3,4.2,4.2,7.7,8.1,9.8l0,0c-3.9,2.1-6.7,5.6-8.1,9.8l-1.2,3.8l-1.2-3.8   c-1.3-4.2-4.2-7.7-8.1-9.8l0,0C697.3,210.6,700.2,207.1,701.5,202.9z"></path>		<path class="st55" d="M1016.9,220.8l0.8-2.6l0.8,2.6c0.9,2.8,2.8,5.2,5.4,6.6l0,0c-2.6,1.4-4.5,3.8-5.4,6.6l-0.8,2.6l-0.8-2.6   c-0.9-2.8-2.8-5.2-5.4-6.6l0,0C1014.1,226,1016.1,223.6,1016.9,220.8z"></path>		<path class="st55" d="M880.1,81.2l0.8-2.4l0.8,2.4c0.8,2.6,2.7,4.9,5.1,6.2l0,0c-2.4,1.3-4.3,3.6-5.1,6.2l-0.8,2.4l-0.8-2.4   c-0.8-2.6-2.7-4.9-5.1-6.2l0,0C877.4,86.1,879.2,83.9,880.1,81.2z"></path>		<path class="st55" d="M825.4,122.2l0.8-2.4l0.8,2.4c0.8,2.6,2.7,4.9,5.1,6.2l0,0c-2.4,1.3-4.3,3.6-5.1,6.2l-0.8,2.4l-0.8-2.4   c-0.8-2.6-2.7-4.9-5.1-6.2l0,0C822.8,127,824.6,124.8,825.4,122.2z"></path>		<path class="st55" d="M810.3,215.4l0.8-2.4l0.8,2.4c0.8,2.6,2.7,4.9,5.1,6.2l0,0c-2.4,1.3-4.3,3.5-5.1,6.2l-0.8,2.4l-0.8-2.4   c-0.8-2.6-2.7-4.9-5.1-6.2l0,0C807.6,220.2,809.4,218,810.3,215.4z"></path>		<path class="st55" d="M967.2,212.4l0.8-2.4l0.8,2.4c0.8,2.6,2.7,4.9,5.1,6.2l0,0c-2.4,1.3-4.3,3.6-5.1,6.2l-0.8,2.4l-0.8-2.4   c-0.8-2.6-2.7-4.9-5.1-6.2l0,0C964.5,217.2,966.3,215,967.2,212.4z"></path>		<path class="st55" d="M701.9,149.4l0.8-2.4l0.8,2.4c0.8,2.6,2.7,4.9,5.1,6.2l0,0c-2.4,1.3-4.3,3.6-5.1,6.2l-0.8,2.4l-0.8-2.4   c-0.8-2.6-2.7-4.9-5.1-6.2l0,0C699.2,154.3,701.1,152.1,701.9,149.4z"></path>		<path class="st56" d="M957.6,246.4l0.8-2.4l0.8,2.4c0.8,2.6,2.7,4.9,5.1,6.2l0,0c-2.4,1.3-4.3,3.6-5.1,6.2l-0.8,2.4l-0.8-2.4   c-0.8-2.6-2.7-4.9-5.1-6.2l0,0C954.9,251.2,956.7,249,957.6,246.4z"></path>		<path class="st57" d="M722.3,100l0.8-2.6l0.9,2.6c0.9,2.8,2.8,5.1,5.3,6.5l0,0c-2.6,1.4-4.5,3.7-5.3,6.5l-0.8,2.6l-0.8-2.6   c-0.9-2.8-2.8-5.1-5.4-6.5l0,0C719.6,105.1,721.5,102.8,722.3,100z"></path>	</g></g></svg>