<svg xmlns="http://www.w3.org/2000/svg" id="Layer_1" data-name="Layer 1" viewBox="0 0 450 500.1"><defs><style>.cls-1{fill:#dfecff;}.cls-2{opacity:0.51;}.cls-3{fill:#48b2e5;}.cls-4{fill:#414156;}.cls-5{fill:#a3c2e3;}.cls-6{fill:#ff7e6f;}.cls-7{fill:#ffa07e;}.cls-8{fill:#ed4957;}.cls-9{fill:#ffbf8e;}.cls-10{fill:#3f3f56;}.cls-11{fill:#b897a7;}.cls-12{fill:#404040;}.cls-13{fill:#ffb600;}.cls-14{fill:#1e1e3b;}.cls-15{fill:#296999;}.cls-16{fill:#fed;}.cls-17{fill:#ff5b69;}.cls-18{fill:#0d1111;}.cls-19{fill:#595959;}.cls-20{fill:#ffded4;}.cls-21,.cls-38{fill:#fff;}.cls-22{fill:#c5c8d8;}.cls-23{fill:#f9f8f6;}.cls-24{fill:#d5d7e3;}.cls-25{fill:#021f60;opacity:0.47;}.cls-25,.cls-36,.cls-50{isolation:isolate;}.cls-26{fill:#fffffd;}.cls-27,.cls-28{fill:none;stroke-linecap:round;stroke-linejoin:round;stroke-width:2px;}.cls-27{stroke:#fffffd;}.cls-28{stroke:#d84f4c;}.cls-29{fill:#d84f4c;}.cls-30,.cls-50{fill:#456997;}.cls-31,.cls-43{fill:#ffa07f;}.cls-32,.cls-46{fill:#ff7d6f;}.cls-33{fill:#ffbf90;}.cls-34{fill:#fdb91a;}.cls-35{fill:#ea9f07;}.cls-36{fill:#141618;opacity:0.42;}.cls-37,.cls-41{fill:#b4e4fc;}.cls-37,.cls-38,.cls-39,.cls-40,.cls-42,.cls-43,.cls-45,.cls-46,.cls-47{fill-rule:evenodd;}.cls-39{fill:#17aa39;}.cls-40{fill:#1c7a09;}.cls-42,.cls-44{fill:#cf4a57;}.cls-45{fill:#f68b85;}.cls-47{fill:#131216;}.cls-48{fill:#252727;}.cls-49{fill:#fff0e7;}.cls-50{opacity:0.2;}.cls-51{opacity:0.76;}.cls-52{fill:#fffff9;}.cls-53{fill:#17616a;}</style></defs><title>Arabic-language-courses-mobile-slider</title><rect class="cls-1" width="450" height="500.1"></rect><g class="cls-2"><path class="cls-3" d="M332,229.7H126a184.48,184.48,0,0,1-26-81.3c-.1-1.1-.2-2.3-.2-3.4a176.19,176.19,0,0,1,.1-21.8c.1-1.1.2-2.3.2-3.4l.1-1.2c1.2-13.6,4.1-27.5,11.6-39s20.2-20.2,33.9-20,25.3,8.8,37.8,14.2A89.14,89.14,0,0,0,251,75.2c9.6-3.8,18.4-9.2,28-13s20.3-6,30.2-2.9C326.6,65,335,84.9,339,103A235.4,235.4,0,0,1,332,229.7Z"></path></g><rect class="cls-4" x="104.9" y="229.7" width="234.2" height="4.6"></rect><circle class="cls-5" cx="215.3" cy="118.6" r="16.3"></circle><circle class="cls-1" cx="215.3" cy="118.6" r="13.1"></circle><path class="cls-5" d="M209.3,112.4a.76.76,0,0,1,.5.2l6.1,5a.91.91,0,0,1,.3.7V127a.8.8,0,1,1-1.6,0h0v-8.3l-5.8-4.7a.82.82,0,0,1-.1-1.2.55.55,0,0,1,.6-.4Z"></path><rect class="cls-5" x="117.8" y="83.5" width="43.7" height="28.6"></rect><rect class="cls-1" x="121.7" y="86.9" width="35.8" height="21.8"></rect><path class="cls-5" d="M134.6,119.8v28.6H99.9c-.1-1.1-.2-2.3-.2-3.4a176.19,176.19,0,0,1,.1-21.8c.1-1.1.2-2.3.2-3.4Z"></path><path class="cls-1" d="M130.6,123.2V145H99.7a176.19,176.19,0,0,1,.1-21.8Z"></path><path class="cls-6" d="M260.4,177.8c-.6,1.3-2,2-3.2,2.7-2.3,1.2-4.6,2.7-6.9,3.9l-4.4,4.2-5.4-5.2-1.6-1.5,4.3-4a29.15,29.15,0,0,1,.4-11.4c.5-1.4.9-2.9,1.3-4.4.3-1.9-.1-3.9,0-5.9a2,2,0,0,1,.4-1.3,1.22,1.22,0,0,1,1.6-.1,2.37,2.37,0,0,1,1.1,1.3c0,.1.1.1.1.2a11.86,11.86,0,0,1,1.4,7.6,1.7,1.7,0,0,0,0,1,1.34,1.34,0,0,0,.7.6,8.33,8.33,0,0,0,5.4.3,3.6,3.6,0,0,1,2.3-.1c1.1.4,1.5,1.6,1.8,2.7a28.4,28.4,0,0,1,1,6.5A4.93,4.93,0,0,1,260.4,177.8Z"></path><path class="cls-7" d="M248.3,182.2l-4.9,3.8-4.4-4.3,4.3-4a29.15,29.15,0,0,1,.4-11.4c.5-1.4.9-2.9,1.3-4.4.3-1.9-.1-3.9,0-5.9a2,2,0,0,1,.4-1.3,1.22,1.22,0,0,1,1.6-.1,2.37,2.37,0,0,1,1.1,1.3c0,.1.1.1.1.2a2,2,0,0,0-1.1-.1c-.9.2-.8,1.5-.6,2.5.4,2.2-.5,4.4-1.1,6.6C244.3,169.3,247.1,178.1,248.3,182.2Z"></path><path class="cls-8" d="M252.5,173.9a12.25,12.25,0,0,1-.6,6,10.34,10.34,0,0,0,1.8-5.6,6.17,6.17,0,0,0-2.6-5.1,3.13,3.13,0,0,0-1-.5c.1.7,1.1,1.6,1.4,2.3A6.3,6.3,0,0,1,252.5,173.9Z"></path><path class="cls-7" d="M260.7,178.4c-2.9,1.3-6.8.5-6.8.5a8.08,8.08,0,0,1-.7-2.2,4.1,4.1,0,0,1-.1-1.1,20.9,20.9,0,0,1-.1-2.5V172c.1-1,.2-2,.3-2.9a3.59,3.59,0,0,1,.2-1.1c.2-1,.3-1.9.5-2.5a9.1,9.1,0,0,1,.3-1.2c2.9-.3,7.2,1.5,7.2,1.5a12.85,12.85,0,0,1,.7,3.4A27.7,27.7,0,0,1,260.7,178.4Z"></path><path class="cls-8" d="M258.1,168.9s-.4.1-1,.2a17.7,17.7,0,0,1-2.3.1,7.57,7.57,0,0,1-1.5-.1,3.59,3.59,0,0,1,.2-1.1,5.85,5.85,0,0,1,1.3-.2,5.33,5.33,0,0,1,2.4.6C257.5,168.6,257.8,168.7,258.1,168.9Z"></path><path class="cls-8" d="M257.5,172.8s-.4.1-.9.2a15,15,0,0,1-2.2.2,6.6,6.6,0,0,1-1.4-.1V172a5.85,5.85,0,0,1,1.3-.2,6.35,6.35,0,0,1,2.3.5A7.26,7.26,0,0,1,257.5,172.8Z"></path><path class="cls-8" d="M258,176.4s-.4.1-1,.2a17.85,17.85,0,0,1-2.3.2,7.57,7.57,0,0,1-1.5-.1,4.1,4.1,0,0,1-.1-1.1,8.75,8.75,0,0,1,1.6-.2,6.87,6.87,0,0,1,2.4.5C257.4,176.1,257.7,176.2,258,176.4Z"></path><path class="cls-9" d="M262.1,169.1a8,8,0,0,0-2.1-2,10.89,10.89,0,0,0-2.5-1,28.17,28.17,0,0,0-3.1-.7h-.5c.2-.7.3-1.2.3-1.2,2.9-.3,7.2,1.5,7.2,1.5A14.71,14.71,0,0,1,262.1,169.1Z"></path><path class="cls-10" d="M208.3,152.6c-1.5-1.1-7.8-3.2-7.8-3.2l.8,43.7,15.4,17s4.4,3.5,9.3,1,22.5-22.9,22.5-22.9l-9.4-10.5L222.9,188S209.9,153.7,208.3,152.6Z"></path><path class="cls-11" d="M208.5,229.5c-.4-4.4-.8-7.6-.8-7.6l-37.1,7.6Z"></path><polygon class="cls-12" points="208.4 229.5 208.4 228.8 189.5 229.3 187.6 229.3 182.5 229.4 181.8 229.5 208.4 229.5"></polygon><polygon class="cls-13" points="187.6 229.5 187.6 229.3 182.5 229.4 182.5 229.5 187.6 229.5"></polygon><path class="cls-10" d="M152.4,229.5h57.4c-2.1-26.5-4.4-51.8-4.2-58.3.3-10.2-5-21.8-5-21.8l-1.8-.5-.5-.1-6.3-1.6-11.9-3.1-10.9-2-5.8.7-3.6.4-3.7.4h0l-9.2,3.6,5.1,35.4Z"></path><path class="cls-14" d="M202.6,154.6s3.9,11.3,4.9,15.8,0,27.5,0,27.5l-1.9-26.6Z"></path><path class="cls-15" d="M192,147.2s-.7,14.7-2.6,25c-1,5.5-2.4,9.7-4.1,9.7-1.4,0-4-2.9-6.9-7.2-7.8-11.2-18.6-31.7-18.6-31.7l3.6-.4,5.8-.7,10.9,2Z"></path><path class="cls-16" d="M167.1,138.7a29.43,29.43,0,0,0-4.7,4s6.9,10.7,11.2,13.9l7-6.2,6.7,4.2s-1.6-8.8-2.5-9.7-3.8-4.1-3.8-4.1Z"></path><path class="cls-7" d="M167.3,140.9c.3.3,13.4,7.6,13.4,7.6a35.4,35.4,0,0,0,0-8.3c-.2-1-.3-1.7-.3-1.8a65.58,65.58,0,0,1,.2-6.9l-14.4-4.4s.1,2.8.3,5.9C166.8,136.6,167.1,140.8,167.3,140.9Z"></path><path class="cls-6" d="M166.6,132.9c4.1,2.3,13.2,7.2,14.1,7.3h.1c-.2-1-.3-1.7-.3-1.8a65.58,65.58,0,0,1,.2-6.9l-14.4-4.4C166.3,126.9,166.4,129.7,166.6,132.9Z"></path><path class="cls-7" d="M164.6,128.2a5.3,5.3,0,0,0,2.1,2.1h0c.4.3.8.5,1.2.8,1.7,1,17.3,5.9,19.6,5.3s3.6-8.7,3.7-9.5c.2-5.2.6-21.2.6-21.2-7.5-16.6-26.8-5.6-28.9-3.7S164.6,128.2,164.6,128.2Z"></path><path class="cls-9" d="M166.7,130.4c.4.3.8.5,1.2.8,1.7,1,17.3,5.9,19.6,5.3s3.6-8.7,3.7-9.5c-1.1,3.6-2.2,8.6-3.9,8.6C184.8,135.5,168.6,131.1,166.7,130.4Z"></path><path class="cls-12" d="M191.3,111.6s-3.1-3.4-4.5-1.8-.7,1.7-.7,1.7Z"></path><path class="cls-12" d="M168.8,109.8s6.4-4.5,7.9-2c.9,1.5-.1,2.1-.1,2.1Z"></path><path class="cls-17" d="M178.5,125.8a7,7,0,0,0,6.8,2.4,3.7,3.7,0,0,0,2.2-1.2,11.39,11.39,0,0,1-5.5.2A13.49,13.49,0,0,1,178.5,125.8Z"></path><path class="cls-17" d="M180.5,128.8a3.73,3.73,0,0,0,3.7,1.3,1.85,1.85,0,0,0,1.2-.7,6.1,6.1,0,0,1-3,.1A4.9,4.9,0,0,1,180.5,128.8Z"></path><path class="cls-6" d="M184.5,121.5a28.75,28.75,0,0,1-4,.9,2.33,2.33,0,0,0,2.1,1.3,13.58,13.58,0,0,0,2.9-.3A11.4,11.4,0,0,1,184.5,121.5Z"></path><path class="cls-17" d="M185.9,123.2a18.83,18.83,0,0,1-2.9-8h0a12.27,12.27,0,0,0,2.1,7.9c-1,.1-2,.1-3,.2-.1,0-.2.1-.2.3h0a.22.22,0,0,0,.2.2,7.29,7.29,0,0,0,3.6-.1c.2,0,.3-.2.3-.4h0Z"></path><path class="cls-18" d="M171.2,116.5a3.52,3.52,0,0,1,4.6-1.7,3.75,3.75,0,0,1,1.7,1.6A6.43,6.43,0,0,0,171.2,116.5Z"></path><path class="cls-18" d="M185,117a3.07,3.07,0,0,1,4.2-1.5,3.39,3.39,0,0,1,1.5,1.4A5.79,5.79,0,0,0,185,117Z"></path><path class="cls-9" d="M166.9,128.6a9.44,9.44,0,0,1-6.9-2.9c-.3-.3-.5-.6-.8-.9-1-1.5-1.9-7,.3-8.5,1.5-1.1,2.8.1,3.4.9h0a2.09,2.09,0,0,1,.4.6Z"></path><path class="cls-7" d="M166.9,128.6a9.44,9.44,0,0,1-6.9-2.9c-.1-.1-.2-.3-.3-.4-1-1.5-1.9-7,.3-8.5a2.25,2.25,0,0,1,3,.4h0a2.09,2.09,0,0,1,.4.6Z"></path><path class="cls-6" d="M159.2,120.7a2.74,2.74,0,0,0,.2,1.3c.8,1.8,2.8,3,4.7,4.2a4.68,4.68,0,0,1-.9-2.8v-1C163.2,120.9,159.7,118,159.2,120.7Z"></path><path class="cls-8" d="M165.2,126.6h-.1c-.1,0-.2-.1-.3-.1a3.59,3.59,0,0,1-1-.7,4.19,4.19,0,0,1-.9-1.4,3.4,3.4,0,0,1,0-2c0-.1.1-.2.1-.3V122h0l-.1-.1-.1-.2c-.2-.2-.4-.5-.6-.7a4.35,4.35,0,0,0-.7-.6c-.2-.2-.4-.3-.6-.5a1.42,1.42,0,0,0-.6-.2.9.9,0,0,0-.5.1.22.22,0,0,0-.2.2v0c0-.1.1-.2.2-.3s.3-.2.5-.2a2.2,2.2,0,0,1,.8.1,4.57,4.57,0,0,1,1.4,1,4.62,4.62,0,0,1,.7.7l.2.2.1.1.1.1.1.1-.1.1-.1.2a.35.35,0,0,1-.1.2,3.34,3.34,0,0,0-.1,1.7,3.1,3.1,0,0,0,.6,1.3,3,3,0,0,0,.8.8c.1.1.2.1.3.2Z"></path><path class="cls-18" d="M158.3,105.2c.1,2.4.3,4.7.6,7a22.13,22.13,0,0,0,1.5,5h.1c.6.2,3.7,2.1,3.8,2.1,3.1-4.4,3.6-10.3,3.5-15.7a10.92,10.92,0,0,0,6.8,1.8,7.09,7.09,0,0,1-.9-2.8,11.58,11.58,0,0,0,6.5,5,4.76,4.76,0,0,0,3.7-.1,7.62,7.62,0,0,1-3.4-4.3c3.7,3.3,8.5,5.7,13.4,5.1a5.39,5.39,0,0,0,.3-2.5,10.49,10.49,0,0,0-1.1-4.2c-1.6-3.1-4.5-6.9-7.9-7.9a6.57,6.57,0,0,0,2.7-3,28,28,0,0,0-5.8-.9,29.55,29.55,0,0,0-10.6,1.8c-2.2.8-4.4,1.8-5.6,3.7-2.2-.8-5.1.7-6.3,2.8A12.55,12.55,0,0,0,158.3,105.2Z"></path><path class="cls-12" d="M158.3,105.2l.1.8a62,62,0,0,0,.6,6.2,18.57,18.57,0,0,0,3.3-4.1c.2,1.6.3,3.3.5,4.9a21.69,21.69,0,0,0,4-13.5,10.44,10.44,0,0,0,5.5,2.6,9.08,9.08,0,0,1-.6-4,23.24,23.24,0,0,0,7.9,5.6,13.3,13.3,0,0,1,.2-5.6c.8,2.3,2.9,3.9,4.9,5.1a17.39,17.39,0,0,0,5.8,2.4,8.56,8.56,0,0,0,3.9,0,10.32,10.32,0,0,0-.7-3.4,3,3,0,0,0-.4-.8c-1.6-3.1-4.5-6.9-8-7.9a6.57,6.57,0,0,0,2.7-3,23.16,23.16,0,0,0-5.8-.8,29.55,29.55,0,0,0-10.6,1.8c-2.2.8-4.4,1.8-5.6,3.7-2.2-.8-5.1.7-6.3,2.8A12.3,12.3,0,0,0,158.3,105.2Z"></path><path class="cls-19" d="M158.3,105.2l.1.8a16.88,16.88,0,0,0,3.7-4.3c.4,1.5.9,3.1,1.3,4.6a8.12,8.12,0,0,0,.5-6.8,8.1,8.1,0,0,0,5.3-3.1,3.7,3.7,0,0,0,.8,1.8,21.11,21.11,0,0,0,2.8-4.5,12.65,12.65,0,0,0,6.4,4.2c.1-1,.3-2,.4-3.1a21.2,21.2,0,0,0,7,6.3,12.64,12.64,0,0,0,6.9,1.4,2,2,0,0,0-.4-.8c-1.6-3.1-4.5-6.9-8-7.9a6.57,6.57,0,0,0,2.7-3,28,28,0,0,0-5.8-.9,29.55,29.55,0,0,0-10.6,1.8c-2.2.8-4.4,1.8-5.6,3.7-2.2-.9-5.1.7-6.3,2.8A12.87,12.87,0,0,0,158.3,105.2Z"></path><path class="cls-20" d="M174.1,219.3h32.3a92.14,92.14,0,0,0,6.5-34,56.33,56.33,0,0,0-.4-7.1l-29.6,1.2A102,102,0,0,1,174.1,219.3Z"></path><path class="cls-21" d="M182.8,179.3c2.3.7,5.1,7.2,5.1,7.2l24.9-1.3,4.9-.3c-.9-6.3-5.3-6.8-5.3-6.8Z"></path><path class="cls-7" d="M180.5,186.2a4.71,4.71,0,0,1,1.3-1.5c3.2-2.3,8.1-5.9,9.3-4.7s-7.9,7.9-7.9,7.9l.9,3,4-2.5,6.9-.3s.6,1.2,1.3,2.7c.1.1.1.3.2.4h0v.1a1.69,1.69,0,0,1,.2.5,19.45,19.45,0,0,1,.8,2.2.35.35,0,0,0,.1.2,5,5,0,0,1,.2,1.2,1.41,1.41,0,0,1-.1.9l-5.2,1.4s-3,6.8-3.9,7.5c-.4.3-9.4,2.3-9.4,2.3l-5-9.8,2.6-1.2C177,196.5,179.5,187.7,180.5,186.2Z"></path><path class="cls-8" d="M196.2,190.9l.2.6h-.1c-.8.1-1.9.3-3,.5a13.79,13.79,0,0,0-2.9.8l-.5.2-.4.2-.3.2.2-.3.3-.3c.1-.1.3-.2.4-.4a6.63,6.63,0,0,1,3.1-1.3A5.15,5.15,0,0,1,196.2,190.9Z"></path><path class="cls-8" d="M197.5,194.2l.1.2-.9.1c-.8.1-1.9.3-3,.5a13.79,13.79,0,0,0-2.9.8l-.5.2-.4.2-.3.2a1.24,1.24,0,0,0,.2-.3l.3-.3.4-.4a6.63,6.63,0,0,1,3.1-1.3,6.93,6.93,0,0,1,3.2.1A.6.6,0,0,1,197.5,194.2Z"></path><path class="cls-10" d="M146.9,147s-9.8,6.1-10.7,9.7-6.8,51.2-5.1,55.4,10.7,13,12.7,13.8,38.1-16.4,38.1-16.4l-5-13.3-23.5,4.9,2-19.1Z"></path><path class="cls-14" d="M169.8,194.7c-2.9,1-5.8,2.2-8.7,3.4l-4.2,1.8c-1.1.5-2.2,1.1-3.4,1.6a19.53,19.53,0,0,0,.3-3.4c.1-1.6.1-3.3.1-4.9-.1-3.2-.3-6.3-.7-9.4a105.1,105.1,0,0,0-4-18.5,85.33,85.33,0,0,0-4-9.9c-.1-.3-.6-.1-.5.2,1.1,2.9,2,5.9,2.8,8.8s1.7,6,2.4,9.2a96,96,0,0,1,1.9,18.5v5.3c0,1.8-.3,3.6.2,5.3a.57.57,0,0,0,.7.4h0c.1,0,.3-.1.3-.2,1.5-.5,3-.9,4.5-1.4l4.3-1.5a92.15,92.15,0,0,0,8.7-3.4C171.6,196.1,170.9,194.3,169.8,194.7Z"></path><path class="cls-14" d="M175.4,211.3a65.6,65.6,0,0,1-20.1,9.7.49.49,0,0,0-.3.6.55.55,0,0,0,.5.3,49.59,49.59,0,0,0,20.6-9.4C176.9,212,176.2,210.7,175.4,211.3Z"></path><polygon class="cls-21" points="170.3 195 176.7 212.4 182.9 210.2 176.5 193.2 170.3 195"></polygon><path class="cls-22" d="M224.9,65.6h98.3a5.55,5.55,0,0,1,5.5,5.5v63.1a5.55,5.55,0,0,1-5.5,5.5H224.9a5.55,5.55,0,0,1-5.5-5.5V71.1A5.55,5.55,0,0,1,224.9,65.6Z"></path><path class="cls-21" d="M216.7,70.8v63.7a5.16,5.16,0,0,0,5.2,5.2h98.9a5.16,5.16,0,0,0,5.2-5.2h0V70.8a5.16,5.16,0,0,0-5.2-5.2H221.9a5.24,5.24,0,0,0-5.1,4.2C216.8,70.1,216.7,70.5,216.7,70.8Z"></path><path class="cls-22" d="M224.5,69.2h93.6a4.12,4.12,0,0,1,4.1,4.1V132a4.12,4.12,0,0,1-4.1,4.1H224.5a4.12,4.12,0,0,1-4.1-4.1V73.3A4.12,4.12,0,0,1,224.5,69.2Z"></path><path class="cls-23" d="M226.7,70.8h91.5a4.12,4.12,0,0,1,4.1,4.1v57a4.12,4.12,0,0,1-4.1,4.1H226.7a4.12,4.12,0,0,1-4.1-4.1V75A4.08,4.08,0,0,1,226.7,70.8Z"></path><path class="cls-24" d="M222.5,74.7v.7h99.8v-.7a3.9,3.9,0,0,0-3.9-3.9h-92a4,4,0,0,0-3.9,3.9Z"></path><path class="cls-21" d="M316.9,73.1A1.1,1.1,0,1,0,318,72h0a1.11,1.11,0,0,0-1.1,1.1Z"></path><path class="cls-21" d="M313.1,73.1a1.1,1.1,0,1,0,1.1-1.1h0a1.11,1.11,0,0,0-1.1,1.1Z"></path><path class="cls-21" d="M309.3,73.1a1.1,1.1,0,1,0,1.1-1.1h0A1.11,1.11,0,0,0,309.3,73.1Z"></path><path class="cls-25" d="M222.4,129.5h99.9v2.6a4.12,4.12,0,0,1-4.1,4.1H226.6a4.21,4.21,0,0,1-4.2-4.1h0v-2.6Z"></path><path class="cls-26" d="M227.7,133.1l-2,1.5c-.1.1-.3,0-.3-.2v-2.9c0-.2.2-.3.3-.2l2,1.5q.15,0,0,.3Z"></path><line class="cls-27" x1="230.2" y1="132.9" x2="319.3" y2="132.9"></line><line class="cls-28" x1="229.5" y1="132.9" x2="234.7" y2="132.9"></line><path class="cls-29" d="M236.6,132.9a1.92,1.92,0,0,1-3.8-.6,1.86,1.86,0,0,1,1.9-1.6A2.11,2.11,0,0,1,236.6,132.9Z"></path><path class="cls-26" d="M235.6,132.9a1,1,0,0,1-1.9-.3,1,1,0,0,1,.9-.8A1,1,0,0,1,235.6,132.9Z"></path><polygon class="cls-30" points="297.7 129.4 264.2 129.4 262.7 97.1 260.2 83.4 263.9 82.4 279.7 85.3 296.7 82.2 300.6 83.6 298.4 97.4 297.7 129.4"></polygon><path class="cls-30" d="M264.9,115.8a11.51,11.51,0,0,1-.7-6.6L266.1,99l-4.4-16.1-2.3.6s-.5.2-1.1.5c-.8.4-1.6.8-2.4,1.3-2.7,1.9-1.7,24.2-1.7,24.2.5,10.3-.1,13,2.3,14.7,3.9,2.8,11.7-.2,12.1-2.8C268.9,119.9,266.4,119.2,264.9,115.8Z"></path><path class="cls-30" d="M297.4,115.6a12.47,12.47,0,0,0,.8-6.6l-1.9-10.2,4.4-16.1,2.3.6s.5.2,1.1.5c.8.4,1.6.8,2.4,1.3,2.7,1.9,1.7,24.2,1.7,24.2-.5,10.3.1,13-2.3,14.7-3.9,2.8-11.7-.2-12.1-2.8C293.4,119.7,295.9,118.9,297.4,115.6Z"></path><path class="cls-31" d="M275.6,80.5l3.9,1.4,4.9-1.6a33.66,33.66,0,0,1-.3-4.4c0-2.7.2-5.4.2-5.4l-7.7-1a40.32,40.32,0,0,1-.4,6C275.9,78.1,275.6,80.5,275.6,80.5Z"></path><path class="cls-32" d="M276.2,75.6a7.65,7.65,0,0,0,3.5,1.7,6.78,6.78,0,0,0,4.4-1.4c0-2.7.2-5.4.2-5.4l-7.7-1A60.47,60.47,0,0,1,276.2,75.6Z"></path><path class="cls-33" d="M291,58.4s-.4,7-2.2,9.5c-1.6,2.2-3.8,5.6-7.3,6.7a3.75,3.75,0,0,1-2.1,0c-3.5-1.2-5.7-4.7-7.2-6.8-1.8-2.6-2-9.6-2-9.6V56.9h0c.3-13.2,10.6-12.3,10.6-12.3s10.1.1,10.3,13.2C291,57.9,291,58.1,291,58.4Z"></path><path class="cls-31" d="M291.4,57.7c-.1,1.1-.5,7-2.2,9.3-1.6,2.1-3.9,5.6-7.4,6.7a4.11,4.11,0,0,1-2.2,0c-3.6-1.2-5.7-4.7-7.3-6.8-1.8-2.6-2.1-9.6-2.1-9.6v-.5h0c.3-13.2,10.7-12.3,10.7-12.3S291.1,44.7,291.4,57.7Z"></path><path class="cls-16" d="M270,50.9a12.87,12.87,0,0,1,17.9-4,14.31,14.31,0,0,1,1.5,1.1c.7.5,2.7,2.2,2.7,3.1.1,1.8-1.9.3-2.9-.1A28.15,28.15,0,0,0,270,50.9Z"></path><path class="cls-31" d="M267.2,80.6a8.17,8.17,0,0,0,.4,1.1c1.2,2.8,5,10.1,12.1,10,6.9-.1,12.2-7,14.1-9.9.5-.8.8-1.3.8-1.3l-10.5-2.9-8.2.1Z"></path><path class="cls-34" d="M257.5,84.4l.9.9.4.5c1.3,1.4,1.8,4.6,2.8,8.2a7.22,7.22,0,0,0,.9,2h0c.2.3.4.7.6,1a28.76,28.76,0,0,0,2.7,3.4l.9.9a16.32,16.32,0,0,0,2,1.7h0a15.24,15.24,0,0,0,4.1,2.4h0a6.47,6.47,0,0,0,1.3.4c.2.1.5.1.7.2a1.27,1.27,0,0,0,.6.1c.4,0,.8.1,1.1.1a20.41,20.41,0,0,0,3.4-.3h0l.5-.1h0c.2-.1.5-.1.7-.2h0a8.65,8.65,0,0,0,1.7-.7h0l.6-.3h0l.4-.2h0c2-1.2,3.4-3.1,5-5.5,3.1-4.5,5.6-4.3,8.6-5.6l.1-.1h.1a6.1,6.1,0,0,0,1.6-1.2,40.92,40.92,0,0,0,5.3-7.2c.3-.5.5-.8.5-.8l-3.1-1.3h0l-3.3-1.3L288,77.2s3.8-6.7,4.7-8.6a33.17,33.17,0,0,0,1.2-7.6c.5-5.3.7-11.7-.3-13.7-1.6-3.4-7-6-10.6-6.7s-10.3.5-13.1,5.1c-2,3.2-2,10.4-1.8,15.3.1,2.1.2,3.8.3,4.5.2,2.6,5,9.3,5,9.3l-15.7,9.4h0Zm31.3-16.9h0c-.8,1.3-1.7,2.5-1.9,2.9-.9.9-1.8,1.8-2.8,2.7l-.3.3a4.72,4.72,0,0,1-3.2,1.2,10.1,10.1,0,0,1-4.1-1.8h0a10.59,10.59,0,0,1-1.2-1h0l-.1-.1a6.53,6.53,0,0,1-1.3-1.6h0a15.5,15.5,0,0,1-1.4-2.9v-.1h0a23.55,23.55,0,0,1-1-3.8l-.3-1.8h0a.9.9,0,0,0-.1-.5,32,32,0,0,1-.1-8.8,6.39,6.39,0,0,1,.8-1.9h0c1.3-2.1,4.2-4.3,8.7-4.3a9.84,9.84,0,0,1,8.9,5h0a12.31,12.31,0,0,1,1.6,4.9h0a19.27,19.27,0,0,1,.1,2.4v.2a16.59,16.59,0,0,1-.2,2.4,1.27,1.27,0,0,1-.1.6h0c-.1.5-.1,1-.2,1.4h0a12.09,12.09,0,0,1-.5,1.8h0a18.17,18.17,0,0,1-1.3,2.8Z"></path><path class="cls-32" d="M271,61.5h0l.3,1.8.6.3c1.3.5,2.6.6,2.8.1s-.8-1.3-2.2-1.8A3.71,3.71,0,0,0,271,61.5Z"></path><path class="cls-32" d="M286.4,63.9c.2.5,1.4.4,2.8-.2a5.39,5.39,0,0,0,1.3-.7h0a5.9,5.9,0,0,0,.2-1.4h0a5.45,5.45,0,0,0-2.2.5C287.2,62.6,286.2,63.4,286.4,63.9Z"></path><path class="cls-35" d="M273.3,77.7a34,34,0,0,0,12.3-.9c.2,0,.4.1.4.2s-.1.4-.2.4a23.83,23.83,0,0,1-9.9,1.4,35.43,35.43,0,0,0,11.6,2.5.4.4,0,0,1,0,.8,37,37,0,0,1-14.6-3.6C272.4,78.3,272.8,77.6,273.3,77.7Z"></path><path class="cls-35" d="M275.7,82a15.19,15.19,0,0,1,2,.6,22.31,22.31,0,0,0,2.3.4.15.15,0,1,1,0,.3,7.74,7.74,0,0,1-4.5-1.1C275.5,82.1,275.6,81.9,275.7,82Z"></path><path class="cls-35" d="M276.7,100.8c2.7-.3,5-.7,7.2-2.5,1.5-1.3,2.5-3.1,4.1-4.3,3.5-2.7,9.5-2.4,10.7-7.5a.1.1,0,0,1,.1-.1h0a.1.1,0,0,1,.1.1c0,5.3-7.3,5.6-10.4,8.1-2,1.6-3.2,4-5.5,5.4a9.52,9.52,0,0,1-6.4,1.4A.32.32,0,0,1,276.7,100.8Z"></path><path class="cls-35" d="M277.1,97.3a4.7,4.7,0,0,0,4.4-.7c.1-.1.2,0,.3.1v.2a4.44,4.44,0,0,1-4.9.9C276.5,97.7,276.8,97.1,277.1,97.3Z"></path><path class="cls-35" d="M288.7,44.8c.5-.3,1.4.3,1.8.6a3,3,0,0,1,1.2,1.7c0,.1,0,.2-.1.2s-.2,0-.2-.1a3,3,0,0,0-1.3-1.4,3.55,3.55,0,0,0-.9-.4c-.2-.1-.4-.1-.5-.3A.19.19,0,0,1,288.7,44.8Z"></path><path class="cls-35" d="M285.8,45.5a2.21,2.21,0,0,1,1.6,0,4,4,0,0,1,1.8.7.37.37,0,0,1,.1.3h0c0,.1-.1.1-.2.1-.6-.1-1.1-.3-1.7-.4s-1.1,0-1.5-.3c-.1,0-.1-.2-.1-.2v-.2Z"></path><path class="cls-36" d="M300.6,94.4c.3-.3.9.1.6.5A21.18,21.18,0,0,0,298,103c0,.2-.4.2-.4-.1A15.87,15.87,0,0,1,300.6,94.4Z"></path><path class="cls-36" d="M300.5,98.9a5.67,5.67,0,0,1,.8-1.3,4.26,4.26,0,0,1,1.1-1.2.1.1,0,0,1,.1.1,6.38,6.38,0,0,1-.8,1.4,2.73,2.73,0,0,1-.9,1.2c-.1,0-.2,0-.2-.1h0C300.5,99,300.5,99,300.5,98.9Z"></path><path class="cls-36" d="M263,100.7c0-.3.4-.4.6-.1.7,2,1.2,5.3.1,7.2h-.1c-.1-1.1-.1-2.2-.1-3.4S263.2,102,263,100.7Z"></path><path class="cls-36" d="M293.1,129.4h-1.3c1.3-1.5,2.8-2.8,4.1-4.3.1-.2.4.1.3.2C295.2,126.7,294.2,128.1,293.1,129.4Z"></path><path class="cls-36" d="M299.4,119.9c-1-2.6-1.6-5.4-2.5-8.1-.1-.2.3-.3.3-.1,1.1,2.6,2.4,5.3,2.8,8a.38.38,0,0,1-.7.3.1.1,0,0,0,.1-.1Z"></path><path class="cls-36" d="M271.1,129.4c-.7-.7-1.3-1.4-2-2.1a38,38,0,0,1-4.2-4.8c-.2-.3.2-.5.4-.3,1.6,1.5,3,3.3,4.5,4.9.7.8,1.5,1.6,2.3,2.4Z"></path><polygon class="cls-37" points="264.9 93.4 264.7 99.1 274.9 109.3 276 108.9 274.4 105 270.1 94.3 264.9 93.4"></polygon><path class="cls-38" d="M267.5,91.5h-.4c-.1.1-2.2,1.8-2.2,1.8,7.3,2.7,8.2,13.4,10.9,14.9l.2.4.4-.1C273.9,104.6,274.9,95.1,267.5,91.5Z"></path><path class="cls-38" d="M276.5,108.6c-2.6-.5-8.8-10.5-15.4-12.3,0,0,2.2,5.6,2.1,8.3s11.8,6,12.2,5.9S276.5,108.6,276.5,108.6Z"></path><path class="cls-38" d="M299,104.5l-.9-1.3a.76.76,0,0,0-.4-.2c-.3,0-14.7-.9-22,5.9s18.1,2.4,18.6,2S299,104.5,299,104.5Z"></path><path class="cls-37" d="M299,104.5a45.9,45.9,0,0,0-21.8,4.7l-.2.8c0,1.2.1,2.6,1,3.1,1.6.9,4.1-2.8,8.3-4.2a14.13,14.13,0,0,1,9.1.5Z"></path><path class="cls-39" d="M277,110a49.31,49.31,0,0,1,22.5-2.8l-.2,10.3a103.11,103.11,0,0,0-20.6,2.8l-1.2-2.2C277.4,115.4,277.2,112.7,277,110Z"></path><path class="cls-40" d="M275.4,108.9a2.62,2.62,0,0,1,2.1.4l1.2,11a1.18,1.18,0,0,0-1,.1l-3.1-6.4Z"></path><polygon class="cls-39" points="275.4 108.9 258.6 100.5 267.4 116 277.7 120.4 275.4 108.9"></polygon><path class="cls-41" d="M275.8,108.9a.1.1,0,0,1-.1-.1h0v-.1c5.7-5.3,15.8-5.9,19.9-5.9h.1a.1.1,0,1,1,0,.2h-.1c-4,.1-14,.7-19.8,5.9Z"></path><path class="cls-42" d="M262.5,114.4l-1.1-1.2a10.47,10.47,0,0,0-1.1.8c-5.2,4,3.9,12.7,4.6,3.8Z"></path><path class="cls-43" d="M260.7,116s-.8.4-.9.9a2.72,2.72,0,0,0,.6,1.7c1.3,1.6,4.2,1.1,3.8-.4a5.39,5.39,0,0,0,1.3-.7,1.36,1.36,0,0,0,.2-1.6,1.68,1.68,0,0,0-1.3-.4,10.66,10.66,0,0,0,1.9-.7,1.85,1.85,0,0,0,.2-1.9,2.44,2.44,0,0,0-2.2-.4s.7-.3,1.6-.8a1.71,1.71,0,0,0,.6-2,1,1,0,0,0-1.2-.5,1.83,1.83,0,0,0,.7-1c.1-.5-.2-1.3-.6-1.4a21.58,21.58,0,0,0-3.9.9,1.1,1.1,0,0,0-.8,1.4c0,.2.2.4.3.6a1.55,1.55,0,0,0-.8,1.1,2.75,2.75,0,0,0,.6,2.2,1.78,1.78,0,0,0-.5,2.5C260.3,115.6,260.5,115.8,260.7,116Z"></path><path class="cls-44" d="M262.2,118.5a.1.1,0,0,0,.1.1h0a3.55,3.55,0,0,0,1-.2.37.37,0,0,1-.1.3v.2h.2a.44.44,0,0,0,.1-.5h.2l.5-.1a.1.1,0,0,0,.1-.1c0-.1-.1-.1-.2-.1a1,1,0,0,0-.4.1c-.5.1-1,.2-1.4.3-.1-.1-.1-.1-.1,0Zm-1.6-2.5h0l.1.1h0a11.71,11.71,0,0,1,2.6-.4h.2a3.78,3.78,0,0,0,.8-.1.1.1,0,0,0,.1-.1h0a.1.1,0,0,0-.1-.1l-.8.1h-.4a23.36,23.36,0,0,0-2.6.4c.1,0,.1,0,.1.1Zm-.1-3.1h0a.1.1,0,0,0,.1.1h0l2.8-.4.6-.1h.1a.1.1,0,0,0,.1-.1h0l-.1-.1H264l-.6.1-2.9.5Zm.2-3.3h0a.1.1,0,0,0,.1.1h0l2.5-.3h.3l.5-.1,1-.1a.1.1,0,0,0,.1-.1h0V109h-.1l-.9.1-.7.1h-.2l-2.5.3h-.1v.1Z"></path><path class="cls-42" d="M300.5,115.2l1.1-1.2a10.47,10.47,0,0,1,1.1.8c5.2,4-3.9,12.7-4.6,3.8Z"></path><path class="cls-43" d="M302.2,116.8s.8.4.9.9a2.72,2.72,0,0,1-.6,1.7c-1.3,1.6-4.2,1.1-3.8-.4a5.39,5.39,0,0,1-1.3-.7,1.36,1.36,0,0,1-.2-1.6,1.68,1.68,0,0,1,1.3-.4,10.66,10.66,0,0,1-1.9-.7,1.85,1.85,0,0,1-.2-1.9,2.44,2.44,0,0,1,2.2-.4s-.7-.3-1.6-.8a1.71,1.71,0,0,1-.6-2,1.08,1.08,0,0,1,1.2-.5,1.83,1.83,0,0,1-.7-1c-.1-.5.2-1.3.6-1.3a21.58,21.58,0,0,1,3.9.9,1.1,1.1,0,0,1,.8,1.4.85.85,0,0,1-.3.5,1.55,1.55,0,0,1,.8,1.1,2.48,2.48,0,0,1-.7,2.2,1.8,1.8,0,0,1,.5,2.5C302.6,116.5,302.4,116.6,302.2,116.8Z"></path><path class="cls-44" d="M298.7,119l.4.1.2.1a.75.75,0,0,0,.1.5h.2v-.2h0a.37.37,0,0,1-.1-.3l.4.1c.2,0,.4.1.6.1s.1,0,.1-.1h0c0-.1,0-.1-.1-.1h0c-.2,0-.4-.1-.7-.1s-.7-.1-1-.2l-.2-.1c-.1,0-.1,0-.2.1h0a.77.77,0,0,0,.3.1Zm-.3-2.7h0c0,.1,0,.1.1.1h1a20.24,20.24,0,0,1,2.6.4h0a.1.1,0,0,0,.1-.1h0v-.1h-.1a10.87,10.87,0,0,0-2.6-.4h-1.2c.2,0,.1,0,.1.1Zm.2-3.1c0,.1,0,.1.1.1l.7.1,2.9.4h.1v-.2h-.1l-2.9-.4-.7-.1c-.1,0-.1,0-.1.1Zm-1-3.3c0,.1,0,.1.1.1h.4l1.2.1,2.7.3h0a.1.1,0,0,0,.1-.1h0v-.1H302l-2.7-.3-1.3-.1h-.4c.1,0,.1,0,0,.1Z"></path><path class="cls-45" d="M285.2,58.7l-1.1.1s-.4-2,1.3-2.6,3.5.7,1.5,2.6S285.2,58.7,285.2,58.7Z"></path><path class="cls-46" d="M283.1,66.1c.2-.1.4,0,.4.2s0,.3-.1.4h0a11.76,11.76,0,0,1-2,.7,7.14,7.14,0,0,1-4.1-.2.4.4,0,0,1-.2-.4.52.52,0,0,1,.4-.2,6.68,6.68,0,0,0,3.7.2A10.66,10.66,0,0,0,283.1,66.1Z"></path><path class="cls-46" d="M279.7,68.6a.3.3,0,1,1,0-.6h.1a2.46,2.46,0,0,0,1.2-.1c.1-.1.3,0,.4.1h0c.1.2,0,.3-.1.4h0A4.14,4.14,0,0,1,279.7,68.6Z"></path><path class="cls-47" d="M284.1,54.2a.85.85,0,0,1-.7,0,1.06,1.06,0,0,1-.6-.7c0-.1.2,0,.8-.2s2.8-1,4.4.2c.3.2.1.4-.2.3A6,6,0,0,0,284.1,54.2Z"></path><path class="cls-47" d="M276.5,54.1a.85.85,0,0,0,.7,0,1.06,1.06,0,0,0,.6-.7c0-.1-.2.1-.8-.2a4.47,4.47,0,0,0-4.4.4c-.3.2-.1.4.3.3A5,5,0,0,1,276.5,54.1Z"></path><path class="cls-45" d="M275.6,58.4l1.1.1s.4-2-1.3-2.6-3.5.7-1.5,2.6S275.6,58.4,275.6,58.4Z"></path><path class="cls-46" d="M279.7,60.9v.2a26.81,26.81,0,0,0-.7,2.7c.1.3,1.1.3,1.6.2.3-.1.1,1-.4,1a2.45,2.45,0,0,1-1.7-1.1,11,11,0,0,1,.6-2.6,1.27,1.27,0,0,0-.1-.6C278.9,60.4,279.6,60.6,279.7,60.9Z"></path><path class="cls-48" d="M273.5,55.6a3.45,3.45,0,0,0,1.2,1.2,1.27,1.27,0,0,1,.9-.4c.8.1,1.3,1.1,1.3,2.4s-.8,2.2-1.6,2.2-1.3-1.1-1.3-2.4a4.25,4.25,0,0,1,.2-1.1A6.19,6.19,0,0,1,273.5,55.6Z"></path><path class="cls-49" d="M275.5,58.9a3,3,0,0,1-3.2-1.1A2.85,2.85,0,0,1,275.5,58.9Z"></path><path class="cls-48" d="M288.2,56.5a2.56,2.56,0,0,1-1.3,1,1.37,1.37,0,0,0-.8-.5c-.8,0-1.5.9-1.5,2.2s.5,2.3,1.3,2.4,1.5-.9,1.5-2.2a4.1,4.1,0,0,0-.1-1.1A4.37,4.37,0,0,0,288.2,56.5Z"></path><path class="cls-49" d="M285.9,59.5a2.92,2.92,0,0,0,3.3-.7A2.88,2.88,0,0,0,285.9,59.5Z"></path><path class="cls-50" d="M137.4,263.5l-.9-3.6h-5.1l-1.1,3.6h-4.4l5.7-17.2h5.1l5.5,17.2Zm-3.3-13.7h0l-1.9,6.8h3.4Z"></path><path class="cls-50" d="M143.5,263.5v-9.1c0-1.2,0-2.5-.1-3.7h4.2a13.42,13.42,0,0,1,.1,2.1h.1a3.15,3.15,0,0,1,3.3-2.4,1.7,1.7,0,0,1,.7.1v3.9a5.85,5.85,0,0,0-1.3-.2c-1.4,0-2.4,1.3-2.4,3v6.4h-4.6Z"></path><path class="cls-50" d="M161,263.5c0-.6-.1-1.2-.1-1.8-1.3,1.4-2.3,2.1-3.9,2.1a3.78,3.78,0,0,1-3.9-4.1c0-2.9,2.2-4.4,6.6-4.4h1.1v-.4c0-.8-.7-1.7-2.4-1.7a8.09,8.09,0,0,0-3.7,1.2l-.2-3.2a13.09,13.09,0,0,1,4.8-.8c4.5,0,5.4,2.1,5.4,4.8v5.5a26.35,26.35,0,0,0,.2,2.8Zm-.1-6.2h-.5c-2,0-3.3.6-3.3,2.1a1.38,1.38,0,0,0,1.2,1.6h.4c2,0,2.3-2.1,2.3-3.3v-.4Z"></path><path class="cls-50" d="M167.2,263.5c0-.8.1-1.5.1-2.3V245h4.4v5.2a14.17,14.17,0,0,1-.1,2.3h0a3.68,3.68,0,0,1,3.5-2.2c3.2,0,4.6,3.4,4.6,6.4,0,3.9-1.4,6.9-4.8,6.9a3.56,3.56,0,0,1-3.4-2.3h0c0,.7-.1,1.4-.1,2.1Zm8-6.5c0-2.1-.4-3.6-1.7-3.6-1.1,0-1.7,1.5-1.7,3.6s.6,3.6,1.7,3.6C174.8,260.6,175.2,259.1,175.2,257Z"></path><path class="cls-50" d="M182,248.7V245h4.4v3.7Zm0,14.8V250.7h4.4v12.8Z"></path><path class="cls-50" d="M198.8,263.1a13.53,13.53,0,0,1-3.6.7c-4.7,0-6.4-3.2-6.4-6.7s1.7-6.7,6.4-6.7a10.3,10.3,0,0,1,3.5.6l-.2,3.2a5.45,5.45,0,0,0-2.2-.5c-1.6,0-2.9,1-2.9,3.4,0,1.9.7,3.4,2.8,3.4a5.42,5.42,0,0,0,2.5-.6Z"></path><path class="cls-50" d="M206.2,263.5V246.3h4.6V260h5.7v3.5Z"></path><path class="cls-50" d="M225.6,263.5c0-.6-.1-1.2-.1-1.8-1.3,1.4-2.3,2.1-3.9,2.1a3.78,3.78,0,0,1-3.9-4.1c0-2.9,2.2-4.4,6.6-4.4h1.1v-.4c0-.8-.7-1.7-2.4-1.7a8.09,8.09,0,0,0-3.7,1.2l-.2-3.2a13.09,13.09,0,0,1,4.8-.8c4.5,0,5.4,2.1,5.4,4.8v5.5a26.35,26.35,0,0,0,.2,2.8Zm-.1-6.2H225c-2,0-3.3.6-3.3,2.1a1.38,1.38,0,0,0,1.2,1.6h.4c2,0,2.3-2.1,2.3-3.3v-.4Z"></path><path class="cls-50" d="M239.1,263.5v-7.7q0-1.8-1.2-1.8c-1.1,0-1.6,1.2-1.6,2.5v7h-4.4V253.3a22.6,22.6,0,0,0-.1-2.6H236a13.42,13.42,0,0,1,.1,2.1h.1a3.58,3.58,0,0,1,3.6-2.4c2.2,0,3.9,1.3,3.9,4.1v9Z"></path><path class="cls-50" d="M254,261h0a3.54,3.54,0,0,1-3.5,2.5c-3.5,0-4.9-2.8-4.9-6.8,0-3.4,1.7-6.3,4.8-6.3a3.58,3.58,0,0,1,3.5,2.4h0a14.92,14.92,0,0,1,.2-2.1h4.2c-.1,1-.2,2-.2,3v8.2c0,4.5-1.9,7.1-7,7.1a13.19,13.19,0,0,1-4.8-.9l.2-3.5a7.21,7.21,0,0,0,4,1.2c2.6,0,3.5-1.4,3.5-3.8Zm-.3-4c0-2.2-.6-3.4-1.8-3.4s-1.6,1.4-1.6,3.2c0,2.2.3,3.7,1.7,3.7S253.7,259.1,253.7,257Z"></path><path class="cls-50" d="M268.3,263.5a14.77,14.77,0,0,1-.1-2.1h-.1a3.58,3.58,0,0,1-3.6,2.4c-2.2,0-3.9-1.3-3.9-4.1v-9H265v7.7c0,1.2.4,1.8,1.3,1.8,1.3,0,1.6-1.2,1.6-2.1v-7.4h4.4v10.7a7.49,7.49,0,0,0,.2,2.1Z"></path><path class="cls-50" d="M282.2,263.5c0-.6-.1-1.2-.1-1.8-1.3,1.4-2.3,2.1-3.9,2.1a3.78,3.78,0,0,1-3.9-4.1c0-2.9,2.2-4.4,6.6-4.4H282v-.4c0-.8-.7-1.7-2.4-1.7a8.09,8.09,0,0,0-3.7,1.2l-.2-3.2a13.09,13.09,0,0,1,4.8-.8c4.5,0,5.4,2.1,5.4,4.8v5.5a13.2,13.2,0,0,0,.2,2.8Zm-.1-6.2h-.5c-2,0-3.3.6-3.3,2.1a1.38,1.38,0,0,0,1.2,1.6h.4c2,0,2.3-2.1,2.3-3.3v-.4Z"></path><path class="cls-50" d="M296.4,261h0a3.54,3.54,0,0,1-3.5,2.5c-3.5,0-4.9-2.8-4.9-6.8,0-3.4,1.8-6.3,4.8-6.3a3.58,3.58,0,0,1,3.5,2.4h0a14.92,14.92,0,0,1,.2-2.1h4.2c-.1,1-.2,2-.2,3v8.2c0,4.5-2,7.1-7,7.1a13.19,13.19,0,0,1-4.8-.9l.2-3.5a7.21,7.21,0,0,0,4,1.2c2.6,0,3.5-1.4,3.5-3.8v-1Zm-.2-4c0-2.2-.6-3.4-1.8-3.4s-1.6,1.4-1.6,3.2c0,2.2.3,3.7,1.7,3.7S296.2,259.1,296.2,257Z"></path><path class="cls-50" d="M313.9,263.1a13.67,13.67,0,0,1-4.5.7c-5.2,0-6.7-3.5-6.7-6.8,0-3.5,2.1-6.6,6-6.6s5.9,3.2,5.9,6.7v1.3h-7.8c.1,2.1,1.6,2.7,3.2,2.7a9.25,9.25,0,0,0,3.7-1Zm-3.3-7.5c0-1.7-.5-2.5-1.8-2.5s-2,1.1-2,2.9h3.8Z"></path><g class="cls-51"><path class="cls-52" d="M141.2,62.3l.7-2.2.7,2.2a9.48,9.48,0,0,0,4.5,5.5h0a9.41,9.41,0,0,0-4.5,5.5l-.7,2.2-.7-2.2a9.48,9.48,0,0,0-4.5-5.5h0A9.54,9.54,0,0,0,141.2,62.3Z"></path><path class="cls-52" d="M131.8,131.6l.7-2.2.7,2.2a9.48,9.48,0,0,0,4.5,5.5h0a9.41,9.41,0,0,0-4.5,5.5l-.7,2.2-.7-2.2a9.48,9.48,0,0,0-4.5-5.5h0A9.41,9.41,0,0,0,131.8,131.6Z"></path><path class="cls-52" d="M285.7,146.5l.5-1.4.5,1.4a6.51,6.51,0,0,0,3,3.7h0a6.15,6.15,0,0,0-3,3.7l-.5,1.4-.5-1.4a6.51,6.51,0,0,0-3-3.7h0A6.51,6.51,0,0,0,285.7,146.5Z"></path><path class="cls-52" d="M208.7,68l.4-1.3.4,1.3a6.26,6.26,0,0,0,2.9,3.5h0a6,6,0,0,0-2.9,3.5l-.4,1.3-.4-1.3a6.26,6.26,0,0,0-2.9-3.5h0A6.26,6.26,0,0,0,208.7,68Z"></path><path class="cls-52" d="M172.4,77.5l.4-1.3.4,1.3a6.26,6.26,0,0,0,2.9,3.5h0a6.26,6.26,0,0,0-2.9,3.5l-.4,1.3-.4-1.3a6.26,6.26,0,0,0-2.9-3.5h0A6,6,0,0,0,172.4,77.5Z"></path><path class="cls-52" d="M262.8,151.6l.4-1.3.4,1.3a6.26,6.26,0,0,0,2.9,3.5h0a6,6,0,0,0-2.9,3.5l-.4,1.3-.4-1.3a6.26,6.26,0,0,0-2.9-3.5h0A6.26,6.26,0,0,0,262.8,151.6Z"></path><path class="cls-52" d="M108.5,106.4l.4-1.3.4,1.3a6.26,6.26,0,0,0,2.9,3.5h0a6,6,0,0,0-2.9,3.5l-.4,1.3-.4-1.3a6.26,6.26,0,0,0-2.9-3.5h0A6.26,6.26,0,0,0,108.5,106.4Z"></path><path class="cls-53" d="M119.9,78.5l.5-1.4.5,1.4a6.51,6.51,0,0,0,3,3.7h0a6.51,6.51,0,0,0-3,3.7l-.5,1.4-.5-1.4a6.51,6.51,0,0,0-3-3.7h0A5.82,5.82,0,0,0,119.9,78.5Z"></path></g></svg>