<svg xmlns="http://www.w3.org/2000/svg" xmlns:xlink="http://www.w3.org/1999/xlink" id="Layer_1" x="0px" y="0px" viewBox="0 0 1280.1 500" style="enable-background:new 0 0 1280.1 500;" xml:space="preserve"><style type="text/css">	.st0{fill:#EFEDED;}	.st1{fill:#DFECFF;}	.st2{opacity:0.51;}	.st3{fill:#48B2E5;}	.st4{fill:#414156;}	.st5{fill:#A3C2E3;}	.st6{fill:#FF7E6F;}	.st7{fill:#FFA07E;}	.st8{fill:#ED4957;}	.st9{fill:#FFBF8E;}	.st10{fill:#3F3F56;}	.st11{fill:#B897A7;}	.st12{fill:#404040;}	.st13{fill:#FFB600;}	.st14{fill:#1E1E3B;}	.st15{fill:#296999;}	.st16{fill:#FFEEDD;}	.st17{fill:#FF5B69;}	.st18{fill:#0D1111;}	.st19{fill:#595959;}	.st20{fill:#FFDED4;}	.st21{fill:#FFFFFF;}	.st22{fill:#C5C8D8;}	.st23{fill:#F9F8F6;}	.st24{fill:#D5D7E3;}	.st25{opacity:0.47;fill:#021F60;enable-background:new    ;}	.st26{fill:#FFFFFD;}	.st27{fill:none;stroke:#FFFFFD;stroke-width:2;stroke-linecap:round;stroke-linejoin:round;}	.st28{fill:none;stroke:#D84F4C;stroke-width:2;stroke-linecap:round;stroke-linejoin:round;}	.st29{fill:#D84F4C;}	.st30{fill:#456997;}	.st31{fill:#FFA07F;}	.st32{fill:#FF7D6F;}	.st33{fill:#FFBF90;}	.st34{fill:#FDB91A;}	.st35{fill:#EA9F07;}	.st36{opacity:0.42;fill:#141618;enable-background:new    ;}	.st37{fill-rule:evenodd;clip-rule:evenodd;fill:#B4E4FC;}	.st38{fill-rule:evenodd;clip-rule:evenodd;fill:#FFFFFF;}	.st39{fill-rule:evenodd;clip-rule:evenodd;fill:#17AA39;}	.st40{fill-rule:evenodd;clip-rule:evenodd;fill:#1C7A09;}	.st41{fill:#B4E4FC;}	.st42{fill-rule:evenodd;clip-rule:evenodd;fill:#CF4A57;}	.st43{fill-rule:evenodd;clip-rule:evenodd;fill:#FFA07F;}	.st44{fill:#CF4A57;}	.st45{fill-rule:evenodd;clip-rule:evenodd;fill:#F68B85;}	.st46{fill-rule:evenodd;clip-rule:evenodd;fill:#FF7D6F;}	.st47{fill-rule:evenodd;clip-rule:evenodd;fill:#131216;}	.st48{fill:#252727;}	.st49{fill:#FFF0E7;}	.st50{opacity:0.76;}	.st51{fill:#FFFFF9;}	.st52{fill:#17616A;}	.st53{clip-path:url(#SVGID_2_);}	.st54{opacity:0.42;fill:#48B2E5;enable-background:new    ;}	.st55{opacity:0.42;}</style><title>Arabic language slider desktop</title><g id="Layer_1-2">	<rect x="0.1" class="st0" width="1280" height="500"></rect>	<rect x="0.1" class="st1" width="1280" height="500"></rect>	<g class="st2">		<path class="st3" d="M1070.6,379.5H704.4c-26.5-43.9-42.3-93.4-46.2-144.5c-0.2-2-0.3-4.1-0.4-6.1c-0.8-12.9-0.7-25.8,0.1-38.7   c0.1-2,0.3-4.1,0.4-6.1l0.2-2.1c2.2-24.3,7.3-48.9,20.6-69.3s35.9-36,60.3-35.6c24.1,0.4,45,15.6,67.1,25.3   c38.1,16.6,81.2,17.5,119.9,2.5c17-6.7,32.8-16.3,49.8-23.1s36.1-10.6,53.5-5.1c31.3,9.9,46.3,45.3,53.5,77.4   C1099.6,229,1095.3,306.9,1070.6,379.5z"></path>	</g>	<rect x="666.9" y="379.5" class="st4" width="416.3" height="8.3"></rect>	<ellipse transform="matrix(0.9076 -0.4198 0.4198 0.9076 3.3227 379.1792)" class="st5" cx="863.2" cy="182" rx="28.9" ry="28.9"></ellipse>			<ellipse transform="matrix(0.1499 -0.9887 0.9887 0.1499 553.838 1003.9883)" class="st1" cx="860.7" cy="179.9" rx="23.3" ry="23.3"></ellipse>	<path class="st5" d="M852.4,171c0.3,0,0.7,0.1,0.9,0.3l10.8,8.9c0.3,0.3,0.5,0.7,0.5,1.1v15.4c0.1,0.8-0.6,1.6-1.4,1.6  c-0.8,0.1-1.6-0.6-1.6-1.4l0,0l0,0c0-0.1,0-0.2,0-0.2l0,0V182l-10.3-8.4c-0.6-0.5-0.7-1.5-0.2-2.1C851.5,171.2,852,171,852.4,171  L852.4,171z"></path>	<rect x="689.9" y="119.6" class="st5" width="77.7" height="50.9"></rect>	<rect x="696.9" y="125.7" class="st1" width="63.7" height="38.7"></rect>	<path class="st5" d="M719.7,184.1v50.9h-61.5c-0.2-2-0.3-4-0.4-6.1c-0.8-12.9-0.7-25.8,0.1-38.7c0.1-2,0.3-4.1,0.4-6.1H719.7z"></path>	<path class="st1" d="M712.6,190.2v38.7h-54.9c-0.7-12.9-0.7-25.8,0.1-38.7H712.6z"></path>	<path class="st6" d="M943.3,287.3c-1.1,2.3-3.5,3.6-5.8,4.8c-4.1,2.1-8.1,4.8-12.2,6.9l-7.8,7.4l-9.6-9.3l-2.8-2.7l7.7-7  c-0.9-6.7-1-13.8,0.7-20.3c0.7-2.6,1.8-5.1,2.2-7.8c0.5-3.4-0.2-6.9-0.1-10.4c-0.1-0.8,0.2-1.6,0.7-2.3c0.8-0.7,1.9-0.8,2.8-0.3  c0.9,0.6,1.6,1.3,2,2.3c0.1,0.1,0.1,0.2,0.2,0.3c2.3,4.1,3.2,8.8,2.6,13.5c-0.1,0.6-0.1,1.2,0.1,1.8c0.3,0.5,0.7,0.8,1.2,1  c3.1,1.3,6.5,1.5,9.7,0.6c1.3-0.4,2.7-0.5,4-0.3c1.9,0.7,2.7,2.8,3.2,4.7c1,3.8,1.6,7.7,1.8,11.6  C944.3,283.6,944,285.5,943.3,287.3z"></path>	<path class="st7" d="M921.8,295.2l-8.8,6.8l-7.9-7.6l7.7-7c-0.9-6.7-1-13.8,0.7-20.3c0.7-2.6,1.8-5.1,2.2-7.8  c0.5-3.4-0.2-6.9-0.1-10.4c0-0.8,0.2-1.6,0.7-2.3c0.8-0.7,1.9-0.8,2.8-0.3c0.9,0.6,1.6,1.3,2,2.3c0.1,0.1,0.1,0.2,0.2,0.3  c-0.6-0.2-1.3-0.3-1.9-0.2c-1.6,0.4-1.3,2.7-1.1,4.4c0.7,3.9-0.9,7.8-1.9,11.7C914.6,272.1,919.7,287.8,921.8,295.2z"></path>	<path class="st8" d="M929.3,280.3c0.5,3.6,0.2,7.3-1,10.7c2-2.9,3.2-6.4,3.3-10c0.1-3.6-1.7-7-4.6-9.1c-0.5-0.4-1.2-0.7-1.8-0.8  c0.2,1.3,1.9,2.9,2.5,4.1C928.5,276.8,929.1,278.5,929.3,280.3z"></path>	<path class="st7" d="M943.8,288.4c-5.2,2.3-12.1,0.9-12.1,0.9c-0.6-1.2-1-2.5-1.2-3.9c-0.1-0.6-0.2-1.2-0.3-1.9  c-0.1-1.5-0.2-3-0.1-4.5c0-0.7,0-1.3,0.1-2c0.1-1.8,0.3-3.6,0.5-5.2c0.1-0.7,0.2-1.4,0.3-2c0.3-1.8,0.6-3.3,0.8-4.5  c0.3-1.3,0.5-2.1,0.5-2.1c5.2-0.6,12.8,2.7,12.8,2.7c0.7,1.9,1.1,3.9,1.2,6C946.9,279.9,943.8,288.4,943.8,288.4z"></path>	<path class="st8" d="M939.2,271.5c0,0-0.7,0.1-1.8,0.3c-1.3,0.2-2.7,0.3-4,0.3c-0.9,0-1.7-0.1-2.6-0.2c0.1-0.7,0.2-1.4,0.3-2  c2.2-0.5,4.5-0.3,6.6,0.7C938.2,270.8,938.8,271.1,939.2,271.5z"></path>	<path class="st8" d="M938.1,278.4c0,0-0.7,0.2-1.7,0.4c-1.3,0.2-2.6,0.4-3.8,0.4c-0.8,0-1.6,0-2.5-0.1c0-0.7,0-1.3,0.1-2  c0.8-0.2,1.5-0.3,2.3-0.3c1.4,0,2.7,0.3,4,0.8C937.1,277.8,937.7,278.1,938.1,278.4z"></path>	<path class="st8" d="M939.1,284.8c0,0-0.7,0.2-1.8,0.4c-1.3,0.3-2.7,0.4-4.1,0.4c-0.9,0-1.8-0.1-2.7-0.2c-0.1-0.6-0.2-1.2-0.3-1.9  c1-0.3,1.9-0.4,2.9-0.4c1.4,0,2.9,0.3,4.2,0.8C938,284.2,938.5,284.5,939.1,284.8z"></path>	<path class="st9" d="M946.4,271.9c-1-1.4-2.3-2.6-3.8-3.6c-1.4-0.8-2.9-1.4-4.4-1.7c-1.8-0.6-3.6-1-5.4-1.2c-0.3,0-0.6,0-0.8,0  c0.3-1.3,0.5-2.1,0.5-2.1c5.2-0.6,12.8,2.7,12.8,2.7C945.8,267.8,946.3,269.8,946.4,271.9z"></path>	<path class="st10" d="M850.8,242.5c-2.8-2-13.8-5.7-13.8-5.7l1.4,77.6l27.3,30.2c0,0,7.8,6.2,16.5,1.9s40-40.7,40-40.7l-16.6-18.7  l-29,18.4C876.7,305.5,853.6,244.5,850.8,242.5z"></path>	<path class="st11" d="M851.1,379.1c-0.7-7.8-1.3-13.5-1.3-13.5l-66,13.5H851.1z"></path>	<polygon class="st12" points="851,379.1 850.8,377.9 817.2,378.7 813.9,378.8 804.9,379 803.6,379.1  "></polygon>	<polygon class="st13" points="813.9,379.1 813.9,378.8 804.9,379 804.9,379.1  "></polygon>	<path class="st10" d="M751.3,379.1h102.1c-3.8-47.1-7.8-92.1-7.5-103.6c0.5-18.2-8.9-38.7-8.9-38.7l-3.3-0.9l-0.8-0.2l-11.1-2.9  l-21.2-5.6l-19.4-3.6l-10.3,1.1l-6.3,0.7l-6.5,0.7l0,0l-16.3,6.4l9.1,63L751.3,379.1z"></path>	<path class="st14" d="M840.5,245.9c0,0,6.9,20.1,8.7,28s0,48.8,0,48.8l-3.3-47.3L840.5,245.9z"></path>	<path class="st15" d="M821.7,232.8c0,0-1.3,26.2-4.7,44.5c-1.8,9.8-4.2,17.2-7.3,17.2c-2.5,0-7-5.2-12.3-12.8  c-13.9-20-33-56.3-33-56.3l6.3-0.7l10.3-1.1l19.4,3.6L821.7,232.8z"></path>	<path class="st16" d="M777.4,217.8c0,0-5.8,3.9-8.4,7.1c0,0,12.3,18.9,19.9,24.8l12.5-11l11.9,7.5c0,0-2.8-15.6-4.5-17.2  s-6.8-7.3-6.8-7.3L777.4,217.8z"></path>	<path class="st7" d="M777.9,221.8c0.6,0.5,23.8,13.4,23.8,13.4s1-9.2,0-14.8c-0.3-1.8-0.5-3-0.5-3.3c-0.3-2.3,0.4-12.4,0.4-12.4  l-25.5-7.9c0,0,0.3,5,0.6,10.6C777.1,214.1,777.6,221.5,777.9,221.8z"></path>	<path class="st6" d="M776.6,207.4c7.3,4,23.5,12.7,25,13h0.1c-0.3-1.8-0.5-3-0.5-3.3c-0.3-2.3,0.4-12.4,0.4-12.4l-25.5-7.9  C776.1,196.8,776.3,201.9,776.6,207.4z"></path>	<path class="st7" d="M773.1,199.1c0.9,1.5,2.2,2.8,3.7,3.8l0,0c0.7,0.5,1.4,0.9,2.1,1.4c3,1.7,30.8,10.4,34.8,9.4  s6.5-15.4,6.5-16.9c0.4-9.2,1.1-37.6,1.1-37.6c-13.2-29.5-47.7-10-51.4-6.6S773.1,199.1,773.1,199.1z"></path>	<path class="st9" d="M776.8,203c0.7,0.5,1.4,0.9,2.1,1.4c3,1.7,30.8,10.4,34.8,9.4s6.5-15.4,6.5-16.9c-1.9,6.4-3.9,15.3-6.8,15.3  C809.1,212.1,780.2,204.3,776.8,203z"></path>	<path class="st12" d="M820.5,169.5c0,0-5.6-6.1-8-3.2s-1.2,3-1.2,3L820.5,169.5z"></path>	<path class="st12" d="M780.5,166.4c0,0,11.3-8,14-3.5c1.6,2.6-0.2,3.7-0.2,3.7L780.5,166.4z"></path>	<path class="st17" d="M797.8,194.8c2.9,3.6,7.5,5.2,12.1,4.3c1.5-0.2,2.9-1,3.9-2.2c-3.3,0.7-6.6,1.2-9.8,0.4  C801.7,196.8,799.7,195.9,797.8,194.8z"></path>	<path class="st17" d="M801.4,200.2c1.6,1.9,4.1,2.8,6.6,2.4c0.8-0.1,1.6-0.5,2.1-1.2c-1.8,0.5-3.6,0.5-5.4,0.2  C803.5,201.3,802.4,200.8,801.4,200.2z"></path>	<path class="st6" d="M808.4,187.1c-2.3,0.8-4.7,1.3-7.2,1.6c0.8,1.4,2.2,2.3,3.8,2.4c1.7,0,3.5-0.2,5.2-0.5  C809.5,189.5,808.9,188.3,808.4,187.1z"></path>	<path class="st17" d="M810.9,190.1c-3-4.3-4.3-9.1-5.1-14.1c0,0-0.1-0.1-0.1-0.1c0,0-0.1,0-0.1,0.1c-0.6,5.1,1,9.8,3.7,14  c-1.8,0.2-3.5,0.2-5.3,0.4c-0.3,0-0.4,0.3-0.4,0.5c0,0.2,0.2,0.4,0.4,0.4c2.1,0.5,4.4,0.4,6.5-0.2c0.4,0,0.6-0.4,0.6-0.7  c0,0,0,0,0,0l0,0C811.1,190.3,811,190.2,810.9,190.1z"></path>	<path class="st18" d="M784.9,178.3c1.4-3.1,5.1-4.5,8.2-3c1.3,0.6,2.3,1.6,2.9,2.8C792.8,176.4,787.9,176.2,784.9,178.3z"></path>	<path class="st18" d="M809.4,179.2c1.3-2.8,4.6-4,7.4-2.7l0,0c1.1,0.5,2.1,1.4,2.7,2.6C816.5,177.4,812.2,177.3,809.4,179.2z"></path>	<path class="st9" d="M777.1,199.8c-4.6,0-9.1-1.9-12.3-5.2c-0.5-0.5-0.9-1-1.3-1.6c-1.9-2.7-3.3-12.5,0.5-15.2  c2.7-1.9,5,0.2,6.1,1.7l0,0c0.3,0.3,0.5,0.7,0.8,1.1L777.1,199.8z"></path>	<path class="st7" d="M777.1,199.8c-4.6,0-9.1-1.9-12.3-5.2c-0.2-0.3-0.4-0.5-0.6-0.7c-1.8-2.7-3.3-12.5,0.5-15.2  c2.2-1.5,4.1-0.4,5.3,0.8l0,0c0.3,0.3,0.5,0.7,0.8,1.1L777.1,199.8z"></path>	<path class="st6" d="M763.5,185.8c-0.1,0.8,0.1,1.6,0.4,2.4c1.4,3.2,5,5.4,8.4,7.4c-1.1-1.5-1.7-3.2-1.6-5.1v-1.9  C770.5,186.2,764.3,181,763.5,185.8z"></path>	<path class="st8" d="M774.1,196.3l-0.2-0.1c-0.1-0.1-0.3-0.1-0.5-0.3c-0.6-0.3-1.2-0.7-1.7-1.3c-0.7-0.7-1.2-1.6-1.5-2.5  c-0.4-1.1-0.4-2.4,0-3.5c0.1-0.2,0.1-0.3,0.2-0.4l0.1-0.1l0,0l-0.1-0.1l-0.1-0.2l-0.3-0.4c-0.3-0.4-0.7-0.9-1.1-1.3  c-0.4-0.4-0.8-0.7-1.1-1.1c-0.3-0.3-0.7-0.6-1.1-0.8c-0.3-0.2-0.7-0.3-1.1-0.3c-0.3,0-0.6,0.1-0.8,0.2c-0.2,0.1-0.3,0.2-0.3,0.4  c0,0.1,0,0.1,0,0.2c0-0.1,0-0.1,0-0.2c0-0.2,0.1-0.4,0.3-0.5c0.3-0.2,0.6-0.4,1-0.4c0.5,0,1,0,1.4,0.3c0.5,0.2,0.9,0.5,1.3,0.8  c0.5,0.3,0.9,0.6,1.3,1c0.5,0.4,0.9,0.8,1.3,1.3l0.3,0.4l0.1,0.2l0.2,0.3l0.1,0.2l-0.1,0.2l-0.1,0.3c-0.1,0.1-0.1,0.3-0.2,0.4  c-0.3,1-0.4,2.1-0.2,3.1c0.2,0.9,0.6,1.7,1.1,2.4c0.4,0.5,0.8,1,1.3,1.4c0.1,0.1,0.3,0.2,0.5,0.3L774.1,196.3z"></path>	<path class="st18" d="M761.8,158.2c0.1,4.2,0.5,8.4,1.1,12.5c0.5,3,1.3,6,2.6,8.8h0.1c1,0.4,6.6,3.8,6.7,3.8  c5.5-7.9,6.5-18.3,6.3-28c3.6,2.3,7.9,3.5,12.2,3.3c-0.9-1.5-1.5-3.2-1.6-5c2.7,4.3,6.8,7.5,11.6,9c2.1,0.6,4.6,0.9,6.5-0.2  c-2.9-1.7-5.1-4.4-6.1-7.7c6.5,5.8,15.1,10.1,23.8,9c0.5-1.4,0.7-2.9,0.6-4.5c-0.1-2.6-0.7-5.1-1.9-7.4c-2.8-5.6-8-12.2-14.1-14  c2.1-1.3,3.7-3.1,4.8-5.3c-3.4-0.9-6.8-1.5-10.3-1.6c-6.4-0.1-12.9,1-18.9,3.2c-3.8,1.4-7.8,3.2-10,6.6c-4-1.5-9.1,1.3-11.2,5  S761.7,154,761.8,158.2z"></path>	<path class="st12" d="M761.8,158.2c0,0.5,0,0.9,0.1,1.4c0.1,3.7,0.5,7.4,1.1,11.1c2.3-2.2,4.2-4.6,5.8-7.3c0.3,2.9,0.6,5.8,0.8,8.8  c4.9-7,7.4-15.4,7.1-23.9c2.8,2.4,6.1,4,9.7,4.7c-0.9-2.2-1.3-4.7-1.1-7.1c3.9,4.3,8.7,7.7,14,10c-0.6-3.3-0.5-6.7,0.3-9.9  c1.4,4,5.1,6.9,8.7,9.1c3.1,2,6.6,3.5,10.3,4.3c2.3,0.5,4.7,0.5,7,0c-0.1-2-0.5-4-1.3-5.9c-0.2-0.5-0.4-1-0.7-1.5  c-2.8-5.6-8-12.2-14.1-14c2.1-1.3,3.7-3.1,4.9-5.3c-3.4-1-6.9-1.5-10.4-1.6c-6.5-0.1-12.9,1-18.9,3.2c-3.8,1.4-7.8,3.2-10,6.7  c-4-1.5-9.1,1.3-11.2,5S761.7,154,761.8,158.2z"></path>	<path class="st19" d="M761.8,158.2c0,0.5,0,0.9,0.1,1.4c2.7-2.1,4.9-4.7,6.5-7.7c0.8,2.7,1.6,5.4,2.4,8.2c2.1-3.7,2.4-8.1,0.8-12.1  c3.8-0.5,7.2-2.5,9.4-5.5c0.2,1.2,0.7,2.3,1.4,3.2c2-2.5,3.6-5.2,5-8c2.9,3.6,6.9,6.2,11.3,7.5c0.2-1.8,0.5-3.6,0.8-5.5  c3.4,4.4,7.5,8.6,12.5,11.2c3.8,2,8.1,2.9,12.3,2.5c-0.2-0.5-0.4-1-0.7-1.5c-2.8-5.6-8-12.2-14.1-14c2.1-1.3,3.7-3.1,4.8-5.3  c-3.4-1-6.8-1.5-10.3-1.6c-6.4-0.1-12.9,1-18.9,3.2c-3.8,1.4-7.8,3.2-10,6.7c-4-1.5-9.1,1.3-11.2,5S761.7,154,761.8,158.2z"></path>	<path class="st20" d="M789.9,361h57.3c7.6-19.3,11.5-39.8,11.5-60.5c0-4.2-0.2-8.4-0.7-12.6l-52.7,2.1  C805.2,330.2,789.9,361,789.9,361z"></path>	<path class="st21" d="M805.4,290c4.1,1.1,9.1,12.8,9.1,12.8l44.3-2.3l8.7-0.5c-1.5-11.1-9.3-12.2-9.3-12.2L805.4,290z"></path>	<path class="st7" d="M801.3,302.2c0.6-1,1.4-1.9,2.3-2.6c5.7-4.2,14.5-10.5,16.5-8.4S806,305.3,806,305.3l1.5,5.3l7.2-4.4l12.2-0.6  c0,0,1.1,2.1,2.3,4.8c0.1,0.2,0.2,0.5,0.3,0.7c0,0,0,0,0,0.1c0,0.1,0,0.2,0.1,0.2c0.1,0.3,0.3,0.6,0.4,0.9c0.6,1.3,1,2.6,1.5,3.9  c0,0.2,0.1,0.3,0.2,0.5c0.2,0.7,0.3,1.4,0.4,2.1c0.1,0.5,0.1,1.1-0.1,1.6l-9.2,2.5c0,0-5.3,12.1-6.9,13.3c-0.6,0.5-16.7,4-16.7,4  l-8.9-17.3l4.7-2.1C795.1,320.6,799.6,304.8,801.3,302.2z"></path>	<path class="st8" d="M829.2,310.5l0.5,1h-0.3c-1.4,0.2-3.3,0.5-5.3,0.9c-1.8,0.3-3.5,0.7-5.2,1.3L818,314l-0.7,0.3l-0.6,0.3  l0.4-0.5c0.2-0.2,0.3-0.4,0.5-0.6s0.5-0.5,0.8-0.7c1.6-1.2,3.5-2.1,5.4-2.4C825.7,310.1,827.5,310.1,829.2,310.5z"></path>	<path class="st8" d="M831.5,316.4c0,0.2,0.1,0.3,0.1,0.4l-1.5,0.2c-1.4,0.2-3.3,0.5-5.4,0.9c-1.8,0.3-3.5,0.7-5.2,1.3l-0.9,0.4  c-0.3,0.1-0.5,0.2-0.7,0.3l-0.6,0.3l0.4-0.5c0.1-0.2,0.3-0.4,0.5-0.6l0.8-0.7c1.6-1.2,3.4-2.1,5.4-2.4c1.9-0.3,3.8-0.3,5.6,0.1  C830.7,316.1,831.1,316.2,831.5,316.4z"></path>	<path class="st10" d="M741.6,232.6c0,0-17.5,10.9-19,17.2s-12,91-9,98.6s19.1,23.1,22.6,24.6s67.7-29.1,67.7-29.1L795,320  l-41.8,8.7l3.5-34L741.6,232.6z"></path>	<path class="st14" d="M782.3,317.3c-5.2,1.8-10.4,3.9-15.4,6.1l-7.5,3.3c-2,0.9-4,1.9-6,2.9c0.4-2,0.5-4.1,0.6-6.1  c0.1-2.9,0.2-5.8,0.1-8.7c-0.2-5.6-0.6-11.2-1.3-16.8c-1.4-11.2-3.8-22.2-7.2-32.9c-2-6-4.4-11.9-7.2-17.5  c-0.2-0.2-0.5-0.3-0.7-0.1c-0.2,0.1-0.2,0.3-0.2,0.5c1.9,5.1,3.5,10.4,5,15.6s3,10.8,4.2,16.3c2.2,10.8,3.3,21.9,3.5,33  c0,3.1,0.1,6.3,0.1,9.4s-0.5,6.3,0.3,9.3c0.2,0.6,0.7,0.9,1.3,0.8c0,0,0,0,0,0l0,0c0.2-0.1,0.5-0.2,0.6-0.4c2.7-0.9,5.4-1.5,8-2.5  l7.7-2.7c5.2-1.9,10.4-3.8,15.5-6.1C785.5,319.8,784.2,316.7,782.3,317.3z"></path>	<path class="st14" d="M792.2,346.7c-10.8,7.7-22.9,13.6-35.7,17.3c-0.4,0.1-0.7,0.6-0.5,1c0.1,0.4,0.5,0.6,0.9,0.5  c13.3-2.7,25.8-8.4,36.6-16.6C794.8,348,793.6,345.7,792.2,346.7z"></path>	<polygon class="st21" points="783.1,317.8 794.5,348.8 805.6,344.9 794.2,314.7  "></polygon>	<path class="st22" d="M880.3,87.8H1055c5.4,0,9.8,4.4,9.8,9.8v112.1c0,5.4-4.4,9.8-9.8,9.8H880.3c-5.4,0-9.8-4.4-9.8-9.8V97.6  C870.5,92.2,874.9,87.8,880.3,87.8z"></path>	<path class="st21" d="M865.7,97v113.3c0,5.1,4.1,9.2,9.2,9.2h175.8c5.1,0,9.2-4.1,9.2-9.2V97c0-5.1-4.1-9.2-9.2-9.2H874.9  c-4.4,0-8.2,3.2-9,7.5C865.8,95.9,865.7,96.4,865.7,97z"></path>	<path class="st22" d="M879.6,94.1H1046c4.1,0,7.4,3.3,7.4,7.4v104.3c0,4.1-3.3,7.4-7.4,7.4H879.6c-4.1,0-7.4-3.3-7.4-7.4V101.5  C872.3,97.4,875.5,94.1,879.6,94.1z"></path>	<path class="st23" d="M883.4,97.1H1046c4.1,0,7.4,3.3,7.4,7.4v101.3c0,4.1-3.3,7.4-7.4,7.4H883.4c-4.1,0-7.4-3.3-7.4-7.4V104.5  C876,100.4,879.3,97.1,883.4,97.1z"></path>	<path class="st24" d="M876.1,104v1.2h177.4V104c0-3.8-3.1-6.9-6.9-6.9l0,0H882.9C879.1,97.1,876.1,100.2,876.1,104z"></path>	<path class="st21" d="M1043.7,101.2c0,1.1,0.8,1.9,1.9,1.9c1.1,0,1.9-0.8,1.9-1.9c0-1.1-0.8-1.9-1.9-1.9l0,0  C1044.6,99.2,1043.7,100.1,1043.7,101.2z"></path>	<path class="st21" d="M1037,101.2c0,1.1,0.8,1.9,1.9,1.9c1.1,0,1.9-0.8,1.9-1.9c0-1.1-0.8-1.9-1.9-1.9l0,0  C1037.9,99.2,1037,100.1,1037,101.2C1037,101.1,1037,101.1,1037,101.2z"></path>	<path class="st21" d="M1030.3,101.2c0,1.1,0.9,1.9,1.9,1.9c1.1,0,1.9-0.9,1.9-1.9c0-1.1-0.9-1.9-1.9-1.9l0,0  C1031.1,99.3,1030.3,100.1,1030.3,101.2z"></path>	<path class="st25" d="M875.8,201.4h177.6v4.6c0,4.1-3.3,7.4-7.4,7.4H883.1c-4.1,0-7.4-3.3-7.4-7.4V201.4z"></path>	<path class="st26" d="M885.2,207.8l-3.5,2.6c-0.3,0.2-0.6,0-0.6-0.4v-5.2c0-0.2,0.1-0.4,0.3-0.4c0.1,0,0.2,0,0.3,0.1l3.5,2.6  C885.4,207.2,885.4,207.5,885.2,207.8C885.3,207.7,885.3,207.7,885.2,207.8L885.2,207.8C885.3,207.7,885.2,207.7,885.2,207.8z"></path>	<line class="st27" x1="889.7" y1="207.4" x2="1048" y2="207.4"></line>	<line class="st28" x1="888.4" y1="207.4" x2="897.6" y2="207.4"></line>	<path class="st29" d="M901,207.4c-0.3,1.9-2,3.1-3.9,2.9c-1.9-0.3-3.1-2-2.9-3.9c0.3-1.7,1.7-2.9,3.4-2.9  C899.6,203.6,901.1,205.4,901,207.4z"></path>	<path class="st26" d="M899.3,207.4c-0.1,0.9-1,1.5-1.9,1.4c-0.9-0.1-1.5-1-1.4-1.9c0.1-0.8,0.8-1.4,1.6-1.4  C898.6,205.5,899.3,206.4,899.3,207.4C899.3,207.4,899.3,207.4,899.3,207.4L899.3,207.4z"></path>	<polygon class="st30" points="1009.6,201.3 950.2,201.3 947.5,143.8 943,119.5 949.6,117.7 977.6,122.9 1007.9,117.3 1014.7,119.8   1010.8,144.3  "></polygon>	<path class="st30" d="M951.4,177.1c-1.5-3.7-2-7.7-1.3-11.7l3.5-18.1l-7.7-28.7c-1.4,0.3-2.7,0.6-4.1,1c0,0-0.8,0.3-2,0.8  c-1.5,0.7-2.9,1.4-4.2,2.3c-4.9,3.3-3,43.1-3,43.1c0.9,18.3-0.2,23.1,4,26.1c7,5,20.9-0.3,21.6-4.9  C958.5,184.4,954.1,183,951.4,177.1z"></path>	<path class="st30" d="M1009.1,176.6c1.5-3.7,2-7.7,1.3-11.6l-3.5-18.1l7.7-28.7c1.4,0.3,2.7,0.6,4.1,1c0,0,0.8,0.3,2,0.8  c1.5,0.7,2.9,1.5,4.2,2.3c4.9,3.3,3,43.1,3,43.1c-0.9,18.3,0.2,23.1-4,26.1c-7,5-20.9-0.3-21.6-4.9  C1001.9,184,1006.4,182.6,1009.1,176.6z"></path>	<path class="st31" d="M970.4,114.3l6.9,2.5l8.7-2.8c-0.4-2.6-0.6-5.2-0.6-7.9c0-4.9,0.3-9.5,0.3-9.5l-13.6-1.8  c0,3.6-0.3,7.1-0.7,10.7C970.9,110.1,970.4,114.3,970.4,114.3z"></path>	<path class="st32" d="M971.4,105.6c1.9,1.4,3.9,2.8,6.3,3c2.7,0.3,5.3-0.9,7.8-2.5c0-4.9,0.3-9.5,0.3-9.5l-13.6-1.7  C972,98.4,971.8,102,971.4,105.6z"></path>	<path class="st33" d="M997.8,75c0,0-0.6,12.4-4,16.9c-2.8,3.8-6.7,9.9-13,11.9c-1.2,0.4-2.5,0.4-3.8,0c-6.2-2.1-10-8.3-12.8-12.2  c-3.2-4.6-3.6-17-3.6-17v-2.4l0,0c0.6-23.4,18.8-22,18.8-22s17.9,0.3,18.3,23.5L997.8,75z"></path>	<path class="st31" d="M998.4,73.8c-0.1,2-0.9,12.5-4,16.6c-2.8,3.8-6.8,9.9-13.2,11.9c-1.2,0.4-2.6,0.4-3.8,0  c-6.3-2.2-10.2-8.3-13-12.2c-3.3-4.6-3.7-17-3.7-17v-0.8l0,0c0.6-23.4,19.1-22,19.1-22S998,50.6,998.4,73.8z"></path>	<path class="st16" d="M960.3,61.8c6.7-10.8,20.9-14,31.7-7.3c1,0.6,1.9,1.3,2.8,2c1.2,1,4.8,3.9,4.9,5.6c0.1,3.1-3.4,0.5-5.2-0.2  C983.5,57.8,971.4,57.8,960.3,61.8z"></path>	<path class="st31" d="M955.3,114.5c0,0,0.2,0.7,0.7,1.9c2.1,4.9,9,18,21.6,17.8c12.3-0.2,21.7-12.5,25.1-17.7  c0.9-1.4,1.4-2.3,1.4-2.3l-18.7-5.1l-14.5,0.2L955.3,114.5z"></path>	<path class="st34" d="M938.2,121.2l1.6,1.7l0.8,0.8c2.4,2.5,3.2,8.3,5,14.7c0.4,1.2,0.9,2.4,1.5,3.5l0,0c0.3,0.6,0.7,1.2,1.1,1.9  c1.4,2.1,3,4.1,4.8,6c0.5,0.6,1,1.1,1.6,1.6c1.1,1.1,2.3,2.1,3.5,3.1l0,0c2.2,1.7,4.6,3.2,7.2,4.3l0,0c0.8,0.3,1.5,0.6,2.3,0.8  c0.4,0.1,0.8,0.2,1.3,0.3s0.8,0.1,1.1,0.2c0.7,0.1,1.3,0.1,2,0.1c2,0,4-0.2,6-0.6l0,0l0.8-0.2l0,0l1.2-0.3l0,0c1-0.3,2-0.7,3-1.1  l0,0c0.4-0.2,0.7-0.4,1.1-0.6l0,0l0.7-0.4l0,0c3.5-2.2,6-5.5,8.9-9.7c5.5-8,10-7.6,15.3-9.9l0.2-0.1l0.1-0.1c1-0.6,2-1.3,2.8-2.1  c3.7-3.6,7.7-9.9,9.3-12.7c0.5-0.9,0.8-1.4,0.8-1.4l-5.6-2.3l0,0l-5.7-2.4l-18.7-7.8c0,0,6.7-11.8,8.3-15.3c0.7-1.4,1.5-7,2.2-13.5  c0.9-9.4,1.3-20.8-0.5-24.4c-2.9-5.9-12.5-10.6-18.8-11.8s-18.3,1-23.3,9c-3.5,5.7-3.6,18.4-3.2,27.2c0.2,3.7,0.4,6.7,0.6,8.1  c0.4,4.6,8.9,16.6,8.9,16.6l-28,16.6l0,0L938.2,121.2z M993.8,91.2L993.8,91.2c-1.5,2.4-3,4.5-3.4,5.1c-1.5,1.7-3.2,3.3-4.9,4.8  l-0.6,0.5c-1.6,1.4-3.6,2.1-5.7,2.1c-2.6-0.5-5.1-1.6-7.3-3.2l0,0c-0.8-0.6-1.5-1.1-2.2-1.8l0,0l-0.1-0.1c-0.9-0.9-1.7-1.8-2.4-2.9  l0,0c-1-1.6-1.9-3.3-2.5-5.1c0-0.1-0.1-0.1-0.1-0.2l0,0c-0.8-2.2-1.4-4.4-1.8-6.7c-0.2-1.1-0.4-2.1-0.5-3.2l0,0l-0.1-0.8  c-0.9-6.9-0.7-13.4-0.1-15.6c0.3-1.2,0.8-2.3,1.4-3.3l0,0c2.4-3.8,7.4-7.6,15.5-7.6c6.5-0.1,12.5,3.2,15.8,8.7l0,0  c1.5,2.7,2.5,5.7,2.8,8.8l0,0c0.2,1.4,0.2,2.8,0.2,4.2c0,0.1,0,0.2,0,0.3c0,1.5-0.1,2.9-0.3,4.3c0,0.3-0.1,0.7-0.1,1l0,0  c-0.1,0.9-0.3,1.7-0.4,2.5l0,0c-0.2,1.1-0.5,2.2-0.8,3.2l0,0C995.5,88,994.7,89.6,993.8,91.2L993.8,91.2z"></path>	<path class="st32" d="M962.2,80.5L962.2,80.5c0.2,1,0.3,2.1,0.5,3.2c0.3,0.2,0.7,0.3,1.1,0.5c2.4,0.9,4.7,1,5,0.2s-1.4-2.2-3.8-3.2  C964.1,80.9,963.1,80.6,962.2,80.5z"></path>	<path class="st32" d="M989.6,84.8c0.3,0.8,2.6,0.7,5-0.3c0.8-0.3,1.6-0.7,2.3-1.2l0,0c0.2-0.8,0.3-1.6,0.4-2.5l0,0  c-1.3,0-2.7,0.3-3.9,0.8C991,82.5,989.3,84,989.6,84.8z"></path>	<path class="st35" d="M966.3,109.3c7.5,1,14.6,0,21.9-1.5c0.3-0.1,0.6,0.1,0.7,0.4l0,0c0.1,0.3-0.1,0.6-0.4,0.7  c-5.6,2.1-11.6,2.9-17.5,2.5c6.5,2.7,13.5,4.2,20.5,4.5c0.9,0,0.9,1.4,0,1.4c-9-0.3-17.8-2.5-25.9-6.4  C964.8,110.4,965.4,109.2,966.3,109.3z"></path>	<path class="st35" d="M970.5,116.9c1.2,0.2,2.4,0.8,3.6,1.1c1.4,0.4,2.8,0.6,4.2,0.7c0.4,0,0.4,0.6,0,0.6c-2.6-0.1-5.9-0.3-8-2  C970.1,117.2,970.3,116.9,970.5,116.9z"></path>	<path class="st35" d="M972.4,150.3c4.8-0.5,9-1.2,12.8-4.4c2.7-2.3,4.5-5.5,7.2-7.7c6.2-4.9,16.9-4.2,19-13.3  c0-0.1,0.1-0.2,0.2-0.2c0.1,0,0.2,0.1,0.2,0.2c0,9.4-12.9,10-18.5,14.4c-3.6,2.9-5.7,7.1-9.7,9.6c-3.3,2-7.6,3.3-11.4,2.5  C971.5,151.3,971.8,150.4,972.4,150.3z"></path>	<path class="st35" d="M973.1,144c2.9,1,5.2,0.4,7.7-1.1c0.2-0.1,0.4,0,0.5,0.1c0.1,0.1,0.1,0.3,0,0.4c-2,2.4-5.9,2.8-8.6,1.6  C972.1,144.8,972.4,143.8,973.1,144z"></path>	<path class="st35" d="M993.7,50.9c0.8-0.6,2.5,0.5,3.1,1c1,0.7,1.8,1.8,2.1,3c0,0.2-0.1,0.4-0.3,0.4c-0.1,0-0.3,0-0.4-0.2  c-0.5-1-1.3-1.9-2.2-2.6c-0.5-0.3-1-0.6-1.5-0.7c-0.4-0.1-0.7-0.1-0.9-0.5C993.5,51.2,993.5,51,993.7,50.9z"></path>	<path class="st35" d="M988.5,52.1c0.8-0.5,1.9-0.1,2.8,0.1c1.1,0.2,2.2,0.6,3.2,1.1c0.2,0.1,0.2,0.3,0.1,0.4  c-0.1,0.1-0.2,0.2-0.4,0.2c-1-0.2-2-0.5-3-0.7s-2,0-2.7-0.5c-0.2-0.1-0.2-0.3-0.1-0.4c0,0,0,0,0,0l0,0  C988.5,52.2,988.5,52.1,988.5,52.1z"></path>	<path class="st36" d="M1014.9,139c0.5-0.6,1.5,0.2,1.1,0.8c-2.8,4.5-5,9.1-5.6,14.4c0,0.4-0.8,0.3-0.7-0.1  C1009.8,148.7,1011.6,143.4,1014.9,139z"></path>	<path class="st36" d="M1014.6,147c0.3-0.8,0.9-1.6,1.5-2.3c0.5-0.8,1.1-1.6,1.8-2.2c0.1,0,0.1,0,0.2,0c0,0,0,0.1,0,0.1  c-0.4,0.9-0.8,1.7-1.4,2.5c-0.4,0.8-0.9,1.6-1.6,2.2c-0.2,0.1-0.3,0-0.4-0.1c0,0,0,0,0,0l0,0C1014.6,147.1,1014.6,147.1,1014.6,147  z"></path>	<path class="st36" d="M947.9,150.3c-0.1-0.6,0.8-0.6,1-0.1c1.3,3.5,2,9.4,0.2,12.8c0,0-0.1,0-0.1,0c0,0,0,0,0,0l0,0  c-0.4-1.9,0-4-0.1-5.9C948.7,154.7,948.2,152.5,947.9,150.3z"></path>	<path class="st36" d="M1001.4,201.3h-2.3c2.4-2.6,5-5,7.3-7.7c0.3-0.3,0.8,0.1,0.5,0.4C1005.2,196.4,1003.4,199,1001.4,201.3z"></path>	<path class="st36" d="M1012.7,184.3c-1.9-4.6-2.8-9.7-4.4-14.4c-0.1-0.4,0.5-0.6,0.6-0.3c2,4.6,4.2,9.4,5,14.3  c0.1,0.3-0.1,0.7-0.4,0.8C1013.1,184.8,1012.7,184.6,1012.7,184.3L1012.7,184.3L1012.7,184.3z"></path>	<path class="st36" d="M962.3,201.3c-1.2-1.3-2.4-2.6-3.6-3.8c-2.7-2.7-5.3-5.5-7.5-8.6c-0.1-0.2,0-0.5,0.2-0.7c0,0,0,0,0,0  c0.2-0.1,0.4-0.1,0.6,0.1c2.9,2.6,5.4,5.9,8.1,8.8c1.3,1.4,2.7,2.8,4.1,4.2L962.3,201.3z"></path>	<polygon class="st37" points="951.4,137.3 951.1,147.3 969,165.5 971,164.9 968.2,157.9 960.6,138.8  "></polygon>	<path class="st38" d="M956,134c-0.2-0.1-0.4-0.1-0.6,0c-0.3,0.1-3.9,3.3-3.9,3.3c13,4.9,14.5,23.9,19.4,26.5l0.3,0.6l0.8-0.2  C967.4,157.2,969.2,140.2,956,134z"></path>	<path class="st38" d="M971.9,164.2c-4.6-1-15.6-18.7-27.4-21.9c0,0,3.8,10,3.7,14.8s21,10.6,21.6,10.5S971.9,164.2,971.9,164.2z"></path>	<path class="st38" d="M1011.9,157l-1.5-2.3c0,0-0.2-0.3-0.7-0.3s-26.2-1.7-39.1,10.4s32.3,4.3,33.2,3.6S1011.9,157,1011.9,157z"></path>	<path class="st37" d="M1011.9,157c-3.9-0.1-7.7,0-11.6,0.4c-9.4,1-18.6,3.7-27.1,7.9l-0.3,1.4c0,2.1,0.3,4.6,1.8,5.5  c2.9,1.7,7.2-4.9,14.8-7.4c5.5-1.8,11.2-0.9,16.2,0.9L1011.9,157z"></path>	<path class="st39" d="M972.8,166.7c12.8-4.7,26.5-6.5,40.1-5l-0.4,18.3c-12.3,0.4-24.6,2-36.6,5l-2.1-3.9L972.8,166.7z"></path>	<path class="st40" d="M970.1,164.9c1.3-0.3,2.6-0.1,3.7,0.7l2.2,19.5c-0.6-0.2-1.3-0.1-1.8,0.2l-5.6-11.3L970.1,164.9z"></path>	<polygon class="st39" points="970,164.9 940.2,149.8 955.8,177.4 974,185.3  "></polygon>	<path class="st41" d="M970.8,164.9c-0.1,0-0.2-0.1-0.2-0.2c0,0,0,0,0,0l0,0c0-0.1,0-0.1,0.1-0.1c10.2-9.4,28.1-10.4,35.4-10.4h0.2  c0.1,0,0.2,0.1,0.2,0.2c0,0,0,0,0,0l0,0c0,0.1-0.1,0.2-0.2,0.2l0,0h-0.1c-7.3,0-25.1,1-35.2,10.3  C970.8,164.8,970.8,164.9,970.8,164.9z"></path>	<path class="st42" d="M947,174.5l-1.9-2.2c-0.7,0.4-1.4,0.9-2,1.4c-9.2,7.1,7,22.5,8.3,6.8L947,174.5z"></path>	<path class="st43" d="M943.8,177.3c0,0-1.4,0.7-1.6,1.5c0,1.1,0.4,2.1,1.1,3c2.4,2.8,7.4,1.9,6.8-0.8c0.8-0.3,1.6-0.7,2.3-1.2  c0.7-0.8,0.8-1.9,0.3-2.9c-0.7-0.6-1.6-0.8-2.4-0.6c1.2-0.3,2.3-0.7,3.4-1.3c0.8-0.6,0.8-2.9,0.3-3.3c-1.2-1.1-2.4-0.8-4-0.8  c0,0,1.2-0.6,2.8-1.5s1.3-2.8,1.1-3.6c-0.4-0.8-1.3-1.2-2.2-0.9c0.6-0.4,1-1,1.3-1.7c0.2-0.9-0.3-2.3-1.1-2.4s-5.8,1.3-7,1.7  c-1.1,0.2-1.8,1.3-1.6,2.3c0.1,0.4,0.3,0.8,0.6,1.1c-0.7,0.4-1.2,1.1-1.4,1.9c-0.2,1.3,0.1,3.3,1.1,3.9  C943.8,171.9,940.3,174.5,943.8,177.3z"></path>	<path class="st44" d="M946.5,181.8c0,0.1,0.1,0.2,0.2,0.2l0,0l0,0c0.6-0.1,1.2-0.2,1.8-0.3c0,0.2,0,0.3-0.1,0.5  c-0.1,0.1-0.1,0.2,0,0.3c0,0,0.1,0.1,0.1,0.1c0.1,0,0.1,0,0.2-0.1c0.2-0.2,0.3-0.6,0.3-0.9l0.3-0.1c0.5-0.1,0.8-0.2,0.8-0.2  c0.1,0,0.2-0.2,0.1-0.3c0,0-0.1-0.1-0.1-0.1l0,0l-0.7,0.2c-0.8,0.2-1.7,0.4-2.6,0.5C946.6,181.7,946.5,181.8,946.5,181.8  C946.5,181.9,946.5,181.9,946.5,181.8L946.5,181.8L946.5,181.8z M943.6,177.4L943.6,177.4c0,0.1,0.1,0.1,0.2,0.1h0.1  c1.5-0.4,3.1-0.7,4.7-0.8h0.4l1.4-0.1c0.1,0,0.2-0.1,0.2-0.2c0,0,0,0,0,0l0,0l0,0c0-0.1-0.1-0.2-0.2-0.2l-1.4,0.1l-0.7,0.1l0,0  c-1.5,0.1-3.1,0.4-4.5,0.8l-0.1,0.1c0,0.1,0,0.1,0,0.2L943.6,177.4z M943.5,171.9c0,0,0,0.1,0,0.1c0,0.1,0.1,0.1,0.2,0.1l0,0l5-0.7  l1.1-0.1h0.3c0.1,0,0.2-0.1,0.2-0.2c0,0,0,0,0,0l0,0c0,0,0,0,0-0.1c0-0.1-0.1-0.1-0.2-0.1h-0.3l-1.1,0.1l-5,0.7  c-0.1,0-0.1,0-0.2,0.1C943.5,171.8,943.5,171.9,943.5,171.9L943.5,171.9z M943.8,166C943.8,166.1,943.8,166.1,943.8,166  c0,0.2,0.1,0.2,0.2,0.2l0,0l4.5-0.5l0.6-0.1l0.9-0.1l1.8-0.2c0.1,0,0.2-0.1,0.2-0.3l0,0c0,0,0-0.1,0-0.1c0-0.1-0.1-0.1-0.2-0.1  l-1.7,0.2l-1.2,0.1h-0.4l-4.5,0.5c0,0-0.1,0-0.1,0C943.8,165.8,943.7,165.9,943.8,166L943.8,166z"></path>	<path class="st42" d="M1014.5,176l1.9-2.2c0.7,0.4,1.4,0.9,2,1.4c9.2,7.1-7,22.5-8.3,6.8L1014.5,176z"></path>	<path class="st43" d="M1017.7,178.8c0,0,1.4,0.7,1.6,1.5c0,1.1-0.4,2.1-1.1,3c-2.4,2.8-7.4,1.9-6.8-0.8c-0.8-0.3-1.6-0.7-2.3-1.2  c-0.7-0.8-0.8-1.9-0.3-2.9c0.7-0.6,1.6-0.8,2.4-0.6c-1.2-0.3-2.3-0.7-3.4-1.3c-0.8-0.6-0.8-2.9-0.3-3.3c1.2-1.1,2.4-0.8,4-0.8  c0,0-1.2-0.6-2.8-1.5s-1.3-2.8-1.1-3.6c0.4-0.8,1.3-1.2,2.2-0.9c-0.6-0.4-1-1-1.3-1.7c-0.2-0.9,0.4-2.3,1.1-2.4s5.8,1.3,7,1.7  c1.1,0.2,1.8,1.3,1.5,2.4v0.1c-0.1,0.4-0.3,0.7-0.5,1c0.7,0.4,1.2,1.1,1.4,1.9c0.2,1.3-0.1,3.3-1.1,3.9  C1017.8,173.4,1021.2,176,1017.7,178.8z"></path>	<path class="st44" d="M1011.5,182.8l0.7,0.2l0.4,0.1c0,0.3,0.1,0.6,0.3,0.9c0.1,0.1,0.2,0.1,0.3,0l0,0c0.1-0.1,0.1-0.2,0-0.3l0,0  c-0.1-0.1-0.1-0.3-0.1-0.5l0.7,0.1c0.3,0.1,0.7,0.1,1,0.1c0.1,0,0.2-0.1,0.2-0.3c0-0.1-0.1-0.1-0.2-0.2c-0.4,0-0.8-0.1-1.2-0.2  c-0.7-0.1-1.3-0.3-1.7-0.4l-0.4-0.1c-0.1,0-0.2,0-0.2,0.1c0,0,0,0,0,0l0,0l0,0C1011.2,182.7,1011.3,182.8,1011.5,182.8  C1011.4,182.8,1011.4,182.8,1011.5,182.8L1011.5,182.8L1011.5,182.8z M1010.9,177.8L1010.9,177.8c0,0.1,0.1,0.2,0.2,0.2  c0,0,0,0,0,0l0,0l1.2,0.1h0.5c1.6,0.1,3.2,0.4,4.7,0.8c0.1,0,0.2,0,0.3-0.1l0,0c0-0.1,0-0.2-0.1-0.3c-1.5-0.4-3-0.7-4.5-0.8  l-0.7-0.1h-0.3l-1.1-0.1C1011,177.7,1011,177.7,1010.9,177.8C1010.9,177.8,1010.9,177.9,1010.9,177.8L1010.9,177.8z M1011.2,172.4  c0,0.1,0.1,0.2,0.2,0.2c0,0,0,0,0,0l0,0l1.2,0.2l5.1,0.7l0,0c0.1,0,0.1,0,0.2-0.1c0,0,0-0.1,0-0.1c0-0.1,0-0.1,0-0.2  c0,0-0.1-0.1-0.1-0.1l-5.2-0.7l-1.2-0.2C1011.3,172.2,1011.2,172.3,1011.2,172.4L1011.2,172.4L1011.2,172.4L1011.2,172.4z   M1009.5,166.4c0,0.1,0.1,0.2,0.2,0.2c0,0,0,0,0,0l0,0l0.6,0.1h0.3l2.2,0.3l4.7,0.6l0,0c0.1,0,0.1,0,0.2-0.1c0,0,0-0.1,0-0.1  c0-0.1,0-0.1-0.1-0.2c0,0-0.1,0-0.1-0.1l-4.8-0.6l-2.2-0.3h-0.2l-0.6-0.1C1009.6,166.2,1009.5,166.3,1009.5,166.4  C1009.5,166.4,1009.5,166.4,1009.5,166.4L1009.5,166.4L1009.5,166.4z"></path>	<path class="st45" d="M987.3,75.6l-2,0.2c0,0-0.7-3.5,2.4-4.7s6.2,1.1,2.7,4.6S987.3,75.6,987.3,75.6z"></path>	<path class="st46" d="M983.7,88.7c0.3-0.1,0.6,0,0.8,0.2c0.1,0.3,0,0.6-0.2,0.8l0,0c-1.1,0.5-2.3,0.9-3.5,1.2  c-2.4,0.6-4.9,0.5-7.3-0.4c-0.3-0.1-0.4-0.4-0.3-0.7c0,0,0,0,0,0l0,0c0.1-0.3,0.4-0.4,0.7-0.3l0,0c2.1,0.8,4.4,0.9,6.6,0.3  C981.6,89.6,982.7,89.2,983.7,88.7z"></path>	<path class="st46" d="M977.7,93.1c-0.3,0-0.5-0.3-0.5-0.6l0,0c0-0.3,0.3-0.5,0.6-0.5c0,0,0,0,0,0l0,0c0.7,0.1,1.4,0.1,2.2-0.1  c0.3-0.2,0.6-0.1,0.8,0.2c0.2,0.2,0.1,0.6-0.2,0.7c0,0,0,0,0,0h-0.1C979.6,93.1,978.6,93.2,977.7,93.1z"></path>	<path class="st47" d="M985.5,67.6c-0.4,0.1-0.8,0.1-1.2,0c-0.5-0.2-0.9-0.6-1.1-1.1c0-0.2,0.3,0.1,1.4-0.4s4.9-1.8,7.8,0.4  c0.5,0.4,0.2,0.7-0.4,0.6C989.9,66.4,987.5,66.6,985.5,67.6z"></path>	<path class="st47" d="M971.9,67.3c0.4,0.1,0.8,0.1,1.2,0c0.5-0.2,0.9-0.7,1-1.2c0-0.2-0.3,0.1-1.4-0.3s-5-1.6-7.8,0.7  c-0.5,0.4-0.1,0.7,0.5,0.6C967.5,66.3,969.8,66.4,971.9,67.3z"></path>	<path class="st45" d="M970.3,75l2,0.1c0,0,0.7-3.5-2.4-4.7s-6.2,1.2-2.7,4.6S970.3,75,970.3,75z"></path>	<path class="st46" d="M977.7,79.4c0,0.1,0,0.3,0,0.4c-0.5,1.6-0.9,3.2-1.2,4.8c0.1,0.6,1.9,0.6,2.8,0.4c0.6-0.1,0.2,1.8-0.8,1.8  s-2.7-0.9-3-2c0.1-1.6,0.5-3.2,1-4.7c0.1-0.4,0-0.7-0.2-1.1C976.2,78.6,977.5,79,977.7,79.4z"></path>	<path class="st48" d="M966.7,70c0.5,0.9,1.2,1.7,2.2,2.1c0.4-0.4,0.9-0.7,1.5-0.7c1.4,0.1,2.4,2,2.2,4.2s-1.4,4-2.8,3.9  s-2.4-2-2.2-4.2c0-0.6,0.2-1.3,0.4-1.9C967.3,72.4,966.8,71.2,966.7,70z"></path>	<path class="st49" d="M970.2,75.9c-2.1,0.6-4.4-0.2-5.7-2C966.6,73.3,968.9,74.1,970.2,75.9z"></path>	<path class="st48" d="M992.8,71.6c-0.6,0.9-1.4,1.5-2.4,1.8c-0.3-0.5-0.8-0.8-1.4-0.8c-1.4-0.1-2.6,1.7-2.7,3.9s0.9,4.1,2.3,4.2  s2.6-1.7,2.7-3.9c0-0.6,0-1.3-0.2-1.9C992.2,74,992.8,71.6,992.8,71.6z"></path>	<path class="st49" d="M988.6,77.1c2,0.9,4.4,0.3,5.8-1.3C992.4,74.9,990.1,75.4,988.6,77.1z"></path>	<path class="st30" d="M724.8,439.6l-1.6-6.5h-9l-2,6.5h-7.9l10.2-30.6h9.1l9.7,30.6L724.8,439.6z M718.9,415.2L718.9,415.2l-3.4,12  h6.1L718.9,415.2z"></path>	<path class="st30" d="M735.6,439.6v-16.2c0-2.2-0.1-4.4-0.3-6.6h7.4c0.1,0.9,0.2,2.6,0.2,3.8h0.1c0.7-2.6,3.1-4.4,5.8-4.3  c0.4,0,0.9,0,1.3,0.1v6.9c-0.8-0.2-1.6-0.3-2.3-0.3c-2.5,0-4.3,2.2-4.3,5.3v11.4L735.6,439.6z"></path>	<path class="st30" d="M766.7,439.6c-0.1-1-0.3-2.1-0.3-3.1c-2.3,2.5-4.1,3.7-6.9,3.7c-4,0-6.9-2.9-6.9-7.3c0-5.1,3.8-7.8,11.7-7.8  h2v-0.7c0-1.4-1.2-3.1-4.3-3.1c-2.3,0.1-4.6,0.8-6.6,2.1l-0.3-5.6c2.7-1,5.6-1.5,8.6-1.5c8,0,9.6,3.8,9.6,8.5v9.9  c0,1.7,0.1,3.3,0.3,5L766.7,439.6z M766.4,428.6h-0.9c-3.5,0-5.8,1.1-5.8,3.8c-0.2,1.3,0.7,2.6,2.1,2.8c0,0,0,0,0,0l0,0  c0.2,0,0.4,0,0.6,0c3.6,0,4-3.7,4-5.8L766.4,428.6z"></path>	<path class="st30" d="M777.6,439.6c0.1-1.4,0.2-2.7,0.2-4v-28.9h7.9v9.3c0,1.7-0.1,3.1-0.2,4.1h0.1c1.6-2.6,3.3-3.9,6.3-3.9  c5.7,0,8.2,6.1,8.2,11.4c0,6.9-2.6,12.3-8.6,12.3c-2.3,0-4.3-1-6-4h-0.1c0,1.2-0.1,2.5-0.2,3.7H777.6z M791.8,428  c0-3.8-0.7-6.4-3.1-6.4c-2,0-3.1,2.6-3.1,6.4s1.1,6.4,3.1,6.4C791.1,434.4,791.8,431.8,791.8,428z"></path>	<path class="st30" d="M804.1,413.3v-6.6h7.9v6.6H804.1z M804.1,439.6v-22.8h7.9v22.8H804.1z"></path>	<path class="st30" d="M833.8,438.9c-2,0.7-4.2,1.1-6.3,1.2c-8.3,0-11.3-5.7-11.3-11.9s3-12,11.3-12c2.1,0,4.2,0.3,6.1,1.1l-0.4,5.7  c-1.2-0.6-2.5-0.9-3.9-1c-2.9,0-5.2,1.8-5.2,6.1c0,3.4,1.2,6,5,6c1.5,0,3-0.4,4.4-1L833.8,438.9z"></path>	<path class="st30" d="M846.9,439.6V409h8.2v24.4h10.1v6.2L846.9,439.6z"></path>	<path class="st30" d="M881.5,439.6c-0.1-1-0.3-2.1-0.3-3.1c-2.3,2.5-4.1,3.7-6.9,3.7c-4,0-6.9-2.9-6.9-7.3c0-5.1,3.8-7.8,11.7-7.8  h2v-0.7c0-1.4-1.2-3.1-4.3-3.1c-2.3,0.1-4.6,0.8-6.6,2.1l-0.3-5.6c2.7-1,5.6-1.5,8.6-1.5c8,0,9.6,3.8,9.6,8.5v9.9  c0,1.7,0.1,3.3,0.3,5L881.5,439.6z M881.3,428.6h-0.9c-3.5,0-5.8,1.1-5.8,3.8c-0.2,1.3,0.7,2.6,2.1,2.8c0,0,0,0,0,0l0,0  c0.2,0,0.4,0,0.6,0c3.6,0,4-3.7,4-5.8L881.3,428.6z"></path>	<path class="st30" d="M905.5,439.6v-13.7c0-2.2-0.7-3.3-2.2-3.3c-2,0-2.8,2.1-2.8,4.4v12.5h-7.9v-18.2c0-1.6-0.1-3.1-0.3-4.6h7.4  c0.1,0.9,0.2,2.6,0.2,3.8h0.1c0.9-2.7,3.6-4.5,6.5-4.3c3.9,0,6.9,2.3,6.9,7.4v16H905.5z"></path>	<path class="st30" d="M931.9,435.1L931.9,435.1c-0.9,2.7-3.4,4.5-6.2,4.5c-6.2,0-8.6-5-8.6-12.2c0-5.9,3.1-11.2,8.5-11.2  c2.8,0,5.3,1.7,6.2,4.2h0.1c0-1.2,0.1-2.5,0.3-3.7h7.4c-0.2,1.8-0.3,3.6-0.3,5.3v14.7c0,8-3.5,12.5-12.4,12.5  c-2.9,0-5.8-0.5-8.6-1.5l0.3-6.3c2.1,1.3,4.5,2.1,7,2.1c4.6,0,6.2-2.5,6.2-6.8L931.9,435.1z M931.5,428c0-3.9-1-6.1-3.3-6.1  s-2.9,2.5-2.9,5.8c0,3.9,0.5,6.5,3.1,6.5S931.5,431.7,931.5,428z"></path>	<path class="st30" d="M957.3,439.6c-0.1-1.3-0.2-2.5-0.2-3.8h-0.1c-0.9,2.7-3.6,4.5-6.5,4.3c-3.9,0-6.9-2.3-6.9-7.4v-16h7.9v13.7  c0,2.2,0.7,3.3,2.2,3.3c2.3,0,2.8-2.1,2.8-3.8v-13.2h7.9v19.1c0,1.3,0.1,2.5,0.3,3.8H957.3z"></path>	<path class="st30" d="M982.1,439.6c-0.1-1-0.3-2.1-0.3-3.1c-2.3,2.5-4.1,3.7-6.8,3.7c-4,0-6.9-2.9-6.9-7.3c0-5.1,3.8-7.8,11.7-7.8  h2v-0.7c0-1.4-1.2-3.1-4.3-3.1c-2.3,0.1-4.6,0.8-6.6,2.1l-0.3-5.6c2.7-1,5.6-1.5,8.6-1.5c8,0,9.6,3.8,9.6,8.5v9.9  c0,1.7,0.1,3.3,0.3,5L982.1,439.6z M981.8,428.6h-0.9c-3.5,0-5.8,1.1-5.8,3.8c-0.2,1.3,0.7,2.6,2.1,2.8c0,0,0,0,0,0l0,0  c0.2,0,0.4,0,0.7,0c3.6,0,4-3.7,4-5.8L981.8,428.6z"></path>	<path class="st30" d="M1007.3,435.1L1007.3,435.1c-0.9,2.7-3.4,4.5-6.2,4.5c-6.2,0-8.6-5-8.6-12.2c0-5.9,3.1-11.2,8.5-11.2  c2.8,0,5.3,1.7,6.2,4.2h0.1c0-1.2,0.1-2.5,0.3-3.7h7.4c-0.2,1.8-0.3,3.6-0.3,5.3v14.7c0,8-3.5,12.5-12.4,12.5  c-2.9,0-5.8-0.6-8.6-1.5l0.3-6.3c2.1,1.3,4.5,2.1,7,2.1c4.6,0,6.2-2.5,6.2-6.8L1007.3,435.1z M1006.9,428c0-3.9-1-6.1-3.3-6.1  s-2.9,2.5-2.9,5.8c0,3.9,0.5,6.5,3.1,6.5S1006.9,431.7,1006.9,428L1006.9,428z"></path>	<path class="st30" d="M1038.5,438.8c-2.6,0.9-5.3,1.3-8,1.3c-9.3,0.1-11.9-6.2-11.9-12.1c0-6.2,3.7-11.8,10.6-11.8  c7.1,0,10.5,5.7,10.5,11.9v2.2h-13.8c0.2,3.7,2.8,4.8,5.7,4.8c2.3-0.2,4.6-0.8,6.6-1.8L1038.5,438.8z M1032.5,425.6  c0-3.1-0.8-4.5-3.2-4.5s-3.6,2-3.6,5.2h6.8V425.6z"></path>	<g class="st50">		<path class="st51" d="M731.4,82l1.2-3.8l1.2,3.8c1.3,4.2,4.2,7.7,8.1,9.8l0,0c-3.9,2.1-6.7,5.6-8.1,9.8l-1.2,3.8l-1.2-3.8   c-1.3-4.2-4.2-7.7-8.1-9.8l0,0C727.2,89.7,730.1,86.2,731.4,82z"></path>		<path class="st51" d="M714.8,205.1l1.2-3.8l1.2,3.8c1.3,4.2,4.2,7.7,8.1,9.8l0,0c-3.9,2.1-6.7,5.6-8.1,9.8l-1.2,3.8l-1.2-3.8   c-1.3-4.2-4.2-7.7-8.1-9.8l0,0C710.6,212.8,713.5,209.3,714.8,205.1z"></path>		<path class="st51" d="M988.3,231.7l0.8-2.6l0.8,2.6c0.9,2.8,2.8,5.2,5.4,6.6l0,0c-2.6,1.4-4.5,3.8-5.4,6.6l-0.8,2.6l-0.8-2.6   c-0.9-2.8-2.8-5.2-5.4-6.6l0,0C985.5,236.8,987.4,234.5,988.3,231.7z"></path>		<path class="st51" d="M851.4,92.1l0.8-2.4l0.8,2.4c0.8,2.6,2.7,4.9,5.1,6.2l0,0c-2.4,1.3-4.3,3.6-5.1,6.2l-0.8,2.4l-0.8-2.4   c-0.8-2.6-2.7-4.9-5.1-6.2l0,0C848.7,97,850.5,94.7,851.4,92.1z"></path>		<path class="st51" d="M786.9,109l0.8-2.4l0.8,2.4c0.8,2.6,2.7,4.9,5.1,6.2l0,0c-2.4,1.3-4.3,3.5-5.1,6.2l-0.8,2.4l-0.8-2.4   c-0.8-2.6-2.7-4.9-5.1-6.2l0,0C784.2,113.9,786.1,111.6,786.9,109z"></path>		<path class="st51" d="M947.6,240.6l0.8-2.4l0.8,2.4c0.8,2.6,2.7,4.9,5.1,6.2l0,0c-2.4,1.3-4.3,3.6-5.1,6.2l-0.8,2.4l-0.8-2.4   c-0.8-2.6-2.7-4.9-5.1-6.2l0,0C945,245.5,946.8,243.3,947.6,240.6z"></path>		<path class="st51" d="M673.3,160.3l0.8-2.4l0.8,2.4c0.8,2.6,2.7,4.9,5.1,6.2l0,0c-2.4,1.3-4.3,3.5-5.1,6.2l-0.8,2.4l-0.8-2.4   c-0.8-2.6-2.7-4.9-5.1-6.2l0,0C670.6,165.2,672.4,163,673.3,160.3z"></path>		<path class="st52" d="M693.7,110.8l0.8-2.6l0.8,2.6c0.9,2.8,2.8,5.1,5.4,6.5l0,0c-2.6,1.4-4.5,3.7-5.4,6.5l-0.8,2.6l-0.8-2.6   c-0.9-2.8-2.8-5.1-5.4-6.5l0,0C690.9,116,692.8,113.6,693.7,110.8z"></path>	</g>	<g>		<defs>			<rect id="SVGID_1_" y="0.2" width="1280.1" height="499.7"></rect>		</defs>		<clipPath id="SVGID_2_">			<use xlink:href="#SVGID_1_" style="overflow:visible;"></use>		</clipPath>		<g class="st53">							<ellipse transform="matrix(0.1222 -0.9925 0.9925 0.1222 851.2166 1458.8103)" class="st54" cx="1250.3" cy="248.2" rx="36.2" ry="36.2"></ellipse>			<circle class="st54" cx="546.8" cy="-0.1" r="63.3"></circle>							<ellipse transform="matrix(0.1277 -0.9918 0.9918 0.1277 -481.1985 408.4824)" class="st54" cx="-8.4" cy="477.8" rx="45.3" ry="45.3"></ellipse>			<circle class="st54" cx="518.2" cy="511.6" r="45.2"></circle>			<g class="st55">				<path class="st3" d="M292.1,88.9H157.6c-8.1,0-14.7-6.6-14.7-14.7l0,0c0-8.1,6.6-14.7,14.7-14.7h134.5c8.1,0,14.7,6.6,14.7,14.7     l0,0C306.8,82.3,300.2,88.9,292.1,88.9z"></path>			</g>			<g class="st55">				<path class="st3" d="M1312.9,430.7h-134.5c-8.1,0-14.7-6.6-14.7-14.7l0,0c0-8.1,6.6-14.7,14.7-14.7h134.5     c8.1,0,14.7,6.6,14.7,14.7l0,0C1327.6,424.1,1321,430.7,1312.9,430.7z"></path>			</g>			<path class="st54" d="M162.3,412.3h138.5c10.7,0,19.5,8.7,19.5,19.5v3.8c0,10.7-8.7,19.5-19.5,19.5H162.3    c-10.7,0-19.5-8.7-19.5-19.5v-3.8C142.8,421,151.5,412.3,162.3,412.3z"></path>		</g>	</g></g></svg>