<svg xmlns="http://www.w3.org/2000/svg" xmlns:xlink="http://www.w3.org/1999/xlink" id="Layer_1" x="0px" y="0px" viewBox="0 0 1280 500.4" style="enable-background:new 0 0 1280 500.4;" xml:space="preserve"><style type="text/css">	.st0{fill:#DFECFF;}	.st1{clip-path:url(#SVGID_2_);}	.st2{opacity:0.23;}	.st3{fill:#48B2E5;}	.st4{fill:url(#SVGID_3_);}	.st5{fill:url(#SVGID_4_);}	.st6{fill:url(#SVGID_5_);}	.st7{fill:url(#SVGID_6_);}	.st8{fill:url(#SVGID_7_);}	.st9{fill:url(#SVGID_8_);}	.st10{fill:url(#SVGID_9_);}	.st11{fill:url(#SVGID_10_);}	.st12{fill:url(#SVGID_11_);}	.st13{fill:url(#SVGID_12_);}	.st14{fill:url(#SVGID_13_);}	.st15{fill:url(#SVGID_14_);}	.st16{fill:url(#SVGID_15_);}	.st17{fill:url(#SVGID_16_);}	.st18{fill:url(#SVGID_17_);}	.st19{fill:url(#SVGID_18_);}	.st20{fill:url(#SVGID_19_);}	.st21{fill:url(#SVGID_20_);}	.st22{fill:url(#SVGID_21_);}	.st23{fill:url(#SVGID_22_);}	.st24{fill:url(#SVGID_23_);}	.st25{fill:url(#SVGID_24_);}	.st26{fill:url(#SVGID_25_);}	.st27{fill:url(#SVGID_26_);}	.st28{fill:#FDB91A;}	.st29{fill:#FFE6E3;}	.st30{fill:url(#SVGID_27_);}	.st31{fill:#92DDEF;}	.st32{fill:#26267A;}	.st33{fill:url(#SVGID_28_);}	.st34{fill:url(#SVGID_29_);}	.st35{fill:url(#SVGID_30_);}	.st36{fill:url(#SVGID_31_);}	.st37{fill:url(#SVGID_32_);}	.st38{fill:url(#SVGID_33_);}	.st39{fill:url(#SVGID_34_);}	.st40{fill:url(#SVGID_35_);}	.st41{fill:url(#SVGID_36_);}	.st42{fill:none;stroke:#D7D7FD;stroke-width:4;stroke-miterlimit:10;}	.st43{fill:url(#SVGID_37_);}	.st44{fill:url(#SVGID_38_);}</style><title>general-slide-desktop</title><g id="Layer_1-2">	<rect class="st0" width="1280" height="500.4"></rect>	<g>		<defs>			<rect id="SVGID_1_" width="1280" height="500.4"></rect>		</defs>		<clipPath id="SVGID_2_">			<use xlink:href="#SVGID_1_" style="overflow:visible;"></use>		</clipPath>		<g class="st1">			<rect x="319.2" y="-0.1" class="st0" width="1128.5" height="437.3"></rect>			<g class="st2">				<path class="st3" d="M963.8,195.9c3.1,2.7,5.3,6.1,9.6,5.6c4.8-0.6,9.4-2.8,12.8-6.3c0.9-1,1.4-2.3,1.3-3.6     c-0.2-9.8-0.4-19.6-0.8-29.4c-0.6-12.7-1.4-25.4-2.2-38c-0.8-13.5-1.6-27-2.4-40.5c-0.5-9.6-1.1-19.2-1.4-28.8     c-0.1-2.4,0.7-4.9,1.1-7.3c0.2-0.5,0.4-1,0.7-1.5c2.6,1.5,9.9,19.5,8.9,22.9l-4.5-6l-0.9,0.6c0.1,2.4,0.3,4.7,0.4,7.1     c0.8,12.4,1.6,24.8,2.4,37.2c0.7,9.5,1.7,19,2.2,28.6c1.1,17.2,1.1,34.5-0.1,51.6c-0.4,7.8-4.2,15-10.5,19.6     c-2.6,1.9-5.7,3-8.9,3.2c-3.5,0.3-5.8-1.6-7.8-4c-1.2-1.5-2.1-3.2-2.8-5c-1.1-2.6-1.9-3.3-4.5-2.3c-5.6,2.1-11.1,4.4-16.6,6.8     c-11.8,5.4-21,14-29,24.1c-2.4,2.9-5,5.6-7.9,8c-7.4,6.3-15,2-18.1-3.9c-2.5-4.9-3.1-10.6-1.7-16c0.3-0.8,0.5-1.7,0.6-2.6     c0-0.9-0.1-1.7-0.3-2.6c-0.9,0-1.8,0.2-2.7,0.4c-3,1.3-5.9,2.9-9,4.1c-8.9,3.5-18,6.1-27.6,6.3c-8.5,0.2-16.3-1.4-22.7-7.5     c-5.9-5.6-8-12.7-7.3-20.6c0.5-5.9,1.9-11.7,2.9-17.5c0.1-0.4,0.2-0.8,0.3-1.9c-1.5,1-2.5,1.7-3.5,2.5c-2.6,2-5.1,4.3-7.9,6     c-7.6,4.7-15,1.7-17.5-6.9c-2.2-7.4-1.4-14.8,0.8-22c0.9-3.1,2.2-6.1,3.4-9.1c0.6-1.7,0.8-3.2-0.5-4.7c-6.4-7.5-6.5-16-3.5-24.8     c2.9-8.6,7.7-16.1,12.3-23.7c0.1-0.2,0.3-0.4,0.5-0.6c0.4-0.2,0.8-0.4,1.3-0.6c0.1,0.5,0.3,1,0.2,1.4c-0.4,1.1-0.9,2.2-1.6,3.3     c-3.9,6.5-7.2,13.4-9.8,20.5c-1.3,3.7-2.6,7.4-2.1,11.5c0.7,4.8,3.7,7.2,8.5,6.5c3.9-0.6,7.5-2.4,10.3-5     c11.3-9.9,22.5-19.8,33.6-29.7c0.2-0.2,0.3-0.5,0.5-0.7c-2.6-2.1-5-4.3-7.7-6.2c-6.8-5-13.8-9.8-20.6-14.9     c-2.3-1.6-4.4-3.5-6.3-5.6c-4.3-4.8-3.3-13.7,2.2-17c5.2-3.2,10.6-5.7,16-8.5c2.2-1.2,4.4-2.2,6.8-3.5c-1-1.1-1.9-2.1-2.7-3     c-3.5-3.9-2.2-11,2.5-13.2c6.2-2.7,12.3-5.4,18.6-7.6c10.5-3.7,21.2-7.1,31.8-10.6c1.6-0.5,3.3-0.9,5-1.1c0.5,0,1,0.1,1.5,0.3     c-0.3,0.5-0.4,1.2-0.9,1.5c-0.9,0.6-1.9,1.1-2.9,1.4c-9.1,3.3-18.2,6.4-27.3,9.8c-8.4,3.1-16.7,6.5-25,9.9     c-2.9,1.2-3,1.5-1.9,4.5c0.8,2.1,1.9,4,2.8,6c0.5,1.2,1.3,0.9,2.2,0.6l22-7c15.6-5,31.5-9.1,47.6-12.3c3.2-0.6,6.4-0.7,9.7-0.5     c5.2,0.4,9.2,4.9,8.8,10.1c0,0,0,0,0,0c0,0.5-0.1,1.1-0.3,1.6c-1.2,5.6-4.6,9.9-8.5,13.8c-6.2,6.1-12.6,12.1-19,18.1l-8.4,8     c3-6.5,6.6-13,12.2-18c5-4.5,10.2-8.7,15.3-13c0.9-0.8,1.8-1.6,2.6-2.5c1.6-1.8,1.6-3.2,0.1-5.1c-1.7-1.9-3.9-3.1-6.4-3.5     c-4.6-1-9.2-0.3-13.6,0.6c-28.5,5.7-55.6,15.3-82,27.2c-1.7,0.8-3.4,1.7-5,2.8c-2,1.4-2,2.5,0.1,3.8c3.2,1.9,6.5,3.5,9.6,5.5     c10.7,6.7,21.3,13.5,32,20.1c1,0.6,2.2,0.8,3.3,0.5c3.2-1,6.3-2.2,9.5-3.4c1-0.4,2-0.7,3.1-0.9c3.3-0.5,2.8-1.1,2.4-3.7     c-1.6-9.9-3.4-19.8-5.2-29.7c-0.7-4,0.3-7.8,1.4-12.2c3.6,6.2,7.8,11.6,9.8,18.1l-0.5,0.5c-0.7-0.4-1.4-0.8-2.1-1.3     c-1.7-1.1-2.7-0.8-2.7,1.3c0,1.9,0.2,3.8,0.6,5.7c0.6,3.2,1.3,6.3,2.2,9.5c1.1,4,3.8,7.3,7.4,9.3c2,1.2,4.1,2.4,6,3.7     c3.7,2.6,3.4,6.1,1.9,9.9c-0.5,1.2-1.4,0.9-2.2,0.5c-5.6-3-11.7-3-17.8-2.7c-1.3,0.1-2.5,0.3-3.7,0.8c-2.3,0.8-2.4,1.7-0.5,3.1     c2.3,1.9,4.8,3.6,7.2,5.3c9.5,6.8,18.9,13.6,28.4,20.4c1.3,1,2.7,1.8,4.2,2.6c1.7,0.9,2.5,0.4,2.6-1.5v-6.8c0-2.1,0-4.2-0.1-6.4     c-0.4-14.5-1-29-1.4-43.4c-0.3-3.9,0.8-7.8,3.1-11c0.2,0.2,0.3,0.4,0.5,0.6c2.6,6.6,5.2,13.2,7.7,19.8c0.4,1,0.6,2.1,0.7,3.2     c0,0.4-0.1,0.8-0.3,1.2c-0.4,0-0.8-0.2-1.2-0.3c-1.6-1.3-3.2-2.8-4.6-4c0,0.3,0,0.6,0,0.8c0.3,8.4,0.5,16.8,0.9,25.3     c0.4,8.8,1.1,17.6,1.7,26.3c0.1,2.5,1.6,4.8,3.9,5.9c6.3,3.8,12.7,4.2,19.3,0.9c2-1,3.2-2.3,3-4.6c-0.4-8.9-0.7-17.8-1.4-26.7     c-1.1-15.1-2.4-30.1-3.5-45.2c-0.9-12-1.9-23.9-2.7-35.9c-0.2-2.7-0.1-5.5,0.2-8.2c0.3-1.4,0.9-2.8,1.8-4     c4.4,7.5,8.4,14.9,10.3,23.3l-0.9,0.6l-6-6.6c0.2,2.4,0.3,4.3,0.4,6.3c0.9,10.6,1.9,21.2,2.7,31.8c0.8,9.2,1.5,18.4,2.2,27.7     c0.6,8.8,1.2,17.7,1.3,26.6c0.1,4.9-0.4,9.8-1.5,14.5c-1.8,7.5-7.7,11.9-15.4,11.7c-3.8-0.3-7.6-0.8-11.3-1.7     c-2.4-0.5-2.5-0.5-2.2,1.9c1.6,12.4,2.4,24.9,1,37.4c-0.6,5.2-1.6,10.4-2.5,15.6c-0.4,1.3-0.8,2.6-1.4,3.9l-0.6-0.1     c-0.1-0.7-0.2-1.3-0.3-2c-0.1-9.7,0-19.4-0.4-29.1c-0.4-10.6-1.1-21.1-1.7-31.7c-0.1-1-0.5-1.9-1.3-2.6     c-13.2-10.3-26.5-20.6-39.9-30.9c-0.9-0.8-2-1.4-3.1-1.8c0.2,0.5,0.3,0.9,0.5,1.4c1.7,3.3,3.6,6.6,5.2,10c3,6.1,3,12.5,1.1,18.8     c-1.6,5.4-5.5,8.9-10.6,10.8c-5.4,2-11.1,3.3-16.5,5.4c-5.6,2.3-11,4.9-16.3,7.8c-5.8,3.1-8.9,8.4-10.3,14.7     c-1.1,5.1-1.3,10.3-0.5,15.4c1.5,9.4,7,15,15.9,17.6c8.5,2.3,17.4,2.3,25.8,0c12.2-3.2,23.8-8.7,33.9-16.3l0.3-0.2     c4-2.9,5.8-6.3,3.9-11.5c-2.8-7.4-5.2-15.1-7.7-22.6c-1.5-4.4-1.4-9.1,0.2-13.4c3.8,4.8,8.3,8.9,11.3,14.1L902,164l-2.7-0.5     c-1.8-0.3-2.4,0.3-1.8,2c0.8,2.9,1.9,5.7,2.9,8.5c1.9,5.4,3,11,2.1,16.7c-0.8,5.2-3.7,9.3-7.3,12.9c-1.9,1.8-3.7,3.7-5.3,5.7     c-4.5,5.7-5.4,12.5-4.5,19.4c0.8,6.1,6.1,8.4,11.4,5.3c6.1-3.6,10.8-8.7,15.5-13.8c4.4-4.8,8.6-9.8,13.6-13.9     c4-3.4,9-5.8,13.7-8.2c4.5-2.3,9.2-4.3,14-6.2c1.8-0.6,3-2.3,3-4.2c0.3-3.4,0.6-6.9,0.9-10.3c0.2-3.8,1.3-7.6,3-11     c1.3-2.5,3.3-4.6,5.8-5.9c2.3-1.2,4.6-0.9,6.1,1.3c3.2,5,5.1,10.3,3.3,16.3c-1.9,6.5-4.7,12.6-10.4,16.8     C964.7,195.4,964.3,195.7,963.8,195.9z M789.8,170.4c0.1,1.5,0.2,2.9,0.5,4.4c0.6,3.2,2.7,5,5.9,4.8c2.1-0.1,4.3-0.6,6.2-1.5     c5.7-2.7,10.3-6.9,14.6-11.3c9.3-9.4,21-16.2,33.8-19.6c5.6-1.5,11.2-3.4,16.5-5.8c5.5-2.5,6-4.8,3-10.1     c-5-9.1-11.4-17.3-18.9-24.3c-1.1-1-1.8-1.1-2.9-0.2c-5.7,4.8-11.5,9.4-17.2,14.3c-7.8,6.6-15.4,13.5-23.4,20     c-2.4,1.8-5.1,3.1-8,3.9c-2.3,0.7-4,1.8-5,3.9C791.8,155.6,790.1,162.9,789.8,170.4L789.8,170.4z M959.5,177     c0.2,1.3,0.4,3.3,0.8,5.4c0.2,1.3,0.5,2.6,0.9,3.9c0.4,1.4,1.4,2.7,2.9,1.7c2.5-1.8,4.9-3.8,7.1-6c0.5-0.7,0.7-1.5,0.7-2.3     c-0.1-2.8-0.7-5.6-2.6-7.8c-0.9-1.1-2.2-1.7-3.7-1.9C962.3,169.9,959.6,173.1,959.5,177L959.5,177z"></path>				<path class="st3" d="M963,136.7c-0.2-2.6-0.5-5.1-0.6-7.7c-0.3-5.2-0.5-10.4-0.7-15.7c-0.1-2.6-0.6-2.9-3-1.9     c-1.6,0.7-3.2,1.6-4.8,2.4c-1,0.5-2.2,0.9-3.2,1.4l-0.3-0.5c0.7-0.7,1.4-1.4,2.1-2c2.1-1.5,4.3-3,6.5-4.4     c1.8-1.1,2.8-3.2,2.5-5.4c-1-15.3-2-30.7-2.8-46c-0.4-8.3-0.5-16.7-0.6-25c0-1.3,0.8-2.7,1.3-4c0.9,0.9,1.6,2,2.2,3.1     c2.3,5.5,4.5,11.1,6.7,16.6c0.3,0.8,0.5,1.6,0.6,2.5l-5.3-4l-0.5,0.4v2c0.5,7.5,1,14.9,1.5,22.3c0.5,7.8,1,15.5,1.6,23.3     c0.2,1.8,0.4,3.7,0.8,5.5c0.3,1.3,1,1.7,2.2,0.8c0.6-0.5,1.3-1.1,1.9-1.6c1-0.6,1.2-1.9,0.6-2.8c0,0,0,0,0,0l0,0     c-0.1-0.2-0.2-0.3-0.4-0.4c-0.2-0.2-0.3-0.4-0.5-0.6c-2.9-3.8-1.6-8,2.9-9.7c1.2-0.4,2.2-0.2,2.3,1.1c0.1,3.8,0,7.7,0,11.6     c0,0.4-0.6,0.9-1.1,1.2c-4.5,3-7.2,6.9-7.3,12.6c0.1,7.6-0.8,15.2-2.7,22.5c-0.3,0.9-0.6,1.8-1,2.6L963,136.7z M975.3,91.2     l-2.8-2.7c-0.4,0.4-1,0.8-1,1.2c0,1.3,1,2.4,2.3,2.6C974.1,92.3,974.5,91.8,975.3,91.2L975.3,91.2z"></path>				<path class="st3" d="M1009.3,91.2l-4.7-5.6c0,3.7-0.2,7.1,0,10.6c1,18.5,2.2,37.1,3,55.6c0.4,8.6,0.6,17.3-1.5,25.7     c-0.7,2.9-1.9,5.7-2.8,8.6l-0.8-0.1c-0.1-0.9-0.2-1.8-0.3-2.6c0-8.5,0.3-17,0-25.5c-0.5-16.6-1.4-33.1-2.1-49.7     c-0.5-11-0.9-21.9-1.3-32.9c0-1.7,0.1-3.3,0.3-5c0.1-0.7,0.7-1.3,1.1-1.9c0.6,0.4,1.3,0.8,1.7,1.4c1.2,2.1,2.2,4.3,3.2,6.5     c1.6,4,3.1,8.1,4.5,12.2c0.2,0.7,0.3,1.4,0.3,2.2L1009.3,91.2z"></path>				<path class="st3" d="M955.2,146.7l5.7-7.1l6.3,5.9c1.4-1.3,2.7-2.5,4.1-3.6s3.2-2.4,4.8-1.1c1.6,1.4,3,3.2,4,5.1     c0.3,0.4-0.5,1.8-1.1,2.5c-3.2,4.1-3.4,4.1-7.5,1.1c-3.8-2.8-3.8-2.8-7.1,0.5c-1,1-1.9,2.1-3.1,3.4L955.2,146.7z"></path>				<path class="st3" d="M776,105.6c1.9-1.3,3.7-2.7,5.6-4c4.7-3.5,9.3-7,14-10.5c0.4-0.4,0.9-0.8,1.2-1.2c2.8-2.7,2.8-3,0.4-5.9     c-1.1-1.3-1.4-2.7-0.5-4c1.1-1.8,2.5-3.5,4.1-4.9c1.4-1.3,2.8-0.5,3,1.5c0.1,0.9,0,1.9,0.1,2.9c0.2,1.9,0.3,3.8,1.8,5.4     s0.7,3.1-1.4,3.8c-2.1,0.8-4,1.9-5.6,3.3c-5.4,4.7-11,9.3-17.4,12.6c-1.5,0.8-3.2,1.3-4.8,2L776,105.6z M800,81.9l0.7-0.1     c0.3-0.7,0.4-1.5,0.4-2.3c-0.1-0.5-0.8-0.9-1.2-1.4c-0.3,0.5-0.8,1.1-0.7,1.5C799.3,80.5,799.6,81.2,800,81.9z"></path>				<path class="st3" d="M840.7,198.4l3-3.5l0.4,0.2c-0.6,2.3-1,4.7-3,6.4c-0.9,0.9-2.3,0.9-3.1,0c0,0,0,0,0,0l0,0     c-0.2-0.2-0.3-0.4-0.5-0.6c-0.9-1.7-2-3.6-1.9-5.4c0.1-4,0.9-8.1,1.4-12.1c0.1-1,0.2-2.1,0.3-3.7l-9.5,4.5l-0.6-0.7     c0.3-0.7,0.8-1.3,1.3-1.9c3.9-2.6,7.8-5.3,11.8-7.8c3.1-2,6.4-3.7,9.6-5.5c0.9-0.5,1.9-0.9,2.9-1.4l0.5,0.4     c-0.4,0.9-1,1.8-1.6,2.6c-2,1.6-4.1,3.2-6.3,4.6c-6.7,4.4-9.7,15.3-5.8,22C839.9,197.3,840.3,197.8,840.7,198.4z"></path>				<path class="st3" d="M857.3,169.5c1.2-0.9,2.3-1.8,3.5-2.8c6.7-5.6,13.3-11.2,20-16.9c1.2-1.1,2.4-2.3,3.4-3.6     c1.1-1.2,1.2-2.9,0.3-4.2c-0.8-1.5-1.3-3-1.5-4.6c-0.3-2.1,0.8-4.1,2.7-5.1c0.9-0.7,2.1-0.5,2.8,0.4l0,0     c0.2,0.2,0.3,0.5,0.4,0.8c0.3,1,0.5,2.1,0.5,3.2c0.1,2,0.4,3.9,2,5.4c0.5,0.8,0.6,1.7,0.4,2.6c-0.2,0.4-1.4,0.9-2.1,0.8     c-1.4-0.3-2.7,0.3-3.5,1.5c-4.7,6.9-11.5,11.5-17.8,16.6c-2.5,2-5.3,3.8-8,5.6c-0.8,0.5-1.6,0.9-2.4,1.2L857.3,169.5z      M888.1,137.1c-0.8-0.6-1.7-1.1-2.6-1.5c-0.4-0.1-0.9,0.6-1.4,0.9c0.5,0.6,1.2,1.1,1.9,1.5C886.4,138.1,887,137.6,888.1,137.1     L888.1,137.1z"></path>				<path class="st3" d="M928.1,185.1l3.8-4.2c-0.7-0.8-1.3-1.6-1.8-2.5c-0.4-1-1-2.5-0.6-3.3c1.8-3.9,5-6.9,9-8.3     c1-0.3,2.1-0.3,3.1,0c0.6,0.3,1.1,0.8,1.2,1.5c-0.2,0.7-0.6,1.3-1.3,1.6c-1,0.4-2.3,0.2-3.3,0.5c-1.6,0.3-3.1,1-4.4,1.9     c-1.6,1.4-1.1,3.2,1,3.8c1.8,0.5,3.6,0.7,5.4,0.8c2.2,0.1,4.5-0.1,6.7,0.1c0.7,0.2,1.4,0.5,2.1,1c-0.4,0.7-0.9,1.4-1.5,2.1     c-0.4,0.3-0.9,0.5-1.4,0.6l-15,4.7c-0.8,0.3-1.7,0.5-2.5,0.7L928.1,185.1z"></path>				<path class="st3" d="M947.5,237.2c-1.1-2.2-1.9-4-2.8-5.7c-1.4-2.9-3.2-5.5-6.5-6.6c-1.9-0.6-3.3-3.4-3.1-5.5     c0.1-1.7,1.2-2.5,2.7-1.6c1.2,0.7,2.3,1.6,3.3,2.6c2.4,2.4,5,4.6,6,8c0.2,0.4,0.7,0.7,1.2,0.8c0.3,0,0.7-0.5,0.9-0.8     c0.2-0.5,0.3-1,0.3-1.5c0.4-3.9,2.3-7.3,4.5-10.4c1.5-2.1,2.9-2.1,4.5,0.1s1.7,4.4,1.4,7.4c-1.1-0.9-2-1.5-2.8-2.2     c-2.2-1.8-3.5-1.6-4.5,1c-1.5,3.9-2.8,7.9-4.2,11.9C948.2,235.3,947.9,236,947.5,237.2z"></path>				<path class="st3" d="M849.9,73.4c0.6-3,1.1-5.4,1.7-7.9c0.5-2.1,1.2-4.2,2-6.2c0.9-2.1,2.4-2.3,3.7-0.3c0.7,1.3,1.1,2.7,1.2,4.1     c0.1,1.4-0.8,1.7-2,1c-2.4-1.6-2.9-1.5-3.4,1.5c-0.6,3.6-1,7.2-1.5,10.8c-0.2,1.3-0.5,2.5-0.8,3.7c-0.2,0.5-0.7,1.2-1,1.2     c-0.6-0.1-1.1-0.5-1.4-1c-1.2-1.9-2.1-3.9-3.3-5.8c-0.7-1.1-1.6-2.1-2.7-3c-0.4-0.3-1.1-0.2-1.7-0.3c-0.4,0-0.7-0.1-1.1-0.2     c-1.6-0.9-2.7-2.7-2.6-4.6c-0.1-2.1,1.7-3.1,3.3-2c2,1.5,4,3.2,5.8,5C847.5,70.7,848.7,72,849.9,73.4z"></path>				<path class="st3" d="M868.2,185.1c-0.6,1.8-1.4,3.5-2.4,5.2c-0.7,0.7-1.8,0.9-2.7,0.7c-2.2-1.3-4.2-2.8-6-4.5     c-1.3-1.2-0.5-4,1.3-6.2c1-1.3,2.8-1.6,4.2-0.7l0.1,0.1c1.5,0.9,2.8,1.9,4.1,3C867.3,183.3,867.8,184.2,868.2,185.1z"></path>				<path class="st3" d="M912.1,17.4c1.3-0.6,2.6-1.2,3.8-1.9c0.6-0.5,1.1-1.1,1.5-1.7c-0.6-0.3-1.3-0.5-2-0.6     c-2.7,0.1-5.4,0.3-8.1,0.5c3-3.8,8.7-5.8,12.9-4.2c1.1,0.4,2.1,1.3,2.5,2.5c0.2,0.7-0.8,2.2-1.6,2.7c-2.3,1.2-4.8,2.3-7.2,3.3     c-0.6,0.1-1.2,0.1-1.7,0L912.1,17.4z"></path>				<path class="st3" d="M886.5,183.6c-0.6,1.8-1.3,3.5-2.1,5.2c-1.3,2.3-3.8,2.4-5.2,0.1c-0.9-1.5-1.4-3.2-1.5-5     c-0.1-5.4,1.1-10.6,4.6-15c-0.6,2.9-1.4,5.7-1.8,8.6c-0.4,2-0.3,4.1,0.2,6.2c0.9,2.9,2.2,3,4.1,0.7c0.3-0.4,0.7-0.7,1-1.1     L886.5,183.6z"></path>				<path class="st3" d="M931.4,106.4c-0.5,1.9-1.1,3.7-1.5,5.6c-0.8,2.7-1.3,5.4-1.7,8.2c-0.3,2.6,0.6,3.2,3.2,3     c1.3-0.1,2,0.7,1.4,1.7c-0.8,1.4-1.9,2.6-3.1,3.7c-0.3,0.3-1.9-0.2-2.1-0.7c-1.6-2.9-3.2-5.8-1.8-9.3c1.6-4.1,3.2-8.2,4.8-12.3     L931.4,106.4z"></path>				<path class="st3" d="M818.2,93.3c-0.9,3.6-1.9,7.1-2.7,10.7c-0.3,1.5-0.4,3-0.2,4.6c0.3,2.5,1.6,3,3.6,1.5     c0.3-0.3,0.7-0.5,1.4-1c-0.3,2.4-0.7,4.3-2.2,5.8c-0.7,0.9-1.9,1-2.8,0.3l-0.1-0.1c-2-1.7-3.6-3.8-2.9-6.5     c1.3-4.8,3-9.4,4.6-14.1c0.2-0.5,0.6-0.9,0.9-1.3L818.2,93.3z"></path>				<path class="st3" d="M1017.8,111.4c-0.4,1.3-0.8,2.6-1.3,3.9c-0.8,2.3-1.8,4.5-2.5,6.8c-0.8,2.3-0.6,4.8,0.5,7     c1.1,1.9,1.5,1.9,2.8,0.2c0.3-0.3,0.6-0.6,0.9-1.1c0.2,1.9-1.3,5.9-2.5,7c-1,0.9-2.2,0.8-2.7-0.3c-0.7-1.5-1.1-3.2-1.2-4.9     c0.1-5.4,1.1-10.7,3-15.7c0.6-1.2,1.2-2.3,2-3.4L1017.8,111.4z"></path>				<path class="st3" d="M944.5,161.2c1-0.6,2-1.2,3-1.9c0.4-0.5,0.7-1,0.8-1.6c-0.5-0.3-1-0.6-1.6-0.7c-1.9-0.1-3.8-0.1-6.1-0.1     c0.7-2.1,2.1-2.9,3.5-3c3.1-0.1,6.3,0.1,9.4,0.5c1.8,0.2,2,1.3,0.7,2.7C951.7,159.7,948.2,161.2,944.5,161.2z"></path>				<path class="st3" d="M895.2,53.2c-0.8,1.6-1.7,3.2-2.7,4.7c-0.9,1.2-2.1,1.1-3-0.1c-1.3-1.4-1.9-3.4-1.5-5.3     c1.2-4.5,3.1-8.8,5.8-12.6c0.6-0.7,1.3-1.3,2-1.9l0.5,0.3c-0.5,1.1-1.1,2.2-1.6,3.3c-1.2,2.7-2.5,5.4-3.7,8.1     c-0.2,0.6-0.3,1.2-0.3,1.9c0.1,0.8,0.3,1.5,0.6,2.3c0.7-0.2,1.4-0.4,2.1-0.7c0.4-0.2,0.8-0.3,1.3-0.5L895.2,53.2z"></path>				<path class="st3" d="M902,111.8c0.9,2.6-0.6,5.6-2.7,6.2c-0.6,0.2-1.2,0-1.7-0.4c-0.7-1-1.7-2.2-1.7-3.3     c-0.2-5.8,1.7-11.4,5.3-15.9c0.2-0.2,0.4-0.4,0.6-0.5c0.1-0.1,0.2,0,0.6-0.1c-0.5,1-1,2-1.5,3c-1,2.4-1.8,4.9-2.5,7.4     c-0.2,1.4-0.1,2.9,0.5,4.2c0.7,1.6,1.5,1.6,2.7,0.3C901.8,112.4,901.9,112.1,902,111.8z"></path>				<path class="st3" d="M927.3,54.5c-0.4,3.3-1,6.2-1.2,9.1c-0.1,1.9,0.2,3.8,2.8,3.9c0.3,0,0.9,0.7,0.9,0.8     c-0.8,1.6-1.7,3.2-2.6,4.7c-0.1,0.2-1.5,0-1.8-0.4c-0.9-1-1.5-2.2-1.7-3.6C923.2,63.9,924.5,58.8,927.3,54.5z"></path>				<path class="st3" d="M776.3,155.3c1.3-2.3,2.5-4.7,3.8-7c0.4-0.7,0.8-1.4,1.2-2.1c1.5-2.8,1.5-2.8-1.4-3.6     c-1-0.3-1.6-0.9-0.9-1.8c0.8-1.1,1.8-2,3-2.7c1.4-0.6,2.5,0.2,2.9,1.6c0.3,0.9,0.2,1.9-0.1,2.8c-2.3,4.2-4.8,8.4-7.3,12.5     c-0.2,0.2-0.4,0.4-0.7,0.6L776.3,155.3z"></path>				<path class="st3" d="M950,54.5c-0.3,3.4-0.5,6.3-0.7,9.1c0,0.9,0.1,1.8,0.3,2.6c0.2,0.6,0.5,1.1,0.8,1.6c0.5-0.3,1-0.6,1.5-1     c0.2-0.3,0.4-0.6,0.6-1c0.8,2.2,0.1,4.4-1.5,5.2c-1.1,0.7-2.6,0.4-3.3-0.7l0,0c-0.1-0.1-0.1-0.2-0.1-0.3     c-0.4-0.7-0.6-1.5-0.7-2.3C946.3,63.1,947.9,59,950,54.5z"></path>				<path class="st3" d="M802.2,195c1.1-1,1.8-2.2,2.8-2.5c1.2-0.4,2.5-0.4,3.7,0c0.5,0.2,0.8,2.1,0.5,3c-1.3,3.3-2.8,6.5-4.3,9.7     c-0.4,0.6-0.9,1.2-1.4,1.6l-0.5-0.3c0.2-0.7,0.5-1.4,0.7-2.1c0.6-1.4,1.3-2.8,1.8-4.2C806.5,197.1,806.1,196.4,802.2,195z"></path>				<path class="st3" d="M812.1,49.9c-0.3,1.8-1.6,3.3-3.3,3.7c-1.3,0.4-1.7-0.7-1.8-1.6c-0.6-4.2,0.1-8.6,2-12.4     c0.5-1.1,1.3-2.1,1.9-3.1l0.6,0.3c-0.5,1.6-1.1,3.2-1.6,4.8c-0.5,1.6-0.9,3.2-1.2,4.8C808.4,49.7,808.6,49.9,812.1,49.9z"></path>				<path class="st3" d="M920,241.3c1.1-1.9,2.3-3.8,3.4-5.7c0.3-0.6,0.6-1.3,0.8-1.9c0.6-2.1,0-2.7-2.1-2.3c-0.2,0-0.5,0-0.7,0.1     c-0.1-1.7,1.4-4.4,2.8-4.6c0.8-0.1,1.6,0.3,2.1,0.9c0.5,1.1,0.6,2.3,0.5,3.5C925.9,235.4,923.5,239.1,920,241.3z"></path>				<path class="st3" d="M787.5,78.5l1,5.8l3.3-1.7c0,2.2-3,5.4-4.7,5.3c-0.5-0.1-0.9-0.4-1.1-0.9c-0.8-2.6-0.6-5.3,0.5-7.8     C786.6,79,786.9,78.9,787.5,78.5z"></path>				<path class="st3" d="M844.4,132.4c1.2-1.6,2.4-3.2,3.6-4.8c1-1.4,2.1-1.8,3.6-0.7c1.5,1,2.9,2.1,4.3,3.2     c1.7,1.6,1.8,3.3,0.7,5.4c-0.4,0.7-0.8,1.3-1.3,1.9c-0.6,0.9-1.3,1.7-2.1,2.8l-8.4-6.5l-6.1,7c-2.7-2-5.3-4-7.8-6     c-0.3-0.4-0.3-0.9-0.2-1.4c1.2-1.8,2.6-3.6,4.1-5.3c0.7-0.4,1.6-0.5,2.3-0.2C839.5,129.1,841.8,130.7,844.4,132.4z"></path>				<path class="st3" d="M815.1,141.1c-0.4,1.4-0.8,2.7-1.3,4.1c-0.3,1.1-0.7,2.2-1.3,3.2c-1.9,3-0.3,5.4,1.2,7.9     c0.6,0.9,1.2,0.9,1.8,0.1c0.7-0.9,1.4-1.6,2.3-2.3c-0.7,2.4-1.2,5-3.3,6.7c-1.8,1.3-3.9,0.1-4.1-2.4c-0.4-4.1,0.1-8.2,1.5-12.1     c0.5-1.4,1.1-2.7,1.8-4c0.3-0.5,0.6-1,1-1.4L815.1,141.1z"></path>			</g>							<linearGradient id="SVGID_3_" gradientUnits="userSpaceOnUse" x1="854.8692" y1="-31.3096" x2="806.5392" y2="-114.5396" gradientTransform="matrix(1 0 0 -1 187.22 118.21)">				<stop offset="0" style="stop-color:#CCCCFF"></stop>				<stop offset="1" style="stop-color:#9595EF"></stop>			</linearGradient>			<path class="st4" d="M923.7,366.6c-0.1,0-0.2,0-0.3,0c-0.8-0.2-1.2-0.9-1.1-1.7c20.3-88.5,94.7-163.3,95.5-164.1    c0.6-0.5,1.5-0.3,2,0.3c0,0,0,0,0,0c0.4,0.5,0.4,1.2,0,1.7l0,0c-0.8,0.7-74.6,75-94.7,162.7C924.9,366.1,924.3,366.6,923.7,366.6    z"></path>							<linearGradient id="SVGID_4_" gradientUnits="userSpaceOnUse" x1="855.3741" y1="-31.6024" x2="807.0341" y2="-114.8324" gradientTransform="matrix(1 0 0 -1 187.22 118.21)">				<stop offset="0" style="stop-color:#CCCCFF"></stop>				<stop offset="1" style="stop-color:#9595EF"></stop>			</linearGradient>			<path class="st5" d="M1013.1,208.2c0.8-40.1,24.5-63.3,28.5-56.3C1050.1,167.1,1013.1,208.2,1013.1,208.2z"></path>							<linearGradient id="SVGID_5_" gradientUnits="userSpaceOnUse" x1="876.4495" y1="-43.9071" x2="828.1695" y2="-127.0671" gradientTransform="matrix(1 0 0 -1 187.22 118.21)">				<stop offset="0" style="stop-color:#CCCCFF"></stop>				<stop offset="1" style="stop-color:#9595EF"></stop>			</linearGradient>			<path class="st6" d="M1013,207.8c28.6-28.1,58.9-28.2,59.7-20.1S1013,207.8,1013,207.8z"></path>							<linearGradient id="SVGID_6_" gradientUnits="userSpaceOnUse" x1="841.793" y1="-23.6718" x2="793.453" y2="-106.9418" gradientTransform="matrix(1 0 0 -1 187.22 118.21)">				<stop offset="0" style="stop-color:#CCCCFF"></stop>				<stop offset="1" style="stop-color:#9595EF"></stop>			</linearGradient>			<path class="st7" d="M985.2,241.4c-9.3-39,6-65.2,13.3-61.7S985.2,241.4,985.2,241.4z"></path>							<linearGradient id="SVGID_7_" gradientUnits="userSpaceOnUse" x1="877.4144" y1="-44.5526" x2="829.1544" y2="-127.6626" gradientTransform="matrix(1 0 0 -1 187.22 118.21)">				<stop offset="0" style="stop-color:#CCCCFF"></stop>				<stop offset="1" style="stop-color:#9595EF"></stop>			</linearGradient>			<path class="st8" d="M995.6,227.7c35.9-17.7,66-8,62.9-0.5C1052.9,240.9,995.6,227.7,995.6,227.7z"></path>							<linearGradient id="SVGID_8_" gradientUnits="userSpaceOnUse" x1="837.8824" y1="-21.3614" x2="789.5324" y2="-104.6314" gradientTransform="matrix(1 0 0 -1 187.22 118.21)">				<stop offset="0" style="stop-color:#CCCCFF"></stop>				<stop offset="1" style="stop-color:#9595EF"></stop>			</linearGradient>			<path class="st9" d="M963.8,272.1c-11.6-38.4,2.8-66.6,9.7-62.4C986.1,217.6,963.8,272.1,963.8,272.1z"></path>							<linearGradient id="SVGID_9_" gradientUnits="userSpaceOnUse" x1="870.6162" y1="-40.5936" x2="822.3262" y2="-123.7436" gradientTransform="matrix(1 0 0 -1 187.22 118.21)">				<stop offset="0" style="stop-color:#CCCCFF"></stop>				<stop offset="1" style="stop-color:#9595EF"></stop>			</linearGradient>			<path class="st10" d="M971.1,261.1c31.5-27.2,63.4-20.3,61.6-12.4C1029.2,263.2,971.1,261.1,971.1,261.1z"></path>							<linearGradient id="SVGID_10_" gradientUnits="userSpaceOnUse" x1="719.1527" y1="-187.9323" x2="652.5327" y2="-73.4923" gradientTransform="matrix(0.99 0.11 0.11 -0.99 176.7818 65.1058)">				<stop offset="0" style="stop-color:#4747B3"></stop>				<stop offset="1" style="stop-color:#5656D9"></stop>			</linearGradient>			<path class="st11" d="M880.8,424.6L880.8,424.6c-0.8-0.1-1.4-0.8-1.3-1.6c0,0,0,0,0,0l0,0c14.3-90.9-27.5-189.5-28-190.5    c-0.4-0.7-0.1-1.6,0.6-1.9c0.7-0.4,1.6-0.1,1.9,0.6l0.1,0.1l0,0c0.4,1,42.6,100.3,28.2,192C882.2,424.1,881.5,424.7,880.8,424.6z    "></path>							<linearGradient id="SVGID_11_" gradientUnits="userSpaceOnUse" x1="743.5167" y1="-173.7258" x2="676.9167" y2="-59.3058" gradientTransform="matrix(0.99 0.11 0.11 -0.99 176.7818 65.1058)">				<stop offset="0" style="stop-color:#4747B3"></stop>				<stop offset="1" style="stop-color:#5656D9"></stop>			</linearGradient>			<path class="st12" d="M858,245.5c2.8-40.9-19.3-66.7-24-59.9C824,200.4,858,245.5,858,245.5z"></path>							<linearGradient id="SVGID_12_" gradientUnits="userSpaceOnUse" x1="725.2808" y1="-184.3175" x2="658.7109" y2="-69.9575" gradientTransform="matrix(0.99 0.11 0.11 -0.99 176.7818 65.1058)">				<stop offset="0" style="stop-color:#4747B3"></stop>				<stop offset="1" style="stop-color:#5656D9"></stop>			</linearGradient>			<path class="st13" d="M866.8,272.5c-17.6-37-46.5-47.9-50.1-40.4S866.8,272.5,866.8,272.5z"></path>							<linearGradient id="SVGID_13_" gradientUnits="userSpaceOnUse" x1="753.6213" y1="-167.8673" x2="686.9813" y2="-53.3873" gradientTransform="matrix(0.99 0.11 0.11 -0.99 176.7818 65.1058)">				<stop offset="0" style="stop-color:#4747B3"></stop>				<stop offset="1" style="stop-color:#5656D9"></stop>			</linearGradient>			<path class="st14" d="M867.9,279c23.7-33.5,19-64.1,10.8-63.6S867.9,279,867.9,279z"></path>							<linearGradient id="SVGID_14_" gradientUnits="userSpaceOnUse" x1="716.2089" y1="-189.5987" x2="649.6589" y2="-75.2887" gradientTransform="matrix(0.99 0.11 0.11 -0.99 176.7818 65.1058)">				<stop offset="0" style="stop-color:#4747B3"></stop>				<stop offset="1" style="stop-color:#5656D9"></stop>			</linearGradient>			<path class="st15" d="M872.2,292.4c-27.3-30.5-59.5-32.9-59.5-24.6C812.9,283.1,872.2,292.4,872.2,292.4z"></path>							<linearGradient id="SVGID_15_" gradientUnits="userSpaceOnUse" x1="745.5602" y1="-172.5496" x2="678.9102" y2="-58.0596" gradientTransform="matrix(0.99 0.11 0.11 -0.99 176.7818 65.1058)">				<stop offset="0" style="stop-color:#4747B3"></stop>				<stop offset="1" style="stop-color:#5656D9"></stop>			</linearGradient>			<path class="st16" d="M875,306.6c18-22.5,16-45.2,10.3-44.2C874.7,264.2,875,306.6,875,306.6z"></path>							<linearGradient id="SVGID_16_" gradientUnits="userSpaceOnUse" x1="433.6166" y1="-289.4269" x2="367.0866" y2="-175.1469" gradientTransform="matrix(0.8884 -0.4591 -0.4591 -0.8884 291.7551 226.8513)">				<stop offset="0" style="stop-color:#4747B3"></stop>				<stop offset="1" style="stop-color:#5656D9"></stop>			</linearGradient>			<path class="st17" d="M874.1,357.4L874.1,357.4c-0.8,0.3-1.6,0-2-0.7l0,0c-38.3-83.5-127.6-142.5-128.5-143.1    c-0.6-0.5-0.8-1.4-0.3-2c0.4-0.6,1.3-0.8,1.9-0.4c0.9,0.6,90.8,60,129.5,144.3C875,356.3,874.7,357.1,874.1,357.4z"></path>							<linearGradient id="SVGID_17_" gradientUnits="userSpaceOnUse" x1="458.0141" y1="-275.1992" x2="391.5041" y2="-160.9492" gradientTransform="matrix(0.8884 -0.4591 -0.4591 -0.8884 291.7551 226.8513)">				<stop offset="0" style="stop-color:#4747B3"></stop>				<stop offset="1" style="stop-color:#5656D9"></stop>			</linearGradient>			<path class="st18" d="M756.2,220.9c-20.3-35.6-52.9-44.8-53-36.6C702.9,202.2,756.2,220.9,756.2,220.9z"></path>							<linearGradient id="SVGID_18_" gradientUnits="userSpaceOnUse" x1="439.7882" y1="-285.7743" x2="373.3182" y2="-171.5943" gradientTransform="matrix(0.8884 -0.4591 -0.4591 -0.8884 291.7551 226.8513)">				<stop offset="0" style="stop-color:#4747B3"></stop>				<stop offset="1" style="stop-color:#5656D9"></stop>			</linearGradient>			<path class="st19" d="M778.4,238.5c-35.1-21.1-65.2-14.1-64.1-5.9S778.4,238.5,778.4,238.5z"></path>							<linearGradient id="SVGID_19_" gradientUnits="userSpaceOnUse" x1="468.0673" y1="-269.3857" x2="401.5073" y2="-155.0657" gradientTransform="matrix(0.8884 -0.4591 -0.4591 -0.8884 291.7551 226.8513)">				<stop offset="0" style="stop-color:#4747B3"></stop>				<stop offset="1" style="stop-color:#5656D9"></stop>			</linearGradient>			<path class="st20" d="M782.9,243.3c1.3-41-19.5-63.9-26.1-58.9S782.9,243.3,782.9,243.3z"></path>							<linearGradient id="SVGID_20_" gradientUnits="userSpaceOnUse" x1="430.7256" y1="-291.0458" x2="364.2856" y2="-176.9158" gradientTransform="matrix(0.8884 -0.4591 -0.4591 -0.8884 291.7551 226.8513)">				<stop offset="0" style="stop-color:#4747B3"></stop>				<stop offset="1" style="stop-color:#5656D9"></stop>			</linearGradient>			<path class="st21" d="M794,252.1c-39.6-10.3-67.7,5.7-63.1,12.6C739.4,277.3,794,252.1,794,252.1z"></path>							<linearGradient id="SVGID_21_" gradientUnits="userSpaceOnUse" x1="459.9751" y1="-274.0829" x2="393.4051" y2="-159.7428" gradientTransform="matrix(0.8884 -0.4591 -0.4591 -0.8884 291.7551 226.8513)">				<stop offset="0" style="stop-color:#4747B3"></stop>				<stop offset="1" style="stop-color:#5656D9"></stop>			</linearGradient>			<path class="st22" d="M804.1,262.4c2.6-28.8-11.7-46.5-15.9-42.5C780.4,227.2,804.1,262.4,804.1,262.4z"></path>							<linearGradient id="SVGID_22_" gradientUnits="userSpaceOnUse" x1="521.4258" y1="-338.6193" x2="680.7358" y2="-379.6093" gradientTransform="matrix(1 -0.1 -8.000000e-02 -0.81 193.6516 39.7362)">				<stop offset="0" style="stop-color:#9595EF"></stop>				<stop offset="1" style="stop-color:#CCCCFF"></stop>			</linearGradient>			<path class="st23" d="M781.3,223.7c-29.1-16.5-48.5-20.5-60-24.1c79.7,53.3,116.4,95.1,126.2,133.2l0.4,0.5    C847.9,333.2,843.8,259.2,781.3,223.7z"></path>							<linearGradient id="SVGID_23_" gradientUnits="userSpaceOnUse" x1="521.965" y1="-338.4924" x2="680.635" y2="-379.3124" gradientTransform="matrix(1 -0.1 -8.000000e-02 -0.81 193.6516 39.7362)">				<stop offset="0" style="stop-color:#CCCCFF"></stop>				<stop offset="1" style="stop-color:#9595EF"></stop>			</linearGradient>			<path class="st24" d="M721.3,199.5c7.4,10.3,14.9,25.5,22.9,38.6c36.7,60.1,47.8,24.9,92,82.1l11.3,12.4    C837.7,294.6,801,252.9,721.3,199.5z"></path>							<linearGradient id="SVGID_24_" gradientUnits="userSpaceOnUse" x1="201.1456" y1="-496.9658" x2="360.5356" y2="-537.9758" gradientTransform="matrix(-1 8.000000e-02 -7.000000e-02 -0.81 1223.8813 -164.3058)">				<stop offset="0" style="stop-color:#5656D9"></stop>				<stop offset="1" style="stop-color:#4747B3"></stop>			</linearGradient>			<path class="st25" d="M1006.7,225.4c25.6-21.6,44-29,54.6-34.7c-68.8,67-97.3,114.7-99.9,154l-0.3,0.5    C961,345.2,951.7,271.7,1006.7,225.4z"></path>							<linearGradient id="SVGID_25_" gradientUnits="userSpaceOnUse" x1="201.6961" y1="-496.8338" x2="360.4461" y2="-537.6738" gradientTransform="matrix(-1 8.000000e-02 -7.000000e-02 -0.81 1223.8813 -164.3058)">				<stop offset="0" style="stop-color:#4747B3"></stop>				<stop offset="1" style="stop-color:#5656D9"></stop>			</linearGradient>			<path class="st26" d="M1061.3,190.7c-5.4,11.4-10,27.8-15.5,42.1c-25.2,65.8-42.5,33.2-75.6,97.5l-8.8,14.3    C964,305.4,992.5,257.6,1061.3,190.7z"></path>							<linearGradient id="SVGID_26_" gradientUnits="userSpaceOnUse" x1="731.2608" y1="-119.0902" x2="707.6208" y2="-223.3202" gradientTransform="matrix(1 0 0 -1 187.22 118.21)">				<stop offset="0" style="stop-color:#CCCCFF"></stop>				<stop offset="1" style="stop-color:#9595EF"></stop>			</linearGradient>			<path class="st27" d="M893.3,342.5c-0.8,0-1.4-0.6-1.4-1.4c-0.8-71,42-146.3,42.5-147c0.4-0.7,1.3-0.9,2-0.5    c0.7,0.4,0.9,1.3,0.5,2l0,0c-0.4,0.7-42.9,75.3-42.1,145.5C894.7,341.8,894.1,342.5,893.3,342.5    C893.3,342.5,893.3,342.5,893.3,342.5L893.3,342.5L893.3,342.5z"></path>			<path class="st28" d="M944.7,196.1l-22.3-7.9c-32,13.5-53.4,36.1-43.1,42.9c2.9,1.9,9.5-2.4,17.2-9C887,234.5,884,243,891,245.7    c6.4,2.5,21.6-20.2,33-39.1c-13.1,29.6-18.6,49.4-7.5,49.8c5.8,0.2,11.6-18.6,16-37.5c0.3,19.5,2,39.4,7.7,40.5    c9.3,1.7,9.9-12.9,5.8-36.9c5.5,18.8,11.2,28.9,17.7,24.2C969.5,242.4,958.3,211.5,944.7,196.1z"></path>			<path class="st29" d="M922.4,188.2c-1.4,3.9,7.1,7.9,9.4,8.8s11.8,2.3,12.9-0.9c1.8-5.1-4.3-11.9-7.8-13.4    S924.1,183.1,922.4,188.2z"></path>							<linearGradient id="SVGID_27_" gradientUnits="userSpaceOnUse" x1="620.5299" y1="-89.8041" x2="647.1599" y2="-156.1541" gradientTransform="matrix(1 0 0 -1 187.22 118.21)">				<stop offset="0" style="stop-color:#CCCCFF"></stop>				<stop offset="1" style="stop-color:#9595EF"></stop>			</linearGradient>			<path class="st30" d="M838.9,264c0.5-0.1,0.8-0.7,0.7-1.2c-12.3-47.5-54.6-89.9-55-90.3c-0.3-0.5-0.9-0.6-1.4-0.3    c-0.5,0.3-0.6,0.9-0.3,1.4c0,0,0,0,0.1,0.1c0.1,0.1,0.1,0.1,0.2,0.2c0.4,0.4,42.3,42.4,54.5,89.4    C837.8,263.8,838.3,264.1,838.9,264L838.9,264z"></path>			<path class="st28" d="M778,175.7l13.4-9.3c23.8,3.2,42.2,14.4,36.5,20.7c-1.6,1.8-6.8,0.2-13.1-2.9c8.5,6.6,12.1,11.7,7.9,14.8    c-3.8,2.8-18.1-9.6-29.1-20.1c14.1,17.4,21.4,29.6,14,31.8c-3.8,1.2-11.1-10.3-17.5-22.1c3.3,13.1,5.8,26.7,2.2,28.4    c-5.9,2.8-8.9-6.8-10.5-23.6c-0.3,13.6-2.3,21.3-7.4,19.4C769.9,211.1,771.8,188.4,778,175.7z"></path>			<path class="st29" d="M791.5,166.4c1.6,2.3-3.3,6.6-4.7,7.5s-7.5,3.7-8.8,1.8c-2.1-3,0.7-8.8,2.8-10.4S789.4,163.3,791.5,166.4z"></path>							<image style="overflow:visible;opacity:0.75;enable-background:new    ;" width="617" height="276" transform="matrix(2 0 0 2 282.4 -63.98)">			</image>			<path class="st3" d="M1286.7-31.5c-31.2,18-49.9,37.3-61.5,52.2c-5.2,6.7-18.6,19.9-32.9,39.2c-21.9,29.6-17.7,32.1-31.3,47.8    c-27.9,32.4-48,24.7-63.8,52.3c-12.6,21.9-3.4,32.2-16.1,49.8c-15.4,21.3-42.3,27-64.2,27.4c-102.1,2.1-117.2,72.5-117.2,72.5    c-14.2-44.2-51.6-75.7-98.3-58.6c-42,15.3-66.7,7.9-74.5,2.7c-21.6-14.4-1.9-45.9-28-75.1c-14.8-16.6-26.2-12.1-47-34.7    c-15.3-16.7-12.3-22.8-24.4-36.8c-22.4-25.9-41-15.2-77.6-38.8C525.4,52.7,511,33.4,488.4,3c-11.6-15.5-22-31.8-31.3-48.8    L304.7-22.7l-6.2,485.1l1188.2-4.1c0.7-158.3,1.4-316.5,2.1-474.8L1286.7-31.5z"></path>							<image style="overflow:visible;opacity:0.75;enable-background:new    ;" width="731" height="319" transform="matrix(2 0 0 2 -93.6 -81.98)">			</image>			<path class="st31" d="M1262.2,53.7c-14.8,18.8-32.4,49.4-53.5,59.9c-11.6,5.8-21.8,7.6-40.6,19.2c-16.1,9.9-26.8,16.8-35,29.8    c-11.8,18.5-11.6,37.7-13.7,48.9c-9.1,47.3-39.6,51.9-102.6,53.1c-102.1,1.9-117.2,51.2-117.2,51.2c-14.2-38.8-51.6-54-98.3-39    c-57.4,18.4-101,16.5-115.2-23.8s5.4-67.4-39.1-82.6c-39.8-13.6-35.8-39.4-53-52.3c-11.5-8.6-23.6-6.9-34.5-7.7    c-40.9-3.1-70.6-42.7-81.7-54.4c-48.3-50.7-331-177.4-461.3-89.3C-94,41-118.9,285.1,12.3,531.1l1277.5-11.3l52-515.5    C1298.2,17.1,1275.3,37.2,1262.2,53.7z M648.3,275.7c-29.3-26.9-26-66-6-71.7c17.9-5.1,23.9,9,23.6,30.1    c-0.5,33.4,19,51,36.4,60.2C714.8,300.8,681,305.7,648.3,275.7L648.3,275.7z M830.6,308.4c-26.6-5.7-44.5,1.6-55.4,14    s-17.3,19.8-27.7,13.8c-9.9-5.8-8-25.9,13.5-37.6c17.8-9.7,36.9-6.6,53.7-0.5S836.2,309.6,830.6,308.4z M1087.6,350.9    c-17.2,9.3-27.5-3.1-44.6-24.2s-46.1-34.1-90.1-26.4c-9.3,1.6-1.5-7,26.4-16s59.4-12.9,88.1,4.1    C1102.2,309,1104.1,342,1087.6,350.9L1087.6,350.9z M1141.6,253.8c-24.2,18.5-49.3,12-40.5,8.5c12.3-4.9,25.4-18,29.2-40.3    c2.6-15.3,8-27.3,18.2-19.6C1158.8,210.4,1163.2,237.2,1141.6,253.8L1141.6,253.8z"></path>							<image style="overflow:visible;opacity:0.75;enable-background:new    ;" width="192" height="70" transform="matrix(2 0 0 2 714.4 316.02)">			</image>			<path class="st32" d="M915.8,416.6l149.4,6.7l-51.3-82.3H788.4l-51.3,82.3l149.5-7.3c6.8,6.5,9.1,7.3,14.6,7.3    C906.9,423.3,909,423.1,915.8,416.6z"></path>							<image style="overflow:visible;opacity:0.75;enable-background:new    ;" width="166" height="58" transform="matrix(2 0 0 2 738.4 316.02)">			</image>							<linearGradient id="SVGID_28_" gradientUnits="userSpaceOnUse" x1="563.9399" y1="-252.69" x2="713.9399" y2="-252.69" gradientTransform="matrix(1 0 0 -1 187.22 118.21)">				<stop offset="0" style="stop-color:#F0F0FF"></stop>				<stop offset="1" style="stop-color:#D9D9FF"></stop>			</linearGradient>			<path class="st33" d="M901.2,409.6v-81.4l-110,18l-40,63.4c20.7,6.4,69.3-3,90.7-6.2c24.8-3.7,39.3,5.9,46.9,10.1    C891,410.1,896.7,409.6,901.2,409.6z"></path>							<linearGradient id="SVGID_29_" gradientUnits="userSpaceOnUse" x1="201.6" y1="-252.7" x2="351.67" y2="-252.7" gradientTransform="matrix(-1 0 0 -1 1252.83 118.21)">				<stop offset="0" style="stop-color:#F0F0FF"></stop>				<stop offset="1" style="stop-color:#D9D9FF"></stop>			</linearGradient>			<path class="st34" d="M901.2,409.6v-81.4l110,18l40.1,63.4c-20.7,6.4-69.3-3-90.7-6.2c-24.8-3.7-39.3,5.9-46.9,10.1    C911.3,410.1,905.6,409.6,901.2,409.6z"></path>							<image style="overflow:visible;opacity:0.75;enable-background:new    ;" width="154" height="51" transform="matrix(2 0 0 2 750.4 326.02)">			</image>							<linearGradient id="SVGID_30_" gradientUnits="userSpaceOnUse" x1="578.47" y1="-255.59" x2="712.9" y2="-255.59" gradientTransform="matrix(1 0 0 -1 187.22 118.21)">				<stop offset="0" style="stop-color:#F0F0FF"></stop>				<stop offset="1" style="stop-color:#D9D9FF"></stop>			</linearGradient>			<path class="st35" d="M901.2,409.2c-6.7-12.1-19.6-25.5-53.8-22.8c-25.1,2-46.5,23.1-84.3,19.8l32.7-49.8c0,0,27.6-9.8,47.7-15.3    c23.3-6.4,47-0.4,57.7,6.8V409.2z"></path>							<linearGradient id="SVGID_31_" gradientUnits="userSpaceOnUse" x1="267.3901" y1="-255.6" x2="405.49" y2="-255.6" gradientTransform="matrix(-1 0 0 -1 1306.65 118.21)">				<stop offset="0" style="stop-color:#D9D9FF"></stop>				<stop offset="1" style="stop-color:#F0F0FF"></stop>			</linearGradient>			<path class="st36" d="M901.2,409.2c6.7-12.1,19.6-25.5,53.8-22.8c25.1,2,46.5,23.1,84.3,19.8l-31.3-49.8c0,0-29-9.8-49.1-15.3    c-23.3-6.4-47-0.4-57.8,6.8L901.2,409.2z"></path>							<image style="overflow:visible;opacity:0.75;enable-background:new    ;" width="33" height="48" transform="matrix(2 0 0 2 806.4 326.02)">			</image>							<linearGradient id="SVGID_32_" gradientUnits="userSpaceOnUse" x1="631.54" y1="-253.035" x2="666.25" y2="-253.035" gradientTransform="matrix(1 0 0 -1 187.22 118.21)">				<stop offset="0" style="stop-color:#E0746C"></stop>				<stop offset="1" style="stop-color:#EF928B"></stop>			</linearGradient>			<path class="st37" d="M839,342.2c-6.2,25.1-15.9,50.9-20.2,60.7c0,0,8.3-5.9,11.4-10.9c0.6,3.9,0.9,7.9,0.9,11.9    c0,0,16.8-20.5,22.5-65.5c-2.7,0.2-5.4,0.7-8.1,1.4C843.2,340.5,841.1,341.3,839,342.2z"></path>							<image style="overflow:visible;opacity:0.75;enable-background:new    ;" width="150" height="66" transform="matrix(2 0 0 2 754.4 296.02)">			</image>							<linearGradient id="SVGID_33_" gradientUnits="userSpaceOnUse" x1="582.64" y1="-240.7264" x2="712.9301" y2="-240.7264" gradientTransform="matrix(1 0 0 -1 187.22 118.21)">				<stop offset="0" style="stop-color:#F0F0FF"></stop>				<stop offset="1" style="stop-color:#D9D9FF"></stop>			</linearGradient>			<path class="st38" d="M901.2,409.2c-6.5-17-19-35.9-52.1-32.1c-24.3,2.8-45.1,17-81.7,12.4l39.2-64.2c13.2-3,26.1-6.9,38.7-11.8    c22.5-9,46.1-5.3,56,9.5L901.2,409.2z"></path>							<linearGradient id="SVGID_34_" gradientUnits="userSpaceOnUse" x1="271.63" y1="-240.7861" x2="405.52" y2="-240.7861" gradientTransform="matrix(-1 0 0 -1 1306.65 118.21)">				<stop offset="0" style="stop-color:#D9D9FF"></stop>				<stop offset="1" style="stop-color:#F0F0FF"></stop>			</linearGradient>			<path class="st39" d="M901.2,409.2c6.5-17,19-35.9,52.1-32.1c24.3,2.8,45.1,17,81.7,12.4l-39.2-64.2c-13.2-3-26.1-6.9-38.7-11.8    c-22.5-9-44.2-4.9-56,9.5L901.2,409.2z"></path>							<radialGradient id="SVGID_35_" cx="715.02" cy="-177.46" r="75.75" gradientTransform="matrix(1 0 0 -1 185.89 122.63)" gradientUnits="userSpaceOnUse">				<stop offset="0.45" style="stop-color:#FFFFFF"></stop>				<stop offset="1" style="stop-color:#FFFFFF;stop-opacity:5.000000e-02"></stop>			</radialGradient>			<ellipse class="st40" cx="900.1" cy="300.5" rx="75.7" ry="75.9"></ellipse>							<image style="overflow:visible;opacity:0.75;enable-background:new    ;" width="57" height="73" transform="matrix(2 0 0 2 848.4 234.02)">			</image>			<path class="st28" d="M900.1,255.6c-22.8,0-31.2,20.7-29.3,32.5c2.2,13.9,18.9,25.1,18.9,38.3h20.8c0-13.2,16.6-24.4,18.9-38.3    C931.3,276.3,923.2,255.6,900.1,255.6z"></path>							<linearGradient id="SVGID_36_" gradientUnits="userSpaceOnUse" x1="703.4399" y1="-222.5909" x2="722.2999" y2="-222.5909" gradientTransform="matrix(1 0 0 -1 187.22 118.21)">				<stop offset="0" style="stop-color:#CACAFD"></stop>				<stop offset="1" style="stop-color:#9393ED"></stop>			</linearGradient>			<path class="st41" d="M890.7,336.1c0,5.2,4.2,9.4,9.4,9.4c5.2,0,9.4-4.2,9.4-9.4c0,0,0,0,0,0l0,0H890.7z"></path>			<path class="st42" d="M896.3,322.6c0-17.9,0.5-34.6-5.7-42.5s-9.3,5.2-2,12.3S900,299,900,299"></path>			<path class="st42" d="M903.9,322.6c0-17.9-0.5-34.6,5.7-42.5s9.3,5.2,2,12.3s-11.4,6.6-11.4,6.6"></path>			<g id="image">				<g id="image-2" transform="translate(956 388) scale(2)">											<image style="overflow:visible;enable-background:new    ;" width="43" height="32" id="image-2-2" transform="matrix(2 0 0 2 862.4 306.02)">					</image>				</g>			</g>							<linearGradient id="SVGID_37_" gradientUnits="userSpaceOnUse" x1="698.52" y1="-214.145" x2="727.2301" y2="-214.145" gradientTransform="matrix(1 0 0 -1 187.22 118.21)">				<stop offset="0" style="stop-color:#4747B1"></stop>				<stop offset="1" style="stop-color:#5656D7"></stop>			</linearGradient>			<path class="st43" d="M910.7,336.1h-21.3c-2.1,0-3.7-1.7-3.7-3.7l0,0c0-2.1,1.7-3.7,3.7-3.7h21.3c2.1,0,3.7,1.7,3.7,3.7l0,0    C914.4,334.4,912.8,336.1,910.7,336.1z"></path>			<g id="image-3">				<g id="image-2-3" transform="translate(956 382) scale(2)">											<image style="overflow:visible;enable-background:new    ;" width="43" height="32" id="image-2-2_2_" transform="matrix(2 0 0 2 862.4 300.02)">					</image>				</g>			</g>							<linearGradient id="SVGID_38_" gradientUnits="userSpaceOnUse" x1="698.52" y1="-208.175" x2="727.2301" y2="-208.175" gradientTransform="matrix(1 0 0 -1 187.22 118.21)">				<stop offset="0" style="stop-color:#4747B1"></stop>				<stop offset="1" style="stop-color:#5656D7"></stop>			</linearGradient>			<path class="st44" d="M910.7,330.1h-21.3c-2.1,0-3.7-1.7-3.7-3.7l0,0c0-2.1,1.7-3.7,3.7-3.7h21.3c2.1,0,3.7,1.7,3.7,3.7l0,0    C914.4,328.4,912.8,330.1,910.7,330.1z"></path>		</g>	</g></g></svg>