<svg xmlns="http://www.w3.org/2000/svg" xmlns:xlink="http://www.w3.org/1999/xlink" id="Layer_1" x="0px" y="0px" viewBox="0 0 422 294" style="enable-background:new 0 0 422 294;" xml:space="preserve"><style type="text/css">	.st0{fill:#008AEC;}	.st1{fill:#FF1375;}	.st2{fill:#009E4B;}	.st3{fill:#9200C3;}	.st4{opacity:0.19;}	.st5{fill:none;stroke:#00344C;stroke-width:3;stroke-miterlimit:10;}	.st6{fill:none;stroke:#100534;stroke-width:3;stroke-miterlimit:10;}	.st7{fill:none;stroke:url(#SVGID_1_);stroke-width:10;stroke-miterlimit:10;}	.st8{opacity:0.5;}	.st9{fill:#939393;}	.st10{fill:#FFFFFF;}	.st11{fill:url(#SVGID_2_);}	.st12{fill:none;stroke:url(#SVGID_3_);stroke-width:10;stroke-miterlimit:10;}	.st13{fill:url(#SVGID_4_);}	.st14{fill:none;stroke:url(#SVGID_5_);stroke-width:10;stroke-miterlimit:10;}	.st15{fill:url(#SVGID_6_);}	.st16{fill:none;stroke:url(#SVGID_7_);stroke-width:10;stroke-miterlimit:10;}	.st17{fill:url(#SVGID_8_);}	.st18{fill:none;stroke:#100534;stroke-width:2;stroke-miterlimit:10;}	.st19{fill:url(#SVGID_9_);}	.st20{fill:url(#SVGID_10_);}	.st21{fill:url(#SVGID_11_);}	.st22{fill:url(#SVGID_12_);}	.st23{fill:#100534;}	.st24{fill:#00344C;}	.st25{fill:url(#SVGID_13_);}</style><path class="st0" d="M312.3,229.1c0,2.8-0.7,4.9-2.1,6.4c-1.4,1.5-3.4,2.2-6,2.2s-4.5-0.8-6-2.2c-1.4-1.5-2.1-3.6-2.1-6.5 c0-2.8,0.7-4.9,2.1-6.4c1.4-1.5,3.4-2.2,6-2.2s4.5,0.8,6,2.2C311.6,224.2,312.3,226.4,312.3,229.1z M300.1,229.1 c0,1.9,0.4,3.3,1.1,4.2c0.8,1,2,1.5,3.2,1.4c2.8,0,4.3-1.9,4.3-5.6s-1.4-5.7-4.2-5.7c-1.3-0.1-2.4,0.5-3.2,1.4 C300.4,225.9,300.1,227.3,300.1,229.1z"></path><path class="st0" d="M322.7,227.3h-3v10.2h-3.5v-10.2h-1.9v-1.7l1.9-1v-1c0-1.5,0.4-2.5,1.1-3.2c0.7-0.7,1.9-1,3.5-1 c1.1,0,2.2,0.2,3.2,0.6l-0.9,2.6c-0.7-0.2-1.3-0.3-2-0.4c-0.4-0.1-0.8,0.2-1.1,0.5c-0.3,0.4-0.4,0.7-0.4,1.1v0.8h3L322.7,227.3z  M331.8,227.3h-3v10.2h-3.5v-10.2h-1.9v-1.7l1.9-1v-1c0-1.5,0.4-2.5,1.1-3.2c0.7-0.7,1.9-1,3.5-1c1.1,0,2.2,0.2,3.2,0.6l-0.9,2.6 c-0.7-0.2-1.3-0.3-2-0.4c-0.4-0.1-0.8,0.2-1.1,0.5c-0.3,0.4-0.4,0.7-0.4,1.1v0.8h3L331.8,227.3L331.8,227.3z"></path><path class="st0" d="M339.6,237.8c-2.1,0-3.7-0.6-4.8-1.7c-1.2-1.2-1.8-2.8-1.8-4.8c0-2.2,0.6-3.8,1.6-5c1.1-1.2,2.6-1.8,4.5-1.8 c1.8,0,3.2,0.5,4.2,1.6c1,1.1,1.5,2.5,1.5,4.3v1.7h-8.3c0,0.9,0.3,1.7,0.9,2.3s1.5,0.9,2.3,0.9c0.8,0,1.5-0.1,2.2-0.3 c0.8-0.2,1.5-0.5,2.2-0.8v2.7c-0.6,0.3-1.3,0.6-2,0.7C341.3,237.8,340.5,237.8,339.6,237.8z M339.1,227c-0.7-0.1-1.3,0.2-1.8,0.7 c-0.5,0.6-0.7,1.3-0.7,2h4.9c0.1-0.7-0.2-1.5-0.7-2C340.4,227.2,339.8,226.9,339.1,227L339.1,227z"></path><path class="st0" d="M354.9,224.5c0.4,0,0.8,0.1,1.2,0.1l-0.3,3.3c-0.4-0.1-0.7-0.1-1.1-0.1c-1-0.1-1.9,0.3-2.6,0.9 c-0.7,0.7-1,1.5-1,2.4v6.6h-3.5v-12.9h2.7l0.5,2.2h0.2c0.4-0.7,1-1.3,1.6-1.8C353.3,224.7,354.1,224.5,354.9,224.5z"></path><path class="st0" d="M367.4,233.7c0.1,1.2-0.5,2.3-1.4,3c-0.9,0.7-2.3,1.1-4.1,1.1c-0.8,0-1.6-0.1-2.4-0.2c-0.7-0.1-1.3-0.3-1.9-0.6 v-2.9c0.7,0.3,1.5,0.6,2.2,0.8c0.7,0.2,1.4,0.3,2.2,0.3c1.3,0,1.9-0.4,1.9-1.1c0-0.3-0.1-0.5-0.3-0.7c-0.3-0.3-0.6-0.5-0.9-0.6 c-0.4-0.2-1-0.5-1.7-0.8c-0.8-0.3-1.5-0.7-2.2-1.2c-0.5-0.3-0.8-0.8-1-1.2c-0.2-0.6-0.4-1.1-0.3-1.7c-0.1-1.1,0.5-2.1,1.3-2.7 c0.9-0.6,2.1-1,3.8-1c1.6,0,3.1,0.4,4.5,1l-1.1,2.5c-0.7-0.3-1.3-0.5-1.8-0.7s-1.1-0.3-1.7-0.3c-1.1,0-1.6,0.3-1.6,0.9 c0,0.4,0.2,0.7,0.5,0.8c0.7,0.4,1.4,0.8,2.2,1c0.8,0.3,1.5,0.7,2.2,1.2c0.5,0.3,0.8,0.8,1.1,1.2 C367.3,232.6,367.4,233.2,367.4,233.7z"></path><path class="st1" d="M316.2,59.4h3.6L314.2,76h-3.8l-5.6-16.6h3.6l3.1,9.9c0.2,0.6,0.4,1.3,0.6,2c0.2,0.8,0.3,1.3,0.4,1.6 c0.2-1.3,0.5-2.5,0.9-3.7L316.2,59.4z"></path><path class="st1" d="M329.7,76l-0.7-1.7h-0.1c-0.5,0.7-1.1,1.2-1.8,1.5c-0.8,0.3-1.6,0.5-2.4,0.4c-1.1,0.1-2.1-0.3-2.9-1.1 c-0.8-0.8-1.1-1.9-1.1-3c-0.1-1.2,0.5-2.3,1.4-3c1-0.7,2.4-1,4.3-1.1l2.2-0.1v-0.6c0-1.3-0.7-1.9-2-1.9c-1.3,0.1-2.5,0.4-3.6,0.9 l-1.2-2.3c1.5-0.8,3.2-1.2,4.9-1.2s3,0.4,3.9,1.1c0.9,0.8,1.4,1.9,1.4,3.4V76H329.7z M328.6,70.1l-1.4,0.1c-0.8-0.1-1.6,0.2-2.3,0.6 c-0.5,0.4-0.8,0.9-0.8,1.5c0,1,0.6,1.5,1.7,1.5c0.7,0.1,1.4-0.2,1.9-0.7c0.5-0.5,0.8-1.2,0.7-1.9v-1L328.6,70.1L328.6,70.1z"></path><path class="st1" d="M339.1,76h-3.5V58.3h3.5V76z"></path><path class="st1" d="M351.8,76l-0.5-1.6h-0.2c-0.4,0.6-0.9,1.1-1.6,1.4c-0.8,0.4-1.5,0.5-2.3,0.5c-1.5,0-2.6-0.4-3.4-1.2 c-0.8-0.8-1.2-2-1.2-3.4v-8.3h3.5v7.4c-0.1,0.7,0.1,1.5,0.5,2.1c0.4,0.5,1,0.8,1.6,0.7c0.8,0.1,1.6-0.3,2.1-1 c0.5-0.7,0.7-1.7,0.7-3.2v-6h3.5V76L351.8,76L351.8,76z"></path><path class="st1" d="M363.8,76.2c-2.1,0-3.6-0.6-4.8-1.7s-1.7-2.7-1.7-4.8c0-2.1,0.6-3.8,1.6-4.9c1.1-1.2,2.5-1.8,4.4-1.8 c1.8,0,3.2,0.5,4.2,1.5c1,1,1.5,2.4,1.5,4.2v1.7h-8.2c0,0.9,0.3,1.7,0.9,2.3c0.6,0.6,1.5,0.9,2.3,0.8c0.7,0,1.5-0.1,2.2-0.3 c0.8-0.2,1.5-0.5,2.1-0.8v2.7c-0.6,0.3-1.3,0.6-2,0.7C365.5,76.2,364.7,76.2,363.8,76.2z M363.3,65.5c-0.7-0.1-1.3,0.2-1.7,0.7 c-0.5,0.6-0.7,1.3-0.7,2h4.9c0.1-0.7-0.2-1.4-0.7-2C364.6,65.7,364,65.5,363.3,65.5z"></path><path class="st2" d="M61.5,229.2c0,2.1-0.6,3.6-1.8,4.7s-2.9,1.7-5.1,1.7h-3.5v-12.5h3.9c2,0,3.6,0.6,4.7,1.6 C61,225.8,61.5,227.3,61.5,229.2z M58.7,229.3c0-2.7-1.2-4-3.5-4h-1.4v8.1H55C57.5,233.4,58.7,232.1,58.7,229.3z"></path><path class="st2" d="M63.8,223.6c0-0.9,0.5-1.3,1.4-1.3c1,0,1.4,0.4,1.4,1.3c0,0.4-0.1,0.7-0.4,1c-0.3,0.3-0.7,0.4-1.1,0.4 C64.2,224.9,63.8,224.5,63.8,223.6z M66.5,235.6h-2.6v-9.5h2.6V235.6z"></path><path class="st2" d="M75.9,232.8c0.1,0.9-0.4,1.7-1,2.2c-0.7,0.5-1.7,0.8-3.1,0.8c-0.6,0-1.2-0.1-1.8-0.2c-0.5-0.1-1-0.3-1.4-0.4 V233c0.5,0.3,1.1,0.5,1.6,0.6c0.5,0.2,1.1,0.2,1.6,0.3c1,0,1.4-0.3,1.4-0.8c0-0.2-0.1-0.4-0.2-0.5c-0.2-0.2-0.4-0.3-0.7-0.5 c-0.3-0.2-0.7-0.4-1.2-0.6c-0.6-0.2-1.1-0.5-1.6-0.9c-0.3-0.3-0.6-0.6-0.8-0.9c-0.2-0.4-0.3-0.8-0.3-1.3c-0.1-0.8,0.4-1.5,1-2 c0.9-0.5,1.8-0.8,2.8-0.7c1.2,0,2.3,0.3,3.4,0.8l-0.8,1.9c-0.5-0.2-0.9-0.4-1.4-0.5c-0.4-0.2-0.9-0.2-1.3-0.2 c-0.8,0-1.2,0.2-1.2,0.6c0,0.3,0.2,0.5,0.4,0.6c0.5,0.3,1.1,0.6,1.6,0.8s1.1,0.5,1.7,0.9c0.3,0.3,0.6,0.6,0.8,0.9 C75.8,231.9,75.9,232.4,75.9,232.8z"></path><path class="st2" d="M81.8,235.8c-3,0-4.4-1.6-4.4-4.9c0-1.6,0.4-2.9,1.2-3.7c0.8-0.9,2-1.3,3.5-1.3c1,0,2.1,0.2,3,0.7l-0.8,2 c-0.4-0.2-0.8-0.3-1.2-0.4c-0.4-0.1-0.7-0.2-1.1-0.2c-1.4,0-2,1-2,2.9c0,1.9,0.7,2.8,2,2.8c0.5,0,1-0.1,1.4-0.2s0.9-0.4,1.3-0.6v2.2 c-0.4,0.3-0.8,0.5-1.3,0.6C82.9,235.8,82.3,235.8,81.8,235.8z"></path><path class="st2" d="M95.6,230.8c0.1,1.3-0.4,2.6-1.2,3.6c-0.9,0.9-2.2,1.4-3.4,1.3c-0.9,0-1.7-0.2-2.4-0.6c-0.7-0.4-1.3-1-1.6-1.7 c-0.4-0.8-0.6-1.7-0.6-2.6c0-1.6,0.4-2.8,1.2-3.6c0.9-0.9,2.2-1.4,3.4-1.3c0.9,0,1.7,0.2,2.4,0.6c0.7,0.4,1.3,1,1.6,1.7 C95.5,229,95.7,229.9,95.6,230.8z M89,230.8c-0.1,0.8,0.1,1.5,0.5,2.2c0.4,0.5,0.9,0.8,1.5,0.7c0.6,0.1,1.2-0.2,1.5-0.7 c0.4-0.7,0.5-1.4,0.5-2.2c0.1-0.8-0.1-1.5-0.5-2.1c-0.7-0.9-1.9-1-2.8-0.3c-0.1,0.1-0.2,0.2-0.3,0.3C89.1,229.4,89,230.1,89,230.8 L89,230.8z"></path><path class="st2" d="M104.5,235.6l-0.4-1.2H104c-0.3,0.5-0.7,0.8-1.2,1c-0.6,0.3-1.2,0.4-1.8,0.4c-1,0.1-1.9-0.3-2.5-0.9 c-0.6-0.7-0.9-1.7-0.9-2.6V226h2.6v5.6c-0.1,0.6,0.1,1.1,0.4,1.6c0.3,0.4,0.7,0.6,1.2,0.5c0.6,0.1,1.2-0.2,1.6-0.7 c0.4-0.8,0.6-1.6,0.5-2.4v-4.5h2.6v9.5L104.5,235.6z"></path><path class="st2" d="M118.1,235.6h-2.6V230c0.1-0.6-0.1-1.1-0.4-1.6c-0.3-0.4-0.7-0.6-1.2-0.5c-0.6-0.1-1.2,0.2-1.6,0.7 c-0.4,0.8-0.6,1.6-0.5,2.4v4.5h-2.6V226h2l0.4,1.2h0.2c0.3-0.5,0.7-0.8,1.2-1.1c0.6-0.3,1.2-0.4,1.7-0.4c0.9-0.1,1.9,0.3,2.5,0.9 c0.6,0.7,0.9,1.7,0.9,2.6L118.1,235.6z"></path><path class="st2" d="M124.8,233.7c0.6,0,1.1-0.1,1.7-0.3v1.9c-0.8,0.3-1.6,0.5-2.4,0.5c-0.9,0.1-1.7-0.2-2.3-0.8 c-0.5-0.7-0.8-1.5-0.7-2.4V228h-1.3v-1.1l1.4-0.9l0.8-2h1.7v2h2.7v2h-2.7v4.6c-0.1,0.3,0.1,0.6,0.3,0.8 C124.2,233.6,124.5,233.7,124.8,233.7z"></path><path class="st3" d="M64.9,66.3h7.7v10c-1.2,0.4-2.3,0.7-3.5,0.9c-1.1,0.2-2.2,0.3-3.4,0.3c-2.9,0-5.1-0.9-6.7-2.6s-2.3-4.2-2.3-7.4 c0-3.1,0.9-5.5,2.7-7.3c1.8-1.8,4.2-2.6,7.4-2.6c2,0,3.9,0.4,5.7,1.2l-1.4,3.3c-1.4-0.7-2.9-1.1-4.4-1.1c-1.6-0.1-3.2,0.6-4.2,1.8 c-1.1,1.2-1.6,2.8-1.6,4.8c0,2.1,0.5,3.7,1.3,4.8c0.9,1.1,2.3,1.8,3.7,1.7c0.9,0,1.8-0.1,2.6-0.3v-4h-3.7L64.9,66.3z"></path><path class="st3" d="M76.6,58.6c0-1.3,0.8-2,2.2-2c1.5,0,2.2,0.7,2.2,2c0.1,0.6-0.2,1.1-0.6,1.5c-0.5,0.4-1.1,0.6-1.7,0.5 C77.4,60.5,76.6,59.9,76.6,58.6z M80.9,77.2h-4V62.4h4V77.2z"></path><path class="st3" d="M93.3,65.4h-3.5v11.7h-4V65.4h-2.2v-2l2.2-1.1v-1.1c0-1.7,0.4-2.9,1.3-3.7c0.9-0.8,2.2-1.2,4-1.2 c1.3,0,2.5,0.2,3.7,0.6l-1,3c-0.7-0.3-1.5-0.4-2.3-0.4c-0.5-0.1-1,0.2-1.3,0.5c-0.3,0.4-0.4,0.9-0.4,1.3v0.9h3.5L93.3,65.4 L93.3,65.4z"></path><path class="st3" d="M101.8,74.2c0.9-0.1,1.7-0.2,2.5-0.5v3c-1.2,0.5-2.4,0.7-3.7,0.7c-1.6,0-2.8-0.4-3.5-1.2 c-0.8-0.8-1.1-2-1.1-3.7v-7.1h-1.9v-1.7l2.2-1.4l1.2-3.1h2.6v3.1h4.1v3H100v7.1c-0.1,0.5,0.2,1,0.5,1.3 C100.9,74.1,101.4,74.2,101.8,74.2z"></path><path class="st3" d="M117.6,72.8c0.1,1.4-0.5,2.6-1.6,3.5c-1.1,0.8-2.6,1.2-4.7,1.2c-0.9,0-1.9-0.1-2.8-0.2 c-0.7-0.2-1.5-0.4-2.1-0.7v-3.3c0.8,0.4,1.7,0.7,2.5,0.9c0.8,0.2,1.7,0.4,2.5,0.4c1.5,0,2.2-0.4,2.2-1.3c0-0.3-0.1-0.6-0.3-0.8 c-0.3-0.3-0.7-0.5-1-0.7c-0.5-0.3-1.1-0.6-1.9-0.9c-0.9-0.4-1.7-0.8-2.5-1.3c-0.5-0.4-0.9-0.9-1.2-1.4c-0.3-0.6-0.4-1.3-0.4-1.9 c-0.1-1.2,0.5-2.4,1.5-3c1-0.7,2.5-1.1,4.3-1.1c1.8,0,3.6,0.4,5.2,1.2l-1.2,2.9c-0.8-0.3-1.4-0.6-2.1-0.8c-0.7-0.2-1.3-0.3-2-0.3 c-1.2,0-1.8,0.3-1.8,1c0,0.4,0.3,0.8,0.6,1c0.8,0.5,1.7,0.9,2.5,1.2c0.9,0.4,1.8,0.8,2.5,1.3c0.5,0.4,0.9,0.9,1.2,1.4 C117.5,71.5,117.7,72.1,117.6,72.8z"></path><g class="st4">	<path class="st5" d="M83,7c34.3,0.1,62.1,28,62,62.4c-0.1,34.2-27.8,61.9-62,62"></path></g><path class="st6" d="M83,5c34.3,0.1,62.1,28,62,62.4c-0.1,34.2-27.8,61.9-62,62"></path><linearGradient id="SVGID_1_" gradientUnits="userSpaceOnUse" x1="15.7806" y1="-72.669" x2="82.9937" y2="-72.669" gradientTransform="matrix(1 0 0 -1 0 -5.4416)">	<stop offset="0" style="stop-color:#8D30FF"></stop>	<stop offset="1" style="stop-color:#9E7DDF"></stop></linearGradient><path class="st7" d="M83,129.5c-34.3,0.1-62.3-27.7-62.4-62S48.3,5.1,82.7,5c0.1,0,0.3,0,0.4,0"></path><g class="st8">	<ellipse class="st9" cx="22.3" cy="69.2" rx="20.8" ry="20.8"></ellipse></g><ellipse class="st10" cx="20.8" cy="67.2" rx="20.8" ry="20.8"></ellipse><linearGradient id="SVGID_2_" gradientUnits="userSpaceOnUse" x1="5.5468" y1="-72.6685" x2="36.0048" y2="-72.6685" gradientTransform="matrix(1 0 0 -1 6.385613e-04 -5.4412)">	<stop offset="0" style="stop-color:#8D30FF"></stop>	<stop offset="1" style="stop-color:#9E7DDF"></stop></linearGradient><circle class="st11" cx="20.8" cy="67.2" r="15.2"></circle><g class="st4">	<path class="st5" d="M337.5,131.5c-34.3-0.1-62.1-28-62-62.4c0.1-34.2,27.8-61.9,62-62"></path></g><path class="st6" d="M337.5,129.5c-34.3-0.1-62.1-28-62-62.4c0.1-34.2,27.8-61.9,62-62"></path><linearGradient id="SVGID_3_" gradientUnits="userSpaceOnUse" x1="337.444" y1="-72.6688" x2="404.6571" y2="-72.6688" gradientTransform="matrix(1 0 0 -1 0 -5.4416)">	<stop offset="4.000000e-03" style="stop-color:#FF0129"></stop>	<stop offset="0.993" style="stop-color:#E4007A"></stop></linearGradient><path class="st12" d="M337.5,5c34.3-0.1,62.3,27.7,62.4,62s-27.6,62.3-62,62.4c-0.1,0-0.3,0-0.4,0"></path><g class="st8">			<ellipse transform="matrix(0.7071 -0.7071 0.7071 0.7071 68.5395 303.9667)" class="st9" cx="401.2" cy="69.2" rx="20.8" ry="20.8"></ellipse></g><ellipse transform="matrix(0.7071 -0.7071 0.7071 0.7071 69.5227 302.3064)" class="st10" cx="399.7" cy="67.2" rx="20.8" ry="20.8"></ellipse><linearGradient id="SVGID_4_" gradientUnits="userSpaceOnUse" x1="384.4552" y1="-72.6706" x2="414.9132" y2="-72.6706" gradientTransform="matrix(1 0 0 -1 1.448393e-03 -5.4433)">	<stop offset="4.000000e-03" style="stop-color:#FF0129"></stop>	<stop offset="0.993" style="stop-color:#E4007A"></stop></linearGradient><circle class="st13" cx="399.7" cy="67.2" r="15.2"></circle><g class="st4">	<path class="st5" d="M337.5,291c-34.3-0.1-62.1-28-62-62.4c0.1-34.2,27.8-61.9,62-62"></path></g><path class="st6" d="M337.5,289c-34.3-0.1-62.1-28-62-62.4c0.1-34.2,27.8-61.9,62-62"></path><linearGradient id="SVGID_5_" gradientUnits="userSpaceOnUse" x1="337.444" y1="-232.1949" x2="404.6571" y2="-232.1949" gradientTransform="matrix(1 0 0 -1 0 -5.4416)">	<stop offset="1.100000e-02" style="stop-color:#00B5ED"></stop>	<stop offset="0.993" style="stop-color:#2254A1"></stop></linearGradient><path class="st14" d="M337.5,164.6c34.3-0.1,62.3,27.7,62.4,62s-27.7,62.3-62,62.4c-0.1,0-0.3,0-0.4,0"></path><g class="st8">	<ellipse class="st9" cx="401.2" cy="228.8" rx="20.8" ry="20.8"></ellipse></g><ellipse class="st10" cx="399.7" cy="226.8" rx="20.8" ry="20.8"></ellipse><linearGradient id="SVGID_6_" gradientUnits="userSpaceOnUse" x1="384.4565" y1="-232.2199" x2="414.9145" y2="-232.2199" gradientTransform="matrix(1 0 0 -1 2.211192e-04 -5.4412)">	<stop offset="1.100000e-02" style="stop-color:#00B5ED"></stop>	<stop offset="0.993" style="stop-color:#2254A1"></stop></linearGradient><circle class="st15" cx="399.7" cy="226.8" r="15.2"></circle><g class="st4">	<path class="st5" d="M83,166.6c34.3,0.1,62.1,28,62,62.4c-0.1,34.2-27.8,61.9-62,62"></path></g><path class="st6" d="M83,164.6c34.3,0.1,62.1,28,62,62.4c-0.1,34.2-27.8,61.9-62,62"></path><linearGradient id="SVGID_7_" gradientUnits="userSpaceOnUse" x1="15.7806" y1="-232.2204" x2="82.9937" y2="-232.2204" gradientTransform="matrix(1 0 0 -1 0 -5.4416)">	<stop offset="0" style="stop-color:#008B65"></stop>	<stop offset="1" style="stop-color:#7DD005"></stop></linearGradient><path class="st16" d="M83,289c-34.3,0.1-62.3-27.7-62.4-62s27.6-62.3,62-62.4c0.1,0,0.3,0,0.4,0"></path><g class="st8">	<ellipse class="st9" cx="22.3" cy="228.8" rx="20.8" ry="20.8"></ellipse></g><ellipse class="st10" cx="20.8" cy="226.8" rx="20.8" ry="20.8"></ellipse><linearGradient id="SVGID_8_" gradientUnits="userSpaceOnUse" x1="5.5461" y1="-232.22" x2="36.0041" y2="-232.22" gradientTransform="matrix(1 0 0 -1 1.324975e-03 -5.4413)">	<stop offset="0" style="stop-color:#008B65"></stop>	<stop offset="1" style="stop-color:#7DD005"></stop></linearGradient><circle class="st17" cx="20.8" cy="226.8" r="15.2"></circle><line class="st18" x1="254.4" y1="113.1" x2="281.1" y2="94.5"></line><g class="st8">	<path class="st9" d="M277.7,96.5c0,2.8,2.2,5,5,5s5-2.2,5-5s-2.2-5-5-5l0,0C279.9,91.5,277.7,93.8,277.7,96.5z"></path></g><linearGradient id="SVGID_9_" gradientUnits="userSpaceOnUse" x1="276.1393" y1="-99.95" x2="286.1117" y2="-99.95" gradientTransform="matrix(1 0 0 -1 0 -5.4416)">	<stop offset="4.000000e-03" style="stop-color:#FF0129"></stop>	<stop offset="0.993" style="stop-color:#E4007A"></stop></linearGradient><path class="st19" d="M276.1,94.5c0,2.8,2.2,5,5,5s5-2.2,5-5s-2.2-5-5-5l0,0C278.4,89.5,276.1,91.7,276.1,94.5z"></path><line class="st18" x1="254.4" y1="180.9" x2="281.1" y2="199.5"></line><g class="st8">	<path class="st9" d="M277.7,201.5c0-2.8,2.2-5,5-5s5,2.2,5,5c0,2.8-2.2,5-5,5l0,0C279.9,206.5,277.7,204.3,277.7,201.5z"></path></g><linearGradient id="SVGID_10_" gradientUnits="userSpaceOnUse" x1="276.1393" y1="-1741.5126" x2="286.1117" y2="-1741.5126" gradientTransform="matrix(1 0 0 1 0 1941.0103)">	<stop offset="1.100000e-02" style="stop-color:#00B5ED"></stop>	<stop offset="0.993" style="stop-color:#2254A1"></stop></linearGradient><path class="st20" d="M276.1,199.5c0-2.8,2.2-5,5-5s5,2.2,5,5c0,2.8-2.2,5-5,5l0,0C278.4,204.5,276.1,202.3,276.1,199.5z"></path><line class="st18" x1="166.2" y1="113.1" x2="139.4" y2="94.5"></line><g class="st8">	<path class="st9" d="M145.9,96.5c0,2.8-2.2,5-5,5c-2.8,0-5-2.2-5-5s2.2-5,5-5l0,0C143.7,91.5,145.9,93.8,145.9,96.5z"></path></g><linearGradient id="SVGID_11_" gradientUnits="userSpaceOnUse" x1="3011.8296" y1="-99.95" x2="3021.802" y2="-99.95" gradientTransform="matrix(-1 0 0 -1 3156.2275 -5.4416)">	<stop offset="0" style="stop-color:#8D30FF"></stop>	<stop offset="1" style="stop-color:#9E7DDF"></stop></linearGradient><path class="st21" d="M144.4,94.5c0,2.8-2.2,5-5,5c-2.8,0-5-2.2-5-5s2.2-5,5-5l0,0C142.2,89.5,144.4,91.7,144.4,94.5z"></path><line class="st18" x1="166.2" y1="180.9" x2="139.4" y2="199.5"></line><g class="st8">	<path class="st9" d="M145.9,201.5c0-2.8-2.2-5-5-5c-2.8,0-5,2.2-5,5c0,2.8,2.2,5,5,5l0,0C143.7,206.5,145.9,204.3,145.9,201.5z"></path></g><linearGradient id="SVGID_12_" gradientUnits="userSpaceOnUse" x1="3011.8296" y1="-1741.5126" x2="3021.802" y2="-1741.5126" gradientTransform="matrix(-1 0 0 1 3156.2275 1941.0103)">	<stop offset="0" style="stop-color:#008B65"></stop>	<stop offset="1" style="stop-color:#7DD005"></stop></linearGradient><path class="st22" d="M144.4,199.5c0-2.8-2.2-5-5-5c-2.8,0-5,2.2-5,5c0,2.8,2.2,5,5,5l0,0C142.2,204.5,144.4,202.3,144.4,199.5z"></path><ellipse class="st10" cx="210.2" cy="147" rx="71.8" ry="71.8"></ellipse><path class="st23" d="M208.4,219.8c-0.6,0-1.1-0.5-1-1.1l0,0l0,0c0-0.6,0.5-1.1,1.1-1.1l0,0l0,0c0.6,0,1.1,0.5,1,1.1l0,0 C209.4,219.3,209,219.8,208.4,219.8L208.4,219.8z M213.3,218.7c-0.1-0.6,0.4-1.1,1-1.1l0,0c0.6-0.1,1.1,0.4,1.1,1l0,0 c0.1,0.6-0.4,1.1-1,1.1h-0.1C213.8,219.7,213.3,219.3,213.3,218.7L213.3,218.7z M202.4,219.4c-0.6-0.1-1-0.6-1-1.2l0,0l0,0 c0.1-0.6,0.6-1,1.2-1l0,0c0.6,0.1,1,0.6,1,1.2l0,0c-0.1,0.6-0.5,1-1.1,1l0,0C202.4,219.4,202.4,219.4,202.4,219.4z M219.2,218.2 c-0.1-0.6,0.3-1.1,0.9-1.2l0,0l0,0c0.6-0.1,1.1,0.3,1.2,0.9l0,0l0,0c0.1,0.6-0.3,1.1-0.9,1.2l0,0c-0.1,0-0.1,0-0.2,0l0,0 C219.7,219.1,219.3,218.8,219.2,218.2L219.2,218.2z M196.4,218.5c-0.6-0.1-1-0.7-0.9-1.2l0,0c0.1-0.6,0.7-1,1.3-0.9l0,0 c0.6,0.1,1,0.7,0.9,1.2l0,0c-0.1,0.5-0.6,0.9-1.1,0.9l0,0C196.5,218.5,196.5,218.5,196.4,218.5L196.4,218.5z M225,217.2 c-0.2-0.6,0.3-1.1,0.8-1.3l0,0l0,0c0.6-0.2,1.1,0.3,1.3,0.8l0,0l0,0c0.2,0.6-0.2,1.1-0.8,1.3l0,0c-0.1,0-0.2,0-0.3,0l0,0 C225.6,218.1,225.1,217.8,225,217.2L225,217.2z M190.6,217.1c-0.6-0.2-0.9-0.8-0.8-1.3l0,0c0.2-0.6,0.8-0.9,1.3-0.8l0,0l0,0 c0.6,0.2,0.9,0.8,0.8,1.3l0,0c-0.2,0.5-0.6,0.8-1,0.8l0,0C190.7,217.1,190.6,217.1,190.6,217.1z M230.8,215.8 c-0.2-0.6,0.2-1.2,0.7-1.3l0,0l0,0c0.6-0.2,1.2,0.2,1.3,0.7l0,0l0,0c0.2,0.6-0.2,1.2-0.7,1.3l0,0c-0.1,0.1-0.2,0.1-0.3,0.1l0,0 C231.3,216.5,230.9,216.2,230.8,215.8z M184.8,215.3L184.8,215.3c-0.6-0.2-0.8-0.8-0.6-1.4l0,0c0.2-0.6,0.8-0.8,1.4-0.6l0,0l0,0 c0.6,0.2,0.8,0.8,0.6,1.4l0,0c-0.2,0.4-0.6,0.7-1,0.7l0,0C185.1,215.3,184.9,215.3,184.8,215.3L184.8,215.3z M236.4,213.9 c-0.2-0.6,0.1-1.2,0.6-1.4l0,0l0,0c0.6-0.2,1.2,0.1,1.4,0.6l0,0c0.2,0.6-0.1,1.2-0.6,1.4l0,0c-0.2,0.1-0.3,0.1-0.4,0.1l0,0 C236.9,214.5,236.5,214.3,236.4,213.9z M179.3,212.9c-0.5-0.3-0.8-0.9-0.5-1.4l0,0c0.3-0.5,0.9-0.8,1.4-0.5l0,0 c0.5,0.3,0.8,0.9,0.5,1.4l0,0c-0.2,0.4-0.6,0.6-1,0.6l0,0C179.6,213,179.4,213,179.3,212.9L179.3,212.9z M241.8,211.5 c-0.3-0.5-0.1-1.2,0.5-1.4l0,0l0,0c0.5-0.3,1.2-0.1,1.4,0.5l0,0l0,0c0.3,0.5,0.1,1.2-0.5,1.4l0,0c-0.2,0.1-0.3,0.1-0.5,0.1l0,0 C242.4,212.1,241.9,211.9,241.8,211.5L241.8,211.5z M173.9,210.1c-0.5-0.3-0.7-1-0.4-1.5l0,0c0.3-0.5,0.9-0.7,1.4-0.4l0,0l0,0 c0.5,0.3,0.7,0.9,0.4,1.4l0,0l0,0c-0.2,0.3-0.6,0.5-0.9,0.5l0,0C174.3,210.3,174.1,210.2,173.9,210.1z M247,208.7 c-0.3-0.5-0.2-1.2,0.4-1.5l0,0l0,0c0.5-0.3,1.1-0.2,1.5,0.3l0,0l0,0c0.3,0.5,0.2,1.1-0.3,1.5l0,0l0,0c-0.2,0.1-0.4,0.2-0.6,0.2l0,0 C247.5,209.1,247.2,209,247,208.7L247,208.7z M168.8,206.9c-0.5-0.4-0.6-1-0.3-1.5l0,0l0,0c0.4-0.5,1-0.6,1.5-0.3l0,0l0,0 c0.5,0.4,0.6,1,0.3,1.5l0,0c-0.2,0.3-0.5,0.5-0.9,0.5l0,0C169.2,207.1,169,207.1,168.8,206.9L168.8,206.9z M252,205.4 c-0.4-0.5-0.3-1.1,0.2-1.5l0,0c0.5-0.4,1.1-0.3,1.5,0.2l0,0l0,0c0.4,0.5,0.3,1.1-0.2,1.5l0,0c-0.2,0.2-0.4,0.2-0.6,0.2l0,0 C252.5,205.9,252.2,205.6,252,205.4z M164,203.3L164,203.3c-0.5-0.4-0.5-1-0.2-1.5l0,0c0.4-0.5,1-0.5,1.5-0.2l0,0 c0.5,0.4,0.5,1.1,0.2,1.5l0,0c-0.2,0.3-0.5,0.4-0.8,0.4l0,0C164.4,203.5,164.2,203.4,164,203.3z M256.6,201.8 c-0.4-0.5-0.4-1.1,0.1-1.5l0,0c0.5-0.4,1.1-0.4,1.5,0.1l0,0c0.4,0.5,0.4,1.1-0.1,1.5l0,0c-0.2,0.2-0.5,0.3-0.7,0.3l0,0 C257.1,202.1,256.8,202,256.6,201.8z M159.6,199.3c-0.4-0.4-0.4-1.1,0-1.5l0,0c0.4-0.4,1.1-0.4,1.5,0l0,0c0.4,0.4,0.4,1.1,0,1.5l0,0 c-0.2,0.2-0.5,0.3-0.8,0.3l0,0C160,199.6,159.8,199.5,159.6,199.3z M261,197.7c-0.4-0.4-0.5-1.1-0.1-1.5l0,0l0,0 c0.4-0.4,1.1-0.4,1.5,0l0,0c0.4,0.4,0.4,1.1,0,1.5l0,0c-0.2,0.2-0.5,0.3-0.8,0.4l0,0C261.5,198,261.2,197.9,261,197.7L261,197.7z  M155.4,195L155.4,195c-0.4-0.5-0.4-1.1,0.1-1.5l0,0c0.5-0.4,1.1-0.4,1.5,0.1l0,0c0.4,0.5,0.4,1.1-0.1,1.5l0,0 c-0.2,0.2-0.5,0.3-0.7,0.3l0,0C155.9,195.3,155.6,195.2,155.4,195L155.4,195z M265,193.4c-0.5-0.4-0.5-1.1-0.2-1.5l0,0 c0.4-0.5,1-0.5,1.5-0.2l0,0l0,0c0.5,0.4,0.5,1.1,0.2,1.5l0,0c-0.2,0.3-0.5,0.4-0.8,0.4l0,0C265.4,193.6,265.2,193.5,265,193.4 L265,193.4z M151.6,190.3c-0.4-0.5-0.3-1.1,0.2-1.5l0,0c0.5-0.4,1.1-0.3,1.5,0.2l0,0c0.4,0.5,0.3,1.1-0.2,1.5l0,0 c-0.2,0.2-0.4,0.2-0.6,0.2l0,0C152.1,190.7,151.8,190.5,151.6,190.3L151.6,190.3z M268.7,188.7c-0.5-0.4-0.6-1-0.3-1.5l0,0l0,0 c0.4-0.5,1-0.6,1.5-0.3l0,0l0,0c0.5,0.3,0.6,1,0.3,1.5l0,0l0,0c-0.2,0.3-0.5,0.5-0.9,0.5l0,0C269,188.9,268.8,188.8,268.7,188.7 L268.7,188.7z M148.3,185.3L148.3,185.3c-0.3-0.5-0.2-1.2,0.4-1.5l0,0c0.5-0.3,1.2-0.2,1.5,0.4l0,0c0.3,0.5,0.2,1.2-0.4,1.5l0,0 c-0.2,0.1-0.4,0.2-0.6,0.2l0,0C148.8,185.8,148.5,185.6,148.3,185.3L148.3,185.3z M271.9,183.7c-0.5-0.3-0.7-1-0.4-1.5l0,0 c0.3-0.5,0.9-0.7,1.4-0.4l0,0l0,0c0.5,0.3,0.7,0.9,0.4,1.4l0,0l0,0c-0.2,0.3-0.6,0.5-0.9,0.6l0,0 C272.3,183.9,272.1,183.8,271.9,183.7L271.9,183.7z M145.3,180L145.3,180c-0.3-0.5-0.1-1.2,0.5-1.4l0,0l0,0c0.5-0.3,1.2-0.1,1.4,0.5 l0,0c0.3,0.5,0.1,1.2-0.5,1.4l0,0l0,0c-0.2,0.1-0.3,0.1-0.5,0.1l0,0C145.8,180.6,145.5,180.4,145.3,180L145.3,180z M274.7,178.5 c-0.5-0.3-0.8-0.9-0.5-1.4l0,0l0,0c0.3-0.5,0.9-0.8,1.4-0.5l0,0c0.5,0.3,0.8,0.9,0.5,1.4l0,0c-0.2,0.4-0.6,0.6-1,0.6l0,0 C275,178.6,274.9,178.6,274.7,178.5L274.7,178.5z M142.8,174.5c-0.2-0.6,0.1-1.2,0.6-1.4l0,0l0,0c0.6-0.2,1.2,0.1,1.4,0.6l0,0 c0.2,0.6-0.1,1.2-0.6,1.4l0,0l0,0c-0.2,0.1-0.3,0.1-0.4,0.1l0,0C143.4,175.2,143,174.9,142.8,174.5L142.8,174.5z M277.1,173.1 c-0.6-0.2-0.8-0.8-0.6-1.4l0,0c0.2-0.6,0.8-0.8,1.4-0.6l0,0c0.6,0.2,0.8,0.8,0.6,1.4l0,0c-0.2,0.4-0.6,0.7-1,0.7l0,0 C277.3,173.1,277.2,173.1,277.1,173.1z M140.7,168.9c-0.2-0.6,0.2-1.2,0.7-1.3l0,0l0,0c0.6-0.2,1.2,0.2,1.3,0.7l0,0l0,0 c0.2,0.6-0.2,1.2-0.7,1.3l0,0c-0.1,0.1-0.2,0.1-0.3,0.1l0,0C141.3,169.6,140.9,169.3,140.7,168.9L140.7,168.9z M279.1,167.5 c-0.6-0.2-0.9-0.8-0.7-1.3l0,0c0.2-0.6,0.7-0.9,1.3-0.8l0,0l0,0c0.6,0.2,0.9,0.8,0.7,1.3l0,0c-0.1,0.5-0.6,0.8-1,0.8l0,0 C279.2,167.5,279.1,167.5,279.1,167.5L279.1,167.5z M139.2,163.1c-0.2-0.6,0.3-1.2,0.8-1.3l0,0c0.6-0.2,1.1,0.3,1.3,0.8l0,0l0,0 c0.2,0.6-0.3,1.1-0.8,1.3l0,0c-0.1,0-0.2,0.1-0.3,0.1l0,0C139.7,163.9,139.3,163.5,139.2,163.1L139.2,163.1z M280.5,161.7 c-0.6-0.1-1-0.7-0.9-1.2l0,0c0.1-0.6,0.7-1,1.2-0.9l0,0l0,0c0.6,0.1,1,0.7,0.9,1.2l0,0l0,0c-0.1,0.5-0.5,0.9-1,0.9l0,0 C280.6,161.7,280.6,161.7,280.5,161.7L280.5,161.7z M138.1,157.2L138.1,157.2c-0.1-0.6,0.3-1.1,0.9-1.2l0,0l0,0 c0.6-0.1,1.1,0.3,1.2,0.9l0,0c0.1,0.6-0.3,1.1-0.9,1.2l0,0l0,0c-0.1,0-0.1,0-0.2,0l0,0C138.6,158.1,138.2,157.7,138.1,157.2 L138.1,157.2z M281.5,155.9c-0.6-0.1-1-0.6-1-1.2l0,0l0,0c0.1-0.6,0.6-1,1.2-1l0,0l0,0c0.6,0.1,1,0.6,1,1.2l0,0l0,0 c-0.1,0.6-0.5,1-1.1,1l0,0C281.5,155.9,281.5,155.9,281.5,155.9L281.5,155.9z M137.5,151.2c-0.1-0.6,0.4-1.1,1-1.1l0,0 c0.6-0.1,1.1,0.4,1.1,1l0,0c0.1,0.6-0.4,1.1-1,1.1h-0.1C138,152.2,137.6,151.7,137.5,151.2L137.5,151.2z M281.9,150 c-0.6,0-1.1-0.5-1-1.1l0,0v-0.1l0,0v-0.1l0,0c0-0.6,0.5-1.1,1.1-1.1l0,0l0,0c0.6,0,1.1,0.5,1.1,1.1l0,0c0,0.1,0,0.1,0,0.1l0,0v0.1 l0,0C283,149.5,282.5,150,281.9,150L281.9,150z M138.5,146.2c-0.6,0-1.1-0.5-1-1.1l0,0l0,0c0-0.6,0.5-1.1,1.1-1l0,0l0,0 c0.6,0,1.1,0.5,1,1.1l0,0l0,0C139.5,145.8,139.1,146.2,138.5,146.2L138.5,146.2L138.5,146.2z M280.8,142.9c-0.1-0.6,0.4-1.1,1-1.1 l0,0c0.6-0.1,1.1,0.4,1.1,1l0,0c0.1,0.6-0.4,1.1-1,1.1h-0.1C281.3,143.9,280.9,143.4,280.8,142.9L280.8,142.9z M138.8,140.3 c-0.6-0.1-1-0.6-1-1.2l0,0c0.1-0.6,0.6-1,1.2-1l0,0l0,0c0.6,0.1,1,0.6,1,1.2l0,0c-0.1,0.6-0.5,1-1.1,1H138.8z M280.3,137.1 c-0.1-0.6,0.3-1.1,0.9-1.2l0,0l0,0c0.6-0.1,1.1,0.3,1.2,0.9l0,0l0,0c0.1,0.6-0.3,1.1-0.9,1.2l0,0l0,0c-0.1,0-0.1,0-0.2,0l0,0 C280.8,138,280.3,137.6,280.3,137.1L280.3,137.1z M139.5,134.4c-0.6-0.1-1-0.7-0.9-1.2l0,0c0.1-0.6,0.7-1,1.3-0.9l0,0 c0.6,0.1,1,0.7,0.9,1.3l0,0c-0.1,0.5-0.6,0.9-1.1,0.9l0,0C139.7,134.4,139.6,134.4,139.5,134.4z M279.2,131.3L279.2,131.3 c-0.2-0.6,0.2-1.1,0.8-1.3l0,0l0,0c0.6-0.1,1.1,0.3,1.3,0.8l0,0c0.2,0.6-0.2,1.1-0.8,1.3l0,0l0,0c-0.1,0-0.2,0.1-0.3,0.1l0,0 C279.7,132.1,279.3,131.8,279.2,131.3L279.2,131.3z M140.8,128.6c-0.6-0.2-0.9-0.8-0.7-1.3l0,0c0.2-0.6,0.8-0.9,1.3-0.8l0,0 c0.6,0.2,0.9,0.8,0.8,1.3l0,0l0,0c-0.1,0.5-0.6,0.8-1,0.8l0,0C141,128.7,140.9,128.7,140.8,128.6L140.8,128.6z M277.7,125.7 c-0.2-0.6,0.1-1.2,0.7-1.3l0,0l0,0c0.6-0.2,1.2,0.2,1.3,0.7l0,0l0,0c0.2,0.6-0.2,1.2-0.7,1.3l0,0c-0.1,0.1-0.2,0.1-0.3,0.1l0,0 C278.2,126.4,277.8,126.1,277.7,125.7L277.7,125.7z M142.6,123c-0.6-0.2-0.8-0.8-0.6-1.4l0,0l0,0l0,0l0,0c0.2-0.6,0.8-0.8,1.4-0.6 l0,0c0.6,0.2,0.8,0.8,0.6,1.4l0,0c-0.2,0.4-0.6,0.7-1,0.7l0,0C142.8,123.1,142.7,123.1,142.6,123L142.6,123z M275.7,120.2 c-0.2-0.6,0.1-1.2,0.6-1.4l0,0l0,0c0.6-0.2,1.2,0.1,1.4,0.6l0,0c0.2,0.6-0.1,1.2-0.6,1.4l0,0c-0.2,0.1-0.3,0.1-0.4,0.1l0,0 C276.2,120.8,275.8,120.6,275.7,120.2z M144.8,117.5c-0.5-0.3-0.8-0.9-0.5-1.4l0,0c0.3-0.5,0.9-0.8,1.4-0.5l0,0 c0.5,0.3,0.8,0.9,0.5,1.4l0,0c-0.2,0.4-0.6,0.6-1,0.6l0,0C145.1,117.6,144.9,117.6,144.8,117.5L144.8,117.5z M273.2,114.9 c-0.3-0.5-0.1-1.2,0.5-1.4l0,0l0,0c0.5-0.3,1.2-0.1,1.4,0.5l0,0l0,0c0.3,0.5,0.1,1.2-0.5,1.4l0,0c-0.2,0.1-0.3,0.1-0.5,0.1l0,0 C273.8,115.4,273.4,115.2,273.2,114.9L273.2,114.9z M147.4,112.2c-0.5-0.3-0.7-1-0.4-1.5l0,0c0.3-0.5,1-0.7,1.5-0.4l0,0 c0.5,0.3,0.7,1,0.4,1.5l0,0c-0.2,0.3-0.6,0.5-0.9,0.6l0,0C147.8,112.3,147.6,112.3,147.4,112.2z M270.4,109.8 c-0.3-0.5-0.2-1.1,0.3-1.5l0,0l0,0c0.5-0.3,1.1-0.2,1.5,0.3l0,0l0,0c0.3,0.5,0.2,1.1-0.3,1.5l0,0l0,0c-0.2,0.1-0.4,0.2-0.6,0.2l0,0 C270.9,110.3,270.5,110.1,270.4,109.8L270.4,109.8z M150.5,107.1c-0.5-0.4-0.6-1-0.3-1.5l0,0l0,0c0.3-0.5,1-0.6,1.5-0.3l0,0l0,0 c0.5,0.4,0.6,1,0.3,1.5l0,0c-0.2,0.3-0.5,0.5-0.9,0.5l0,0C150.9,107.3,150.7,107.2,150.5,107.1z M267.1,104.9 c-0.4-0.5-0.3-1.1,0.2-1.5l0,0l0,0c0.5-0.4,1.1-0.3,1.5,0.2l0,0c0.4,0.5,0.3,1.1-0.2,1.5l0,0c-0.2,0.2-0.4,0.2-0.7,0.2l0,0 C267.6,105.4,267.3,105.2,267.1,104.9L267.1,104.9z M154.1,102.3c-0.5-0.4-0.5-1.1-0.2-1.5l0,0c0.4-0.5,1-0.5,1.5-0.2l0,0l0,0 c0.5,0.4,0.5,1,0.2,1.5l0,0l0,0c-0.2,0.3-0.5,0.4-0.8,0.4l0,0C154.5,102.6,154.3,102.5,154.1,102.3z M263.4,100.4L263.4,100.4 c-0.4-0.5-0.4-1.1,0.1-1.5l0,0l0,0c0.5-0.4,1.1-0.4,1.5,0.1l0,0c0.4,0.5,0.4,1.1-0.1,1.5l0,0c-0.2,0.2-0.5,0.3-0.7,0.3l0,0 C263.9,100.8,263.6,100.6,263.4,100.4L263.4,100.4z M157.9,97.8c-0.4-0.4-0.5-1.1-0.1-1.5l0,0l0,0c0.4-0.4,1.1-0.4,1.5,0l0,0 c0.4,0.4,0.4,1.1,0,1.5l0,0c-0.2,0.2-0.5,0.3-0.8,0.3l0,0C158.4,98.1,158.1,98,157.9,97.8L157.9,97.8z M259.4,96.2 c-0.4-0.4-0.5-1.1-0.1-1.5l0,0l0,0c0.4-0.4,1.1-0.5,1.5-0.1l0,0l0,0c0.4,0.4,0.4,1.1,0,1.5l0,0c-0.2,0.2-0.5,0.3-0.8,0.3l0,0 C259.9,96.5,259.6,96.4,259.4,96.2z M162.2,93.7c-0.4-0.5-0.4-1.1,0.1-1.5l0,0c0.5-0.4,1.1-0.4,1.5,0.1l0,0c0.4,0.5,0.4,1.1-0.1,1.5 l0,0c-0.2,0.2-0.5,0.3-0.7,0.3l0,0C162.7,94.1,162.4,93.9,162.2,93.7L162.2,93.7z M255,92.3c-0.5-0.4-0.5-1-0.2-1.5l0,0l0,0 c0.4-0.5,1-0.5,1.5-0.2l0,0c0.5,0.4,0.5,1.1,0.2,1.5l0,0c-0.2,0.3-0.5,0.4-0.8,0.4l0,0C255.5,92.5,255.2,92.4,255,92.3L255,92.3z  M166.7,89.9c-0.4-0.5-0.3-1.1,0.2-1.5l0,0l0,0c0.5-0.4,1.1-0.3,1.5,0.2l0,0c0.4,0.5,0.3,1.1-0.2,1.5l0,0l0,0 c-0.2,0.2-0.4,0.2-0.6,0.2l0,0C167.3,90.3,166.9,90.2,166.7,89.9L166.7,89.9z M250.4,88.8L250.4,88.8c-0.5-0.4-0.6-1-0.3-1.5l0,0 l0,0c0.4-0.5,1-0.6,1.5-0.3l0,0c0.5,0.4,0.6,1,0.3,1.5l0,0c-0.2,0.3-0.5,0.5-0.9,0.5l0,0C250.7,89,250.5,88.9,250.4,88.8L250.4,88.8 z M171.6,86.5c-0.3-0.5-0.2-1.1,0.3-1.5l0,0l0,0c0.5-0.3,1.1-0.2,1.5,0.3l0,0l0,0c0.3,0.5,0.2,1.1-0.3,1.5l0,0l0,0 c-0.2,0.1-0.4,0.2-0.6,0.2l0,0C172.1,87,171.8,86.8,171.6,86.5L171.6,86.5z M245.4,85.6c-0.5-0.3-0.7-0.9-0.4-1.4l0,0l0,0 c0.3-0.5,0.9-0.7,1.4-0.4l0,0l0,0c0.5,0.3,0.7,1,0.4,1.5l0,0c-0.2,0.3-0.6,0.5-0.9,0.6l0,0C245.7,85.8,245.6,85.7,245.4,85.6 L245.4,85.6z M176.7,83.5c-0.3-0.5-0.1-1.2,0.5-1.4l0,0c0.5-0.3,1.2-0.1,1.4,0.5l0,0c0.3,0.5,0.1,1.2-0.5,1.4l0,0l0,0 c-0.2,0.1-0.3,0.1-0.5,0.1l0,0C177.3,84.1,176.9,83.9,176.7,83.5L176.7,83.5z M240.2,83L240.2,83c-0.5-0.3-0.8-0.9-0.5-1.4l0,0l0,0 c0.3-0.5,0.9-0.8,1.4-0.5l0,0l0,0l0,0l0,0c0.5,0.3,0.8,0.9,0.5,1.4l0,0c-0.2,0.4-0.6,0.6-1,0.6l0,0C240.5,83.1,240.4,83,240.2,83 L240.2,83z M182,80.9c-0.2-0.6,0.1-1.2,0.6-1.4l0,0c0.6-0.2,1.2,0.1,1.4,0.6l0,0c0.2,0.6-0.1,1.2-0.6,1.4l0,0 c-0.1,0.1-0.3,0.1-0.4,0.1l0,0C182.6,81.6,182.2,81.3,182,80.9L182,80.9z M234.8,80.7c-0.6-0.2-0.8-0.8-0.6-1.4l0,0l0,0 c0.2-0.6,0.8-0.8,1.4-0.6l0,0c0.6,0.2,0.8,0.8,0.6,1.4l0,0l0,0c-0.2,0.4-0.6,0.7-1,0.7l0,0C235.1,80.7,234.9,80.7,234.8,80.7 L234.8,80.7z M187.6,78.9c-0.2-0.6,0.1-1.2,0.7-1.3l0,0l0,0c0.6-0.2,1.2,0.2,1.3,0.7l0,0l0,0c0.2,0.6-0.2,1.2-0.7,1.3l0,0l0,0 c-0.1,0.1-0.2,0.1-0.3,0.1l0,0C188.1,79.6,187.7,79.3,187.6,78.9L187.6,78.9z M229.3,78.9L229.3,78.9c-0.6-0.2-0.9-0.7-0.8-1.3l0,0 l0,0c0.2-0.6,0.8-0.9,1.3-0.7l0,0l0,0c0.6,0.2,0.9,0.8,0.8,1.3l0,0c-0.2,0.5-0.6,0.8-1,0.8l0,0C229.4,78.9,229.3,78.9,229.3,78.9 L229.3,78.9z M193.3,77.2c-0.2-0.6,0.2-1.1,0.8-1.3l0,0l0,0c0.6-0.2,1.1,0.3,1.3,0.8l0,0c0.2,0.6-0.2,1.1-0.8,1.3l0,0l0,0 c-0.1,0-0.2,0.1-0.3,0.1l0,0C193.8,78.1,193.4,77.7,193.3,77.2L193.3,77.2z M223.6,77.6c-0.6-0.1-1-0.7-0.9-1.2l0,0 c0.1-0.6,0.7-1,1.2-0.9l0,0l0,0c0.6,0.1,1,0.7,0.9,1.2l0,0l0,0c-0.1,0.5-0.5,0.9-1,0.9l0,0C223.7,77.6,223.6,77.6,223.6,77.6 L223.6,77.6z M199.1,76.1c-0.1-0.6,0.3-1.1,0.9-1.2l0,0c0.6-0.1,1.1,0.3,1.2,0.9l0,0c0.1,0.6-0.3,1.1-0.9,1.2l0,0 c-0.1,0-0.1,0-0.2,0l0,0C199.6,77,199.2,76.6,199.1,76.1L199.1,76.1z M217.8,76.7L217.8,76.7c-0.6-0.1-1-0.6-1-1.2l0,0l0,0 c0.1-0.6,0.6-1,1.2-1l0,0l0,0c0.6,0.1,1,0.6,1,1.2l0,0c-0.1,0.6-0.5,1-1.1,1H217.8z M205,75.4c-0.1-0.6,0.4-1.1,1-1.1l0,0 c0.6-0.1,1.1,0.4,1.1,1l0,0c0.1,0.6-0.4,1.1-1,1.1h-0.1C205.5,76.4,205,76,205,75.4L205,75.4z M212,76.3c-0.6,0-1.1-0.5-1-1.1l0,0 l0,0c0-0.6,0.5-1.1,1.1-1l0,0c0.6,0,1.1,0.5,1,1.1l0,0C213.1,75.9,212.6,76.3,212,76.3L212,76.3z"></path><g class="st4">	<circle class="st24" cx="210.2" cy="149.5" r="65"></circle></g><circle class="st10" cx="210.2" cy="147" r="65"></circle><linearGradient id="SVGID_13_" gradientUnits="userSpaceOnUse" x1="151.6348" y1="-152.4446" x2="268.8273" y2="-152.4446" gradientTransform="matrix(1 0 0 -1 0 -5.4416)">	<stop offset="1.100000e-02" style="stop-color:#00B5ED"></stop>	<stop offset="0.993" style="stop-color:#2254A1"></stop></linearGradient><circle class="st25" cx="210.2" cy="147" r="58.6"></circle><path class="st10" d="M24.9,226c-2.1,0-3.3,1.6-3.3,3.7c0,2.3,1.5,3.6,3.3,3.6c1.7,0,3.3-1.3,3.3-3.8C28,227.5,26.9,226,24.9,226z  M24.8,231.8c-0.8,0-1.2-0.9-1.2-2.2c0-1.2,0.4-2.2,1.2-2.2s1.2,1,1.2,2.2C26,231,25.6,231.8,24.8,231.8L24.8,231.8z"></path><path class="st10" d="M19.5,224.6c0-2.1-1.2-3.5-3.2-3.5s-3.3,1.6-3.3,3.7c0,2.3,1.4,3.6,3.3,3.6C17.9,228.3,19.5,227.1,19.5,224.6z  M16.2,226.8c-0.8,0-1.2-0.9-1.2-2.2c0-1.2,0.4-2.2,1.2-2.2c0.9,0,1.2,1,1.2,2.2C17.3,226,17,226.8,16.2,226.8L16.2,226.8z"></path><polygon class="st10" points="23.1,221 16.3,233.4 17.8,233.4 24.7,221 "></polygon><polygon class="st10" points="388.1,229.6 389.7,229.6 389.7,226.8 392.1,226.8 392.1,225.6 389.7,225.6 389.7,224.1 392.3,224.1  392.3,222.8 388.1,222.8 "></polygon><polygon class="st10" points="401.5,226.7 403.9,226.7 403.9,225.5 401.5,225.5 401.5,224.1 404.1,224.1 404.1,222.8 399.9,222.8  399.9,229.6 404.2,229.6 404.2,228.3 401.5,228.3 "></polygon><path class="st10" d="M397.3,226.4L397.3,226.4c0.7-0.3,1.2-1,1.2-1.7c0.1-0.6-0.2-1.1-0.6-1.4c-0.5-0.4-1.2-0.6-2.2-0.6 c-0.7,0-1.4,0.1-2.1,0.2v6.7h1.5v-2.7h0.5c0.6,0,0.9,0.3,1.1,1.1c0.1,0.6,0.3,1.1,0.5,1.6h1.6c-0.2-0.3-0.4-1.2-0.6-1.9 C398.2,227.1,397.8,226.6,397.3,226.4z M395.8,225.8h-0.6V224c0.3-0.1,0.5-0.1,0.7-0.1c0.7,0,1.1,0.3,1.1,1 C397,225.4,396.6,225.8,395.8,225.8L395.8,225.8z"></path><polygon class="st10" points="407,226.7 409.6,226.7 409.6,225.5 407,225.5 407,224.1 409.7,224.1 409.7,222.8 405.5,222.8  405.5,229.6 409.9,229.6 409.9,228.3 407,228.3 "></polygon><path class="st10" d="M399.3,56.4c-5.9,0-10.7,4.8-10.7,10.7s4.8,10.7,10.7,10.7c5.9,0,10.7-4.8,10.7-10.7 C410,61.2,405.2,56.4,399.3,56.4z M398.4,72.6c-1.4-0.3-2.4-1.3-2.9-2.9l1.1-0.3c0.2,1,0.9,1.7,1.8,2L398.4,72.6L398.4,72.6z  M398.4,62.7L398.4,62.7c-1,0.2-1.6,1-1.4,1.9c0.1,0.7,0.7,1.3,1.4,1.4v1.3c-1.2-0.3-2.1-1.2-2.4-2.4c-0.1-0.4-0.1-0.7,0-1.1 c0.3-1,1-1.8,2-2.2c0.1-0.1,0.2-0.1,0.4-0.1V62.7z M399.7,73.4h-0.9V60.8h0.9V73.4z M400.1,61.6c1.4,0.2,2.3,1.1,2.7,2.6l-1.1,0.4 c-0.1-0.6-0.4-1.1-0.9-1.4c-0.2-0.2-0.5-0.3-0.7-0.4V61.6z M400.3,72.6c-0.1,0-0.1,0-0.2,0v-1.2c0.1,0,0.2-0.1,0.3-0.1 c0.3-0.1,0.6-0.2,0.9-0.4c0.5-0.3,0.8-0.9,0.9-1.5c0-0.9-0.9-1.7-2-1.9v-1.2c1.8,0.6,3,1.7,3,3C403.1,70.9,402,72.1,400.3,72.6 L400.3,72.6z"></path><rect x="21.7" y="63.3" class="st10" width="7.3" height="4.1"></rect><path class="st10" d="M23.2,62.6c0,0,2.8-1.1,2-2.4c-0.8-1.1-2.6,0.7-3,1c0.1,0.2,0.2,0.3,0.2,0.5v0.1c0,0.4-0.4,0.8-0.8,0.8h-0.7 c-0.4,0-0.8-0.4-0.8-0.8l0,0l0,0c0-0.2,0.1-0.3,0.2-0.5c-0.4-0.4-2.2-2.1-3-1c-0.9,1.2,2,2.4,2,2.4c-4.7-0.1-3.6-3-2.6-3.9 c1-1,1.5-0.2,1.5-0.2l2.3,2.5c0.2-0.1,0.3-0.2,0.5-0.2h0.7c0.2,0,0.3,0.1,0.5,0.2l2.3-2.5c0,0,0.5-0.8,1.5,0.2 C26.9,59.7,27.9,62.6,23.2,62.6z"></path><rect x="13.4" y="63.3" class="st10" width="7.3" height="4.1"></rect><rect x="14.4" y="68.5" class="st10" width="6.2" height="6.2"></rect><rect x="21.7" y="68.6" class="st10" width="6.2" height="6.2"></rect><path class="st10" d="M173.2,144.4c0,1.9-0.6,3.4-1.8,4.4s-2.9,1.5-5.1,1.5h-1.6v6.3h-3.8v-17.8h5.7c2.2,0,3.8,0.5,4.9,1.4 C172.7,141.2,173.2,142.6,173.2,144.4z M164.7,147.3h1.3c0.9,0.1,1.8-0.2,2.6-0.7c0.6-0.5,0.9-1.2,0.9-2c0.1-0.7-0.2-1.5-0.7-2 c-0.7-0.5-1.5-0.7-2.3-0.7h-1.7L164.7,147.3z"></path><path class="st10" d="M180.3,149.8v6.8h-3.8v-17.8h5.2c2.4,0,4.2,0.5,5.3,1.3s1.8,2.2,1.8,4c0,1-0.3,2-0.9,2.8 c-0.6,0.9-1.5,1.5-2.4,1.9c2.7,4,4.4,6.6,5.2,7.8h-4.2l-4.2-6.8L180.3,149.8L180.3,149.8z M180.3,146.8h1.2c0.9,0.1,1.8-0.2,2.6-0.6 c0.6-0.5,0.9-1.2,0.9-1.9c0.1-0.7-0.3-1.4-0.9-1.8c-0.9-0.4-1.8-0.6-2.7-0.6h-1.2L180.3,146.8L180.3,146.8z"></path><path class="st10" d="M193,156.6v-17.8h3.8v17.8H193z"></path><path class="st10" d="M208.8,141.8c-1.3-0.1-2.5,0.6-3.3,1.6s-1.2,2.6-1.2,4.4c0,4,1.5,6,4.5,6c1.6-0.1,3.1-0.4,4.5-1v3.2 c-1.6,0.6-3.2,1-4.9,0.9c-2.6,0-4.6-0.8-6-2.4c-1.4-1.6-2.1-3.8-2.1-6.8c-0.1-1.7,0.3-3.3,1-4.8c0.6-1.3,1.6-2.5,2.9-3.2 c1.4-0.8,2.9-1.2,4.4-1.1c1.8,0,3.6,0.5,5.2,1.3l-1.2,3.1c-0.7-0.3-1.3-0.6-2-0.8C210.2,141.9,209.5,141.8,208.8,141.8z"></path><path class="st10" d="M217.1,156.6v-17.8h3.8v17.8H217.1z"></path><path class="st10" d="M241.1,156.6h-4.8l-7.7-13.5h-0.1c0.2,2.4,0.3,4.1,0.3,5.1v8.4h-3.4v-17.8h4.7l7.7,13.3h0.1 c-0.1-2.3-0.2-3.9-0.2-4.9v-8.4h3.4V156.6z"></path><path class="st10" d="M252.4,146.7h7.1v9.2c-1.1,0.4-2.1,0.6-3.2,0.8c-1,0.2-2.1,0.2-3.1,0.2c-2.7,0-4.7-0.8-6.2-2.4 c-1.4-1.6-2.1-3.8-2.1-6.8c0-2.9,0.8-5.1,2.5-6.7c1.7-1.6,3.9-2.4,6.8-2.4c1.8,0,3.6,0.4,5.3,1.1l-1.3,3c-1.3-0.7-2.6-1-4-1 c-1.5-0.1-2.9,0.6-3.9,1.7c-1,1.1-1.5,2.6-1.5,4.4c0,1.9,0.4,3.4,1.2,4.4c0.9,1.1,2.1,1.6,3.4,1.5c0.8,0,1.6-0.1,2.4-0.3v-3.7h-3.4 L252.4,146.7z"></path></svg>