<svg xmlns="http://www.w3.org/2000/svg" viewBox="0 0 352.51 391.3"><defs><style>.cls-1{fill:#fff;}.cls-2{fill:#e0e0e0;}.cls-3{fill:#263238;}.cls-4{fill:#01c0f4;}.cls-10,.cls-5{opacity:0.3;}.cls-6{fill:#455a64;}.cls-7{fill:#ffbf9d;}.cls-8{fill:#ff9a6c;}.cls-9{opacity:0.6;}.cls-11{opacity:0.7;}</style></defs><title>steps</title><g id="Background_Complete" data-name="Background Complete"><polygon class="cls-1" points="69.3 155.61 112.42 153.63 104.59 195.74 69.3 155.61"></polygon><rect class="cls-1" x="42.02" y="155.61" width="24.34" height="98.43" transform="translate(172.24 28.88) rotate(48.68)"></rect><polygon class="cls-1" points="245.19 90.53 288.31 88.55 280.48 130.66 245.19 90.53"></polygon><rect class="cls-1" x="217.92" y="90.53" width="24.34" height="98.43" transform="translate(183.11 -125.33) rotate(48.68)"></rect><polygon class="cls-1" points="80.09 100.31 107.76 99.04 102.73 126.06 80.09 100.31"></polygon><rect class="cls-1" x="62.59" y="100.31" width="15.62" height="63.15" transform="translate(122.97 -8.07) rotate(48.68)"></rect><polygon class="cls-1" points="316.39 101.78 344.05 100.51 339.02 127.53 316.39 101.78"></polygon><rect class="cls-1" x="298.88" y="101.78" width="15.62" height="63.15" transform="translate(204.35 -185.03) rotate(48.68)"></rect><rect class="cls-1" x="211.65" y="324.22" width="43.83" height="14.48" rx="2.43"></rect><path class="cls-2" d="M264,324.29a2.5,2.5,0,0,0,1.06-.35,2.07,2.07,0,0,0,.83-1.05,6.75,6.75,0,0,0,.1-1.86c0-1.44,0-3.19,0-5.22,0-1,0-2.1,0-3.25a2.88,2.88,0,0,0-.27-1.65,1.91,1.91,0,0,0-1.39-.93l-40,0a1.87,1.87,0,0,0-1.83,1.54c-.06.89,0,1.9,0,2.84v7a5.49,5.49,0,0,0,.06,1.3,1.86,1.86,0,0,0,1.76,1.38h5.19l18,.05,12.11.07,3.3,0,.86,0a1.11,1.11,0,0,1,.29,0l-.29,0-.86,0-3.3,0-12.11.07-18,.05h-5.2a2.31,2.31,0,0,1-2.17-1.7,6.26,6.26,0,0,1-.08-1.41v-7c0-1,0-1.88,0-2.91a2.31,2.31,0,0,1,2.27-1.91c15.61,0,29.72,0,40,.09a2.2,2.2,0,0,1,1.61,1.09,2.26,2.26,0,0,1,.29.91c0,.32,0,.6,0,.89,0,1.15,0,2.24,0,3.25,0,2,0,3.78,0,5.22a6.42,6.42,0,0,1-.15,1.91,2.09,2.09,0,0,1-.9,1.07,2,2,0,0,1-.82.28Z"></path><rect class="cls-1" y="64.49" width="43.83" height="14.48" rx="2.43"></rect><path class="cls-2" d="M63.68,64.49a2.54,2.54,0,0,0,1.06-.35,2,2,0,0,0,.82-1,6.1,6.1,0,0,0,.1-1.87c0-1.44,0-3.18,0-5.21,0-1,0-2.1,0-3.25a2.85,2.85,0,0,0-.27-1.65,1.92,1.92,0,0,0-1.4-.93L24,50.23a1.86,1.86,0,0,0-1.82,1.54c-.06.89,0,1.9,0,2.83,0,1.9,0,3.78,0,5.62v1.37a6,6,0,0,0,.07,1.3A1.86,1.86,0,0,0,24,64.28h5.19l18,0,12.11.07,3.3,0,.85,0,.3,0a1.16,1.16,0,0,1-.3,0l-.85,0-3.3,0-12.11.07-18,0H24A2.29,2.29,0,0,1,21.78,63a6.23,6.23,0,0,1-.08-1.41v-7c0-1,0-1.87,0-2.9A2.31,2.31,0,0,1,24,49.79c15.62,0,29.73,0,40,.09A2.25,2.25,0,0,1,65.6,51a2.36,2.36,0,0,1,.29.92c0,.32,0,.59,0,.89,0,1.15,0,2.23,0,3.25,0,2,0,3.77,0,5.21a6.7,6.7,0,0,1-.15,1.91,2.08,2.08,0,0,1-.9,1.08,1.79,1.79,0,0,1-.82.27A1.07,1.07,0,0,1,63.68,64.49Z"></path><rect class="cls-1" x="308.68" y="350.07" width="43.83" height="14.48" rx="2.43"></rect><path class="cls-2" d="M342.39,256.11a2.5,2.5,0,0,0,1.06-.35,2,2,0,0,0,.83-1,6.8,6.8,0,0,0,.1-1.87c0-1.44,0-3.19,0-5.21,0-1,0-2.1,0-3.25a2.9,2.9,0,0,0-.27-1.66,1.92,1.92,0,0,0-1.39-.92l-40,0a1.86,1.86,0,0,0-1.83,1.54c-.06.89,0,1.9,0,2.83v5.62c0,.46,0,.92,0,1.37a6,6,0,0,0,.07,1.3,1.87,1.87,0,0,0,1.76,1.39h5.19l18,0,12.11.08,3.3,0,.86,0,.29,0a.94.94,0,0,1-.29,0l-.86,0-3.3,0-12.11.07-18,.05h-5.2a2.29,2.29,0,0,1-2.17-1.7,6.23,6.23,0,0,1-.08-1.41v-7c0-1,0-1.87,0-2.9a2.31,2.31,0,0,1,2.27-1.91c15.61,0,29.72,0,40,.08a2.27,2.27,0,0,1,1.61,1.09,2.36,2.36,0,0,1,.29.92c0,.32,0,.59,0,.89,0,1.15,0,2.23,0,3.25,0,2,0,3.77,0,5.21a6.39,6.39,0,0,1-.15,1.91,2.06,2.06,0,0,1-1.72,1.35A1.07,1.07,0,0,1,342.39,256.11Z"></path><path class="cls-2" d="M74,293.2a2.54,2.54,0,0,0,1.06-.35,2,2,0,0,0,.82-1.05,6.05,6.05,0,0,0,.1-1.86c0-1.44,0-3.19,0-5.21,0-1,0-2.11,0-3.26a2.88,2.88,0,0,0-.27-1.65,2,2,0,0,0-1.4-.93l-39.95.05a1.85,1.85,0,0,0-1.82,1.54c-.06.88,0,1.9,0,2.83,0,1.9,0,3.77,0,5.61v1.38a6,6,0,0,0,.07,1.3A1.86,1.86,0,0,0,34.32,293h5.19l18,.05,12.11.07,3.3,0,.85,0a1,1,0,0,1,.3,0l-.3,0-.85,0-3.3.05-12.11.07-18,0h-5.2a2.29,2.29,0,0,1-2.17-1.7,6.26,6.26,0,0,1-.08-1.41v-7c0-1,0-1.87,0-2.91a2.31,2.31,0,0,1,2.26-1.91c15.62,0,29.73,0,40,.09A2.26,2.26,0,0,1,76,279.67a2.31,2.31,0,0,1,.29.91c0,.33,0,.6,0,.89,0,1.15,0,2.24,0,3.26,0,2,0,3.77,0,5.21a6.73,6.73,0,0,1-.15,1.91,2.12,2.12,0,0,1-.9,1.08,2.08,2.08,0,0,1-.82.27A1.07,1.07,0,0,1,74,293.2Z"></path><path class="cls-2" d="M328.52,67.89a2.52,2.52,0,0,0,1.07-.35,2,2,0,0,0,.82-1,6.47,6.47,0,0,0,.1-1.87c0-1.44,0-3.19,0-5.21,0-1,0-2.11,0-3.26a3,3,0,0,0-.27-1.65,2,2,0,0,0-1.4-.93l-40,.05A1.87,1.87,0,0,0,287,55.17c-.05.88,0,1.9,0,2.83,0,1.9,0,3.78,0,5.62V65a6.71,6.71,0,0,0,.06,1.3,1.88,1.88,0,0,0,1.76,1.39H294l18,0,12.11.07,3.29,0,.86,0a1.64,1.64,0,0,1,.29,0,.94.94,0,0,1-.29,0l-.86,0-3.29,0L312,68.05l-18,0H288.8a2.28,2.28,0,0,1-2.17-1.7,5.7,5.7,0,0,1-.08-1.41V63.62c0-1.84,0-3.72,0-5.62,0-1,0-1.87,0-2.91a2.31,2.31,0,0,1,2.26-1.91c15.62,0,29.72,0,40,.09a2.25,2.25,0,0,1,1.6,1.09,2,2,0,0,1,.29.91c0,.33,0,.6,0,.89,0,1.15,0,2.24,0,3.26,0,2,0,3.77,0,5.21a6.41,6.41,0,0,1-.14,1.91,2.16,2.16,0,0,1-.9,1.08,2.13,2.13,0,0,1-.82.27A1.13,1.13,0,0,1,328.52,67.89Z"></path><rect class="cls-1" x="131.12" y="362.68" width="43.83" height="14.48" rx="2.43"></rect><rect class="cls-1" x="300.63" width="43.83" height="14.48" rx="2.43"></rect></g><g id="Stairs"><path class="cls-3" d="M.08,390.19l.23,0,.67,0,2.67,0L14,390l38.51-.13-.28.28c0-10.73-.05-22.91-.07-36.29v-.35h.35l60.15-.06-.41.41c0-10.73,0-22,0-33.61v-.43h67.75l-.44.44c0-13.17,0-26.05,0-38.54v-.44h.43l67.79.05-.39.39c0-24.15.07-45.43.1-63v-.29h.29l42.58.14,11.36.07,2.93,0,.75,0,.25,0a.67.67,0,0,1-.25,0l-.75,0-2.93,0-11.36.08-42.58.13.29-.29c0,17.59.06,38.87.1,63v.38h-.39l-67.79.05.44-.43v39H112.63l.43-.44c0,11.61,0,22.88,0,33.61v.41h-.41l-60.15-.07.34-.34c0,13.38,0,25.56-.07,36.29v.28h-.27L14,390.34l-10.32-.07-2.67,0-.67,0Z"></path></g><g id="Plant"><path class="cls-4" d="M16.87,347.57a8.12,8.12,0,0,1,4.24,4.8,14.33,14.33,0,0,1,.56,6.51c-.47,4.22-2.87,8.48-5.46,11.86-3.55-3.11-4.37-8.52-4.61-11.29-.39-4.38,1.58-12.54,5.27-11.88"></path><path class="cls-4" d="M20.35,377.7a7,7,0,0,1,2.25-6.63,9.27,9.27,0,0,1,6.84-2.14,3.93,3.93,0,0,1,3,1.35,3,3,0,0,1,.05,3,6.06,6.06,0,0,1-2.24,2.2c-3.08,1.93-6.42,3.24-9.9,2.19"></path><path class="cls-4" d="M20.35,377.7a7,7,0,0,1,2.25-6.63,9.27,9.27,0,0,1,6.84-2.14,3.93,3.93,0,0,1,3,1.35,3,3,0,0,1,.05,3,6.06,6.06,0,0,1-2.24,2.2c-3.08,1.93-6.42,3.24-9.9,2.19"></path><path class="cls-3" d="M15.79,390.65a4.64,4.64,0,0,1,.12-.87c.12-.61.26-1.39.43-2.34A24.72,24.72,0,0,1,18.76,380a15,15,0,0,1,5.38-5.71,9.82,9.82,0,0,1,2.19-1,5.25,5.25,0,0,1,.63-.16l.23,0a16.37,16.37,0,0,0-2.94,1.35A15.51,15.51,0,0,0,19,380.1a26.21,26.21,0,0,0-2.47,7.38c-.22,1-.39,1.78-.53,2.33A4.33,4.33,0,0,1,15.79,390.65Z"></path><path class="cls-3" d="M15.92,353.91a1.42,1.42,0,0,1,0,.38c0,.28,0,.64.07,1.08,0,.95.11,2.32.16,4,.11,3.38.2,8.06.17,13.22s-.15,9.85-.28,13.23c-.07,1.69-.14,3.06-.2,4,0,.45-.06.81-.07,1.09a1.65,1.65,0,0,1-.05.38,1.59,1.59,0,0,1,0-.38c0-.28,0-.65,0-1.09,0-1,.06-2.35.1-4,.08-3.38.17-8.05.2-13.22s0-9.83-.09-13.22c0-1.66-.05-3-.06-4,0-.45,0-.81,0-1.09A1.59,1.59,0,0,1,15.92,353.91Z"></path><path class="cls-4" d="M14.2,380.27a16.37,16.37,0,0,0-8.92-12c-1.19-.57-2.74-.94-3.72-.05s-.76,2.47-.28,3.7a14,14,0,0,0,12.83,8.66"></path><path class="cls-3" d="M5.85,372.32a4.19,4.19,0,0,1,.76.33,7.27,7.27,0,0,1,.85.45,12.3,12.3,0,0,1,1.09.68c.38.28.82.57,1.24.94a15.77,15.77,0,0,1,1.32,1.2,17.87,17.87,0,0,1,2.51,3.22,18.35,18.35,0,0,1,1.66,3.74,16.61,16.61,0,0,1,.41,1.74,13.9,13.9,0,0,1,.22,1.54c.06.47,0,.9.06,1.28a9.34,9.34,0,0,1,0,1,4.21,4.21,0,0,1-.09.81c-.07,0,.05-1.17-.16-3a13.93,13.93,0,0,0-.25-1.51A13.78,13.78,0,0,0,15,383a18,18,0,0,0-1.64-3.67,19.14,19.14,0,0,0-2.45-3.19c-.44-.43-.86-.85-1.29-1.2a13.42,13.42,0,0,0-1.2-1C6.89,372.86,5.82,372.38,5.85,372.32Z"></path></g><g id="Speech_Bubble" data-name="Speech Bubble"><path class="cls-1" d="M212.3,45.87l7.46-3.58a26.64,26.64,0,1,1-1.29,9.46h0Z"></path><path class="cls-4" d="M212.3,45.87s.12.13.38.38l1.15,1.13,4.58,4.45a.1.1,0,0,0,.13,0s0,0,0,0h0l-.18,0a26.67,26.67,0,0,0,3.71,12.55,27.12,27.12,0,0,0,2.39,3.38,29,29,0,0,0,3.13,3.15,26.58,26.58,0,0,0,8.33,4.9,26.67,26.67,0,0,0,30.82-9.53,26.29,26.29,0,0,0,4.76-11.85l.21-1.64.06-1.64,0-.82-.05-.81-.1-1.63c-.05-.54-.16-1.07-.24-1.6a13.75,13.75,0,0,0-.29-1.58,24.49,24.49,0,0,0-.91-3.06,26.45,26.45,0,0,0-16.54-16.3,26.72,26.72,0,0,0-20,1.1,28.76,28.76,0,0,0-3.86,2.21,34.53,34.53,0,0,0-3.22,2.62,26.36,26.36,0,0,0-6.94,11.07l0-.06-5.55,2.73-1.41.69-.46.24.51-.23,1.45-.67,5.54-2.59s0,0,0-.06a26.46,26.46,0,0,1,7-10.91A33.49,33.49,0,0,1,230,28.83a28.81,28.81,0,0,1,3.83-2.16,26.51,26.51,0,0,1,29.45,4.88,26.85,26.85,0,0,1,6.54,10.16,26,26,0,0,1,.89,3c.15.51.19,1,.29,1.56s.18,1,.23,1.58l.1,1.6,0,.8,0,.8-.05,1.62-.21,1.61A25.89,25.89,0,0,1,266.41,66a26.18,26.18,0,0,1-9,7.92,26.6,26.6,0,0,1-21.31,1.52,26.35,26.35,0,0,1-8.24-4.81,28.35,28.35,0,0,1-3.1-3.1,24.93,24.93,0,0,1-2.38-3.33,26.55,26.55,0,0,1-3.77-12.41.1.1,0,0,0-.19,0h0l.15-.05-4.6-4.32-1.2-1.12Z"></path><circle class="cls-4" cx="245.14" cy="51.86" r="15.72"></circle><circle class="cls-5" cx="245.14" cy="51.86" r="15.72"></circle><circle class="cls-4" cx="245.14" cy="50.12" r="15.72" transform="translate(-0.74 96.5) rotate(-22.24)"></circle><circle class="cls-1" cx="245.14" cy="50.12" r="10.53" transform="translate(36.36 188.02) rotate(-45)"></circle><circle class="cls-4" cx="245.14" cy="50.12" r="5.15"></circle><polygon class="cls-6" points="256.1 38.62 255.67 35.26 259.08 31.61 259.33 35.23 256.1 38.62"></polygon><polygon class="cls-6" points="263.42 35.95 259.96 35.67 256.49 39.01 259.96 39.38 263.42 35.95"></polygon><path class="cls-5" d="M245.83,50.05l12-9.18A14.32,14.32,0,0,0,256.34,39L245.83,49.23Z"></path><path class="cls-3" d="M259.47,34.72l-4.89,4.9-7.76,7.76L245,49.16a.63.63,0,0,0,.89.88l4.89-4.9,7.76-7.76,1.78-1.78a.62.62,0,0,0-.88-.88Z"></path></g><g id="Character"><path class="cls-7" d="M169.24,58.16,172.49,22c.52-9,6.2-16.24,15.2-15.47l.83.12a16.14,16.14,0,0,1,13.81,17c-.49,7.82-1.13,16.44-1.78,20.58-1.34,8.56-10.12,8.66-10.12,8.66s-.59,5.24-.84,7.77l-1.09,5.89-4.4-2.23Z"></path><path class="cls-8" d="M190.46,52.6a20.92,20.92,0,0,1-10.69-4.91s1.76,6.84,10.43,7.3Z"></path><path class="cls-3" d="M198.55,31.08a1.24,1.24,0,0,1-1.36,1.07,1.18,1.18,0,0,1-1.1-1.29,1.23,1.23,0,0,1,1.35-1.06A1.18,1.18,0,0,1,198.55,31.08Z"></path><path class="cls-3" d="M200,26.89c-.17.14-1-.68-2.32-.87s-2.38.34-2.5.15.14-.34.6-.59a3.38,3.38,0,0,1,2-.32,3.28,3.28,0,0,1,1.82.89C200,26.52,200.08,26.83,200,26.89Z"></path><path class="cls-3" d="M187,29.53a1.24,1.24,0,0,1-1.36,1.07,1.2,1.2,0,0,1-1.1-1.29,1.24,1.24,0,0,1,1.36-1.07A1.18,1.18,0,0,1,187,29.53Z"></path><path class="cls-3" d="M187,25.33c-.18.14-1-.68-2.33-.87s-2.38.34-2.5.15.14-.34.6-.59a3.46,3.46,0,0,1,2-.32,3.34,3.34,0,0,1,1.82.89C187,25,187.11,25.27,187,25.33Z"></path><path class="cls-3" d="M190.29,36.15a8.66,8.66,0,0,1,2.2-.08c.34,0,.67,0,.76-.23a1.74,1.74,0,0,0-.08-1l-.63-2.71a46.11,46.11,0,0,1-1.27-7A44,44,0,0,1,193.11,32c.2.95.39,1.86.58,2.72a2,2,0,0,1,0,1.35.89.89,0,0,1-.62.41,2.89,2.89,0,0,1-.59,0A9.78,9.78,0,0,1,190.29,36.15Z"></path><path class="cls-3" d="M188.05,21.27c-.23.31-1.46-.23-3-.48s-2.89-.21-3-.58c0-.17.27-.44.85-.63a5,5,0,0,1,2.38-.13,5.17,5.17,0,0,1,2.2.93C188,20.77,188.15,21.12,188.05,21.27Z"></path><path class="cls-3" d="M200.61,23c-.31.27-1.35-.18-2.64-.36s-2.41-.11-2.62-.46c-.1-.16.12-.44.63-.66a4.19,4.19,0,0,1,2.21-.22,4.08,4.08,0,0,1,2,.88C200.64,22.57,200.75,22.89,200.61,23Z"></path><path class="cls-7" d="M172.31,28.18c-.14-.09-5.64-2.6-6.3,3.29s5.39,5.34,5.42,5.17S172.31,28.18,172.31,28.18Z"></path><path class="cls-8" d="M169.88,34.21s-.11.06-.29.12a1,1,0,0,1-.77-.07,2.55,2.55,0,0,1-.92-2.41,3.3,3.3,0,0,1,.45-1.44,1.19,1.19,0,0,1,.86-.7.52.52,0,0,1,.57.35c.06.17,0,.29,0,.3s.14-.08.12-.33a.7.7,0,0,0-.19-.4.78.78,0,0,0-.55-.21,1.45,1.45,0,0,0-1.18.79,3.58,3.58,0,0,0-.54,1.61,2.68,2.68,0,0,0,1.22,2.71,1.1,1.1,0,0,0,1-.05C169.85,34.35,169.9,34.22,169.88,34.21Z"></path><path class="cls-3" d="M215.06,16.83a1.36,1.36,0,0,0-.56-.89,4.23,4.23,0,0,0-2.17-.61,12.53,12.53,0,0,1-5.23-2,6.17,6.17,0,0,0,1.71-.93,3.73,3.73,0,0,0,1.48-3.56.78.78,0,0,0-.4-.61c-.36-.16-.74.17-1,.44a3.21,3.21,0,0,1-3.14.93,5.37,5.37,0,0,1-2.17-.92l-.06-.09-.8-1h0a19.84,19.84,0,0,0-5.57-5.21,20.14,20.14,0,0,0-10.59-2c-3.09.44-6.06,2.57-6.82,5.59-1.52-1.61-4-1.89-6.19-1.29l0,0c-2.37.55-3.94,2.81-4.88,5.06l-.15.37A9,9,0,0,1,165,12.7c-.24.11-.51.23-.56.49s.13.48.32.65a4.54,4.54,0,0,0,1.76,1,10.37,10.37,0,0,1-.94,1.52c-.31.41-.67.9-.5,1.37a1,1,0,0,0,1,.56,2.79,2.79,0,0,0,1.11-.36c-.32.58-.64,1.16-1,1.74a5.42,5.42,0,0,0,2.5.12c.24,2.23.15,6.3.54,7.83,1.56.21,2,.08,2.72.43,1,.46.38,2.22,1.77,1.86.71-.19,2-2.63,2.34-3.29a34,34,0,0,0,3.08-14.07,10.75,10.75,0,0,1,3.61-2l-.11.08c2.5-.57,5.32-1.08,7.47.31,1.68,1.08,2.51,3,3.67,4.66A12.4,12.4,0,0,0,202.38,21c.05,2.64-.34,6.91-.49,9.35l2.63-4.62v0a9.33,9.33,0,0,0,.53-.81l.06-.09h0c.27-.43.52-.87.84-1.3l0,0a1.53,1.53,0,0,0,2.45-1.77,3.46,3.46,0,0,0-.65-.82,2.43,2.43,0,0,0,2.22.85,1.9,1.9,0,0,0,1.54-1.71,1.61,1.61,0,0,0-.81-1.39,5.48,5.48,0,0,0,3.15-.33C214.52,18.11,215.18,17.61,215.06,16.83Z"></path><path class="cls-6" d="M182.3,7.24a8.4,8.4,0,0,0-1,.69,6.35,6.35,0,0,0-1.65,2.72,10.93,10.93,0,0,0-.47,2.16c-.09.8-.12,1.65-.17,2.56a22,22,0,0,1-.25,2.83,9.89,9.89,0,0,1-.37,1.47,3.07,3.07,0,0,1-.77,1.38,1.32,1.32,0,0,1-1.26.27,2,2,0,0,1-1-.75,4.53,4.53,0,0,1-.58-2.28l.18,0A7.41,7.41,0,0,1,173.72,20a2.67,2.67,0,0,1-1.79.72,1.64,1.64,0,0,1-.87-.26,1.41,1.41,0,0,1-.53-.66,1.55,1.55,0,0,1-.1-.79,1,1,0,0,1,.35-.63l.09.09a5.71,5.71,0,0,1-2,1.18,4.65,4.65,0,0,1-.6.15.6.6,0,0,1-.22,0l.21-.06c.13,0,.33-.09.58-.19a5.57,5.57,0,0,0,1.95-1.2l.08.09a1.11,1.11,0,0,0-.2,1.27,1.27,1.27,0,0,0,.49.59,1.49,1.49,0,0,0,.79.23,2.43,2.43,0,0,0,1.65-.7,6.9,6.9,0,0,0,1.21-1.65L175,18l0,.3a4.41,4.41,0,0,0,.56,2.19,1.68,1.68,0,0,0,.91.66,1.1,1.1,0,0,0,1.08-.23,2.93,2.93,0,0,0,.71-1.28,9.48,9.48,0,0,0,.36-1.44,23.37,23.37,0,0,0,.27-2.81c0-.9.08-1.77.19-2.57a9.92,9.92,0,0,1,.5-2.19,6.1,6.1,0,0,1,1.73-2.72A3.47,3.47,0,0,1,182.3,7.24Z"></path><path class="cls-6" d="M208,18.67l-.07,0-.24.13a2.37,2.37,0,0,1-.39.19,3.85,3.85,0,0,1-.56.22,7.64,7.64,0,0,1-3.76.24A9.86,9.86,0,0,1,198,17a17.12,17.12,0,0,1-3.88-5.66c-.51-1.12-.9-2.25-1.35-3.3a11.09,11.09,0,0,0-1.63-2.84,5.78,5.78,0,0,0-2.31-1.79,4.31,4.31,0,0,0-1.29-.3,4.52,4.52,0,0,0-1.23.09,5.16,5.16,0,0,0-1.92.88,4.92,4.92,0,0,0-1.11,1.15,5.88,5.88,0,0,0-.6,1.24.66.66,0,0,0,0-.09l.07-.26a4.53,4.53,0,0,1,.44-.93A4.84,4.84,0,0,1,184.32,4a5.11,5.11,0,0,1,2-.93,4.37,4.37,0,0,1,2.62.19,6,6,0,0,1,2.39,1.83A11.62,11.62,0,0,1,193,8c.45,1.06.84,2.19,1.35,3.29a17,17,0,0,0,3.82,5.61A9.71,9.71,0,0,0,203,19.36a7.74,7.74,0,0,0,3.72-.18A11.7,11.7,0,0,0,208,18.67Z"></path><path class="cls-6" d="M209.23,15l-.34.18a7.18,7.18,0,0,1-1,.36,8.68,8.68,0,0,1-1.51.31,9.7,9.7,0,0,1-1.88,0,10,10,0,0,1-1.85-.33,9.23,9.23,0,0,1-1.44-.56,6.74,6.74,0,0,1-.89-.51,1.48,1.48,0,0,1-.3-.23s.47.27,1.25.61a9.8,9.8,0,0,0,1.43.5,10.58,10.58,0,0,0,1.82.32,10.37,10.37,0,0,0,3.33-.28C208.72,15.15,209.21,14.93,209.23,15Z"></path><path class="cls-3" d="M189.76,40.16c0-.22-1.5.18-2.86-.78s-1.64-2.54-1.84-2.49-.19.42,0,1.07a3.8,3.8,0,0,0,1.45,2.11,3.29,3.29,0,0,0,2.38.56C189.48,40.52,189.79,40.26,189.76,40.16Z"></path><path class="cls-6" d="M149.78,52.92a9.33,9.33,0,0,0-10.27,2.35c-4.53,4.85-21.23,37.32-23.43,43.45-3.61,10.08,4.18,18.69,10.67,19s31.88-7.82,31.88-7.82L153.1,95.38l-16.21,1.3,12.57-25.24Z"></path><path class="cls-6" d="M177.54,81.5s6.25,31.67,9.22,34.23,26.48,13.09,26.48,13.09l7-11.44L201.6,106l-.09-24c-.19-6.79-2.91-11-6-13.31Z"></path><path class="cls-6" d="M190.75,59.91l-4.23,5.48-2.63-6.79L169,48.91l-4.35,4.18s-16.75.32-17.83,1.14C144.37,56.05,140,83.17,140,83.17l-8.48,51.14c-.72,2.05,6.41,3.48,10.53,4.49l38,5.44s4.52,1.07,5.8-1.72c1-2.24,3.2-25.86,5.38-38.76.58-3.41,1.1-15.61,1.1-15.61l4.22-18.85-4.57-3.45Z"></path><path class="cls-3" d="M142.79,85a7.74,7.74,0,0,1-.72,1.78c-.5,1.07-1.21,2.54-2,4.15s-1.57,3-2.14,4.09a8.09,8.09,0,0,1-1,1.64,8.58,8.58,0,0,1,.73-1.78c.5-1.08,1.21-2.54,2-4.15s1.58-3,2.15-4.09A9,9,0,0,1,142.79,85Z"></path><path class="cls-3" d="M183,58.8a12.85,12.85,0,0,1-1.49,1.69c-1,1-2.37,2.47-4,4.15l-.13.13-.15-.11c-1.06-.81-2.2-1.72-3.37-2.69-2.62-2.19-4.87-4.31-6.45-5.89-.79-.79-1.41-1.45-1.83-1.91s-.64-.73-.61-.76a4.69,4.69,0,0,1,.74.64l1.92,1.8c1.63,1.53,3.91,3.6,6.52,5.77,1.16,1,2.29,1.89,3.34,2.71l-.28,0c1.67-1.66,3.1-3.06,4.13-4A15.47,15.47,0,0,1,183,58.8Z"></path><path class="cls-3" d="M194.6,76.82a55.25,55.25,0,0,1-.52,7,53.31,53.31,0,0,1-1,6.91,55.36,55.36,0,0,1,.52-7A53.66,53.66,0,0,1,194.6,76.82Z"></path><path class="cls-7" d="M211.68,113.54s4.66-7.85,5.64-7.54,1.49,2.35.9,3.85-2.24,7.53-2.24,7.53Z"></path><path class="cls-6" d="M213.24,250.08,208.61,271s19.92,10.18,19.44,14.12l-41.06-6,5.88-32.82Z"></path><g class="cls-9"><path class="cls-1" d="M196.32,266.86a1.69,1.69,0,0,0-1.5,1.69,1.63,1.63,0,0,0,1.66,1.51,1.79,1.79,0,0,0,1.58-1.8,1.68,1.68,0,0,0-1.9-1.37"></path></g><g class="cls-9"><path class="cls-1" d="M187,279.09l.6-3.31L227,283a2.85,2.85,0,0,1,1.18,2.46Z"></path></g><path class="cls-3" d="M209.31,270.87c-.05.2-1.06.11-2.16.57s-1.77,1.2-1.94,1.08.34-1.2,1.68-1.74S209.38,270.7,209.31,270.87Z"></path><path class="cls-3" d="M213.26,273.43c0,.2-.92.38-1.75,1.1s-1.19,1.57-1.39,1.53-.11-1.2.94-2.07S213.29,273.24,213.26,273.43Z"></path><path class="cls-3" d="M214.75,279c-.19,0-.29-1,.43-2s1.72-1.26,1.77-1.08-.63.66-1.2,1.48S215,279,214.75,279Z"></path><path class="cls-3" d="M209.83,266c-.11.16-1-.28-2.12-.41s-2.08.06-2.15-.13.9-.74,2.24-.57S210,265.86,209.83,266Z"></path><g class="cls-10"><polygon points="212.31 254.22 211.5 257.94 191.48 254.06 192.07 250.68 212.31 254.22"></polygon></g><path class="cls-6" d="M148,287.84l-2.65,21.22s20.79,8.27,20.68,12.24l-41.44-2.11L127.32,286Z"></path><g class="cls-9"><path class="cls-1" d="M132.68,306.14a1.69,1.69,0,0,0-1.34,1.82,1.64,1.64,0,0,0,1.8,1.34,1.78,1.78,0,0,0,1.4-1.94,1.7,1.7,0,0,0-2-1.19"></path></g><g class="cls-9"><path class="cls-1" d="M124.54,319.19l.28-3.35,39.94,3.43a2.88,2.88,0,0,1,1.41,2.34Z"></path></g><path class="cls-3" d="M146,308.91c0,.2-1,.2-2.09.76s-1.66,1.37-1.84,1.27.23-1.24,1.51-1.89S146.05,308.73,146,308.91Z"></path><path class="cls-3" d="M150.16,311.09c0,.2-.87.46-1.63,1.26s-1,1.67-1.24,1.65-.23-1.18.74-2.15S150.18,310.9,150.16,311.09Z"></path><path class="cls-3" d="M152.16,316.49c-.18,0-.37-1,.24-2.06s1.6-1.42,1.67-1.24-.56.71-1.06,1.59S152.37,316.49,152.16,316.49Z"></path><path class="cls-3" d="M146.06,304c-.1.17-1-.19-2.15-.21s-2.07.26-2.16.07.83-.82,2.18-.77S146.17,303.86,146.06,304Z"></path><g class="cls-10"><polygon points="147.42 292.05 146.96 295.83 126.66 293.84 126.94 290.42 147.42 292.05"></polygon></g><circle class="cls-4" cx="112.15" cy="36.13" r="15.8" transform="translate(63.88 143.61) rotate(-83.67)"></circle><polygon class="cls-4" points="304.48 218.73 288.7 182.12 127.19 28.71 105.87 52.27 266.54 204.52 304.48 218.73"></polygon><g class="cls-11"><path class="cls-1" d="M266.54,204.52a2.35,2.35,0,0,1,3.09-2.1A7.09,7.09,0,0,1,278,191.89a8.27,8.27,0,0,1,10.84-9.49l15.66,36.33Z"></path></g><path class="cls-3" d="M298.13,204s-7.44-1.72-9.2,8.9l15.55,5.82Z"></path><path class="cls-5" d="M278,191.89,117.83,41.14l10.07-11.7L288.7,182.12l.12.28a7.81,7.81,0,0,0-3.62-.41,8.57,8.57,0,0,0-4.38,1.84,8.2,8.2,0,0,0-2.89,5A8.41,8.41,0,0,0,278,191.89Z"></path><path class="cls-5" d="M269.63,202.42l-161.08-153-2.67,3.09,160.66,152a2.51,2.51,0,0,1,2.52-2.25A3.73,3.73,0,0,1,269.63,202.42Z"></path><path class="cls-1" d="M286.47,194.17a.62.62,0,0,0-.35-.27.86.86,0,0,0-1,.51,3.31,3.31,0,0,0,0,2,2,2,0,0,0,.65,1.05,1.39,1.39,0,0,0,1.29.3,1.87,1.87,0,0,0,1-1.09,6,6,0,0,0,.39-1.65,9.15,9.15,0,0,0-.32-3.75,2.32,2.32,0,0,0-1.22-1.48,2,2,0,0,0-1.94.32,5.52,5.52,0,0,0-1.73,4,7.9,7.9,0,0,0,3.69,7.34,2,2,0,0,0,1.81.06,3.78,3.78,0,0,0,1.37-1.16,11.14,11.14,0,0,0,1.54-2.92,12.08,12.08,0,0,0,.66-4.73c0-.56-.1-1-.15-1.3s-.07-.45-.07-.45a9,9,0,0,1,.31,1.75,11.93,11.93,0,0,1-.6,4.78,11.31,11.31,0,0,1-1.54,3,3.94,3.94,0,0,1-1.44,1.23,2.26,2.26,0,0,1-2-.06,8.06,8.06,0,0,1-3.82-7.54,8,8,0,0,1,.5-2.27,4.1,4.1,0,0,1,1.32-1.85,2.29,2.29,0,0,1,2.15-.34,2.55,2.55,0,0,1,1.33,1.62,9.22,9.22,0,0,1,.31,3.83,6,6,0,0,1-.42,1.7,1.94,1.94,0,0,1-1.13,1.16,1.47,1.47,0,0,1-1.42-.33,2.14,2.14,0,0,1-.68-1.13,3.32,3.32,0,0,1,.07-2.07.91.91,0,0,1,1.12-.52A.47.47,0,0,1,286.47,194.17Z"></path><path class="cls-1" d="M282.34,210.08s.19-.41.39-1.2a8.54,8.54,0,0,0,.09-3.4,21.94,21.94,0,0,0-1.51-4.86,19.16,19.16,0,0,1-1.66-6,10.94,10.94,0,0,1,1.54-6.05,10.34,10.34,0,0,1,3.64-3.59,10.59,10.59,0,0,1,3.22-1.25,7.15,7.15,0,0,1,1.26-.16l-.32.06a8.44,8.44,0,0,0-.92.19,10.72,10.72,0,0,0-3.16,1.29,10.55,10.55,0,0,0-3.54,3.56,10.66,10.66,0,0,0-1.49,5.94,19.21,19.21,0,0,0,1.62,6,21.18,21.18,0,0,1,1.47,4.91,8.22,8.22,0,0,1-.16,3.45A4.74,4.74,0,0,1,282.34,210.08Z"></path><path class="cls-1" d="M273.54,207.29a3.39,3.39,0,0,0,1.56-1.73,18.72,18.72,0,0,0,.82-5.72,31.43,31.43,0,0,0-.4-5.79c-.11-.74-.23-1.33-.31-1.74a4.76,4.76,0,0,1-.12-.64,3,3,0,0,1,.2.62c.11.4.25,1,.39,1.73a28,28,0,0,1,.46,5.83,26.08,26.08,0,0,1-.26,3.21,9.12,9.12,0,0,1-.64,2.56,3.25,3.25,0,0,1-1.11,1.39A2,2,0,0,1,273.54,207.29Z"></path><path class="cls-1" d="M270.93,193.26a5.28,5.28,0,0,1,.5,1.21,7.19,7.19,0,0,1,.42,3.16,3.67,3.67,0,0,1-1.58,2.71,2.7,2.7,0,0,1-.91.37.86.86,0,0,1-.35,0,4,4,0,0,0,1.17-.52,3.64,3.64,0,0,0,1.45-2.61,7.87,7.87,0,0,0-.35-3.08A12.87,12.87,0,0,1,270.93,193.26Z"></path><path class="cls-1" d="M287.37,212.4s0-.05-.08-.17-.1-.29-.17-.52a2.4,2.4,0,0,1-.11-.86,2.47,2.47,0,0,1,.4-1.09,29.11,29.11,0,0,1,1.72-2.42,21.13,21.13,0,0,0,1.83-3.1,41,41,0,0,0,2.28-6.16c.21-.7.4-1.33.57-1.91s.22-.7.23-.7a3.94,3.94,0,0,1-.15.72c-.11.46-.27,1.12-.5,1.94a35.91,35.91,0,0,1-2.23,6.2,19.75,19.75,0,0,1-1.86,3.13c-.67.91-1.34,1.66-1.76,2.38a2.11,2.11,0,0,0-.33,1.85A5.22,5.22,0,0,1,287.37,212.4Z"></path><rect class="cls-2" x="96.77" y="31.69" width="33.49" height="11.45" rx="0.81" transform="translate(6.95 91.53) rotate(-45.17)"></rect><path class="cls-3" d="M128.81,30.15s.05-.06.11-.19a.85.85,0,0,0,0-.63c-.09-.26-.41-.47-.71-.78l-1.07-1-2.92-2.85-1.81-1.78L122,22.4a1.31,1.31,0,0,0-.5-.38.65.65,0,0,0-.56.09c-.15.11-.34.33-.51.49-5.65,5.72-13.42,13.56-22,22.23a.59.59,0,0,0-.06.76c.2.23.52.53.77.78L100.68,48l3.12,3.1,1.51,1.51a.6.6,0,0,0,.72.14.91.91,0,0,0,.16-.11l.18-.19.37-.36,2.87-2.88,10-9.94,6.73-6.67,1.85-1.8.49-.46.18-.15a1.14,1.14,0,0,1-.15.18l-.46.49-1.78,1.86-6.64,6.77-9.88,10L107,52.34l-.37.37-.18.19a1,1,0,0,1-1.48,0l-1.52-1.5-3.12-3.1-1.59-1.58c-.28-.28-.52-.5-.82-.84a1,1,0,0,1,.11-1.33l22.1-22.14a7.3,7.3,0,0,1,.56-.53,1,1,0,0,1,.82-.12,1.66,1.66,0,0,1,.61.46l.49.49,1.79,1.81,2.87,2.9c.38.4.73.75,1,1.06s.6.54.69.86A.82.82,0,0,1,129,30,.5.5,0,0,1,128.81,30.15Z"></path><path class="cls-3" d="M100.93,42.28A34.7,34.7,0,0,1,105.11,46,35.6,35.6,0,0,1,109,50a34.7,34.7,0,0,1-4.18-3.69A33.73,33.73,0,0,1,100.93,42.28Z"></path><path class="cls-3" d="M109.22,33.4a49.58,49.58,0,0,1,4.43,3.7A48.56,48.56,0,0,1,117.94,41a31.37,31.37,0,0,1-4.58-3.54A30.44,30.44,0,0,1,109.22,33.4Z"></path><path class="cls-3" d="M127.53,31.33a36.13,36.13,0,0,1-4.29-3.68,36.27,36.27,0,0,1-4-4,36.62,36.62,0,0,1,4.29,3.69A36.67,36.67,0,0,1,127.53,31.33Z"></path><path class="cls-7" d="M179.13,80.49s-7.61.81-9.89,1.14-5.35,1-6.41,2.76c-.44.73-7.1,10.49-7.1,10.49l-2.55.72,4.07,11.2,6.89-3.43s2.34-2.62,4.2-5.1,2.44-3.39,2.44-3.39,6.82.32,8.2-.86a1.7,1.7,0,0,0,.3-1.8l-7.44-.66s8.08,0,9.42-.91a1.69,1.69,0,0,0,.32-.25,1.27,1.27,0,0,0-.93-2.13l-8.7-.06s10-.91,10.21-2a3.84,3.84,0,0,0,.08-.55A1.23,1.23,0,0,0,181,84.35l-8.15.26s7.89-1.26,8-2.36C180.93,80.16,179.13,80.49,179.13,80.49Z"></path><path class="cls-6" d="M127.58,102.13a12.65,12.65,0,0,1,9.31-5.45l16.6-1.76,5,15.53-23.84,6.2"></path><path class="cls-3" d="M134.62,116.65a3,3,0,0,1,.45-.15l1.31-.38,4.94-1.35,17.08-4.52-.15.27c-.93-2.91-1.94-6-3-9.29l-2-6.25.23.15-11,1.14-4.72.48a15,15,0,0,0-4,.76,12.73,12.73,0,0,0-4.89,3c-1,1-1.34,1.63-1.38,1.6a3.28,3.28,0,0,1,.28-.47,10.32,10.32,0,0,1,1-1.23,12.42,12.42,0,0,1,4.9-3.19,15.23,15.23,0,0,1,4-.82l4.71-.53,11-1.19.18,0,.05.17,2,6.24c1,3.25,2,6.39,3,9.3l.07.21-.22.06L141.39,115l-5,1.23-1.33.31A1.55,1.55,0,0,1,134.62,116.65Z"></path><path class="cls-7" d="M216.57,113.27s4.78-1.63,6-.77a4.71,4.71,0,0,1,1.69,2.26s2.92,0,2,3.07c0,0,2.56.52,1.78,3.5,0,0,1.88,0,1,2.42s-4.73,7.4-5.6,8.06c-1.83,1.37-2.33-.81-1.88-1.68s3-5.66,3-5.66-4.34,6.84-5.81,5.7c-.84-.65-.66-1.66.45-3.67.77-1.39,2.18-4.13,2.18-4.13L218,126.58a1.19,1.19,0,0,1-2.1-.52,2.35,2.35,0,0,1,.17-1.28,28.13,28.13,0,0,1,2.53-4.61l-2.77,2.72a1.49,1.49,0,0,1-2.2-.13,1.44,1.44,0,0,1-.21-1.6c.76-1.53,5-6,5-6Z"></path><path class="cls-3" d="M134.35,135.69s-4,19.89.07,28.56S149,177.08,160,180.46c14.68,4.5,40.07,18.47,40.07,18.47s-3.28,14.49-5.45,23.16c-2.08,8.32-7.9,38.63-7.9,38.63l26.71,3.68,19.05-68.55s5.32-14.07-6.24-21.06c-9.9-6-44.93-29.62-44.93-29.62l-2.71-6.28Z"></path><path class="cls-3" d="M134.83,159.38l5,11.39L133,224.89s-5.79,17.8-7.07,27.19-4.1,47.21-4.1,47.21h26.19s4.05-46,11.91-59.84c6.19-10.88,10.4-29.83,10.66-31.07S180,176.83,180,176.83l-12.79-26.32Z"></path><path class="cls-6" d="M209.33,192.6a50.88,50.88,0,0,0-4.91,2.76,48.93,48.93,0,0,0-4.3,3.65,4.75,4.75,0,0,1,1-1.35,18.22,18.22,0,0,1,3-2.67,18.56,18.56,0,0,1,3.56-1.92A5.15,5.15,0,0,1,209.33,192.6Z"></path><path class="cls-6" d="M213.45,264.4l-.47,0-1.38-.16-5.3-.69-19.58-2.63-.16,0,0-.16c1.51-7.92,3.32-17.34,5.47-27.8.54-2.62,1.1-5.3,1.72-8s1.29-5.51,2-8.35c1.33-5.68,2.72-11.57,4.14-17.62l.11.25c-2-1.07-4.08-2.2-6.21-3.31-5.95-3.11-11.82-6-17.57-8.66a143.21,143.21,0,0,0-16.92-6.72,74.18,74.18,0,0,1-15.3-6.25,28.26,28.26,0,0,1-6-4.55,18.68,18.68,0,0,1-3.89-5.72,21.26,21.26,0,0,1-1.41-6.14c-.1-1-.18-1.95-.19-2.89s0-1.84,0-2.71a87.7,87.7,0,0,1,.63-9c.3-2.44.6-4.33.83-5.61.12-.62.21-1.1.28-1.44a4.59,4.59,0,0,1,.11-.49s0,.17-.07.49-.13.83-.23,1.46c-.2,1.28-.48,3.17-.74,5.61a86.83,86.83,0,0,0-.56,8.93c0,.87,0,1.77,0,2.7s.11,1.89.21,2.87a21.32,21.32,0,0,0,1.41,6,18.43,18.43,0,0,0,3.86,5.61,27.9,27.9,0,0,0,5.91,4.47,74.44,74.44,0,0,0,15.23,6.18,143.31,143.31,0,0,1,17,6.71c5.75,2.64,11.63,5.56,17.59,8.66,2.13,1.12,4.24,2.24,6.21,3.32l.15.08,0,.16-4.16,17.62q-1,4.26-2,8.35c-.62,2.72-1.19,5.4-1.73,8-2.18,10.46-4,19.87-5.57,27.77l-.13-.18,19.56,2.77,5.29.77,1.37.21Z"></path></g></svg>